<svg width="81" height="81" viewBox="0 0 81 81" fill="none" xmlns="http://www.w3.org/2000/svg">
<path d="M80.5 40.9977C80.5 18.9302 62.5556 0.988281 40.5013 0.988281C18.4466 0.988281 0.5 18.9305 0.5 40.9977C0.5 61.8445 16.5228 79.0161 36.8972 80.8423H36.9953C37.3297 80.8713 37.6648 80.8963 38.0006 80.9173L38.1944 80.9289C38.4983 80.9472 38.8068 80.961 39.1197 80.9702H39.3634C39.7422 80.9702 40.1203 80.9883 40.5034 80.9883C40.8866 80.9883 41.2259 80.9883 41.5863 80.9723H41.7391C42.0566 80.9632 42.3726 80.9503 42.6872 80.9336H42.7509C43.4576 80.8942 44.1631 80.8357 44.8666 80.758C64.8738 78.5873 80.5 61.5845 80.5 40.9977ZM44.7297 76.9498L44.3444 65.8842L54.005 59.9561C55.1136 60.7163 56.411 61.1547 57.7534 61.2229C59.0959 61.2911 60.431 60.9863 61.6109 60.3423C62.791 59.6983 63.7699 58.7403 64.4392 57.5743C65.1084 56.4084 65.4419 55.0799 65.4028 53.7361C65.2478 49.8986 62.1728 46.8227 58.3363 46.6677C57.2628 46.6293 56.1942 46.8302 55.208 47.2559C54.2218 47.6816 53.3427 48.3214 52.6344 49.1289C51.9261 49.9366 51.4063 50.8918 51.1127 51.9252C50.8191 52.9586 50.759 54.0444 50.9369 55.1039L44.1188 59.3227L43.6241 45.3798L53.1319 39.5633C56.4722 42.0583 61.1225 41.7877 64.1506 38.9217C67.1791 36.0561 67.7069 31.4267 65.4013 27.9527C63.0959 24.4786 58.6256 23.1677 54.8097 24.8464C50.9938 26.5252 48.9388 30.7067 49.9409 34.7545L43.3963 38.8177L43.0088 27.6908C44.5275 27.103 45.824 26.0544 46.7164 24.6922C47.6089 23.33 48.0524 21.7226 47.9847 20.0955C47.8228 16.2052 44.8147 13.0314 40.9394 12.662C37.0644 12.2923 33.5112 14.8408 32.6169 18.6305C31.7231 22.4202 33.7625 26.2883 37.3941 27.6908L36.6875 50.7445L29.5641 46.2048C30.0392 44.2622 29.8123 42.2142 28.9234 40.4227C27.4984 37.4583 24.6266 35.3561 21.3509 35.1508C17.2997 34.8864 13.5703 37.3589 12.2353 41.1939C10.9009 45.0289 12.2891 49.2833 15.6284 51.5923C17.2532 52.7157 19.2015 53.2752 21.1748 53.1851C23.148 53.0949 25.0372 52.3601 26.5528 51.0933L36.4822 57.3777L35.8853 76.9067C18.1047 74.638 4.29531 59.3998 4.29531 40.9973C4.30938 21.037 20.5438 4.79359 40.5013 4.79359C60.4588 4.79359 76.6931 21.0323 76.6931 40.9948C76.6931 59.5277 62.6994 74.8477 44.7297 76.9498Z" fill="#018ED5"/>
<path d="M40.2728 15.7305C42.8738 15.733 44.9816 17.8414 44.9841 20.443C44.9841 23.0458 42.8747 25.1555 40.2728 25.1555C37.6709 25.1555 35.5612 23.0458 35.5612 20.443C35.5612 17.8402 37.6706 15.7305 40.2728 15.7305ZM58.0341 49.6892C60.3934 49.688 62.3094 51.5961 62.3184 53.9561C62.3207 54.8024 62.0719 55.6304 61.6036 56.3353C61.1352 57.0402 60.4683 57.5903 59.6872 57.9161C58.9062 58.2419 58.0462 58.3286 57.2159 58.1654C56.3856 58.0022 55.6224 57.5964 55.0228 56.9992C54.4231 56.402 54.014 55.6403 53.8473 54.8105C53.6806 53.9808 53.7637 53.1202 54.0863 52.3377C54.4086 51.5553 54.9557 50.886 55.6584 50.4146C56.3611 49.9432 57.1879 49.6908 58.0341 49.6892ZM60.6703 37.2767C58.1712 38.4917 55.1606 37.4533 53.9409 34.9558C53.5049 34.0605 53.344 33.056 53.4786 32.0693C53.6132 31.0825 54.0373 30.1579 54.6972 29.412C55.3571 28.6661 56.2234 28.1327 57.1866 27.8794C58.1497 27.6261 59.1664 27.6641 60.1079 27.9889C61.0494 28.3136 61.8734 28.9103 62.4756 29.7035C63.0778 30.4967 63.4312 31.4507 63.4909 32.4448C63.5514 33.4389 63.3157 34.4286 62.8137 35.2887C62.3116 36.1488 61.5657 36.8406 60.6703 37.2767ZM20.6125 38.677C23.61 38.6795 26.0397 41.1098 26.0422 44.1083C26.0409 47.1058 23.6109 49.5348 20.6141 49.5345C17.6172 49.5342 15.1875 47.1042 15.1875 44.1064C15.1875 41.1086 17.6156 38.6783 20.6125 38.677Z" fill="#018ED5"/>
</svg>
