<svg width="81" height="81" viewBox="0 0 81 81" fill="none" xmlns="http://www.w3.org/2000/svg">
<path fill-rule="evenodd" clip-rule="evenodd" d="M44.6046 1.31488C45.4644 1.01054 46.3779 0.917233 47.2765 1.04196C48.1751 1.16668 49.0354 1.5062 49.793 2.03503C50.5505 2.56386 51.1856 3.26827 51.6505 4.09539C52.1155 4.92251 52.3982 5.85086 52.4775 6.81077L52.5015 7.37227V30.7085L67.6791 33.9414C68.944 34.2094 70.0939 34.9036 70.9586 35.9212C71.8233 36.9387 72.3567 38.2253 72.4797 39.5904L72.5037 40.1945V72.4807H76.5041C77.5237 72.4819 78.5045 72.8971 79.2459 73.6413C79.9873 74.3856 80.4335 75.4029 80.4932 76.4852C80.553 77.5676 80.2218 78.6333 79.5674 79.4647C78.913 80.2961 77.9847 80.8305 76.9722 80.9585L76.5041 80.9883H4.49613C3.4765 80.9871 2.49578 80.5719 1.75436 79.8276C1.01293 79.0834 0.566758 78.0661 0.507003 76.9838C0.447248 75.9014 0.77842 74.8357 1.43285 74.0043C2.08729 73.1729 3.01559 72.6385 4.02808 72.5105L4.49613 72.4807H8.49658V18.7129C8.49658 16.1606 9.92073 13.8806 12.089 12.8682L12.601 12.6597L44.6046 1.31488ZM44.5006 10.3244L16.4975 20.2485V72.4807H44.5006V10.3244ZM52.5015 39.3905V72.4807H64.5028V41.9385L52.5015 39.3905Z" fill="currentColor"/>
</svg>
