<svg width="81" height="81" viewBox="0 0 81 81" fill="none" xmlns="http://www.w3.org/2000/svg">
<path d="M77.6429 40.6457C77.6483 39.8526 77.4885 39.067 77.1736 38.339C76.8588 37.611 76.3959 36.9565 75.8143 36.4171L40.5 3.8457L5.18576 36.4171C4.60418 36.9565 4.14126 37.611 3.82644 38.339C3.51163 39.067 3.35182 39.8526 3.35719 40.6457V72.4171C3.35719 73.9327 3.95923 75.3861 5.03086 76.4577C6.1025 77.5294 7.55595 78.1314 9.07147 78.1314H71.9286C73.4441 78.1314 74.8976 77.5294 75.9692 76.4577C77.0409 75.3861 77.6429 73.9327 77.6429 72.4171V40.6457Z" stroke="currentColor" stroke-width="5.42857" stroke-linecap="round" stroke-linejoin="round"/>
<path d="M40.4999 76.7034C40.4999 78.132 41.9285 78.132 41.9285 78.132H59.0656C60.4942 78.132 60.4942 76.7034 60.4942 76.7034V59.5663C60.4942 58.1377 59.0656 58.1377 59.0656 58.1377H41.9285C40.4999 58.1377 40.4999 59.5663 40.4999 59.5663M40.4999 76.7034V59.5663M40.4999 76.7034C40.4999 76.7034 40.4999 78.132 39.0713 78.132H21.9342C21.9342 78.132 20.5056 78.132 20.5056 76.7034V59.5663C20.5056 59.5663 20.5056 58.1377 21.9342 58.1377H39.0713C39.0713 58.1377 40.4999 58.1377 40.4999 59.5663M31.9285 38.1377H49.0656C49.0656 38.1377 50.4942 38.1377 50.4942 39.5663V56.7034C50.4942 56.7034 50.4942 58.132 49.0656 58.132H31.9285C31.9285 58.132 30.4999 58.132 30.4999 56.7034V39.5663C30.4999 39.5663 30.4999 38.1377 31.9285 38.1377Z" stroke="currentColor" stroke-width="5.42857" stroke-linecap="round" stroke-linejoin="round"/>
</svg>
