<svg width="81" height="81" viewBox="0 0 81 81" fill="none" xmlns="http://www.w3.org/2000/svg">
<path d="M13.8335 70.9883C12.0002 70.9883 10.4313 70.3361 9.12688 69.0316C7.82244 67.7272 7.1691 66.1572 7.16688 64.3216V57.6549C7.16688 56.7105 7.48688 55.9194 8.12688 55.2816C8.76688 54.6438 9.55799 54.3238 10.5002 54.3216H70.5002C71.4447 54.3216 72.2369 54.6416 72.8769 55.2816C73.5169 55.9216 73.8358 56.7127 73.8335 57.6549V64.3216C73.8335 66.1549 73.1813 67.7249 71.8769 69.0316C70.5724 70.3383 69.0024 70.9905 67.1669 70.9883H13.8335ZM13.8335 60.9883V64.3216H67.1669V60.9883H13.8335ZM40.5002 45.9883C38.5002 45.9883 36.9169 46.5438 35.7502 47.6549C34.5836 48.7661 32.4447 49.3216 29.3335 49.3216C26.2224 49.3216 24.1113 48.7661 23.0002 47.6549C21.8891 46.5438 20.3335 45.9883 18.3335 45.9883C16.778 45.9883 15.5135 46.3638 14.5402 47.115C13.5669 47.8661 12.248 48.4627 10.5835 48.9049C9.69466 49.1827 8.90355 49.0027 8.21021 48.365C7.51688 47.7272 7.1691 46.9349 7.16688 45.9883C7.16466 45.0416 7.48466 44.2227 8.12688 43.5316C8.7691 42.8405 9.53244 42.2705 10.4169 41.8216L13.5002 40.195C14.6113 39.6105 16.2224 39.3194 18.3335 39.3216C21.4447 39.3216 23.5558 39.8772 24.6669 40.9883C25.778 42.0994 27.3335 42.6549 29.3335 42.6549C31.3335 42.6549 32.9169 42.0994 34.0835 40.9883C35.2502 39.8772 37.3891 39.3216 40.5002 39.3216C43.6113 39.3216 45.7502 39.8772 46.9169 40.9883C48.0836 42.0994 49.6669 42.6549 51.6669 42.6549C53.6669 42.6549 55.2224 42.0994 56.3336 40.9883C57.4447 39.8772 59.5558 39.3216 62.6669 39.3216C64.6669 39.3216 66.2502 39.5994 67.4169 40.1549C68.5836 40.7105 69.6391 41.2383 70.5835 41.7383C71.4724 42.1827 72.2369 42.7661 72.8769 43.4883C73.5169 44.2105 73.8358 45.0438 73.8335 45.9883C73.8313 46.9327 73.498 47.725 72.8336 48.365C72.1691 49.005 71.3913 49.1849 70.5002 48.9049C68.8891 48.4605 67.6258 47.8638 66.7102 47.115C65.7947 46.3661 64.558 45.9905 63.0002 45.9883C61.0002 45.9883 59.3891 46.5438 58.1669 47.6549C56.9447 48.7661 54.778 49.3216 51.6669 49.3216C48.5558 49.3216 48.0836 49.4761 46.9169 48.365C45.7502 47.2538 42.5002 45.9883 40.5002 45.9883ZM40.5002 10.9883C44.6113 10.9883 48.6535 11.3638 52.6269 12.1149C56.6002 12.8661 60.1558 14.0327 63.2935 15.6149C66.4313 17.1972 68.9724 19.2527 70.9169 21.7816C72.8613 24.3105 73.8335 27.3794 73.8335 30.9883C73.8335 31.9327 73.5135 32.725 72.8736 33.365C72.2336 34.0049 71.4424 34.3238 70.5002 34.3216H10.5002C9.55577 34.3216 8.76466 34.0016 8.12688 33.3616C7.4891 32.7216 7.1691 31.9305 7.16688 30.9883C7.16688 27.3772 8.1391 24.3083 10.0835 21.7816C12.028 19.2549 14.5702 17.1994 17.7102 15.6149C20.8502 14.0305 24.4058 12.8638 28.3769 12.1149C32.348 11.3661 36.3891 10.9905 40.5002 10.9883ZM40.5002 17.6549C33.6113 17.6549 27.848 18.5161 23.2102 20.2383C18.5724 21.9605 15.6135 24.4327 14.3335 27.6549H66.6669C65.3891 24.4327 62.4313 21.9605 57.7936 20.2383C53.1558 18.5161 47.3913 17.6549 40.5002 17.6549Z" fill="#018ED5"/>
</svg>
