<svg width="81" height="81" viewBox="0 0 81 81" fill="none" xmlns="http://www.w3.org/2000/svg">
<path d="M23 5.98828H28V30.9883H23V5.98828Z" fill="currentColor"/>
<path d="M35.5 28.4884C35.5 31.1406 34.4464 33.6841 32.5711 35.5595C30.6957 37.4349 28.1522 38.4884 25.5 38.4884C22.8478 38.4884 20.3043 37.4349 18.4289 35.5595C16.5536 33.6841 15.5 31.1406 15.5 28.4884V5.98843H10.5V28.4884C10.5036 32.0306 11.7606 35.4573 14.0485 38.1615C16.3363 40.8657 19.5073 42.6731 23 43.2634V75.9884H28V43.2634C31.4927 42.6731 34.6637 40.8657 36.9515 38.1615C39.2394 35.4573 40.4964 32.0306 40.5 28.4884V5.98843H35.5V28.4884ZM55.5 5.98843H53V75.9884H58V50.9884H65.5C66.8261 50.9884 68.0979 50.4617 69.0355 49.524C69.9732 48.5863 70.5 47.3145 70.5 45.9884V20.9884C70.5773 18.9979 70.2422 17.0128 69.5158 15.158C68.7893 13.3031 67.6872 11.6184 66.2786 10.2098C64.87 8.80125 63.1854 7.69911 61.3305 6.97265C59.4756 6.2462 57.4906 5.91111 55.5 5.98843ZM65.5 45.9884H58V11.2134C65.2 12.6134 65.5 20.0634 65.5 20.9884V45.9884Z" fill="currentColor"/>
</svg>
