<svg width="81" height="81" viewBox="0 0 81 81" fill="none" xmlns="http://www.w3.org/2000/svg">
<path d="M75.5 28.4883V8.48828C75.5 7.82524 75.2366 7.18936 74.7678 6.72051C74.2989 6.25167 73.663 5.98828 73 5.98828H48C47.337 5.98828 46.7011 6.25167 46.2322 6.72051C45.7634 7.18936 45.5 7.82524 45.5 8.48828V28.4883C45.5056 32.0299 46.7633 35.4555 49.0508 38.1594C51.3383 40.8632 54.5082 42.671 58 43.2633V70.9883H48V75.9883H73V70.9883H63V43.2633C66.4918 42.671 69.6617 40.8632 71.9492 38.1594C74.2367 35.4555 75.4944 32.0299 75.5 28.4883ZM50.5 28.4883V10.9883H70.5V28.4883C70.5 31.1404 69.4464 33.684 67.5711 35.5593C65.6957 37.4347 63.1522 38.4883 60.5 38.4883C57.8478 38.4883 55.3043 37.4347 53.4289 35.5593C51.5536 33.684 50.5 31.1404 50.5 28.4883ZM30.5 5.98828V28.5383C30.4974 31.1631 29.4535 33.6797 27.5974 35.5357C25.7414 37.3918 23.2248 38.4356 20.6 38.4383C17.9488 38.4616 15.3965 37.4324 13.5031 35.5765C11.6097 33.7206 10.5297 31.1894 10.5 28.5383V5.98828H5.5V28.5383C5.52509 32.0625 6.79233 35.4649 9.07873 38.1468C11.3651 40.8288 14.5242 42.6184 18 43.2008V75.9883H23V43.2258C26.4854 42.6544 29.6549 40.8645 31.944 38.1748C34.2331 35.4851 35.4932 32.0702 35.5 28.5383V5.98828H30.5Z" fill="currentColor"/>
<path d="M18 5.98828H23V30.9383H18V5.98828Z" fill="currentColor"/>
</svg>
