<svg width="20" height="20" viewBox="0 0 20 20" fill="none" xmlns="http://www.w3.org/2000/svg">
<path d="M10.3496 0.447266C13.9447 0.447266 15.7424 0.44707 17.0371 1.30371C17.6153 1.68627 18.1106 2.1816 18.4932 2.75977C19.3498 4.0545 19.3496 5.8522 19.3496 9.44727C19.3496 13.0423 19.3498 14.84 18.4932 16.1348C18.1106 16.7129 17.6153 17.2083 17.0371 17.5908C15.7424 18.4475 13.9447 18.4473 10.3496 18.4473C6.75454 18.4473 4.95684 18.4475 3.66211 17.5908C3.08395 17.2083 2.58861 16.7129 2.20605 16.1348C1.34941 14.84 1.34961 13.0423 1.34961 9.44727C1.34961 5.8522 1.34941 4.0545 2.20605 2.75977C2.58861 2.1816 3.08395 1.68627 3.66211 1.30371C4.95684 0.44707 6.75454 0.447266 10.3496 0.447266ZM10.3496 4.78809C7.77636 4.78809 5.69055 6.87405 5.69043 9.44727C5.69043 12.0206 7.77629 14.1064 10.3496 14.1064C12.9229 14.1064 15.0088 12.0205 15.0088 9.44727C15.0087 6.8741 12.9228 4.78817 10.3496 4.78809ZM10.3496 6.36426C12.0522 6.36434 13.4325 7.74473 13.4326 9.44727C13.4326 11.1499 12.0522 12.5302 10.3496 12.5303C8.64691 12.5303 7.2666 11.15 7.2666 9.44727C7.26672 7.74467 8.64699 6.36426 10.3496 6.36426ZM15.1934 3.45898C14.5888 3.45898 14.0978 3.94919 14.0977 4.55371C14.0977 5.15837 14.5887 5.64844 15.1934 5.64844C15.7978 5.64818 16.2881 5.15821 16.2881 4.55371C16.2879 3.94934 15.7977 3.45924 15.1934 3.45898Z" fill="currentColor"/>
</svg>
