<svg width="20" height="19" viewBox="0 0 20 19" fill="none" xmlns="http://www.w3.org/2000/svg">
<path d="M1.34961 3.36732C1.34961 2.79011 1.55232 2.31392 1.95772 1.93875C2.36312 1.56356 2.89016 1.37598 3.5388 1.37598C4.17587 1.37598 4.6913 1.56067 5.08513 1.93009C5.49053 2.31104 5.69324 2.80742 5.69324 3.41927C5.69324 3.97338 5.49633 4.43513 5.1025 4.80455C4.69711 5.1855 4.16428 5.37597 3.50405 5.37597H3.48668C2.8496 5.37597 2.33417 5.1855 1.94034 4.80455C1.54651 4.42359 1.34961 3.94451 1.34961 3.36732ZM1.57548 18.5188V6.95173H5.43262V18.5188H1.57548ZM7.56969 18.5188H11.4268V12.06C11.4268 11.6559 11.4732 11.3442 11.5658 11.1249C11.728 10.7324 11.9741 10.4005 12.3042 10.1292C12.6344 9.85793 13.0484 9.72229 13.5465 9.72229C14.8438 9.72229 15.4925 10.5939 15.4925 12.337V18.5188H19.3496V11.8868C19.3496 10.1783 18.9442 8.88247 18.1334 7.99935C17.3226 7.11623 16.2512 6.67468 14.9191 6.67468C13.4249 6.67468 12.2608 7.31537 11.4268 8.59675V8.63139H11.4095L11.4268 8.59675V6.95173H7.56969C7.59285 7.32113 7.60444 8.46976 7.60444 10.3976C7.60444 12.3255 7.59285 15.0325 7.56969 18.5188Z" fill="#018ED5"/>
</svg>
