<svg width="20" height="16" viewBox="0 0 20 16" fill="none" xmlns="http://www.w3.org/2000/svg">
<path d="M13.3767 0.148749V0.145508H14.2207L14.529 0.2071C14.7346 0.247086 14.9213 0.299488 15.089 0.364321C15.2567 0.429155 15.4191 0.5048 15.5759 0.591239C15.7328 0.677678 15.8751 0.765755 16.0028 0.855436C16.1294 0.944047 16.243 1.03806 16.3437 1.13746C16.4432 1.23795 16.5985 1.26389 16.8095 1.21526C17.0205 1.16664 17.2477 1.0991 17.4912 1.01266C17.7346 0.926218 17.9754 0.828968 18.2135 0.720906C18.4515 0.612845 18.5965 0.544235 18.6485 0.51506C18.6993 0.484815 18.7264 0.468606 18.7296 0.466434L18.7328 0.461572L18.7491 0.453468L18.7653 0.445363L18.7815 0.437259L18.7978 0.429155L18.801 0.424292L18.8059 0.421051L18.8108 0.417809L18.814 0.412947L18.8302 0.408084L18.8465 0.404842L18.8432 0.429155L18.8383 0.453468L18.8302 0.47778L18.8221 0.502093L18.814 0.518301L18.8059 0.53451L18.7978 0.558822C18.7924 0.575031 18.787 0.596636 18.7815 0.623656C18.7761 0.650675 18.7247 0.758721 18.6273 0.947824C18.53 1.13693 18.4082 1.32872 18.2621 1.52322C18.1161 1.71772 17.9851 1.86467 17.8694 1.96409C17.7525 2.06458 17.6751 2.13481 17.6373 2.1748C17.5994 2.21586 17.5534 2.25367 17.4993 2.28826L17.4181 2.34175L17.4019 2.34985L17.3857 2.35796L17.3824 2.36282L17.3776 2.36606L17.3727 2.3693L17.3694 2.37416L17.3532 2.38227L17.337 2.39037L17.3338 2.39524L17.3289 2.39848L17.324 2.40172L17.3208 2.40658L17.3175 2.41144L17.3126 2.41469L17.3078 2.41793L17.3045 2.42279H17.3857L17.8401 2.32554C18.1431 2.2607 18.4326 2.18237 18.7085 2.09052L19.1467 1.94464L19.1954 1.92843L19.2198 1.92033L19.236 1.91222L19.2522 1.90412L19.2685 1.89602L19.2847 1.88791L19.3171 1.88305L19.3496 1.87981V1.91222L19.3415 1.91547L19.3334 1.92033L19.3301 1.92519L19.3253 1.92843L19.3204 1.93167L19.3171 1.93654L19.3139 1.9414L19.309 1.94464L19.3042 1.94788L19.3009 1.95275L19.2977 1.95761L19.2928 1.96085L19.2847 1.97706L19.2766 1.99327L19.2717 1.99651C19.2695 1.99975 19.2008 2.09159 19.0656 2.27205C18.9303 2.45359 18.8573 2.54542 18.8465 2.54759C18.8356 2.55084 18.8205 2.56704 18.801 2.59622C18.7826 2.62646 18.6679 2.74696 18.4569 2.95767C18.2459 3.16838 18.0393 3.35584 17.8369 3.5201C17.6335 3.68542 17.5307 3.88856 17.5285 4.12953C17.5253 4.36942 17.5128 4.64065 17.4912 4.9432C17.4695 5.24576 17.429 5.57262 17.3694 5.92381C17.3099 6.27499 17.218 6.6721 17.0935 7.11512C16.9691 7.55815 16.8176 7.99038 16.6391 8.4118C16.4605 8.83321 16.2739 9.21141 16.0791 9.54638C15.8843 9.88136 15.7058 10.165 15.5435 10.3973C15.3812 10.6296 15.2162 10.8485 15.0484 11.0538C14.8807 11.2591 14.6687 11.4903 14.4122 11.7475C14.1547 12.0036 14.014 12.1441 13.9902 12.1689C13.9653 12.1927 13.8593 12.2813 13.6721 12.4347C13.486 12.5892 13.2858 12.7438 13.0715 12.8983C12.8584 13.0517 12.6625 13.1798 12.484 13.2824C12.3054 13.3851 12.0901 13.5023 11.838 13.6341C11.587 13.7671 11.3153 13.8902 11.0232 14.0037C10.731 14.1172 10.4226 14.2225 10.098 14.3198C9.77341 14.417 9.45962 14.4927 9.15664 14.5467C8.85368 14.6007 8.51012 14.6466 8.12598 14.6845L7.54979 14.7412V14.7493H6.49479V14.7412L6.35682 14.7331C6.26486 14.7277 6.18911 14.7223 6.12959 14.7169C6.07009 14.7115 5.84555 14.6817 5.45601 14.6277C5.06647 14.5737 4.7608 14.5197 4.53897 14.4656C4.31716 14.4116 3.98712 14.309 3.54889 14.1577C3.11066 14.0064 2.73572 13.8535 2.42409 13.699C2.11355 13.5455 1.91878 13.4483 1.83978 13.4072C1.76187 13.3672 1.67423 13.3175 1.57684 13.2581L1.43076 13.169L1.42753 13.1641L1.42265 13.1609L1.41778 13.1576L1.41453 13.1528L1.3983 13.1447L1.38207 13.1365L1.37884 13.1317L1.37396 13.1284L1.36909 13.1252L1.36584 13.1203L1.36261 13.1155L1.35772 13.1122H1.34961V13.0798L1.36584 13.0831L1.38207 13.0879L1.45511 13.096C1.5038 13.1014 1.63636 13.1095 1.85277 13.1203C2.06919 13.1311 2.29911 13.1311 2.54258 13.1203C2.78604 13.1095 3.03492 13.0852 3.28919 13.0474C3.54348 13.0096 3.84375 12.9448 4.19001 12.8529C4.53627 12.761 4.8544 12.6519 5.1444 12.5255C5.4333 12.398 5.63888 12.3029 5.76117 12.2402C5.88235 12.1786 6.06738 12.0641 6.31625 11.8966L6.68956 11.6454L6.6928 11.6405L6.69767 11.6373L6.70256 11.634L6.70579 11.6292L6.70903 11.6243L6.7139 11.6211L6.71879 11.6178L6.72202 11.613L6.73825 11.6081L6.75448 11.6049L6.75772 11.5886L6.76259 11.5724L6.76748 11.5692L6.77071 11.5643L6.64086 11.5562C6.5543 11.5508 6.47044 11.5454 6.38928 11.54C6.30813 11.5346 6.18099 11.5103 6.00786 11.4671C5.83474 11.4239 5.64809 11.359 5.4479 11.2726C5.24772 11.1861 5.05295 11.0835 4.86359 10.9646C4.67424 10.8458 4.53735 10.7469 4.45295 10.668C4.36963 10.5902 4.26142 10.48 4.12833 10.3374C3.99632 10.1937 3.88162 10.0461 3.78424 9.89487C3.68685 9.74359 3.5938 9.56906 3.50508 9.37133L3.37035 9.07634L3.36223 9.05203L3.35412 9.02772L3.34925 9.01151L3.346 8.9953L3.37035 8.99854L3.3947 9.0034L3.57323 9.02772C3.69227 9.04392 3.87893 9.04932 4.1332 9.04392C4.38749 9.03853 4.56332 9.02772 4.6607 9.01151C4.75809 8.9953 4.8176 8.98449 4.83924 8.97909L4.8717 8.97099L4.91228 8.96288L4.95286 8.95478L4.9561 8.94992L4.96097 8.94667L4.96586 8.94343L4.96909 8.93857L4.93662 8.93046L4.90416 8.92236L4.8717 8.91426L4.83924 8.90615L4.80678 8.89805C4.78514 8.89265 4.74728 8.88184 4.69316 8.86563C4.63906 8.84942 4.49299 8.78999 4.25493 8.68734C4.01689 8.58469 3.82752 8.48473 3.68685 8.38748C3.54583 8.28995 3.41137 8.18329 3.28433 8.06818C3.15772 7.95148 3.01869 7.80127 2.86719 7.61758C2.71571 7.43389 2.58046 7.22048 2.46142 6.97735C2.3424 6.73423 2.25313 6.50191 2.19361 6.28039C2.13433 6.06017 2.09522 5.83503 2.07677 5.60774L2.04754 5.26736L2.06377 5.27061L2.08 5.27547L2.09623 5.28357L2.11246 5.29168L2.12869 5.29978L2.14492 5.30789L2.3965 5.42134C2.56423 5.49699 2.77252 5.56182 3.02139 5.61585C3.27027 5.66987 3.41904 5.69959 3.46773 5.70499L3.54077 5.7131H3.68685L3.68362 5.70823L3.67873 5.70499L3.67387 5.70175L3.67062 5.69689L3.66739 5.69203L3.6625 5.68878L3.65763 5.68554L3.65439 5.68068L3.63816 5.67257L3.62193 5.66447L3.6187 5.65961L3.61381 5.65637L3.60894 5.65312L3.6057 5.64826L3.58947 5.64016L3.57323 5.63205L3.57 5.62719C3.56676 5.62502 3.52022 5.59045 3.4304 5.52346C3.34167 5.45538 3.24862 5.36732 3.15123 5.25926C3.05385 5.1512 2.95646 5.03774 2.85908 4.91888C2.76151 4.79976 2.67461 4.6723 2.59938 4.53799C2.52365 4.40292 2.44357 4.2311 2.35917 4.02256C2.27585 3.81509 2.21255 3.606 2.16927 3.39529C2.126 3.18458 2.10165 2.97658 2.09623 2.77127C2.09082 2.56596 2.09623 2.39037 2.11246 2.2445C2.12869 2.09862 2.16115 1.93383 2.20984 1.75014C2.25854 1.56645 2.32888 1.37195 2.42084 1.16664L2.55881 0.858678L2.56692 0.834365L2.57504 0.810053L2.57992 0.806811L2.58315 0.801948L2.5864 0.797086L2.59127 0.793844L2.59615 0.797086L2.59938 0.801948L2.60263 0.806811L2.6075 0.810053L2.61238 0.813294L2.61561 0.818157L2.61886 0.823019L2.62373 0.826261L2.63185 0.842469L2.63996 0.858678L2.64485 0.861919L2.64808 0.866782L2.86719 1.10991C3.01327 1.27199 3.1864 1.45299 3.38658 1.65289C3.58677 1.85279 3.69768 1.95652 3.71931 1.96409C3.74096 1.97273 3.768 1.99758 3.80047 2.03865C3.83293 2.07864 3.94114 2.17427 4.12508 2.32554C4.30904 2.47681 4.5498 2.65241 4.84736 2.85231C5.14493 3.05221 5.47495 3.24942 5.83744 3.44392C6.19994 3.63842 6.58948 3.81401 7.00606 3.97069C7.42265 4.12738 7.71481 4.23003 7.88252 4.27865C8.05025 4.32728 8.33699 4.3894 8.74276 4.46505C9.14853 4.54069 9.45422 4.58932 9.6598 4.61092C9.86539 4.63253 10.0061 4.64496 10.0818 4.6482L10.1954 4.65145L10.1922 4.62713L10.1873 4.60282L10.1548 4.40022C10.1332 4.26515 10.1224 4.07605 10.1224 3.83292C10.1224 3.58979 10.1413 3.36558 10.1792 3.16027C10.2171 2.95496 10.2739 2.74696 10.3496 2.53625C10.4254 2.32554 10.4995 2.15642 10.572 2.02892C10.6456 1.9025 10.7419 1.75824 10.8609 1.59616C10.9799 1.43408 11.1341 1.26659 11.3235 1.0937C11.5128 0.920805 11.7292 0.766825 11.9727 0.63176C12.2162 0.496695 12.4407 0.394031 12.6463 0.3238C12.8519 0.253569 13.025 0.207635 13.1657 0.186029C13.3063 0.164423 13.3767 0.151991 13.3767 0.148749Z" fill="#018ED5"/>
</svg>
