<svg width="22" height="16" viewBox="0 0 22 16" fill="none" xmlns="http://www.w3.org/2000/svg">
<path d="M11.7882 14.4274L7.72605 14.3515C6.4108 14.3251 5.09228 14.3779 3.80282 14.1038C1.84126 13.6943 1.70229 11.6864 1.55688 10.0021C1.35652 7.63429 1.43409 5.22347 1.81219 2.8754C2.02565 1.55788 2.86568 0.771708 4.16476 0.686157C8.55011 0.375682 12.9646 0.412477 17.3403 0.557325C17.8024 0.570603 18.2677 0.643179 18.7234 0.72579C20.9727 1.12871 21.0275 3.4041 21.1733 5.31956C21.3187 7.25478 21.2573 9.19994 20.9794 11.122C20.7564 12.7134 20.3298 14.0479 18.5294 14.1768C16.2737 14.3452 14.0697 14.4809 11.8076 14.4377C11.8077 14.4274 11.7947 14.4274 11.7882 14.4274ZM9.40006 10.3985C11.1 9.40105 12.7674 8.42026 14.4576 7.42953C12.7545 6.43212 11.0902 5.45133 9.40006 4.46061V10.3985Z" fill="#018ED5"/>
</svg>
