<svg width="67" height="67" viewBox="0 0 67 67" fill="none" xmlns="http://www.w3.org/2000/svg">
<path d="M54.4328 0.316406H12.7675C9.31707 0.316406 6.52051 3.11297 6.52051 6.56339V60.7039C6.52051 64.1543 9.31707 66.9509 12.7675 66.9509H54.4328C57.8832 66.9509 60.6798 64.1543 60.6798 60.7039V6.56339C60.6798 3.11297 57.8832 0.316406 54.4328 0.316406ZM56.5151 60.7039C56.5151 61.8534 55.5822 62.7862 54.4328 62.7862H12.7675C11.618 62.7862 10.6852 61.8534 10.6852 60.7039V6.56339C10.6852 5.41395 11.618 4.48106 12.7675 4.48106H54.4328C55.5822 4.48106 56.5151 5.41395 56.5151 6.56339V60.7039ZM33.6033 52.3861C31.3075 52.3861 29.449 54.2466 29.449 56.5393C29.449 58.8319 31.3075 60.6936 33.6033 60.6936C35.898 60.6936 37.7575 58.832 37.7575 56.5393C37.7575 54.2467 35.898 52.3861 33.6033 52.3861ZM37.7679 6.56339H29.4386C28.2892 6.56339 27.3563 7.49627 27.3563 8.64572C27.3563 9.79516 28.2892 10.728 29.4386 10.728H37.7679C38.9174 10.728 39.8502 9.79516 39.8502 8.64572C39.8502 7.49627 38.9174 6.56339 37.7679 6.56339Z" fill="#018ED5"/>
</svg>
