<svg width="67" height="68" viewBox="0 0 67 68" fill="none" xmlns="http://www.w3.org/2000/svg">
<path d="M19.6401 13.8766C18.0375 13.8766 16.8248 15.1227 16.8248 16.5554V20.5401H13.493V16.5554C13.493 13.1903 16.2917 10.5449 19.6401 10.5449H53.9902C57.3385 10.5449 60.1372 13.1903 60.1372 16.5554V41.1835C60.1372 44.5485 57.3385 47.1939 53.9902 47.1939H33.4834V43.8622H53.9902C55.5927 43.8622 56.8055 42.6161 56.8055 41.1835V16.5554C56.8055 15.1227 55.5927 13.8766 53.9902 13.8766H19.6401ZM33.4834 40.5304H41.8127C42.2545 40.5304 42.6782 40.3549 42.9906 40.0425C43.3031 39.7301 43.4786 39.3064 43.4786 38.8646C43.4786 38.4228 43.3031 37.9991 42.9906 37.6866C42.6782 37.3742 42.2545 37.1987 41.8127 37.1987H33.4834V40.5304ZM16.8248 50.5256C16.3829 50.5256 15.9592 50.7011 15.6468 51.0135C15.3344 51.326 15.1589 51.7497 15.1589 52.1915C15.1589 52.6333 15.3344 53.057 15.6468 53.3694C15.9592 53.6818 16.3829 53.8573 16.8248 53.8573H20.1565C20.5983 53.8573 21.022 53.6818 21.3344 53.3694C21.6468 53.057 21.8224 52.6333 21.8224 52.1915C21.8224 51.7497 21.6468 51.326 21.3344 51.0135C21.022 50.7011 20.5983 50.5256 20.1565 50.5256H16.8248ZM6.82959 28.8694C6.82959 27.544 7.35612 26.2728 8.29335 25.3356C9.23058 24.3984 10.5017 23.8718 11.8272 23.8718H25.1541C26.4795 23.8718 27.7507 24.3984 28.6879 25.3356C29.6251 26.2728 30.1517 27.544 30.1517 28.8694V55.5232C30.1517 56.8487 29.6251 58.1198 28.6879 59.057C27.7507 59.9943 26.4795 60.5208 25.1541 60.5208H11.8272C10.5017 60.5208 9.23058 59.9943 8.29335 59.057C7.35612 58.1198 6.82959 56.8487 6.82959 55.5232V28.8694ZM11.8272 27.2035C11.3854 27.2035 10.9616 27.3791 10.6492 27.6915C10.3368 28.0039 10.1613 28.4276 10.1613 28.8694V55.5232C10.1613 55.965 10.3368 56.3887 10.6492 56.7012C10.9616 57.0136 11.3854 57.1891 11.8272 57.1891H25.1541C25.5959 57.1891 26.0196 57.0136 26.332 56.7012C26.6444 56.3887 26.8199 55.965 26.8199 55.5232V28.8694C26.8199 28.4276 26.6444 28.0039 26.332 27.6915C26.0196 27.3791 25.5959 27.2035 25.1541 27.2035H11.8272Z" fill="#018ED5"/>
</svg>
