<svg width="68" height="67" viewBox="0 0 68 67" fill="none" xmlns="http://www.w3.org/2000/svg">
<path d="M59.1791 20.8895L48.0733 26.4424M48.0733 26.4424L46.6851 27.1365L34.1911 33.3835M48.0733 26.4424V36.16M48.0733 26.4424L21.6972 12.5602M34.1911 33.3835L9.2032 20.8895M34.1911 33.3835V59.7597M44.1252 9.45618L49.6781 12.3714C55.6502 15.506 58.6377 17.0719 60.298 19.89C61.9555 22.7053 61.9555 26.212 61.9555 33.2225V33.5473C61.9555 40.5551 61.9555 44.0617 60.298 46.877C58.6377 49.6951 55.6502 51.2638 49.6781 54.3984L44.1252 57.3109C39.2498 59.868 36.8121 61.1479 34.1911 61.1479C31.5702 61.1479 29.1325 59.8707 24.257 57.3109L18.7042 54.3956C12.732 51.261 9.7446 49.6951 8.08429 46.877C6.42676 44.0617 6.42676 40.5551 6.42676 33.5501V33.2253C6.42676 26.2148 6.42676 22.7081 8.08429 19.8928C9.7446 17.0747 12.732 15.506 18.7042 12.3742L24.257 9.45895C29.1325 6.89908 31.5702 5.61914 34.1911 5.61914C36.8121 5.61914 39.2498 6.8963 44.1252 9.45618Z" stroke="currentColor" stroke-width="4.16466" stroke-linecap="round"/>
</svg>
