<svg width="57" height="57" viewBox="0 0 57 57" fill="none" xmlns="http://www.w3.org/2000/svg">
<path d="M41.3574 34.8057H15.6754C13.9012 34.8057 12.4658 36.2411 12.4658 38.0152V50.8562C12.4658 52.6276 13.9012 54.0658 15.6754 54.0658H41.3574C43.1316 54.0658 44.567 52.6276 44.567 50.8562V38.0152C44.567 36.2411 43.1316 34.8057 41.3574 34.8057Z" stroke="currentColor" stroke-width="4.16466" stroke-linecap="round" stroke-linejoin="round"/>
<path d="M44.5671 44.434H50.989C51.8402 44.434 52.6566 44.0959 53.2585 43.4939C53.8604 42.892 54.1986 42.0757 54.1986 41.2244V25.1739C54.1997 24.3304 54.0344 23.4951 53.7122 22.7156C53.3901 21.9362 52.9173 21.2279 52.3211 20.6314C51.7248 20.0349 51.0168 19.5619 50.2374 19.2394C49.4581 18.9169 48.6229 18.7512 47.7794 18.752H9.25638C8.41273 18.7509 7.57716 18.9162 6.79753 19.2386C6.01789 19.5609 5.30951 20.0339 4.71296 20.6304C4.11642 21.227 3.64343 21.9354 3.32108 22.715C2.99874 23.4946 2.83338 24.3302 2.83448 25.1739V41.2244C2.83448 42.0757 3.17263 42.892 3.77454 43.4939C4.37645 44.0959 5.19281 44.434 6.04404 44.434H12.4687" stroke="currentColor" stroke-width="4.16466" stroke-linecap="round" stroke-linejoin="round"/>
<path d="M41.3577 18.7518V5.91073C41.3577 5.0595 41.0195 4.24314 40.4176 3.64123C39.8157 3.03932 38.9993 2.70117 38.1481 2.70117H18.8824C18.0312 2.70117 17.2148 3.03932 16.6129 3.64123C16.011 4.24314 15.6729 5.0595 15.6729 5.91073V18.7518" stroke="currentColor" stroke-width="4.16466" stroke-linecap="round" stroke-linejoin="round"/>
</svg>
