<svg width="29" height="28" viewBox="0 0 29 28" fill="none" xmlns="http://www.w3.org/2000/svg">
<path d="M26.3222 28L16.5222 18.2C15.7444 18.8222 14.85 19.3148 13.8389 19.6778C12.8278 20.0407 11.7519 20.2222 10.6111 20.2222C7.78519 20.2222 5.39378 19.2433 3.43689 17.2853C1.48 15.3274 0.501038 12.936 0.500001 10.1111C0.498964 7.28622 1.47793 4.89481 3.43689 2.93689C5.39585 0.978963 7.78726 0 10.6111 0C13.435 0 15.8269 0.978963 17.7869 2.93689C19.7469 4.89481 20.7253 7.28622 20.7222 10.1111C20.7222 11.2519 20.5407 12.3278 20.1778 13.3389C19.8148 14.35 19.3222 15.2444 18.7 16.0222L28.5 25.8222L26.3222 28ZM10.6111 17.1111C12.5556 17.1111 14.2086 16.4308 15.5702 15.0702C16.9319 13.7096 17.6122 12.0566 17.6111 10.1111C17.6101 8.16563 16.9298 6.51311 15.5702 5.15356C14.2107 3.794 12.5576 3.11319 10.6111 3.11111C8.66459 3.10904 7.01208 3.78985 5.65356 5.15356C4.29504 6.51726 3.61422 8.16978 3.61111 10.1111C3.608 12.0524 4.28882 13.7055 5.65356 15.0702C7.0183 16.435 8.67082 17.1153 10.6111 17.1111Z" fill="currentColor"/>
</svg>
