<svg width="137" height="54" viewBox="0 0 137 54" fill="none" xmlns="http://www.w3.org/2000/svg">
<path d="M8.97841 16.4264C8.81973 15.3397 9.1371 14.075 9.59392 13.421C10.3056 12.3967 11.4164 11.5745 12.5705 11.5745H22.0628C22.0628 11.5745 22.0965 11.5745 22.1109 11.5745H29.1701V11.56C29.9491 11.56 30.7329 11.5745 31.5119 11.5889C37.1381 11.7043 41.6438 14.9165 44.8031 20.2253C45.3513 21.1437 45.7696 22.1728 46.1351 23.2067C46.4861 24.1973 46.6833 25.26 46.9478 26.289C47.1065 26.265 47.0632 26.2698 47.2219 26.2458C47.2507 22.5623 47.3661 18.874 47.2748 15.1906C47.2171 12.7237 46.6208 10.3386 45.4234 8.23242C42.3603 2.82746 37.8786 0.177878 32.2476 0.072087C26.7128 -0.033704 21.178 -0.0144692 15.6432 0.0913218C13.941 0.124983 12.1906 0.418312 10.5509 0.947268C4.66021 2.84189 0.236225 9.14607 0.0102172 15.734C-0.283113 24.2646 5.77583 32.0402 13.5082 32.6605C17.9322 33.0164 22.3946 32.8192 26.8379 32.8625C26.9533 32.8625 27.0639 32.7663 27.261 32.6798V28.3423C31.8245 31.2997 36.2436 34.1657 40.783 37.1086C36.2388 40.0563 31.8197 42.9223 27.2274 45.9036C27.2274 44.5572 27.1793 43.4801 27.2418 42.4077C27.2947 41.5326 27.0014 41.3162 26.2608 41.321C22.6447 41.3546 19.0286 41.4268 15.4172 41.3017C11.0702 41.1479 7.35789 39.2388 4.36208 35.6515C2.37609 33.276 1.19796 30.4293 0.524746 27.2267C0.337208 30.9727 0.231417 34.7042 0.322782 38.431C0.385295 40.9747 1.02485 43.4224 2.29434 45.567C5.35266 50.7508 9.73337 53.3812 15.2057 53.511C20.928 53.6456 26.6599 53.5446 32.3823 53.5398C34.426 53.5398 36.4023 53.0926 38.2537 52.1549C43.7356 49.3851 47.169 44.788 47.5489 37.8972C48.0201 29.2608 41.8265 21.514 33.8682 20.8552C32.44 20.735 31.0022 20.6821 29.5692 20.6629C28.3093 20.6436 27.0446 20.6533 25.7848 20.6629H13.3735L14.9797 20.6725H13.6669C11.7771 20.6725 10.0363 19.4367 9.27174 17.4891C9.13229 17.1333 9.04093 16.7919 8.98803 16.4745" fill="#F8FAFC"/>
<path d="M50.7081 0.081713H59.2724C59.4744 0.110565 59.5802 0.221165 59.5802 0.418321V53.2081C59.5802 53.4341 59.4792 53.5447 59.2724 53.5447H50.7081C50.5062 53.5447 50.4004 53.4341 50.4004 53.2081V0.413512C50.4533 0.192313 50.5543 0.0769043 50.7081 0.0769043V0.081713Z" fill="#F8FAFC"/>
<path d="M80.6806 0.081713C87.6676 0.081713 92.8658 3.55839 96.28 10.5069C97.1455 12.7382 97.5783 15.1137 97.5783 17.619V35.6515C97.5783 43.2637 93.7314 48.7215 86.0423 52.0299C83.7389 52.5829 81.8972 52.857 80.5171 52.857H67.8414C64.7013 52.4723 63.1289 50.871 63.1289 48.0579V4.87597C63.1289 2.42354 64.4273 0.82225 67.0287 0.0769043H80.6806V0.081713ZM72.8809 9.84334V43.0954H79.0553C83.5225 43.0954 86.3404 41.3883 87.5041 37.9645C87.8311 36.9162 87.9898 35.2091 87.9898 32.8337V19.7637C87.9898 14.527 86.3645 11.435 83.1138 10.4973C82.2482 10.0549 80.6229 9.83372 78.2378 9.83372H72.8761L72.8809 9.84334Z" fill="#F8FAFC"/>
<path d="M137 53.5736C129.152 23.3269 124.781 7.05915 124.372 5.83774C122.588 1.94752 120.04 0 116.726 0H115.808C114.086 0 112.509 0.649172 111.067 1.95233C109.624 3.25548 108.6 4.99141 108.071 6.90046C106.643 12.0602 102.594 27.3806 95.9336 52.8667C95.9336 53.0879 96.0346 53.1985 96.2413 53.1985L105.109 53.3427H106.532C106.691 52.6743 106.859 51.9242 107.037 51.1211L112.952 25.236L114.062 20.8408L116.27 12.1179C116.361 12.1179 116.438 12.1804 116.462 12.267L122.232 33.5117L122.963 36.3585C123.016 36.5893 123.059 36.8249 123.107 37.0605C124.704 43.3647 118.39 40.8305 117.674 40.4555L136.432 53.588L137 53.5591V53.5736Z" fill="#F8FAFC"/>
<path d="M117.679 40.4701L117.616 40.4265C117.616 40.4265 117.626 40.441 117.679 40.4701Z" fill="#F8FAFC"/>
</svg>
