<svg width="128" height="104" viewBox="0 0 128 104" fill="none" xmlns="http://www.w3.org/2000/svg">
<path d="M64.1234 103.531L1.4553 54.0479C0.452482 53.2561 0.439198 51.7398 1.42798 50.9305L59.3795 3.49959L64.2734 0.320915C65.6039 -0.543297 67.3628 0.411598 67.3628 1.99817V26.3943C67.3628 27.4416 68.1666 28.3114 69.2109 28.3905C75.4116 28.86 95.415 30.4059 101.292 31.2454C106.947 32.2703 119.653 37.0063 125.242 47.7514C129.892 55.1457 127.319 77.816 125.938 87.5738C125.692 89.3057 123.478 89.8662 122.299 88.5738C111.482 76.7142 96.7757 72.9093 69.2754 74.0681C68.21 74.113 67.3628 74.9932 67.3628 76.0595V101.961C67.3628 103.632 65.4349 104.567 64.1234 103.531Z" class="svg-gradient"/>
<defs>
<linearGradient id="gradient" x1="127.903" y1="52.2016" x2="-0.497192" y2="52.2016" gradientUnits="userSpaceOnUse">
<stop offset="0.0961538" stop-color="#014a6f"/>
<stop offset=".5" stop-color="#018ed5"/>
<stop offset="1" stop-color="#014a6f"/>
</linearGradient>
<linearGradient id="gradient-dark" x1="127.903" y1="52.2016" x2="-0.497192" y2="52.2016" gradientUnits="userSpaceOnUse">
<stop offset="0.0961538" stop-color="#66fcf1"/>
<stop offset=".5" stop-color="#53A29D"/>
<stop offset="1" stop-color="#66fcf1"/>
</linearGradient>
</defs>
</svg>