<svg width="129" height="104" viewBox="0 0 129 104" fill="none" xmlns="http://www.w3.org/2000/svg">
<path d="M64.6821 103.531L127.35 54.0479C128.353 53.2561 128.366 51.7398 127.378 50.9305L69.426 3.49959L64.5321 0.320915C63.2016 -0.543297 61.4427 0.411598 61.4427 1.99817V26.3943C61.4427 27.4416 60.6389 28.3114 59.5946 28.3905C53.394 28.86 33.3906 30.4059 27.5137 31.2454C21.8588 32.2703 9.15216 37.0063 3.56384 47.7514C-1.08636 55.1457 1.48665 77.816 2.86795 87.5738C3.11311 89.3057 5.32753 89.8662 6.50628 88.5738C17.3235 76.7142 32.0298 72.9093 59.5302 74.0681C60.5955 74.113 61.4427 74.9932 61.4427 76.0595V101.961C61.4427 103.632 63.3706 104.567 64.6821 103.531Z" fill="url(#paint0_linear_831_1224)"/>
<defs>
<linearGradient id="paint0_linear_831_1224" x1="0.90274" y1="52.2016" x2="129.303" y2="52.2016" gradientUnits="userSpaceOnUse">
<stop stop-color="#018ED5"/>
<stop offset="1" stop-color="#014A6F"/>
</linearGradient>
</defs>
</svg>
