<svg width="68" height="68" viewBox="0 0 68 68" fill="none" xmlns="http://www.w3.org/2000/svg">
<path fill-rule="evenodd" clip-rule="evenodd" d="M1.92919 11.9609C0.567383 14.6345 0.567383 18.1244 0.567383 25.1208V35.1157C0.567383 42.1122 0.567383 45.6104 1.92919 48.2757C3.13123 50.6208 5.03957 52.5292 7.38473 53.7312C10.0584 55.093 13.5483 55.093 20.5447 55.093H25.5421V61.3398C25.5421 61.8921 25.3227 62.4217 24.9322 62.8122C24.5417 63.2027 24.0121 63.4221 23.4599 63.4221H19.2953C18.7431 63.4221 18.2134 63.6415 17.8229 64.032C17.4324 64.4225 17.213 64.9521 17.213 65.5044C17.213 66.0566 17.4324 66.5863 17.8229 66.9768C18.2134 67.3673 18.7431 67.5866 19.2953 67.5866H48.4471C48.9993 67.5866 49.529 67.3673 49.9195 66.9768C50.31 66.5863 50.5294 66.0566 50.5294 65.5044C50.5294 64.9521 50.31 64.4225 49.9195 64.032C49.529 63.6415 48.9993 63.4221 48.4471 63.4221H44.2825C43.7303 63.4221 43.2007 63.2027 42.8102 62.8122C42.4197 62.4217 42.2003 61.8921 42.2003 61.3398V55.093H47.1977C54.1941 55.093 57.6924 55.093 60.3577 53.7312C62.7062 52.5338 64.6158 50.6242 65.8132 48.2757C67.175 45.602 67.175 42.1122 67.175 35.1157V25.1208C67.175 18.1244 67.175 14.6262 65.8132 11.9609C64.6158 9.61237 62.7062 7.70277 60.3577 6.50536C57.684 5.14355 54.1941 5.14355 47.1977 5.14355H20.5447C13.5483 5.14355 10.05 5.14355 7.38473 6.50536C5.03957 7.7074 3.13123 9.61574 1.92919 11.9609ZM47.3227 9.30393H20.6696C17.1006 9.30393 14.6727 9.30393 12.7986 9.46218C10.9746 9.60794 10.0375 9.87864 9.38788 10.2118C7.82073 11.0103 6.54659 12.2845 5.74807 13.8516C5.41491 14.5013 5.14421 15.4341 4.99845 17.2624C4.84436 19.1364 4.8402 21.5518 4.8402 25.1333V35.1282C4.8402 38.6972 4.84436 41.1252 4.99845 42.9992C5.14838 44.8233 5.41907 45.7603 5.74807 46.41C6.54766 47.9758 7.82201 49.2502 9.38788 50.0498C10.0375 50.3829 10.9746 50.6536 12.7986 50.7994C14.6727 50.9493 17.0881 50.9535 20.6696 50.9535H47.3227C50.8917 50.9535 53.3196 50.9535 55.1936 50.7994C57.0177 50.6495 57.9547 50.3788 58.6044 50.0498C60.1703 49.2502 61.4446 47.9758 62.2442 46.41C62.5774 45.7603 62.8481 44.8233 62.9938 42.995C63.1479 41.121 63.1521 38.7056 63.1521 35.1241V25.1292C63.1521 21.5643 63.1479 19.1322 62.9938 17.2582C62.8439 15.4383 62.5732 14.5013 62.2442 13.8516C61.4457 12.2845 60.1715 11.0103 58.6044 10.2118C57.9547 9.87864 57.0177 9.60794 55.1936 9.46218C53.3196 9.30809 50.9042 9.30393 47.3227 9.30393Z" fill="#018ED5"/>
</svg>
