<svg width="68" height="68" viewBox="0 0 68 68" fill="none" xmlns="http://www.w3.org/2000/svg">
<path d="M34.1164 45.3887V62.0473M34.1164 45.3887L39.6692 50.9415M34.1164 45.3887L28.5635 50.9415" stroke="currentColor" stroke-width="4.16466" stroke-linecap="round" stroke-linejoin="round"/>
<path d="M61.8803 38.0394C61.8803 44.5446 57.8711 50.1252 52.1628 52.4963M40.7266 23.2521C42.4274 22.6614 44.2153 22.3601 46.0157 22.3608C47.8315 22.3608 49.5779 22.6635 51.2077 23.2188M51.2077 23.2188C50.322 15.3864 43.6002 9.29492 35.4375 9.29492C26.6751 9.29492 19.573 16.3138 19.573 24.9735C19.5721 26.8334 19.905 28.6785 20.5558 30.4208M51.2077 23.2188C53.6466 24.0511 55.8454 25.4664 57.6129 27.3418M20.5558 30.4208C19.7964 30.274 19.0248 30.1996 18.2514 30.1987C11.6795 30.2015 6.35156 35.4656 6.35156 41.9597C6.35156 47.2238 9.85265 51.68 14.6809 53.1793M20.5558 30.4208C22.0918 30.7199 23.554 31.318 24.8593 32.1811" stroke="currentColor" stroke-width="4.16466" stroke-linecap="round"/>
</svg>
