<svg width="68" height="68" viewBox="0 0 68 68" fill="none" xmlns="http://www.w3.org/2000/svg">
<path d="M56.2098 49.8414C60.3577 48.2172 64.5389 44.5163 64.5389 37.0507C64.5389 25.9453 55.2853 23.1689 50.6571 23.1689C50.6571 17.6162 50.6571 6.51074 33.9989 6.51074C17.3408 6.51074 17.3408 17.6162 17.3408 23.1689C12.7126 23.1689 3.45898 25.9453 3.45898 37.0507C3.45898 44.5163 7.64018 48.2172 11.7881 49.8414M21.7274 55.0609L26.636 59.9695C27.6673 61.0008 28.8916 61.8189 30.239 62.377C31.5864 62.9352 33.0305 63.2224 34.489 63.2224C35.9474 63.2224 37.3916 62.9352 38.739 62.377C40.0864 61.8189 41.3107 61.0008 42.3419 59.9695L43.3247 58.9895" stroke="#018ED5" stroke-width="4.16454" stroke-linecap="round" stroke-linejoin="round"/>
<path d="M45.932 47.8842L41.0234 42.9756C39.9921 41.9443 38.7679 41.1262 37.4205 40.5681C36.073 40.0099 34.6289 39.7227 33.1705 39.7227C31.712 39.7227 30.2679 40.0099 28.9205 40.5681C27.573 41.1262 26.3488 41.9443 25.3175 42.9756L24.3375 43.9556M22.7105 61.9325L21.7305 55.0611L28.5992 56.0439L22.7105 61.9325Z" stroke="#018ED5" stroke-width="4.16454" stroke-linecap="round" stroke-linejoin="round"/>
<path d="M44.952 41.0127L45.932 47.8842L39.0605 46.9014L44.952 41.0127Z" stroke="#018ED5" stroke-width="4.16454" stroke-linecap="round" stroke-linejoin="round"/>
</svg>
