<svg width="97" height="114" viewBox="0 0 97 114" fill="none" xmlns="http://www.w3.org/2000/svg">
<g filter="url(#filter0_d_340_4031)">
<path d="M36.9492 47.0752C36.0071 42.5723 40.8275 39.0701 44.8189 41.3576L72.3364 57.1282C76.3833 59.4475 75.7111 65.4784 71.2529 66.8499L60.3961 70.1895C59.2008 70.5573 58.1727 71.3335 57.4918 72.3824L53.0027 79.2976C50.4117 83.2889 44.2867 82.1442 43.3122 77.4865L36.9492 47.0752Z" fill="#018ED5"/>
<path d="M37.4742 46.9654C36.6533 43.0422 40.6963 39.9638 44.2133 41.6454L44.5523 41.8229L72.0699 57.594C75.5955 59.6149 75.1384 64.7682 71.4611 66.2096L71.0949 66.3369L60.2382 69.6763C59.0047 70.0558 57.9334 70.831 57.1867 71.8777L57.0418 72.0904L52.5529 79.0056C50.259 82.5392 44.8849 81.5967 43.8815 77.5707L43.8374 77.377L37.4742 46.9654Z" stroke="white" stroke-width="1.07297"/>
</g>
<path fill-rule="evenodd" clip-rule="evenodd" d="M51.0279 20.673C51.0649 18.2775 51.1226 15.9081 51.0897 13.5127C51.0845 12.9973 50.6648 12.5877 50.1528 12.5945C49.6374 12.5996 49.2261 13.0227 49.2329 13.5347C49.2637 15.9168 49.2072 18.2663 49.1698 20.6452C49.1633 21.1592 49.5734 21.5809 50.0825 21.5891C50.5965 21.5956 51.0214 21.187 51.0279 20.673Z" fill="#018ED5"/>
<path fill-rule="evenodd" clip-rule="evenodd" d="M33.7102 30.3009C28.8293 24.5139 23.659 18.9772 18.6579 13.2981C18.3169 12.9129 17.7306 12.8767 17.347 13.2144C16.9619 13.5554 16.9224 14.14 17.2618 14.5286C22.2559 20.1962 27.4193 25.7213 32.2883 31.4987C32.6212 31.8923 33.2061 31.9403 33.5982 31.6108C33.9919 31.2779 34.0397 30.693 33.7102 30.3009Z" fill="#018ED5"/>
<path fill-rule="evenodd" clip-rule="evenodd" d="M20.5565 54.2152C14.4027 52.4575 8.19009 50.8693 2.05608 49.0429C1.5651 48.8994 1.04869 49.179 0.901875 49.6684C0.753488 50.1612 1.03642 50.6792 1.52583 50.826C7.66814 52.6522 13.8875 54.2436 20.0496 56.0011C20.5422 56.1411 21.0568 55.8567 21.1969 55.3641C21.3386 54.8682 21.0524 54.3569 20.5565 54.2152Z" fill="#018ED5"/>
<defs>
<filter id="filter0_d_340_4031" x="15.5035" y="29.9742" width="80.8407" height="83.7443" filterUnits="userSpaceOnUse" color-interpolation-filters="sRGB">
<feFlood flood-opacity="0" result="BackgroundImageFix"/>
<feColorMatrix in="SourceAlpha" type="matrix" values="0 0 0 0 0 0 0 0 0 0 0 0 0 0 0 0 0 0 127 0" result="hardAlpha"/>
<feOffset dy="10.6631"/>
<feGaussianBlur stdDeviation="10.6631"/>
<feColorMatrix type="matrix" values="0 0 0 0 0 0 0 0 0 0 0 0 0 0 0 0 0 0 0.21 0"/>
<feBlend mode="normal" in2="BackgroundImageFix" result="effect1_dropShadow_340_4031"/>
<feBlend mode="normal" in="SourceGraphic" in2="effect1_dropShadow_340_4031" result="shape"/>
</filter>
</defs>
</svg>
