<svg width="166" height="153" viewBox="0 0 166 153" fill="none" xmlns="http://www.w3.org/2000/svg">
<path fill-rule="evenodd" clip-rule="evenodd" d="M58.6264 19.0133C53.7208 17.905 48.8631 16.7726 43.9761 15.7842C42.9242 15.5684 42.1972 16.1102 42.3455 16.992C42.4914 17.8789 43.4641 18.7695 44.5087 18.9812C49.369 19.9672 54.1856 21.0889 59.0573 22.1907C60.1095 22.4261 60.8637 21.906 60.7469 21.0358C60.6252 20.1563 59.6786 19.2486 58.6264 19.0133Z" fill="#018ED5"/>
<path fill-rule="evenodd" clip-rule="evenodd" d="M77.7191 56.2355C66.0652 63.1305 55.0626 70.7363 43.6882 77.9286C42.9173 78.42 43.0079 79.5837 43.8844 80.5288C44.769 81.4789 46.103 81.8561 46.882 81.3695C58.2325 74.1854 69.211 66.5877 80.8465 59.7118C81.6391 59.241 81.5755 58.0862 80.7148 57.128C79.846 56.1648 78.5091 55.7707 77.7191 56.2355Z" fill="#018ED5"/>
<path fill-rule="evenodd" clip-rule="evenodd" d="M124.34 78.6315C121.98 90.8035 120.045 103.19 117.514 115.283C117.318 116.253 118.145 117.499 119.363 118.069C120.59 118.645 121.747 118.315 121.952 117.351C124.479 105.239 126.42 92.8405 128.777 80.6507C128.964 79.6762 128.126 78.4309 126.902 77.8734C125.67 77.3107 124.53 77.6506 124.34 78.6315Z" fill="#018ED5"/>
</svg>
