<svg width="119" height="15" viewBox="0 0 119 15" fill="none" xmlns="http://www.w3.org/2000/svg">
<path fill-rule="evenodd" clip-rule="evenodd" d="M74.4986 3.89308C75.2328 3.99536 75.9633 4.10739 76.6904 4.22987C76.955 4.27437 77.1322 4.52308 77.0868 4.78499L77.0842 4.79536C80.961 4.58766 84.8395 4.41664 88.7188 4.28332C94.3228 4.09093 99.9713 4.02741 105.578 4.15308C111.119 4.27722 112.649 4.30171 117.445 4.82584C117.583 4.84082 117.844 4.82078 117.987 4.84978C118.123 4.87729 118.224 4.93497 118.289 4.99371C118.374 5.06812 118.425 5.15701 118.452 5.25645C118.479 5.36486 118.483 5.4995 118.398 5.65614C118.159 6.09594 117.733 6.24219 117.198 6.1909C116.737 6.1467 116.167 5.9149 115.734 5.91449C108.517 5.90835 101.3 5.84585 94.0829 5.85007C83.034 5.85658 72.0468 6.26838 61.0681 6.82649C49.5488 7.74186 38.057 8.96969 26.6052 10.4849C19.1469 11.4714 11.7198 12.6782 4.28052 13.8006C4.28838 13.8328 4.29181 13.8668 4.29262 13.9016C4.29476 14.1672 4.07807 14.3851 3.80984 14.3879C3.5381 14.3907 1.11865 14.4933 0.6659 14.4161C0.40656 14.3719 0.296066 14.223 0.258367 14.1586C0.155806 13.9819 0.136782 13.7833 0.323601 13.5794C0.360608 13.5402 0.43018 13.4748 0.563059 13.4268C0.676578 13.3849 0.960737 13.322 1.47973 13.2459C9.81353 12.0167 18.1266 10.636 26.4786 9.53046C30.2073 9.03765 33.9404 8.57444 37.6787 8.14345C32.5846 8.43774 27.4879 8.72332 22.3807 8.97495C22.1608 8.98641 22.0518 8.95862 22.0316 8.95166C21.7434 8.8517 21.7086 8.634 21.7053 8.50946C21.7036 8.46505 21.7157 8.09664 22.1231 8.01625C22.3615 7.96906 24.0942 7.78762 24.7601 7.70531C27.9592 7.30691 27.8862 7.33918 31.1609 6.95901C38.3622 6.12396 45.5606 5.39838 52.781 4.71285C55.6598 4.43963 58.5394 4.18 61.4208 3.93527C53.0596 3.82181 44.5775 4.44992 36.486 4.93494C32.3119 5.18525 28.1386 5.46133 23.9713 5.80934C22.1049 5.96526 20.2411 6.15219 18.3755 6.31734C17.7959 6.36859 17.2189 6.43316 16.6402 6.48781C16.5716 6.49421 15.6727 6.56509 15.5249 6.57233C15.1379 6.59132 15.0251 6.25688 15.0208 6.24347C14.9998 6.18052 14.9039 5.72657 15.379 5.62192C22.2429 4.1097 29.5302 3.83546 36.5236 3.17402C48.7636 2.01632 61.061 1.21043 73.3472 0.721301C78.7815 0.504903 84.211 0.470877 89.6502 0.434406C92.3668 0.416216 95.0912 0.40786 97.7993 0.640672C98.071 0.664092 98.6831 0.664641 98.982 0.694052C99.1341 0.709104 99.244 0.742038 99.295 0.766215C99.5182 0.87101 99.5732 1.04446 99.5853 1.16794C99.5939 1.26052 99.5968 1.58842 99.1613 1.71943C92.9377 3.59335 85.8567 3.17021 79.4318 3.5699C77.7871 3.6722 76.1433 3.77998 74.4986 3.89308ZM69.1449 4.27986C71.0697 4.43351 72.9794 4.64247 74.867 4.91833C70.2399 5.18296 65.6163 5.49967 60.9943 5.86706C53.3541 6.25546 45.7191 6.71439 38.0736 7.15662C43.0001 6.62781 47.931 6.13994 52.8715 5.67096C58.2905 5.15646 63.7156 4.69038 69.1449 4.27986ZM42.5309 3.60015C52.797 2.72464 63.0943 2.09252 73.3833 1.68293C78.8079 1.46698 84.2259 1.43322 89.6546 1.39684C91.7907 1.38252 93.933 1.37352 96.0671 1.48644C90.6471 2.53925 84.7749 2.27328 79.3729 2.60941C75.9613 2.82166 72.5496 3.05744 69.1406 3.31507C60.3785 2.62516 51.3067 3.06842 42.5309 3.60015Z" fill="#018ED5"/>
</svg>
