<svg width="301" height="36" viewBox="0 0 301 36" fill="none" xmlns="http://www.w3.org/2000/svg">
<path fill-rule="evenodd" clip-rule="evenodd" d="M111.624 8.8448C109.761 9.10439 107.906 9.38873 106.061 9.6996C105.389 9.81255 104.94 10.4438 105.055 11.1085L105.062 11.1348C95.2219 10.6077 85.378 10.1736 75.532 9.83525C61.3089 9.34696 46.9725 9.18574 32.7419 9.50469C18.6786 9.81977 14.7951 9.88194 2.62203 11.2122C2.27391 11.2502 1.61098 11.1994 1.24731 11.273C0.901477 11.3428 0.647206 11.4892 0.480084 11.6383C0.266165 11.8271 0.134984 12.0527 0.0684948 12.3051C-0.00241627 12.5802 -0.0107946 12.922 0.204218 13.3195C0.811169 14.4358 1.89218 14.807 3.25122 14.6768C4.42058 14.5646 5.86579 13.9763 6.96616 13.9753C25.2841 13.9597 43.5996 13.801 61.9176 13.8117C89.9605 13.8283 117.847 14.8734 145.711 16.29C174.948 18.6132 204.115 21.7295 233.18 25.5752C252.11 28.079 270.961 31.142 289.842 33.9905C289.822 34.0723 289.813 34.1585 289.811 34.2469C289.806 34.9211 290.356 35.4741 291.037 35.4812C291.726 35.4883 297.867 35.7488 299.016 35.5528C299.674 35.4405 299.955 35.0627 300.05 34.8992C300.311 34.4507 300.359 33.9467 299.885 33.4292C299.791 33.3296 299.614 33.1637 299.277 33.0419C298.989 32.9356 298.268 32.776 296.951 32.5828C275.799 29.4631 254.7 25.9587 233.502 23.1528C224.038 21.902 214.563 20.7263 205.075 19.6325C218.004 20.3794 230.94 21.1042 243.902 21.7428C244.461 21.772 244.737 21.7014 244.789 21.6838C245.52 21.43 245.608 20.8775 245.617 20.5614C245.621 20.4487 245.59 19.5137 244.556 19.3096C243.951 19.1898 239.553 18.7294 237.863 18.5204C229.744 17.5093 229.929 17.5912 221.618 16.6263C203.34 14.5069 185.07 12.6653 166.745 10.9254C159.438 10.232 152.129 9.57303 144.816 8.95187C166.037 8.6639 187.566 10.2581 208.102 11.4891C218.697 12.1244 229.289 12.8251 239.865 13.7084C244.602 14.1041 249.333 14.5785 254.068 14.9977C255.539 15.1278 257.003 15.2917 258.472 15.4304C258.647 15.4466 260.928 15.6265 261.303 15.6449C262.285 15.6931 262.571 14.8442 262.583 14.8102C262.636 14.6504 262.879 13.4983 261.673 13.2327C244.252 9.39459 225.757 8.69855 208.007 7.0198C176.941 4.0815 145.729 2.0361 114.546 0.794658C100.754 0.24543 86.9731 0.159069 73.1681 0.0665041C66.2733 0.0203373 59.3586 -0.00087192 52.4852 0.590017C51.7956 0.649459 50.2421 0.650853 49.4833 0.7255C49.0973 0.763703 48.8184 0.84729 48.6891 0.908653C48.1226 1.17463 47.9828 1.61485 47.9522 1.92826C47.9303 2.16322 47.9229 2.99544 49.0284 3.32797C64.8241 8.08407 82.7964 7.01011 99.103 8.02455C103.277 8.28419 107.449 8.55775 111.624 8.8448ZM125.212 9.82648C120.327 10.2164 115.48 10.7468 110.689 11.4469C122.433 12.1186 134.168 12.9224 145.899 13.8549C165.29 14.8406 184.668 16.0054 204.073 17.1278C191.569 15.7857 179.054 14.5475 166.515 13.3572C152.761 12.0513 138.992 10.8684 125.212 9.82648ZM192.76 8.10132C166.704 5.87923 140.569 4.2749 114.455 3.23534C100.687 2.68723 86.9353 2.60155 73.157 2.50922C67.7354 2.47288 62.2982 2.45001 56.8817 2.73662C70.638 5.40871 85.542 4.73366 99.2525 5.58677C107.911 6.12549 116.571 6.72391 125.223 7.37779C147.462 5.62676 170.487 6.75178 192.76 8.10132Z" fill="#018ED5"/>
</svg>
