<svg width="148" height="151" viewBox="0 0 148 151" fill="none" xmlns="http://www.w3.org/2000/svg">
<g clip-path="url(#clip0_340_3645)">
<path d="M22.8759 73.6006C22.8759 73.6006 11.2664 86.7734 5.73084 114.759C5.73084 114.759 4.80838 121.678 7.44789 121.986C10.0615 122.293 11.6507 118.347 12.5735 115.937C12.9579 114.913 30.0261 75.4459 26.9249 73.2927C26.9249 73.2927 37.5857 72.7033 38.7396 79.9562C39.9185 87.1829 28.6934 92.7957 25.4126 93.462C22.1071 94.1029 22.184 95.4355 22.3891 95.6144C22.5942 95.7933 23.3116 96.7424 27.5662 96.1019C31.8204 95.4355 41.6101 92.4882 45.8643 83.4417C45.8643 83.4417 49.9651 74.8819 42.3278 68.6032C34.665 62.299 23.4398 65.4766 19.237 68.2188C15.0087 70.9611 16.5206 73.9595 16.9305 74.3693C17.3655 74.805 18.3397 75.3431 22.8759 73.6006ZM59.508 65.7814C59.508 65.7814 59.6355 64.2177 60.7639 64.064C61.9169 63.9103 62.7115 64.2177 62.9422 67.5499C63.1986 70.9071 61.5585 75.7763 58.8931 80.4662C57.6886 82.6186 55.408 87.898 55.459 88.4361C55.459 88.4361 56.2536 90.6402 53.6909 90.6147C51.1283 90.5896 49.5391 86.5143 49.9493 83.2853C50.3588 80.0563 51.3068 76.5708 59.5077 65.7811M81.2508 67.6909C81.2508 67.6909 74.3567 69.1259 70.5896 68.7416C70.5896 68.7416 64.8745 67.9983 66.4378 64.718C66.4378 64.718 67.1041 63.3598 68.6929 63.4618C70.2817 63.5638 72.3063 63.821 75.0999 63.3598C77.8931 62.9241 86.2478 62.6934 87.3499 62.8217C88.4516 62.9499 90.0663 64.0775 89.3485 66.384C88.6057 68.6902 82.8133 75.0462 82.8133 75.0462L73.5876 83.7852C73.5876 83.7852 79.7381 82.5552 87.0679 83.8107C94.3977 85.0669 98.3182 85.3998 100.061 85.1944C101.778 84.9896 104.776 84.3488 105.571 84.0154C106.365 83.682 107.058 83.9385 107.339 84.4256C107.647 84.9127 107.519 85.6305 106.314 86.3733C105.109 87.1158 100.932 89.8333 93.0646 89.5513C85.1971 89.2693 80.6095 89.3207 80.6095 89.3207C80.6095 89.3207 71.7674 89.1924 66.9241 90.602C66.9241 90.602 63.1056 92.6265 61.4655 90.7557C59.8253 88.8853 61.0811 86.4506 61.9267 85.092C63.1574 83.1443 69.462 77.3268 81.2508 67.6909Z" fill="#221E1F"/>
<path d="M91.3634 61.2506C91.3634 61.2506 90.646 59.4308 91.7477 58.406C92.0548 58.0985 92.7471 57.7655 93.2597 57.7396C93.7723 57.7396 94.1311 57.9447 94.8998 58.0471C95.5917 58.1753 108.329 56.3297 108.329 56.3297C108.329 56.3297 112.275 55.7147 114.428 57.9447C116.248 59.8669 112.942 63.4034 112.942 63.4034C112.942 63.4034 101.921 74.7054 101.537 74.8329C101.537 74.8329 104.639 75.1666 105.51 75.269C106.381 75.3714 111.379 76.2169 113.096 75.9608C114.813 75.7047 115.197 75.6533 115.402 75.6023C115.633 75.5255 116.709 75.218 116.991 76.1146C117.298 77.037 116.197 78.3956 113.121 79.7538C110.02 81.1124 105.484 81.2402 103.562 81.1634C101.665 81.0355 96.3094 80.8049 94.3621 80.9586C92.3882 81.112 90.3123 81.6505 90.082 81.6505C89.8001 81.676 87.8269 81.5481 88.9541 78.4725C90.082 75.3972 93.2597 73.1162 93.2597 73.1162L105.971 62.7366C105.971 62.7366 95.1814 64.0952 93.4134 63.3516C92.5933 63.019 91.594 62.1217 91.3634 61.2506ZM32.3427 115.945C35.0077 115.459 39.5184 114.895 39.5184 114.895C39.5184 114.895 48.6932 93.9567 52.5116 93.8281C56.3305 93.7006 48.77 112.947 48.77 112.947L59.9952 110.564C59.9952 110.564 62.6088 101.414 65.095 97.2626C67.5549 93.1111 68.3753 92.9574 68.7856 92.9574C69.1954 92.9574 70.8356 93.0342 70.5281 94.956C70.2206 96.8786 68.2471 108.308 68.2471 108.308L71.3482 107.155C71.3482 107.155 72.0659 106.796 72.4758 107.462C72.8856 108.154 71.7581 109.026 71.7581 109.026L67.3756 111.87C67.3756 111.87 64.3518 125.043 63.1728 126.812C61.9939 128.58 60.5588 129.605 59.1492 129.503C57.7655 129.4 56.3815 128.016 56.5093 124.813C56.6117 121.609 57.9189 117.047 57.9958 116.689C57.9958 116.689 47.7958 120.763 46.2325 120.917C46.2325 120.917 42.8239 134.627 41.7991 136.396C40.7994 138.164 38.647 139.317 36.9299 139.113C34.5975 138.831 34.2645 135.602 34.239 133.679C34.2128 131.757 35.7 125.478 36.8785 121.865C36.8785 121.865 31.625 121.301 30.7281 120.045C30.7281 120.045 29.9593 119.148 30.1641 117.713C30.3947 116.253 32.3427 115.945 32.3427 115.945Z" fill="#221E1F"/>
<path d="M98.3931 123.398C98.3931 123.398 113.718 118.682 122.97 117.632C132.222 116.555 136.45 116.273 136.45 116.273C136.45 116.273 137.373 116.068 137.578 117.094C137.757 118.042 136.322 118.247 136.322 118.247C108.029 126.73 88.0649 135.264 85.707 136.263C83.4774 137.16 54.7232 149.795 54.7232 149.795C54.7232 149.795 51.1864 151.076 48.3162 150.563C45.4202 150.051 44.8563 148.718 44.6256 147.411C44.6256 147.411 43.7801 144.464 47.9574 143.055C51.801 141.748 62.104 137.135 62.104 137.135L89.1929 126.397L98.3931 123.398Z" fill="#FCC607"/>
<path d="M134.551 64.9739C134.321 65.5889 134.244 66.5121 134.244 66.5121C134.244 66.5121 130.63 68.588 128.99 69.2289C127.298 69.8952 125.223 69.767 125.223 69.767C127.298 62.7195 136.14 61.3354 136.14 61.3354C136.14 61.3354 134.782 64.3848 134.551 64.9743M147.75 69.4077C147.621 68.8951 144.828 68.5621 143.803 68.459C142.778 68.3825 141.881 67.8699 141.445 66.6913C141.035 65.5638 142.521 62.0014 143.188 59.4898C143.88 56.9781 142.495 56.0812 141.702 56.0043C140.932 55.9274 139.959 56.6451 139.959 56.6451C129.682 54.4924 118.047 65.3583 117.38 70.1764C116.894 73.6874 117.893 76.1736 120.815 76.7885C123.711 77.4035 126.35 76.3528 128.631 75.4558C130.887 74.6103 135.397 71.1248 135.397 71.1248C135.832 72.2269 138.267 73.3286 140.497 73.4058C142.726 73.5082 146.597 71.7143 147.263 71.253C147.929 70.8173 147.903 69.9203 147.75 69.4077Z" fill="#221E1F"/>
<path d="M69.2129 46.0891C69.2129 46.0891 70.3919 45.4996 70.8786 46.0122C71.3653 46.5248 71.0837 47.2935 70.6986 47.9854C70.3146 48.6776 64.907 57.0319 63.0876 58.6462C61.9341 59.6462 60.2939 59.8255 59.0126 59.0564C57.7058 58.3132 57.885 55.8015 58.3463 54.7512C58.8075 53.7005 60.3449 50.7531 63.5229 48.78C66.6758 46.8323 69.2129 46.0891 69.2129 46.0891Z" fill="#009867"/>
<path d="M139.584 35.0462L137.304 33.4574C130.845 28.4086 104.654 18.0294 104.654 18.0294C104.654 18.0294 102.809 13.8779 101.758 11.853C98.8105 6.16377 94.3774 1.67896 94.1719 1.52522C93.9417 1.39697 93.7366 1.39697 93.7366 1.39697L93.5314 1.44835L85.8428 3.49838L68.211 8.59817C68.211 8.59817 56.1148 12.3915 55.5508 12.5966C54.9872 12.8272 54.577 13.2116 54.577 13.2116C54.577 13.2116 50.451 20.31 50.1177 21.1305C49.7588 21.9506 45.0179 31.1253 45.0179 31.1253L33.2291 36.6863C32.1529 37.2758 32.1529 37.2248 24.003 42.1454L14.1364 49.0391C14.1364 49.0391 4.78208 56.1124 4.01337 56.8294C3.24427 57.5212 2.37319 59.0331 3.1929 60.3403C3.98749 61.6472 6.01203 61.4165 6.01203 61.4165L15.4688 58.9304L34.4591 54.1126L57.0627 49.3972L60.1639 48.8591C60.8302 48.2441 61.5989 47.6291 62.47 47.091C65.4943 45.2199 67.9804 44.4001 68.544 44.2205C69.723 43.6824 71.2604 43.5542 72.3111 44.6304C72.7468 45.0661 73.1312 45.758 73.1057 46.7063L74.387 46.4757H74.438L98.605 43.3491C98.605 43.3491 114.033 41.7854 119.21 41.6316C131.716 41.2477 137.739 39.3769 137.739 39.3769C138.251 39.1462 139.942 38.5568 140.276 37.1731C140.609 35.7894 139.584 35.0458 139.584 35.0458" fill="#EE1C23"/>
<path d="M106.516 101.366C106.516 101.366 99.9306 101.391 99.7765 98.9311C99.6227 96.4705 102.416 95.9328 103.672 96.5732C103.672 96.5732 104.39 96.727 105.082 96.6246C105.774 96.5222 109.208 95.9073 109.208 95.9073C109.208 95.9073 114.385 87.5264 115.333 86.6557C115.333 86.6557 116.358 85.272 117.998 86.3737C119.638 87.5013 118.459 90.0894 118.459 90.0894L116.307 94.4463L131.811 91.5503C131.811 91.5503 132.76 91.3197 132.939 92.0888C133.093 92.7293 131.453 93.4463 131.453 93.4463C131.453 93.4463 115.487 99.8536 113.795 100.136L109.387 112.053L105.774 122.765C105.774 122.765 105.338 123.636 104.441 123.585C103.544 123.559 103.108 121.996 103.082 121.612C103.031 121.227 102.698 115.589 103.364 111.796C104.031 108.004 106.516 101.443 106.516 101.443M74.8337 105.907C74.8337 105.907 74.3211 104.728 73.2445 104.19C72.1683 103.626 71.9883 103.087 72.5013 102.524C72.9625 101.986 75.1157 101.397 77.2681 101.832C79.4464 102.242 80.9328 104.856 81.1124 106.65C81.292 108.445 81.0611 111.392 79.8562 114.492C79.8562 114.492 89.4408 108.521 91.3889 105.266C91.3889 105.266 93.7723 100.397 94.8743 99.5251C94.8743 99.5251 97.104 97.8339 98.0523 100.371C98.0523 100.371 98.1292 102.37 97.4118 106.393C96.6941 110.417 96.6428 118.208 96.7706 118.439C96.8993 118.695 97.8217 119.976 96.3608 120.822C96.3608 120.822 95.3356 121.155 93.8746 119.976C92.4141 118.797 89.8769 116.594 90.0048 112.16C90.0048 112.16 85.418 118.772 81.5481 120.514C77.6783 122.257 76.0119 122.436 73.5779 120.616C71.1431 118.823 72.8346 113.262 72.8346 113.262C72.8346 113.262 74.7568 107.47 74.7827 107.342C74.8078 107.188 75.0639 106.394 74.8337 105.907ZM45.1233 28.8058C45.0978 28.9081 44.8927 28.934 44.7131 28.8571C44.508 28.7803 44.2774 28.5496 44.4825 28.0115C44.6621 27.4476 49.1724 18.1705 52.1198 13.1985C52.1198 13.1985 52.401 12.3529 53.5548 11.9941C54.6824 11.6352 83.4879 3.38333 83.4879 3.38333L90.9456 1.46116C90.9456 1.46116 92.3556 1.23055 92.8678 2.69111C93.3549 4.15242 91.9453 4.7674 91.6378 4.86977C91.3559 4.99726 74.0316 10.4308 74.0316 10.4308L54.5546 15.0187C54.5542 15.0183 45.1747 28.7289 45.1233 28.8058ZM97.5963 0.694319C97.5963 0.694319 97.494 0.438205 97.7238 0.335835C97.9548 0.233464 98.1344 0.56645 98.1344 0.56645C98.1344 0.56645 100.108 4.18017 100.364 4.97439C100.62 5.7686 104.849 17.455 104.849 17.455C104.849 17.455 119.2 21.6323 119.944 21.8374C120.712 22.0422 136.268 27.5012 144.187 31.6016C144.187 31.6016 144.931 31.9605 145.008 32.0115C145.085 32.0625 145.93 32.883 145.52 33.9082C145.136 34.9079 144.11 35.0871 143.777 35.0616C143.445 35.0361 141.651 34.3439 141.651 34.3439C141.651 34.3439 113.127 24.0926 105.72 22.3245C105.72 22.3245 102.004 21.0942 101.466 19.9156C100.954 18.7367 100.005 12.5093 100.005 12.5093L97.5963 0.694319ZM131.599 36.3456C131.061 33.5519 126.345 33.3982 125.654 33.4754C124.962 33.5264 77.9093 39.7287 74.7827 40.2409C57.7659 43.0341 28.5502 50.364 28.5502 50.364L10.6364 55.6434C10.9698 54.977 25.2957 44.8539 26.1413 44.2135C26.9868 43.573 43.5938 33.3727 43.5938 33.3727C43.5938 33.3727 44.9265 32.8605 44.4907 32.0404C44.1319 31.2975 43.44 31.5278 43.44 31.5278C43.44 31.5278 42.4148 31.9635 39.4419 33.2189C33.6758 35.6796 24.4238 41.241 24.4238 41.241C17.1203 45.2901 1.79466 57.7197 1.79466 57.7197C1.79466 57.7197 0.282727 58.7449 1.07694 60.5898C1.84566 62.4606 3.92157 62.23 3.92157 62.23L26.1664 56.2332C27.8066 55.49 56.8427 49.5697 56.8427 49.5697L59.9948 49.0061C60.7125 48.3398 61.5068 47.6735 62.4806 47.0844C65.479 45.2132 67.9647 44.3935 68.5287 44.2138C69.7077 43.7012 71.271 43.5475 72.2962 44.6241C72.7574 45.0853 73.1673 45.803 73.1163 46.8024L74.3976 46.5972L74.4231 46.5718C90.9531 43.7271 127.344 41.3182 127.344 41.3182C128.678 41.112 132.291 39.9079 131.599 36.3456ZM136.804 123.562H137.137C137.521 123.562 137.88 123.408 137.88 123.049C137.88 122.793 137.675 122.537 137.137 122.537C136.984 122.537 136.881 122.537 136.804 122.562V123.562L136.804 123.562ZM136.804 125.202H136.343V122.254C136.573 122.203 136.804 122.178 137.163 122.178C137.624 122.178 137.906 122.255 138.085 122.383C138.265 122.537 138.367 122.716 138.367 122.998C138.367 123.409 138.111 123.639 137.778 123.716V123.742C138.034 123.793 138.213 124.023 138.29 124.484C138.342 124.945 138.419 125.125 138.47 125.202H137.983C137.906 125.125 137.829 124.843 137.778 124.459C137.701 124.075 137.522 123.92 137.138 123.92H136.804V125.202ZM137.291 121.409C136.138 121.409 135.163 122.409 135.163 123.664C135.163 124.92 136.138 125.92 137.316 125.92C138.494 125.92 139.443 124.92 139.443 123.664C139.443 122.409 138.495 121.409 137.316 121.409H137.291ZM137.317 120.999C138.777 120.999 139.931 122.178 139.931 123.664C139.931 125.176 138.777 126.329 137.291 126.329C135.856 126.329 134.677 125.176 134.677 123.664C134.677 122.178 135.856 120.999 137.291 120.999H137.317Z" fill="#221E1F"/>
</g>
<defs>
<clipPath id="clip0_340_3645">
<rect width="147" height="150.368" fill="white" transform="translate(0.842773 0.315918)"/>
</clipPath>
</defs>
</svg>
