<svg width="458" height="215" viewBox="0 0 458 215" fill="none" xmlns="http://www.w3.org/2000/svg">
<path fill-rule="evenodd" clip-rule="evenodd" d="M261.062 2.44359C301.359 13.8471 307.978 69.3084 337.891 98.6192C374.996 134.977 451.841 142.605 456.873 194.311C461.875 245.705 395.263 273.634 358.448 309.842C332.172 335.684 299.273 350.43 272.445 375.698C233.745 412.148 219.59 487.167 166.54 490.592C115.828 493.865 87.4727 429.895 56.4563 389.64C32.2864 358.272 16.4762 322.63 7.41895 284.079C-0.690763 249.561 5.84797 215.292 7.16999 179.859C8.79388 136.334 -14.845 82.8286 16.0721 52.1509C47.098 21.3653 101.431 52.5162 144.265 43.8254C185.58 35.4427 220.498 -9.03541 261.062 2.44359Z" fill="white" fill-opacity="0.22"/>
</svg>
