<svg width="458" height="316" viewBox="0 0 458 316" fill="none" xmlns="http://www.w3.org/2000/svg">
<path fill-rule="evenodd" clip-rule="evenodd" d="M261.367 -172.556C301.664 -161.153 308.284 -105.692 338.197 -76.3808C375.302 -40.0232 452.147 -32.3945 457.179 19.3115C462.181 70.7051 395.568 98.6342 358.753 134.842C332.478 160.684 299.579 175.43 272.751 200.698C234.051 237.148 219.896 312.167 166.846 315.592C116.134 318.865 87.7784 254.895 56.7619 214.64C32.5921 183.272 16.7819 147.63 7.72462 109.079C-0.385099 74.5608 6.15364 40.2925 7.47566 4.85873C9.09954 -38.6656 -14.5393 -92.1714 16.3778 -122.849C47.4036 -153.635 101.737 -122.484 144.57 -131.175C185.886 -139.557 220.804 -184.035 261.367 -172.556Z" fill="white" fill-opacity="0.22"/>
</svg>
