<svg width="692" height="596" viewBox="0 0 692 596" fill="none" xmlns="http://www.w3.org/2000/svg">
<path fill-rule="evenodd" clip-rule="evenodd" d="M394.916 -141.668C455.773 -124.446 465.77 -40.6872 510.946 3.57855C566.982 58.4865 683.036 70.0075 690.635 148.095C698.189 225.711 597.589 267.89 541.991 322.572C502.309 361.599 452.624 383.869 412.108 422.029C353.663 477.076 332.285 590.372 252.167 595.544C175.581 600.487 132.758 503.878 85.9167 443.085C49.4149 395.711 25.538 341.885 11.8595 283.664C-0.38794 231.534 9.48701 179.781 11.4835 126.268C13.936 60.5367 -21.764 -20.2687 24.9277 -66.5989C71.7836 -113.092 153.839 -66.0472 218.527 -79.1722C280.922 -91.832 333.656 -159.004 394.916 -141.668Z" fill="white" fill-opacity="0.22"/>
</svg>
