<svg width="29" height="29" viewBox="0 0 29 29" fill="none" xmlns="http://www.w3.org/2000/svg">
<path d="M2.61719 17.3652L5.36686 26.092C5.41175 26.2356 5.48468 26.3689 5.58144 26.4842C5.67819 26.5994 5.79685 26.6943 5.93054 26.7634C7.55844 27.609 9.36629 28.0496 11.2007 28.0477C11.8424 28.0414 12.4824 27.9816 13.1141 27.869L2.61719 17.3652Z" fill="#D1D5DB"/>
<path d="M28.1473 15.7922L13.2533 0.898189C13.0385 0.683314 12.7471 0.562565 12.4433 0.5625C9.40574 0.565836 6.49355 1.77398 4.34568 3.92185C2.1978 6.06972 0.989664 8.98191 0.986328 12.0195C0.986393 12.3233 1.10714 12.6147 1.32202 12.8295L16.2161 27.7235C16.4309 27.9384 16.7222 28.0591 17.0261 28.0592C20.0636 28.0559 22.9758 26.8477 25.1237 24.6999C27.2716 22.552 28.4797 19.6398 28.483 16.6022C28.483 16.2984 28.3622 16.007 28.1473 15.7922ZM9.0062 10.8738C8.55301 10.8738 8.10999 10.7394 7.73317 10.4876C7.35635 10.2358 7.06266 9.87795 6.88923 9.45925C6.7158 9.04055 6.67042 8.57983 6.75884 8.13534C6.84725 7.69086 7.06548 7.28257 7.38594 6.96211C7.7064 6.64166 8.11468 6.42342 8.55917 6.33501C9.00366 6.24659 9.46438 6.29197 9.88308 6.4654C10.3018 6.63883 10.6596 6.93253 10.9114 7.30934C11.1632 7.68616 11.2976 8.12918 11.2976 8.58237C11.2976 9.19009 11.0562 9.77291 10.6265 10.2026C10.1967 10.6323 9.61391 10.8738 9.0062 10.8738ZM19.0883 18.6645L18.1271 21.7579L16.2562 19.1125L13.0161 19.1537L14.9547 16.5564L13.9144 13.4894L16.9825 14.5297L19.5798 12.5923L19.5386 15.8323L22.1817 17.7033L19.0883 18.6645Z" fill="#018ED5"/>
</svg>
