<svg width="28" height="29" viewBox="0 0 28 29" fill="none" xmlns="http://www.w3.org/2000/svg">
<path d="M21.4551 23.0512L23.2786 24.7598C25.3884 22.5075 25.5983 22.2001 26.9407 19.4329L24.6922 18.3418C23.4636 20.8727 23.3798 20.9952 21.4551 23.0512Z" fill="#D1D5DB"/>
<path d="M13.1797 25.6651L13.2409 28.1636C16.5093 28.0836 17.0305 27.9836 20.0626 26.8787L19.2065 24.5303C16.443 25.5364 16.1743 25.5914 13.1797 25.6651Z" fill="#D1D5DB"/>
<path d="M5.24697 21.3574L3.46094 23.106C5.75691 25.4494 6.20936 25.7844 9.15526 27.2555L10.2739 25.0195C7.59919 23.6846 7.34547 23.5022 5.24697 21.3574Z" fill="#D1D5DB"/>
<path d="M2.89814 13.1387H0.398438C0.398438 16.292 0.465929 16.717 1.41082 19.7004L3.79303 18.9455C2.92813 16.2146 2.89814 16.0146 2.89814 13.1387Z" fill="#D1D5DB"/>
<path d="M7.36083 5.43116C9.30685 3.95259 11.6616 3.14019 14.1475 3.14019C20.3505 3.14019 25.3962 8.18583 25.3962 14.3888C25.3962 14.6476 25.3749 14.9 25.3574 15.1537L27.8371 15.5412C27.8696 15.16 27.8959 14.7775 27.8959 14.3888C27.8959 6.8085 21.7279 0.640486 14.1475 0.640486C10.9666 0.640486 7.95201 1.71786 5.5148 3.69262L2.06522 0.458008L1.25781 9.93687L10.7617 8.60953L7.36083 5.43116Z" fill="currentColor"/>
</svg>
