<svg width="133" height="163" viewBox="0 0 133 163" fill="none" xmlns="http://www.w3.org/2000/svg">
<g clip-path="url(#clip0_340_3555)">
<path d="M76.986 122.634C76.2184 122.634 75.4509 122.634 74.6833 122.634C73.8111 122.564 72.9389 122.878 72.0318 122.843C70.5316 122.773 69.0663 122.913 67.566 122.948C65.6472 122.983 63.6934 123.087 61.7745 123.192C59.4021 123.332 57.0297 123.471 54.6572 123.68C50.1915 124.029 45.7257 124.413 41.2949 125.111C35.8173 125.948 30.4096 127.134 25.0018 128.356C24.5134 128.46 24.0249 128.635 23.5365 128.6C22.8736 128.565 22.455 128.216 22.2805 127.588C22.0712 126.786 22.2456 125.983 22.3154 125.216C22.6294 121.517 23.2225 117.854 23.9901 114.226C25.0018 109.516 26.1183 104.875 27.5138 100.27C27.5138 100.2 27.5487 100.165 27.5487 100.096C27.6185 99.7468 27.5487 99.677 27.2347 99.7468C26.6765 99.8864 26.188 100.2 25.9089 100.759C25.5949 101.352 25.3158 101.98 25.0367 102.608C23.9552 105.224 23.0132 107.876 22.0712 110.527C21.0943 113.214 20.1523 115.9 19.2452 118.622C18.5125 120.82 17.9543 123.087 17.3612 125.32C17.0821 126.367 16.7681 127.448 16.5239 128.53C16.4192 129.018 16.4192 129.018 16.9077 129.088C19.5941 129.437 22.2456 129.786 24.9321 130.135C28.2814 130.554 31.6656 131.007 35.0149 131.426C39.3062 131.984 43.5626 132.542 47.8539 133.066C50.5055 133.414 53.1221 133.763 55.7737 134.077C55.983 134.112 56.2272 134.077 56.4365 134.287C56.3668 134.426 56.2621 134.391 56.1574 134.391C52.9826 134.391 49.8077 134.391 46.5979 134.391C46.563 134.391 46.5282 134.391 46.4584 134.391C45.4815 134.391 44.4697 134.356 43.4928 134.391C41.7484 134.461 40.0389 134.112 38.2944 133.903C36.6895 133.728 35.0847 133.484 33.5147 133.275C31.9098 133.066 30.3049 132.856 28.7349 132.647C27.1649 132.438 25.5601 132.228 23.9901 132.019C22.4201 131.81 20.8501 131.6 19.2801 131.391C17.6752 131.182 16.0703 130.972 14.4306 130.763C12.8606 130.554 11.2557 130.344 9.68569 130.135C8.1157 129.926 6.54571 129.716 4.97572 129.507C4.06861 129.402 3.12662 129.298 2.21951 129.158C1.69618 129.088 1.55663 128.844 1.55663 128.251C1.55663 122.948 1.55663 117.68 1.52174 112.377C1.41707 82.5467 1.3473 52.7169 1.24263 22.887C1.24263 18.3515 1.20774 13.7811 1.20774 9.24555C1.20774 9.106 1.20774 8.93155 1.20774 8.792C1.13796 7.53601 1.20774 6.24512 1.17285 4.98913C1.17285 4.74491 1.17285 4.50069 1.17285 4.29136C1.17285 3.10514 1.17285 1.88404 1.17285 0.697821C1.17285 0.418711 1.20774 0.17449 1.55663 0.0698242C1.87063 0.0698242 2.18462 0.0698242 2.46373 0.0698242C3.82439 0.17449 5.18505 0.348934 6.5806 0.523377C10.9766 1.11649 15.3726 1.6747 19.7685 2.26781C25.4554 3.00047 31.1074 3.73314 36.7942 4.50069C37.8758 4.64024 38.8178 4.4658 39.8295 4.04714C44.1557 2.23292 48.6564 0.97693 53.3315 0.4536C57.1343 4.6812e-05 60.9372 0.244268 64.6703 1.15137C69.3803 2.26781 73.7762 4.11691 77.8233 6.76845C79.4282 7.81511 80.9633 8.96644 82.3588 10.2573C82.6031 10.5015 82.9171 10.5713 83.2311 10.6062C88.1155 11.2342 93.0348 11.8971 97.9192 12.5251C103.257 13.2229 108.595 13.9206 113.933 14.6184C118.852 15.2464 123.737 15.9093 128.656 16.5373C129.807 16.6768 130.994 16.8513 132.145 16.9908C132.494 17.0257 132.773 17.1304 132.843 17.5142C132.843 17.7235 132.843 17.8979 132.843 18.1073C132.494 19.0842 132.285 20.0959 132.005 21.0728C129.598 30.1788 127.226 39.2847 124.818 48.3907C122.446 57.4966 120.039 66.5677 117.666 75.6736C115.294 84.6749 112.956 93.6413 110.584 102.643C108.211 111.644 105.874 120.61 103.501 129.612C102.49 133.554 101.443 137.462 100.396 141.369C100.257 141.857 100.013 142.032 99.5241 141.997C98.6868 141.892 97.8145 141.753 96.9423 141.648C97.1168 140.985 97.2912 140.322 97.4657 139.659C97.5703 139.555 97.7099 139.555 97.8494 139.555C98.4425 139.59 98.5821 139.485 98.7216 138.927C99.0008 137.81 99.3148 136.729 99.5939 135.612C100.327 132.786 101.094 129.96 101.827 127.169C101.897 126.89 101.897 126.611 101.827 126.332C100.536 121.482 99.3148 116.633 98.1285 111.783C97.1865 107.876 96.2097 103.933 95.2677 100.026C94.8839 98.4211 94.4652 96.8511 94.0466 95.2462C93.8721 94.4786 93.4535 93.9553 92.7906 93.5715C92.3719 93.3273 91.9183 93.118 91.4299 93.0133C90.8019 92.8738 90.5926 93.0831 90.6624 93.7111C90.8368 94.7926 91.0112 95.8742 91.1857 96.9208C91.709 99.9562 92.1975 102.957 92.5463 106.027C92.7906 108.12 92.9999 110.213 93.1743 112.307C93.3488 114.086 93.4535 115.865 93.5581 117.645C93.6279 118.482 93.593 119.354 93.6628 120.192C93.7326 120.959 93.907 121.238 94.6746 121.378C95.477 121.517 96.2445 121.622 97.0121 121.866C97.2214 121.936 97.4308 121.971 97.6052 122.076C97.8145 122.18 97.989 122.285 97.9541 122.529C97.9192 122.773 97.7448 122.878 97.5354 122.913C97.1168 123.018 96.6632 123.018 96.2446 122.948C95.6514 122.878 95.0583 122.878 94.4652 122.878C94.2908 122.878 94.1163 122.878 93.9419 122.773C92.6859 122.773 91.395 122.773 90.139 122.773C90.1041 122.808 90.0344 122.843 89.9995 122.878C88.4993 122.913 87.0339 123.018 85.5337 122.773C85.4639 122.773 85.429 122.738 85.3593 122.738C84.2428 122.738 83.1264 122.669 82.01 122.773C80.5098 122.913 79.0444 122.808 77.5442 122.843C77.3349 122.738 77.1604 122.738 76.986 122.634Z" fill="#242220"/>
<path d="M1.06819 4.2216C1.06819 5.72182 1.06819 7.22203 1.06819 8.75713H1.0333H0.998413C0.998413 7.25692 0.998413 5.7567 0.998413 4.2216C1.0333 4.18671 1.06819 4.18671 1.06819 4.2216Z" fill="#EDEDEC"/>
<path d="M1.06819 4.22156H1.0333H0.998413C0.998413 3.00046 0.998413 1.77935 0.998413 0.523359C1.0333 0.48847 1.0333 0.48847 1.06819 0.523359C1.06819 1.74446 1.06819 3.00046 1.06819 4.22156Z" fill="#D5D5D4"/>
<path d="M1.06814 0.523379H0.998363C0.963474 0.209381 0.928586 -0.104617 1.41703 0.0349374C1.27747 0.174492 1.10303 0.314047 1.06814 0.523379Z" fill="#F6F6F5"/>
<path d="M46.4235 134.356C47.1213 134.356 47.8191 134.322 48.5168 134.322C50.959 134.322 53.4012 134.322 55.8435 134.322C55.983 134.322 56.1226 134.322 56.2621 134.322C56.2621 134.287 56.2621 134.287 56.2621 134.252C54.6572 134.042 53.0175 133.833 51.4126 133.624C50.017 133.449 48.6215 133.24 47.2608 133.066C45.8653 132.891 44.4348 132.717 43.0393 132.542C41.4344 132.333 39.8295 132.124 38.2247 131.914C36.7942 131.74 35.3987 131.565 33.9682 131.391C32.782 131.251 31.6307 131.077 30.4445 130.937C29.2583 130.798 28.0372 130.623 26.8509 130.484C25.4903 130.309 24.0947 130.135 22.7341 129.96C21.5479 129.821 20.3616 129.646 19.1754 129.507C18.2683 129.402 17.3263 129.263 16.4192 129.158C16.1401 129.123 16.2448 128.984 16.2797 128.844C16.6983 127.239 17.117 125.634 17.5357 124.029C18.1985 121.517 18.9312 119.005 19.7685 116.563C21.4083 111.888 23.0481 107.178 24.8972 102.573C25.2112 101.77 25.5252 100.968 26.0834 100.27C26.4323 99.8166 26.9905 99.6771 27.5138 99.5724C27.8278 99.5026 27.758 99.8166 27.6883 100.026C27.5138 100.654 27.3045 101.247 27.1301 101.875C25.9787 105.713 25.0716 109.62 24.1994 113.528C23.6412 116.04 23.2225 118.587 22.8387 121.134C22.5945 122.948 22.4201 124.762 22.2805 126.576C22.2456 126.96 22.2805 127.344 22.3852 127.693C22.5247 128.356 23.1527 128.67 23.9901 128.495C26.1183 128.042 28.2116 127.553 30.3398 127.1C33.5496 126.402 36.7593 125.739 40.004 125.216C42.1671 124.832 44.3651 124.588 46.5631 124.343C48.6215 124.134 50.645 123.925 52.7035 123.75C54.5875 123.611 56.4366 123.471 58.3205 123.332C59.7859 123.227 61.2512 123.157 62.7514 123.087C65.0192 122.983 67.2521 122.878 69.5198 122.808C70.5665 122.773 71.5783 122.773 72.6249 122.739C73.3227 122.739 74.0205 122.564 74.7182 122.669C74.3693 122.669 74.0554 122.704 73.7065 122.704C73.4971 122.704 73.4274 122.773 73.4274 122.983C73.4274 123.227 73.4274 123.471 73.4274 123.681C73.3925 127.937 73.3576 132.193 73.3227 136.485C73.1482 136.659 72.904 136.589 72.6947 136.554C71.8574 135.089 70.6014 134.426 68.9267 134.426C61.7745 134.461 54.5875 134.461 47.4353 134.461C47.0515 134.391 46.7375 134.461 46.4235 134.356Z" fill="#9B2D35"/>
<path d="M23.711 149.533C24.339 149.045 24.9321 148.591 25.4903 148.137C28.2465 146.009 31.0376 143.881 33.7938 141.788C34.1427 141.509 34.5265 141.264 34.4218 140.741C34.3171 140.218 33.8636 140.008 33.41 139.904C32.9914 139.834 32.9565 139.659 33.096 139.311C33.2356 138.962 33.2007 138.473 33.4449 138.264C33.6891 138.055 34.1776 138.194 34.5265 138.194C38.2944 138.194 42.0624 138.194 45.8304 138.159C46.1793 138.159 46.2491 138.229 46.1793 138.578C46.0397 139.311 45.8653 139.834 44.9233 139.939C44.0511 140.008 43.3533 140.671 42.6555 141.229C39.376 143.846 36.1313 146.463 32.8518 149.079C32.5727 149.289 32.5378 149.428 32.7471 149.777C34.5613 152.568 36.3756 155.359 38.2595 158.116C38.9224 159.127 39.7249 159.965 40.8413 160.488C41.1902 160.662 41.5391 160.732 41.9229 160.767C42.1322 160.767 42.1671 160.872 42.0973 161.046V161.081C41.9926 161.535 41.9926 162.128 41.6786 162.407C41.3646 162.686 40.7715 162.512 40.318 162.512C38.2595 162.477 36.2011 162.581 34.1427 162.407C31.9447 162.198 30.1305 161.36 28.8047 159.546C26.9556 157.034 25.0018 154.557 23.397 151.87C23.3621 151.801 23.2923 151.696 23.1876 151.556C22.9783 152.359 22.8039 153.057 22.5945 153.789C22.141 155.429 21.6874 157.069 21.2339 158.744C21.0245 159.546 21.3385 160.139 22.2456 160.558C22.8736 160.837 22.8736 160.837 22.6992 161.5C22.455 162.477 22.455 162.477 21.4432 162.477C17.6403 162.477 13.8375 162.477 10.0695 162.477C9.65081 162.477 9.58104 162.372 9.72059 162.023C9.75548 161.953 9.75548 161.884 9.75548 161.814C9.86015 161.151 10.0346 160.732 10.8719 160.593C11.9535 160.453 12.5117 159.511 12.9304 158.569C13.663 156.964 14.0119 155.22 14.4655 153.545C15.4772 149.917 16.4541 146.288 17.4659 142.625C17.5357 142.416 17.5705 142.206 17.6054 142.032C17.7799 140.915 17.3263 140.218 16.175 139.869C15.8959 139.799 15.7912 139.729 15.8959 139.415C16.0354 139.031 16.0006 138.508 16.2448 138.229C16.5239 137.985 17.0472 138.159 17.4659 138.159C20.9896 138.159 24.5134 138.159 28.0372 138.124C28.4558 138.124 28.5256 138.229 28.386 138.578C28.386 138.613 28.386 138.648 28.386 138.648C28.2814 139.276 28.1069 139.799 27.3045 139.973C26.5369 140.148 26.1183 140.846 25.9089 141.613C25.2112 144.16 24.5134 146.672 23.8156 149.184C23.7458 149.359 23.711 149.393 23.711 149.533Z" fill="#242220"/>
<path d="M55.8085 147.823C58.6345 147.823 61.4255 147.823 64.2864 147.823C63.798 149.812 63.3095 151.731 62.8211 153.72C61.7395 152.568 60.3789 152.429 58.9485 152.429C57.5529 152.429 56.1574 152.429 54.7618 152.429C54.5525 152.429 54.4129 152.464 54.3431 152.708C53.8547 154.592 53.3314 156.441 52.8429 158.325C52.5638 159.441 52.9476 160.209 54.0291 160.662C54.3083 160.767 54.3431 160.907 54.2734 161.151C54.1687 161.5 54.0989 161.849 54.0291 162.198C53.9943 162.442 53.8896 162.512 53.6454 162.512C50.1914 162.512 46.7723 162.477 43.3183 162.512C43.0392 162.512 42.9694 162.477 43.0392 162.163C43.8416 159.267 44.6441 156.336 45.4465 153.44C46.4583 149.777 47.4701 146.114 48.4818 142.451C48.8656 141.055 48.4121 140.287 47.0514 139.904C46.8421 139.834 46.8421 139.764 46.877 139.59C47.1212 138.264 47.1212 138.264 48.4818 138.264C53.9245 138.264 59.3322 138.264 64.7749 138.264C66.1704 138.264 67.5311 138.264 68.9266 138.264C69.2057 138.264 69.3104 138.299 69.2406 138.648C68.7522 140.601 68.2637 142.52 67.7753 144.474C67.7404 144.649 67.7055 144.858 67.4264 144.788C67.2171 144.718 66.938 144.963 66.7984 144.544C66.5542 143.776 65.8913 143.462 65.1586 143.288C64.8795 143.218 64.5655 143.218 64.2864 143.218C62.0187 143.218 59.7509 143.218 57.518 143.218C57.3087 143.218 57.1691 143.218 57.0993 143.497C56.7505 144.893 56.3667 146.288 55.9829 147.684C55.8434 147.649 55.8434 147.719 55.8085 147.823Z" fill="#242220"/>
<path d="M90.5576 157.034C90.2087 158.465 89.825 159.79 89.6156 161.151C89.4761 161.954 89.1272 162.163 88.3945 162.302C85.2894 162.826 82.1843 163.14 79.0095 162.965C76.1486 162.791 73.3924 162.198 70.9153 160.628C66.624 157.906 65.054 152.917 67.0775 148.207C68.3335 145.277 70.4617 143.079 73.1133 141.404C75.9742 139.59 79.149 138.613 82.4983 138.194C86.0221 137.741 89.4761 137.915 92.8952 138.822C93.5929 139.032 93.5929 138.997 93.4185 139.729C92.9649 141.369 92.5114 143.009 92.0578 144.649C91.9532 145.033 91.2554 145.242 91.0112 144.928C89.7203 143.323 88.0108 142.73 86.057 142.66C83.4054 142.555 80.8935 142.939 78.5908 144.37C75.8346 146.079 74.5088 149.08 75.1368 152.185C75.5904 154.452 76.9859 156.022 78.9746 157.069C81.2423 158.22 83.6497 158.395 86.0919 158.046C87.5921 157.872 89.0225 157.488 90.5576 157.034Z" fill="#242220"/>
<path d="M93.907 122.704C94.9536 122.634 95.9654 122.738 97.0121 122.773C97.2214 122.773 97.3958 122.773 97.6052 122.704C97.7447 122.634 97.9192 122.599 97.9192 122.424C97.9192 122.25 97.7796 122.145 97.6401 122.11C97.0819 121.866 96.4887 121.727 95.8607 121.622C95.4072 121.517 94.9188 121.482 94.4652 121.378C93.8372 121.273 93.593 120.994 93.5581 120.366C93.4883 119.075 93.4534 117.819 93.3836 116.528C93.279 114.854 93.1743 113.214 92.9999 111.539C92.8603 110.283 92.7905 109.027 92.651 107.771C92.5114 106.445 92.337 105.155 92.1974 103.829C91.9532 101.77 91.5694 99.7119 91.2554 97.6535C91.0461 96.3626 90.8368 95.0717 90.6274 93.7809C90.5228 93.118 90.5926 92.8738 91.0112 92.7691C91.1857 92.7342 91.3252 92.7691 91.4648 92.804C92.4765 93.0831 93.4534 93.4669 93.9768 94.4438C94.2908 95.0369 94.3605 95.6997 94.535 96.3277C95.4421 99.9911 96.3492 103.654 97.2563 107.318C98.4425 112.132 99.5938 116.947 100.85 121.727C101.268 123.297 101.652 124.832 102.071 126.402C102.106 126.576 102.106 126.751 102.071 126.925C101.024 130.902 99.9776 134.915 98.9309 138.892C98.7565 139.59 98.5821 139.694 97.8494 139.59C97.7447 139.59 97.6401 139.59 97.5005 139.59C97.6052 138.508 97.3958 137.496 96.6981 136.659C96.419 136.345 96.1399 136.031 95.7561 135.822C95.477 135.682 95.3723 135.473 95.3374 135.159C95.0932 132.752 94.8141 130.379 94.535 127.972C94.2559 126.227 94.0814 124.483 93.907 122.704Z" fill="#9B2D35"/>
<path d="M76.9859 122.634C79.8119 122.634 82.6379 122.599 85.4639 122.634C86.999 122.669 88.4992 122.669 90.0343 122.704C90.139 122.843 90.0343 122.983 90.1041 123.122C90.1041 123.297 90.1041 123.436 90.139 123.611C90.2088 123.785 90.139 123.96 90.2088 124.134C90.2088 124.309 90.2088 124.448 90.2436 124.623C90.2785 124.762 90.2785 124.902 90.2088 125.041C90.139 125.216 90.1739 125.355 90.3134 125.46C90.3134 125.495 90.3134 125.565 90.3134 125.599C90.3832 125.809 90.3134 126.018 90.3832 126.193C90.3832 126.332 90.3832 126.507 90.4181 126.646C90.4879 126.821 90.4181 126.995 90.4879 127.169C90.4879 127.309 90.4879 127.483 90.5228 127.623C90.5925 127.797 90.5227 127.972 90.5925 128.146C90.5925 128.321 90.5925 128.46 90.6274 128.635C90.6623 128.774 90.6623 128.914 90.5925 129.053C90.5227 129.228 90.5576 129.367 90.6972 129.507C90.6972 129.542 90.6972 129.612 90.6972 129.647C90.7321 129.786 90.7321 129.926 90.6972 130.065C90.6274 130.205 90.6623 130.344 90.767 130.449C90.767 130.519 90.767 130.589 90.767 130.658C90.8019 130.798 90.8019 130.937 90.767 131.077C90.6972 131.217 90.7321 131.356 90.8368 131.461C90.8368 131.531 90.8368 131.6 90.8368 131.67C90.8716 131.81 90.8716 131.949 90.8019 132.089C90.7321 132.263 90.767 132.403 90.9065 132.507C90.9065 132.542 90.9065 132.612 90.9065 132.647C90.9414 132.787 90.9414 132.926 90.8716 133.066C90.8019 133.24 90.8368 133.38 90.9763 133.484C90.9763 133.519 90.9763 133.589 90.9763 133.624C91.0461 133.973 90.9763 134.217 90.6274 134.322C90.3134 134.357 90.0343 134.287 89.7203 134.217C89.5808 134.147 89.4063 134.217 89.2668 134.147C89.1272 134.147 88.9876 134.147 88.883 134.112C88.6737 134.043 88.4643 134.147 88.255 134.043C88.1154 134.043 88.0108 134.043 87.8712 134.043C87.7317 133.903 87.5572 133.938 87.3828 133.973C87.1037 134.008 86.7548 134.217 86.5454 133.798C86.5454 133.659 86.5454 133.484 86.5106 133.345C86.4408 133.17 86.5106 132.996 86.4408 132.821C86.4408 132.682 86.4408 132.507 86.4059 132.368C86.3361 132.193 86.4059 132.019 86.3361 131.845C86.3361 131.705 86.3361 131.565 86.3012 131.461C86.2314 131.321 86.2663 131.182 86.3012 131.042C86.371 130.903 86.3361 130.763 86.2314 130.658C86.2314 130.589 86.2314 130.519 86.2314 130.449C86.1966 130.309 86.1966 130.17 86.2663 130.03C86.3361 129.856 86.3012 129.716 86.1617 129.612C86.1617 129.577 86.1617 129.507 86.1617 129.472C86.0919 129.298 86.1617 129.123 86.0919 128.949C86.0919 128.809 86.0919 128.67 86.057 128.565C85.9872 128.391 86.057 128.216 85.9872 128.042C85.9872 127.902 85.9872 127.728 85.9523 127.588C85.9174 127.483 85.9174 127.344 85.9872 127.239C86.0919 127.065 86.0221 126.925 85.8826 126.786C85.8826 126.751 85.8826 126.681 85.8826 126.646C85.743 126.437 86.0919 126.158 85.8128 125.948C85.8128 125.879 85.8128 125.809 85.8128 125.739C85.743 125.565 85.8128 125.39 85.743 125.216C85.743 125.076 85.743 124.971 85.7081 124.832C85.6383 124.657 85.7081 124.483 85.6383 124.309C85.6383 124.169 85.6383 124.029 85.6034 123.925C85.5337 123.75 85.6034 123.576 85.5337 123.401C85.5337 123.367 85.5337 123.332 85.5337 123.332C85.4639 122.739 85.4639 122.739 84.8708 122.739C83.9288 122.739 82.9868 122.739 82.0797 122.739C81.8006 122.739 81.7308 122.808 81.7308 123.087C81.9401 126.367 82.1844 129.612 82.3937 132.891C82.4286 133.31 82.4286 133.694 82.4984 134.112C82.5332 134.322 82.4984 134.391 82.2541 134.426C80.719 134.601 79.149 134.88 77.6488 135.333C77.3697 135.403 77.4046 135.264 77.3697 135.089C77.2999 132.926 77.1953 130.728 77.1255 128.565C77.0557 126.716 76.9859 124.867 76.951 123.053C77.0208 122.843 76.9859 122.739 76.9859 122.634Z" fill="#9B2D35"/>
<path d="M94.186 139.171C94.186 138.508 94.6396 138.02 95.3025 138.02C95.9654 138.02 96.4887 138.508 96.4887 139.171C96.4887 139.799 95.9654 140.322 95.3374 140.322C94.6745 140.288 94.186 139.799 94.186 139.171Z" fill="#333130"/>
<path d="M72.6598 136.52C72.8342 136.38 73.0785 136.485 73.2878 136.45C73.4273 136.555 73.7413 136.45 73.7413 136.589C73.7762 136.799 73.4622 136.799 73.3227 136.903C73.1831 136.973 73.0436 137.043 72.904 137.113C72.7993 136.903 72.7296 136.694 72.6598 136.52Z" fill="#292624"/>
<path d="M86.5106 133.903C86.7548 134.182 87.0688 134.147 87.313 133.973C87.5921 133.798 87.7317 133.833 87.8364 134.147C87.4875 134.147 87.1037 134.147 86.7548 134.147C86.5804 134.147 86.4757 134.112 86.5106 133.903Z" fill="#9B2D35"/>
<path d="M90.5925 134.426C90.7321 134.182 90.9763 134.043 90.9414 133.729C90.9763 133.833 91.0112 133.973 91.0112 134.077C91.0461 134.566 91.0461 134.566 90.5925 134.426Z" fill="#9B2D35"/>
<path d="M90.8367 132.577C90.5576 132.507 90.4529 132.333 90.6623 132.089C90.7669 131.949 90.7669 131.844 90.7669 131.705C90.8716 131.984 90.8367 132.298 90.8367 132.577Z" fill="#9B2D35"/>
<path d="M90.2785 125.46C89.9994 125.39 89.8947 125.216 90.104 124.971C90.2087 124.867 90.1738 124.727 90.2087 124.588C90.2785 124.867 90.2785 125.181 90.2785 125.46Z" fill="#9B2D35"/>
<path d="M86.1617 129.646C86.4408 129.716 86.5455 129.891 86.3362 130.135C86.2315 130.24 86.2664 130.379 86.2315 130.519C86.1268 130.24 86.1617 129.926 86.1617 129.646Z" fill="#9B2D35"/>
<path d="M90.5926 129.577C90.3135 129.507 90.2088 129.333 90.4181 129.088C90.5228 128.984 90.4879 128.844 90.5228 128.705C90.6275 128.984 90.5926 129.263 90.5926 129.577Z" fill="#9B2D35"/>
<path d="M90.9415 133.589C90.6623 133.519 90.5577 133.345 90.767 133.101C90.8717 132.961 90.8717 132.856 90.8717 132.717C90.9415 132.996 90.9415 133.31 90.9415 133.589Z" fill="#9B2D35"/>
<path d="M85.9174 126.786C86.1966 126.855 86.3361 127.03 86.0919 127.274C86.0221 127.379 85.9872 127.449 85.9872 127.588C85.8826 127.344 85.9174 127.065 85.9174 126.786Z" fill="#9B2D35"/>
<path d="M90.7669 131.496C90.5576 131.461 90.4529 131.356 90.5925 131.147C90.6971 131.007 90.6971 130.868 90.6971 130.728C90.8018 130.972 90.7669 131.216 90.7669 131.496Z" fill="#9B2D35"/>
<path d="M90.6972 130.484C90.4879 130.449 90.3832 130.344 90.5228 130.135C90.6274 129.995 90.6274 129.856 90.6274 129.716C90.6972 129.961 90.6972 130.24 90.6972 130.484Z" fill="#9B2D35"/>
<path d="M86.2663 130.728C86.4757 130.763 86.5803 130.868 86.4408 131.077C86.3361 131.216 86.3361 131.356 86.3361 131.496C86.2314 131.251 86.2663 131.007 86.2663 130.728Z" fill="#9B2D35"/>
<path d="M85.8476 125.948C86.0918 125.983 86.1616 126.123 86.0221 126.297C85.9523 126.402 85.9174 126.506 85.9174 126.646C85.8127 126.437 85.8476 126.192 85.8476 125.948Z" fill="#9B2D35"/>
<path d="M90.3483 126.227C90.2087 126.053 90.3134 125.809 90.2785 125.634C90.3483 125.809 90.3483 126.018 90.3483 126.227Z" fill="#9B2D35"/>
<path d="M88.2201 134.182C88.4294 134.182 88.6388 134.112 88.8481 134.252C88.6388 134.252 88.4294 134.252 88.2201 134.182Z" fill="#9B2D35"/>
<path d="M85.743 125.216C85.8826 125.39 85.7779 125.564 85.8128 125.739C85.743 125.564 85.743 125.39 85.743 125.216Z" fill="#9B2D35"/>
<path d="M90.4181 127.204C90.2785 127.03 90.3832 126.855 90.3483 126.681C90.453 126.855 90.4181 127.03 90.4181 127.204Z" fill="#9B2D35"/>
<path d="M90.4879 128.216C90.3484 128.042 90.453 127.867 90.4181 127.693C90.5228 127.867 90.5228 128.042 90.4879 128.216Z" fill="#9B2D35"/>
<path d="M86.0221 128.042C86.1616 128.216 86.057 128.39 86.0919 128.565C85.9872 128.425 85.9872 128.251 86.0221 128.042Z" fill="#9B2D35"/>
<path d="M86.0919 128.984C86.2315 129.158 86.1268 129.333 86.1617 129.507C86.0919 129.333 86.0919 129.158 86.0919 128.984Z" fill="#9B2D35"/>
<path d="M90.1738 124.134C90.0343 123.96 90.1389 123.785 90.104 123.611C90.1738 123.75 90.1738 123.925 90.1738 124.134Z" fill="#9B2D35"/>
<path d="M86.3362 131.914C86.4757 132.089 86.3711 132.263 86.406 132.438C86.3362 132.263 86.3362 132.089 86.3362 131.914Z" fill="#9B2D35"/>
<path d="M85.6732 124.274C85.8128 124.448 85.7081 124.623 85.743 124.797C85.6732 124.657 85.6732 124.483 85.6732 124.274Z" fill="#9B2D35"/>
<path d="M86.4408 132.926C86.5803 133.1 86.4757 133.275 86.5106 133.449C86.4059 133.275 86.4059 133.1 86.4408 132.926Z" fill="#9B2D35"/>
<path d="M85.6035 123.366C85.7431 123.541 85.6384 123.715 85.6733 123.89C85.5686 123.715 85.5686 123.541 85.6035 123.366Z" fill="#9B2D35"/>
<path d="M89.2319 134.252C89.3715 134.252 89.5459 134.182 89.6855 134.322C89.511 134.322 89.3715 134.322 89.2319 134.252Z" fill="#9B2D35"/>
<path d="M90.0692 123.122C89.9645 122.983 90.0343 122.843 89.9994 122.704C90.0343 122.704 90.0343 122.704 90.0692 122.704C90.0692 122.843 90.0692 122.983 90.0692 123.122Z" fill="#9B2D35"/>
<path d="M86.2315 86.873C85.8128 86.5241 85.4988 86.0705 85.2197 85.617C84.5219 84.4307 83.6497 83.3841 82.7077 82.3723C82.3937 82.0234 82.3937 81.6397 82.5333 81.2559C82.9868 79.7208 83.4055 78.1857 83.6846 76.6157C83.8591 75.6737 83.9986 74.7666 84.1382 73.8246C84.2777 73.0222 84.6964 72.4988 85.4988 72.2197C86.6153 71.8359 87.1037 71.1033 87.1037 69.9519C87.0688 67.3702 87.941 65.0675 89.1621 62.8347C90.9066 59.6598 92.2672 56.3105 92.9301 52.7518C93.2441 51.112 93.279 49.4723 92.7906 47.8325C92.5812 47.065 92.2323 46.3672 91.709 45.7741C90.9764 44.9367 90.9066 44.0645 91.3601 43.0528C92.337 41.0292 92.965 38.8661 93.279 36.6332C93.4186 35.6563 93.3837 34.6446 93.2092 33.6677C93.1743 33.4584 93.0697 33.2141 92.8952 33.1095C92.1626 32.621 91.8835 31.8535 91.8137 31.051C91.4997 27.3179 90.6972 23.7244 89.197 20.2704C88.0806 17.6189 86.6153 15.1767 84.7662 12.9787C84.6964 12.9089 84.6266 12.8391 84.6615 12.6996C86.0222 12.874 87.3479 13.0485 88.7086 13.2229C90.139 13.3974 91.5346 13.6067 92.965 13.7811C94.3606 13.9556 95.7561 14.13 97.1517 14.3045C98.5821 14.4789 99.9776 14.6882 101.408 14.8627C103.257 15.1069 105.141 15.3511 106.99 15.5953C108.595 15.8047 110.2 16.014 111.805 16.1885C113.654 16.4327 115.538 16.6769 117.387 16.9211C119.027 17.1304 120.632 17.3398 122.272 17.5491C123.876 17.7584 125.481 17.9678 127.121 18.1771C128.028 18.2818 128.935 18.4213 129.842 18.526C130.331 18.5958 130.575 18.9098 130.435 19.3982C129.773 21.9451 129.11 24.4571 128.447 26.9691C127.575 30.2486 126.702 33.5281 125.83 36.8077C124.33 42.4945 122.83 48.1814 121.33 53.8682C119.69 60.1133 118.05 66.3584 116.41 72.6035C114.98 77.9763 113.584 83.3492 112.154 88.757C111.561 90.9898 110.968 93.2227 110.374 95.4556C110.27 95.8394 110.095 95.8394 109.781 95.7696C108.246 95.4207 106.711 95.0718 105.176 94.688C102.525 94.06 99.9079 93.4669 97.2563 92.8389C96.9423 92.7692 96.6283 92.6645 96.4539 92.4203C95.8259 91.5829 94.9537 91.1294 94.0465 90.6409C91.7439 89.4198 89.3366 88.4429 87.0339 87.2916C86.8595 87.187 86.685 87.0823 86.5106 86.9776C86.3362 86.9776 86.2664 86.9427 86.2315 86.873Z" fill="#9B2D35"/>
<path d="M32.747 87.0124C31.9446 88.6522 31.3166 90.3618 30.6537 92.0713C30.3397 92.9086 29.8164 93.5017 28.9442 93.7808C28.0371 94.0948 27.1649 94.4786 26.2229 94.7577C25.1762 95.1066 24.2342 95.6648 23.4667 96.4673C22.7689 97.1999 21.9315 97.6186 20.9547 97.8279C17.5007 98.6653 14.0816 99.6422 10.6974 100.793C8.1854 101.666 5.7083 102.573 3.30098 103.654C3.26609 103.689 3.23121 103.689 3.23121 103.654C3.23121 92.0015 3.26609 80.3138 3.19632 68.661C3.09165 51.0422 3.19632 33.4234 3.09165 15.8046C3.05676 11.5831 3.09165 7.39643 3.05676 3.1749C3.05676 2.44224 3.2661 2.2329 3.96387 2.30268C5.15008 2.44224 6.37119 2.61668 7.5574 2.75623C8.98784 2.93068 10.3834 3.10512 11.8138 3.31445C13.2094 3.4889 14.6049 3.66334 16.0005 3.83778C17.4309 4.01223 18.8265 4.22156 20.2569 4.396C21.8618 4.60533 23.4667 4.81467 25.1064 5.024C26.5369 5.19844 27.9324 5.37289 29.3628 5.58222C30.7235 5.75666 32.119 5.93111 33.5844 6.14044C33.1308 6.34977 32.747 6.41955 32.3633 6.48932C31.3515 6.73355 30.3048 6.94288 29.2582 7.1871C28.2115 7.43132 27.8277 8.16398 28.1068 9.3502C28.3511 10.3271 28.4557 11.2691 28.072 12.2111C27.8277 12.8391 27.4091 13.3973 26.9904 13.9206C25.2809 15.9442 23.4667 17.8282 21.2338 19.2935C20.7104 19.6424 20.1522 19.8866 19.5591 20.1657C18.0589 20.8984 17.5356 22.1195 18.0589 23.7243C18.4078 24.8059 18.9311 25.7828 19.4893 26.7597C20.3964 28.3645 20.6756 30.0741 20.536 31.9232C20.3267 34.2258 19.5591 36.354 18.7916 38.4823C18.6869 38.7265 18.5473 39.0056 18.4078 39.2149C17.71 40.2616 17.7798 41.3082 18.4078 42.3549C19.0358 43.4365 19.8731 44.3436 20.7104 45.2507C21.2338 45.8089 21.2687 46.0531 20.8849 46.6811C20.3964 47.5184 20.2569 48.4255 20.1871 49.3675C20.0824 50.6235 20.3267 51.8097 20.6407 53.0308C21.478 56.3104 22.9084 59.3108 24.7226 62.1368C24.9669 62.4857 25.246 62.8346 25.4902 63.1835C26.0484 64.0906 26.0484 65.0674 25.9089 66.0443C25.7344 67.3352 25.6646 68.5912 26.2926 69.8123C26.816 70.8241 27.5835 71.6265 28.5604 72.1498C29.6419 72.743 30.0955 73.6501 30.3397 74.8014C30.8979 77.418 31.8399 79.93 33.2006 82.2676C33.4448 82.6514 33.6193 83.07 33.8635 83.4887C34.0728 83.8376 34.0379 84.1167 33.8635 84.4656C33.4448 85.268 33.061 86.0704 32.747 86.9078C32.7819 86.9078 32.8168 86.9775 32.747 87.0124Z" fill="#9B2D35"/>
<path d="M47.2259 19.8867C50.5054 19.468 53.6803 19.782 56.6807 21.2822C56.8203 21.352 56.9249 21.3869 57.0645 21.4567C57.5529 21.7009 57.9716 21.666 58.3903 21.2822C58.8787 20.8287 59.4369 20.41 59.9951 19.9913C60.3091 19.7471 60.3789 19.468 60.2393 19.1191C60.5185 18.8051 60.9022 18.6307 61.2511 18.3864C62.0187 17.8631 62.8211 17.4096 63.6584 17.0258C64.8795 16.4676 66.1007 16.3629 67.3915 16.6769C69.9035 17.3049 72.3457 18.0724 74.6833 19.1889C76.2184 19.9216 77.6488 20.8635 78.8699 22.0846C80.3004 23.55 81.5563 25.1897 82.289 27.1435C82.3937 27.3877 82.5681 27.632 82.3937 27.8762C82.1146 27.9808 82.1146 28.2251 82.1146 28.4693C82.1843 29.8648 82.2541 31.2604 82.3239 32.6559C82.3588 32.9699 82.3239 33.249 82.289 33.5281C82.1495 34.8888 82.6379 36.075 83.2659 37.1915C83.7543 38.0637 84.3474 38.8661 84.6614 39.843C85.0452 41.0641 85.115 42.2852 85.1499 43.5412C85.1499 43.8552 84.9405 43.9948 84.5219 43.925C83.5799 43.7505 82.6379 43.611 81.6959 43.4016C80.405 43.1225 79.0793 43.0528 77.7535 43.0179C74.7879 42.9132 71.8573 42.8434 68.8917 42.9481C66.938 43.0179 65.0191 43.2272 63.2398 44.1343C62.6118 44.4483 62.0536 44.867 61.4953 45.2856C61.0069 45.6694 60.4836 45.7741 59.8556 45.6345C58.6345 45.3554 57.4134 45.3554 56.1923 45.7741C55.5294 45.9834 54.9363 45.8439 54.3781 45.4252C53.5756 44.8321 52.8081 44.1692 51.9358 43.6808C50.4007 42.8085 48.7261 42.355 46.9816 42.1805C44.5394 41.9363 42.0972 41.7619 39.655 41.7619C39.5155 41.6223 39.5852 41.4479 39.6201 41.2734C39.8644 39.9477 40.0388 38.6219 40.1435 37.2612C40.2132 36.2843 40.5272 35.3424 40.7715 34.4004C41.1552 32.8653 41.6088 31.2953 42.0972 29.7951C42.9694 27.1435 44.0161 24.5617 45.6559 22.2591C45.8303 22.0149 46.0048 21.7707 46.2141 21.5264C46.7025 21.0729 47.1212 20.5844 47.2259 19.8867Z" fill="#FDF1D6"/>
<path d="M76.1138 87.0473C74.2298 88.9662 72.2062 90.6757 69.8687 92.0364C69.3105 92.3853 68.7174 92.6644 68.1242 92.9784C67.3218 93.3622 66.4845 93.2226 65.8914 92.5946C65.682 92.3853 65.5076 92.2108 65.2983 92.0015C65.1238 91.7573 65.1936 91.4782 65.1587 91.234C64.9494 89.5942 64.3912 88.0591 63.7283 86.5938C63.3794 85.7913 63.2747 84.9889 63.3096 84.1515C63.3445 83.3142 63.3794 82.4769 63.5887 81.6745C63.6236 81.5698 63.6934 81.3953 63.5887 81.3256C63.4492 81.2209 63.3445 81.3605 63.2049 81.4302C62.9607 81.6047 62.8212 81.814 62.7514 82.0931C62.6467 82.6164 62.4723 83.07 62.1234 83.4887C61.9141 83.7329 61.6349 83.8724 61.3209 83.7678C61.0069 83.6631 60.8325 83.4189 60.7976 83.07C60.7627 82.7909 60.7976 82.5467 60.7627 82.2676C60.7278 81.6396 60.4487 81.3605 59.8207 81.5C58.8438 81.7093 57.867 81.5349 56.8552 81.5349C56.7505 81.5349 56.6807 81.5 56.5761 81.4302C56.4365 80.6278 55.983 80.1742 55.1805 79.9998C54.7968 79.93 54.413 79.7556 54.099 79.5113C53.7152 79.1973 53.7152 78.9531 54.099 78.674C55.3201 77.8367 56.6459 77.5576 58.1112 77.732C60.5534 78.0111 62.9956 78.1507 65.4029 77.4878C66.3798 77.2087 67.3567 76.9296 68.3685 76.6156C68.6825 76.5109 68.9267 76.5807 69.2058 76.7203C69.3105 76.79 69.4151 76.8249 69.5547 76.8947C70.4967 77.3134 70.9502 78.0111 70.8804 79.0927C70.8107 80.0347 70.8805 80.9767 71.1247 81.9187C71.2991 82.5816 71.648 82.6513 72.1364 82.1978C72.7296 81.6396 72.904 80.872 73.0784 80.1045C73.2529 79.2671 73.3575 78.4298 73.6715 77.6274C73.8111 77.2087 74.0553 76.8249 74.3693 76.5109C75.4858 75.4992 75.9742 74.1734 76.1835 72.7081C76.2184 72.3243 76.2533 71.9056 76.2882 71.4869C76.3231 71.3823 76.3231 71.2776 76.3231 71.173C76.2882 70.859 76.4278 70.6496 76.672 70.4054C77.7535 69.4285 77.9977 67.9981 77.3349 66.7072C77.0906 66.2536 76.8115 65.835 76.4278 65.4512C74.788 63.8812 73.3227 62.2066 71.8224 60.497C70.706 59.241 69.3105 58.4037 67.5311 58.299C66.7985 58.2641 66.1356 58.4386 65.5774 58.8921C65.4029 59.0317 65.2983 59.2061 65.2983 59.4155C65.2983 59.6946 65.2983 59.9737 65.3331 60.2528C65.4029 60.811 65.682 61.2994 65.6123 61.8926C65.5774 62.2066 65.5076 62.5206 65.2285 62.695C63.9027 63.6719 62.4723 64.4394 60.7976 64.7185C59.2276 64.9977 57.7972 64.5092 56.4365 63.7417C56.3319 63.6719 56.2621 63.5672 56.2272 63.4277C55.9132 62.2414 55.4248 61.0901 55.4945 59.8341C55.5294 59.2061 55.6341 58.5781 55.8085 57.985C55.8783 57.7757 55.9132 57.5664 56.0179 57.3919C56.5761 56.101 56.6459 54.7404 56.7156 53.3448C56.7854 51.9493 56.9948 50.5886 57.1692 49.1931C57.2041 48.8093 57.1692 48.3906 57.4134 48.0766C58.0414 47.9371 58.6694 47.8673 59.2974 48.1464C59.8556 48.3906 60.2045 48.8093 60.3441 49.4024C60.5534 50.3444 60.8325 51.2515 61.4256 52.0191C62.2281 53.0308 62.3676 53.0308 63.4143 52.2633C64.0423 51.8097 64.0772 51.5306 63.6934 50.8328C63.6585 50.7631 63.5887 50.6584 63.5538 50.5886C63.4492 50.3444 63.2747 50.0653 63.5189 49.856C63.7283 49.6815 64.0074 49.7862 64.2516 49.9257C64.8098 50.2397 65.4029 50.5537 65.996 50.798C67.7056 51.426 69.4849 51.5306 71.2991 51.1817C71.9969 51.0422 72.6598 50.9375 73.3575 50.798C74.0902 50.6933 74.5787 50.9375 74.9275 51.6004C75.0671 51.8795 75.2066 52.1237 75.416 52.3679C74.6833 52.7517 74.6833 52.7517 74.9973 53.5891C75.2764 54.3566 75.102 55.0893 74.7182 55.787C74.4042 56.2755 74.0553 56.7639 73.6367 57.1477C73.4622 57.3221 73.2878 57.4966 73.3227 57.7408C73.3575 58.3339 73.7762 58.7526 74.3693 58.7875C74.9275 58.7875 75.4509 58.613 76.0091 58.5781C78.1024 57.6361 79.3235 55.9964 80.0213 53.903C80.5446 52.2982 80.8935 50.6235 81.2773 48.9489C81.3819 48.4255 81.6959 48.0417 82.1495 47.7975C82.8473 47.4137 83.5799 47.0649 84.3475 46.7858C84.8708 46.5764 85.115 46.716 85.3244 47.2742C85.4988 47.7277 85.4988 48.2162 85.5337 48.7046C85.6035 50.0653 85.6733 51.4608 85.7081 52.8564C85.7081 52.9959 85.7081 53.1704 85.7779 53.3099C85.8477 53.5193 86.0221 53.5542 86.1966 53.5193C87.2084 53.275 87.9759 51.7748 87.5224 50.8328C87.4177 50.6235 87.2781 50.4142 87.1386 50.17C86.685 49.3675 86.9292 48.5651 87.8015 48.1115C88.6039 47.6929 89.3715 47.9371 89.7901 48.7395C90.1739 49.5071 90.2088 50.3444 90.1739 51.1817C90.1041 53.7635 89.3366 56.1359 88.3597 58.4735C87.7666 59.9039 86.9641 61.2297 86.3361 62.6252C85.8128 63.7417 85.3941 64.893 85.0453 66.0792C84.9755 66.2885 84.9057 66.463 84.801 66.6374C84.6964 66.8468 84.487 66.9514 84.2777 66.9165C84.0684 66.8816 83.8939 66.7421 83.8242 66.5328C83.7893 66.4281 83.7544 66.2885 83.7195 66.1839C83.6846 66.0443 83.6846 65.835 83.5102 65.835C83.3706 65.835 83.2659 66.0094 83.1962 66.149C82.8473 67.0212 82.3239 67.7887 81.7308 68.5214C81.4866 68.8354 81.4517 69.2541 81.4517 69.6379C81.4517 71.3125 81.3819 72.9523 81.1726 74.592C80.7191 78.5345 79.6375 82.3024 77.3 85.582C76.986 86.0006 76.6371 86.4193 76.3231 86.838C76.2533 86.9426 76.1835 86.9775 76.1138 87.0473Z" fill="#FDF1D6"/>
<path d="M82.3937 27.911C82.1844 26.8643 81.6611 25.9572 81.1028 25.085C80.4748 24.0733 79.7073 23.1313 78.87 22.2939C77.8931 21.317 76.8115 20.4797 75.5904 19.8168C73.0087 18.4213 70.2176 17.5491 67.3916 16.8164C65.5425 16.328 63.9725 16.9211 62.4374 17.7933C61.6698 18.212 61.0418 18.7702 60.2394 19.1539C59.4021 18.2468 58.4252 17.5142 57.3785 16.8513C54.9363 15.2115 52.2848 14.0602 49.3541 13.6066C46.7724 13.188 44.1906 13.2229 41.6088 13.5369C40.0737 13.7113 38.5735 14.0253 37.0384 14.3742C36.864 14.4091 36.6895 14.444 36.5151 14.444C36.3058 14.444 36.0964 14.3393 35.9918 14.1649C35.8522 13.9555 36.0266 13.816 36.1313 13.6764C36.55 13.188 37.0384 12.8042 37.5617 12.4553C39.8993 10.8155 42.3415 9.42 45.1326 8.65245C45.2024 8.61756 45.307 8.61756 45.3768 8.58267C45.6559 8.44312 45.7606 8.23378 45.7606 7.95467C45.7257 7.64067 45.4815 7.53601 45.2373 7.50112C44.679 7.39645 44.1208 7.39645 43.5626 7.39645C43.2835 7.39645 42.9346 7.50112 42.8299 7.18712C42.7253 6.83823 43.0742 6.66379 43.2835 6.52424C44.2604 5.82646 45.3768 5.44269 46.5281 5.12869C50.2612 4.08203 54.0292 3.34937 57.9019 3.41914C62.4723 3.48892 66.8682 4.53558 71.0549 6.38468C73.9158 7.64067 76.6371 9.17578 78.9746 11.2342C83.6148 15.3511 86.7548 20.4099 88.0457 26.5155C88.8132 30.1439 88.9877 33.8072 88.7086 37.5054C88.6737 38.0636 88.569 38.5869 88.4295 39.1103C88.3946 39.2149 88.3597 39.3545 88.2899 39.4592C88.1852 39.6685 88.0457 39.9476 87.7666 39.9127C87.4875 39.9127 87.4177 39.6336 87.3479 39.3894C86.7897 37.7147 86.1617 36.0401 85.4988 34.4352C84.6964 32.4465 83.8242 30.4579 82.8473 28.539C82.7426 28.225 82.6379 28.0157 82.3937 27.911Z" fill="#FEFEFE"/>
<path d="M80.5446 86.9426C80.6492 86.7333 80.7888 86.524 80.8934 86.3146C81.0679 86.0006 81.2423 86.0006 81.4866 86.2448C81.6959 86.4542 81.8354 86.6984 82.0099 86.9426C82.0448 86.9775 82.0448 87.0124 82.0797 87.0124C82.6379 88.1637 82.7774 89.3848 82.8472 90.6757C83.0914 95.0717 82.1843 99.2583 80.9632 103.41C80.0561 106.515 78.9746 109.585 77.5441 112.481C77.4046 112.76 77.1952 113.109 77.5092 113.284C77.8232 113.458 78.0326 113.109 78.207 112.9C79.0095 111.923 79.6026 110.841 80.1608 109.76C82.8123 104.596 84.801 99.2234 86.0221 93.5366C86.3012 93.397 86.2663 93.6412 86.3012 93.7808C86.371 94.1995 86.4059 94.653 86.4756 95.0717C86.999 99.049 86.9641 103.061 86.8943 107.039C86.8594 109.062 86.7896 111.086 86.7199 113.109C86.685 114.574 86.5454 116.04 86.4407 117.47C86.371 118.342 86.3012 119.215 86.2314 120.087C86.1965 120.68 86.1267 120.75 85.5336 120.68C80.6492 120.506 75.7648 120.366 70.8455 120.261C69.0313 120.226 67.252 120.226 65.4378 120.192C64.7051 120.192 64.6353 120.087 64.6004 119.354C64.4958 116.179 63.9026 113.109 62.7862 110.144C62.7513 110.074 62.7513 110.004 62.7164 109.934C62.8909 109.864 62.9955 110.039 63.1002 110.109C63.9026 110.876 64.6702 111.679 65.4029 112.516C66.5193 113.772 67.8451 114.819 69.2406 115.761C70.3222 116.493 71.3688 116.563 72.4504 115.83C72.5202 115.796 72.5899 115.761 72.6597 115.726C72.8342 115.586 72.8342 115.447 72.7644 115.237C72.5899 114.714 72.3108 114.26 71.9968 113.807C70.8106 112.097 69.4848 110.527 68.194 108.923C68.0893 108.818 67.9846 108.678 67.9148 108.574C67.8451 108.434 67.6357 108.294 67.7753 108.12C67.88 107.981 68.0893 107.981 68.2288 108.015C69.136 108.12 70.0431 108.26 70.9153 108.329C71.2293 108.364 71.5433 108.399 71.8224 108.364C72.8342 108.329 73.497 107.736 73.5668 106.69C73.6366 105.189 73.6366 103.689 73.6366 102.189C73.6366 101.945 73.6715 101.701 73.6366 101.421C73.6366 100.584 73.2528 100.096 72.4155 99.8863C71.3688 99.6421 70.3222 99.6072 69.2406 99.677C68.4731 99.7119 67.6706 99.8165 66.9031 99.9561C66.6937 99.991 66.3797 100.131 66.31 99.8863C66.2053 99.6072 66.5542 99.5025 66.7286 99.3979C67.4613 98.9792 68.2288 98.5606 68.9615 98.107C72.869 95.8044 76.2532 92.8737 78.9397 89.2104C79.463 88.5126 79.9514 87.7799 80.3352 86.9775C80.5097 87.0473 80.4748 86.9775 80.5446 86.9426Z" fill="#FEFEFE"/>
<path d="M47.2259 120.157C43.5277 120.296 39.8295 120.436 36.1662 120.61C34.9102 120.68 33.6542 120.75 32.3982 120.82C31.9447 120.855 31.4911 120.855 31.0724 120.855C30.1653 120.82 29.7118 120.436 29.5722 119.564C29.2931 117.994 29.2233 116.389 29.2931 114.784C29.3978 111.888 29.5722 109.027 29.956 106.166C30.0956 104.98 30.27 103.794 30.5491 102.608C30.6189 102.398 30.7235 102.398 30.7933 102.573C30.9329 102.852 31.0375 103.166 31.1422 103.48C31.4911 104.596 31.8749 105.713 32.2935 106.794C33.0611 108.783 34.1078 110.667 35.3289 112.412C35.8522 113.179 36.4453 113.877 36.9337 114.679C37.2477 115.203 37.7013 115.621 38.12 116.075C38.8177 116.877 39.4806 117.715 40.3528 118.343C41.2948 119.04 42.8997 118.866 43.6673 117.959C43.8417 117.75 43.8766 117.505 43.9464 117.261C43.9813 116.808 43.7719 116.424 43.5277 116.075C41.7833 113.563 40.2133 110.946 39.0619 108.12C37.806 104.945 37.0384 101.666 36.5151 98.3165C36.236 96.607 36.3406 94.8625 36.5848 93.153C36.7942 93.1181 36.8988 93.2925 37.0035 93.3972C38.3991 94.8276 39.8644 96.1534 41.2599 97.5838C42.2368 98.5607 43.423 99.2934 44.5046 100.131C44.6441 100.235 44.8535 100.27 44.7837 100.514C44.4697 100.619 44.1906 100.794 43.9464 101.038C43.7021 101.177 43.4579 101.212 43.1788 101.247C42.167 101.491 41.5042 102.154 41.4693 103.201C41.3995 105.05 41.539 106.864 42.0275 108.678C42.0624 108.783 42.0973 108.853 42.1322 108.958C42.5508 110.144 43.4579 110.597 44.679 110.632C45.8652 110.632 47.0515 110.528 48.2377 110.423C48.6563 110.388 49.0401 110.388 49.4588 110.318C49.5983 110.283 49.7379 110.318 49.8426 110.423C48.9703 111.609 48.133 112.83 47.6097 114.226C47.5399 114.435 47.4352 114.679 47.3655 114.889C47.2957 115.063 47.2608 115.238 47.4352 115.342C47.6097 115.447 47.7143 115.307 47.819 115.203C47.9586 115.063 48.0981 114.889 48.2377 114.714C49.4937 113.074 50.8892 111.539 52.4941 110.248C52.7732 110.039 53.0872 110.004 53.4012 110.004C53.6803 110.004 53.785 110.179 53.6105 110.388C52.2848 111.993 51.5521 113.912 50.4705 115.656C49.7379 116.842 48.9703 118.029 48.1679 119.18C47.9935 119.424 47.8539 119.633 47.7143 119.878C47.5748 120.017 47.4352 120.122 47.2259 120.157Z" fill="#FEFEFE"/>
<path d="M56.576 81.4302C57.1342 81.4302 57.6576 81.3953 58.2158 81.5C58.7391 81.5697 59.2973 81.4651 59.8207 81.3604C60.4487 81.2557 60.8324 81.5348 60.8673 82.1628C60.8673 82.4419 60.8673 82.7211 60.8673 83.0002C60.8673 83.3142 61.0069 83.5584 61.286 83.6631C61.5651 83.7677 61.8442 83.6631 62.0186 83.3839C62.3326 82.9653 62.542 82.5117 62.6118 81.9884C62.6466 81.6744 63.1351 81.1511 63.4491 81.0813C63.6933 81.0464 63.8329 81.1162 63.7282 81.3953C63.4142 82.2675 63.4491 83.1746 63.3793 84.0817C63.2746 85.2679 63.7282 86.3495 64.1817 87.431C64.8097 88.8615 65.2633 90.3617 65.2633 91.9666C64.9144 92.0015 64.74 92.2108 64.7749 92.6294C64.8097 92.9086 64.8795 93.2226 64.9144 93.5017C65.1586 94.7228 64.6353 95.6648 64.0073 96.6068C63.4491 97.4441 62.7513 98.1767 62.228 99.0141C61.7046 99.8514 61.286 100.759 61.2511 101.77C61.2511 102.049 61.0767 102.154 60.8324 102.154C60.4487 102.154 60.1347 102.015 59.8904 101.77C57.6576 99.7467 55.3549 97.8628 53.7849 95.2112C52.7731 93.5017 52.494 91.6875 53.0174 89.8035C53.2616 88.8615 53.5407 87.9195 53.7849 86.9775C53.75 86.9426 53.75 86.9426 53.75 86.9077L53.7849 86.8728C54.2036 85.4075 54.1687 83.9771 53.8547 82.5117C53.8198 82.3024 53.6105 82.0233 53.9245 81.8837C54.1687 81.7442 54.4129 81.9535 54.5874 82.1279C55.0409 82.5815 55.2851 83.1397 55.634 83.6631C55.7736 83.8724 55.8782 84.1864 56.1573 84.1515C56.4016 84.0817 56.4016 83.7677 56.4713 83.5235C56.7156 82.8606 56.6109 82.1279 56.576 81.4302Z" fill="#FEFEFE"/>
<path d="M4.52213 127.588C4.41746 127.588 4.3128 127.588 4.24302 127.553C3.47547 127.483 3.33591 127.309 3.33591 126.541C3.33591 119.982 3.30103 113.458 3.30103 106.899C3.33591 106.794 3.44058 106.829 3.51036 106.794C5.11524 106.236 6.68523 105.713 8.29011 105.154C9.16233 104.84 10.0694 104.561 10.9068 104.212C12.3372 103.654 13.7327 103.689 15.1283 104.352C15.233 104.492 15.1283 104.596 15.0585 104.701C13.9421 106.445 13.2443 108.364 12.5116 110.283C11.8836 111.853 11.3254 113.493 10.8021 115.098C10.6974 115.447 10.5579 115.761 10.3834 116.11C9.26699 118.342 8.15055 120.54 7.069 122.773C6.37123 124.239 5.63857 125.669 4.94079 127.134C4.76635 127.274 4.73146 127.483 4.52213 127.588Z" fill="#FEFEFE"/>
<path d="M103.955 119.215C103.118 116.354 102.28 113.598 101.443 110.841C100.152 106.55 98.8263 102.259 97.5354 97.9674C97.4308 97.6185 97.361 97.2696 97.2912 96.9208C97.2214 96.4672 97.3959 96.223 97.8494 96.1881C98.4425 96.1532 99.0008 96.3277 99.559 96.4672C102.734 97.1301 105.909 97.793 109.084 98.421C109.432 98.4908 109.432 98.5954 109.363 98.8745C107.653 105.364 105.944 111.853 104.199 118.342C104.129 118.587 104.06 118.866 103.955 119.215Z" fill="#FEFEFE"/>
<path d="M25.8739 39.5638C25.9437 36.9123 26.1879 34.2608 26.5717 31.6092C26.7811 30.2486 26.6415 28.9228 25.9437 27.6668C25.5599 27.0039 25.2111 26.3061 24.8971 25.6432C24.618 25.0501 25.0017 24.457 25.6297 24.4919C27.8626 24.5617 29.8164 23.7244 31.7004 22.6428C33.5843 21.5613 35.3288 20.2006 37.2477 19.2586C39.027 18.3864 40.8761 17.7235 42.8647 17.7235C43.0741 17.7235 43.3183 17.7235 43.5276 17.7933C43.8067 17.898 43.8416 18.1073 43.5974 18.2817C43.4579 18.3864 43.3183 18.4562 43.1787 18.526C39.8294 19.9215 37.4221 22.3288 35.6777 25.4339C34.9799 26.655 34.2123 27.7715 33.0261 28.6088C31.7004 29.5159 31.2119 30.9114 30.7584 32.3419C29.6419 35.761 29.1186 39.2847 29.0837 42.8783C29.0837 43.1225 29.0837 43.3667 29.0139 43.6109C28.979 43.7156 28.9442 43.8203 28.8744 43.9249C28.665 44.2389 27.1648 44.7623 26.8159 44.6576C26.5368 44.5529 26.4671 44.3436 26.3973 44.0994C26.1879 43.4016 26.0484 42.6689 25.9786 41.9363C25.9088 41.1687 25.8391 40.3663 25.8739 39.5638Z" fill="#FEFEFE"/>
<path d="M71.0199 71.5917C68.7871 71.4173 66.5542 71.1731 64.3213 70.9986C59.5416 70.6846 54.7967 70.6148 50.0867 71.5568C49.3192 71.6964 48.5516 71.7662 47.7492 71.6266C47.2956 71.5219 46.9119 71.3126 46.6327 70.9637C46.3187 70.5799 46.3885 70.3706 46.8421 70.1613C47.191 69.9868 47.5747 69.8473 47.9236 69.7077C48.6563 69.3588 49.2843 68.9053 49.8076 68.3122C50.0518 68.0331 50.2961 67.7889 50.5403 67.5097C51.5172 66.4631 53.0523 66.2189 54.3083 66.9166C55.8085 67.7889 57.4482 68.1377 59.1927 68.2075C60.1696 68.2424 60.972 67.8935 61.5302 67.0911C61.9489 66.498 62.5071 66.1491 63.17 66.0095C64.2167 65.7653 65.054 65.1373 65.8913 64.5093C66.4495 64.0906 66.8333 64.0906 67.3915 64.5093C67.9846 64.9629 68.4731 65.556 68.8917 66.184C69.3453 66.8469 69.764 67.5097 70.2175 68.1726C70.8106 69.01 71.6479 69.5682 72.6248 69.8473C72.7295 69.8822 72.7993 69.8822 72.9039 69.9519C73.3575 70.1962 73.4273 70.6148 73.0435 70.9986C72.4853 71.5568 71.7526 71.6266 71.0199 71.5917Z" fill="#FEFEFE"/>
<path d="M39.2014 57.8107C38.6432 57.392 37.9803 57.078 37.457 56.6245C36.3755 55.6825 35.6428 54.566 35.1544 53.2403C35.0148 52.8216 35.1195 52.5076 35.5032 52.2983H35.5381C36.3755 51.7051 37.143 51.6354 37.8757 52.5076C38.085 52.7518 38.3641 52.9263 38.6781 52.996C39.1666 53.1356 39.5503 53.1007 39.8643 52.682C40.4225 51.9843 41.0505 51.3912 41.853 50.9725C42.9345 50.4143 44.0859 50.4492 45.2372 50.6236C46.3536 50.798 47.4701 51.112 48.6214 50.9376C49.0401 50.8678 49.4238 50.798 49.8425 50.6585C50.0169 50.5887 50.1565 50.5189 50.3309 50.4492C50.5054 50.4143 50.6798 50.3445 50.8194 50.5538C50.924 50.7283 50.8194 50.8678 50.7147 51.0074C50.4356 51.3214 50.1565 51.6354 49.9123 51.9494C49.3889 52.3331 48.7609 52.5076 48.133 52.682C47.505 52.8565 47.2956 53.1007 47.4352 53.7287C47.5747 54.4614 47.4352 55.0894 47.0514 55.7173C46.4583 56.6942 45.621 57.3571 44.5394 57.7409C44.3301 57.8107 44.1208 57.8456 44.0859 58.0898C43.8765 58.5782 44.1556 59.0667 44.7487 59.1364C45.2023 59.2062 45.6559 59.1016 46.1094 59.0318C46.877 58.9271 47.6794 58.7876 48.4121 58.5084C48.5167 58.4736 48.6563 58.4038 48.7609 58.5084C47.7841 59.3807 47.0863 60.4273 46.8072 61.7182C46.7374 62.0671 46.5281 62.2764 46.2141 62.3811C45.4116 62.6602 44.679 63.044 43.9463 63.3929C43.4579 63.5324 43.1439 63.4278 42.8648 63.0091C42.2368 61.9973 41.6088 60.9855 41.1552 59.904C41.0157 59.59 40.911 59.276 40.8761 58.9271C40.8412 58.6131 40.7017 58.4387 40.3877 58.334C40.0039 58.2642 39.5503 58.1247 39.2014 57.8107Z" fill="#FDF1D6"/>
<path d="M4.52209 127.588C6.0572 124.483 7.55741 121.378 9.1274 118.308C10.1741 116.284 10.9765 114.156 11.7441 112.028C12.4767 109.934 13.2443 107.876 14.256 105.887C14.5003 105.364 14.8143 104.91 15.0934 104.387C15.7911 104.596 16.4889 104.875 17.1867 105.189C17.6402 105.399 17.8845 106.097 17.7449 106.759C17.6054 107.492 17.2216 108.155 16.9425 108.853C14.3956 114.784 11.8487 120.715 9.65073 126.82C9.51118 127.204 9.33674 127.553 9.16229 127.937C9.09251 128.111 9.02274 128.216 8.81341 128.181C7.38297 127.972 5.95253 127.832 4.52209 127.588Z" fill="#DFC091"/>
<path d="M47.2259 19.8866C47.3655 20.6193 46.8073 21.0728 46.4235 21.5264C45.3071 22.8521 44.4348 24.3175 43.7371 25.8875C42.2717 29.2019 41.3646 32.6559 40.4924 36.1447C40.318 36.8076 40.2831 37.5054 40.2482 38.2032C40.1435 39.4243 39.9691 40.6105 39.7249 41.7967C38.2247 41.8665 36.7244 41.9711 35.2242 42.0409C34.7707 42.0758 34.3869 41.8316 34.3869 41.4129C34.352 40.6803 34.2822 39.9476 34.4916 39.2149C34.5962 38.7963 34.8056 38.4125 35.2242 38.2381C36.4802 37.6798 36.7244 36.5983 36.8989 35.3772C37.492 31.3999 38.6433 27.6319 41.0158 24.2826C41.888 23.0266 42.83 21.8404 44.1208 20.9681C45.028 20.3401 46.0746 19.9564 47.2259 19.8866Z" fill="#DFC091"/>
<path d="M47.4701 86.8728C45.307 86.2797 43.6323 84.954 42.2368 83.2793C40.0039 80.558 38.6781 77.3831 37.9804 73.9989C37.6664 72.4638 38.1199 70.9636 39.2713 69.8123C39.8295 69.2541 40.5621 69.1145 41.2948 69.1145C41.853 69.1145 42.167 69.5681 42.2019 70.2309C42.3763 73.4407 42.8997 76.5807 43.9463 79.6509C44.2254 80.4184 44.5394 81.1511 45.0628 81.7791C45.5163 82.3722 45.9001 82.3024 46.1792 81.6395C46.3885 81.186 46.563 80.7324 46.7723 80.3138C46.877 80.0347 47.0514 79.8253 47.4003 79.8253C47.7492 79.8253 47.7841 80.1393 47.8539 80.3835C48.2376 81.8838 48.5865 83.384 49.075 84.8842C49.1796 85.1982 49.3192 85.5471 49.4239 85.8611C49.5634 86.2449 49.4936 86.5937 49.1796 86.8728C49.1099 87.0124 48.9354 86.9426 48.8308 87.0124C48.5516 87.0124 48.3074 87.0124 48.0283 87.0124C47.8539 86.9426 47.6097 87.0473 47.4701 86.8728Z" fill="#DFC091"/>
<path d="M85.4988 120.715C86.057 120.645 86.057 120.645 86.0919 120.087C86.2314 118.308 86.371 116.494 86.4757 114.714C86.5106 114.191 86.5454 113.668 86.5803 113.144C86.6152 111.365 86.6152 109.586 86.685 107.806C86.7897 105.434 86.7548 103.061 86.7548 100.689C86.7199 99.0143 86.5454 97.3396 86.371 95.665C86.3012 95.037 86.2314 94.409 86.1966 93.781C86.1966 93.7112 86.2663 93.5368 86.057 93.5717C86.1617 93.0134 86.2663 92.4552 86.371 91.897C86.4757 91.3388 86.7548 91.2341 87.2432 91.5481C88.0457 92.0366 88.2899 92.839 88.4643 93.6763C88.6737 94.723 88.7085 95.8045 88.8132 96.8512C88.9179 98.1421 89.0225 99.4678 89.1272 100.759C89.197 101.84 89.2668 102.922 89.3016 104.003C89.511 108.085 89.6156 112.167 89.6854 116.249C89.7203 117.366 89.7203 118.482 89.7203 119.599C89.6854 120.401 89.511 120.75 88.569 120.785C87.5223 120.855 86.5106 120.75 85.4988 120.715Z" fill="#DFC091"/>
<path d="M43.8417 117.261C43.9813 117.819 43.5975 118.133 43.2137 118.412C42.2019 119.11 40.7715 118.97 39.8644 118.168C38.9922 117.366 38.1897 116.493 37.4571 115.551C35.5731 113.179 33.8287 110.702 32.5727 107.946C31.9098 106.515 31.4562 104.98 30.9329 103.48C30.8282 103.201 30.7236 102.922 30.6189 102.608C30.5491 102.398 30.5142 102.538 30.4445 102.573C30.5491 101.84 30.7585 101.142 30.9678 100.445C31.1422 99.8515 32.1889 99.2235 32.782 99.3282C33.096 99.3631 33.2007 99.6073 33.3053 99.8515C34.2473 102.468 35.2591 105.085 36.3406 107.667C37.3524 110.039 38.7829 112.132 40.2831 114.226C41.0157 115.272 41.8182 116.284 42.7951 117.121C42.8997 117.226 43.0044 117.296 43.1091 117.401C43.5277 117.68 43.6324 117.645 43.8417 117.261Z" fill="#DFC091"/>
<path d="M44.7139 100.48C44.2952 99.9911 43.737 99.6771 43.2136 99.3282C41.9925 98.456 40.911 97.4442 39.8643 96.3975C38.7828 95.2811 37.6315 94.2344 36.515 93.1529C36.5848 92.2109 36.7941 91.3038 37.3872 90.5013C37.6663 90.1176 37.9455 90.1176 38.2246 90.4664C41.0505 93.8855 44.5394 96.5022 48.3074 98.7351C48.5865 98.8746 48.8307 99.0491 49.0749 99.2235C49.2494 99.3631 49.4238 99.5724 49.3541 99.7817C49.2843 100.026 49.0401 99.9911 48.8307 100.026C47.9934 100.096 47.1561 100.026 46.3187 100.131C45.7954 100.235 45.2721 100.375 44.7139 100.48Z" fill="#DFC091"/>
<path d="M65.2982 60.3226C65.1936 60.1133 65.1587 59.8691 65.1587 59.6598C65.1238 59.0667 65.7867 58.4387 66.5542 58.334C68.2986 58.0549 69.764 58.7178 71.0897 59.7644C72.1713 60.6366 72.9388 61.8229 73.8808 62.8346C74.7879 63.8115 75.7648 64.6837 76.637 65.6606C77.4744 66.6026 77.9279 67.6493 77.6139 68.9402C77.4744 69.5682 77.1604 70.0915 76.6719 70.4753C76.3928 70.7195 76.2184 70.9637 76.2882 71.3126C76.2882 71.3824 76.2533 71.4521 76.2184 71.487C76.1486 70.6497 76.2533 69.7775 76.1137 68.9402C76.009 68.1377 75.6602 67.5097 74.9275 67.1957C73.2528 66.4631 72.1015 65.2071 71.1246 63.7417C70.3222 62.5904 69.5546 61.4391 68.4033 60.6366C67.7055 60.1482 66.9729 59.7644 66.1007 59.59C65.4727 59.5202 65.3331 59.6598 65.2982 60.3226Z" fill="#DFC091"/>
<path d="M49.7379 110.388C48.447 110.492 47.1213 110.597 45.8304 110.702C45.0977 110.772 44.3651 110.772 43.6673 110.632C42.6555 110.423 42.1671 109.655 41.888 108.783C41.574 107.806 41.4693 106.794 41.3995 105.782C41.3646 105.05 41.26 104.317 41.2949 103.584C41.3298 101.98 42.3066 101.038 43.9115 101.038C43.772 101.421 43.7371 101.805 43.7371 102.224C43.7371 103.689 43.772 105.154 43.6673 106.62C43.5626 108.085 44.5395 108.574 45.6211 108.748C47.0515 108.957 48.4819 108.678 49.9124 108.643C49.9822 108.643 50.0519 108.608 50.1217 108.608C50.4008 108.608 50.7148 108.574 50.8544 108.818C50.9939 109.062 50.7497 109.236 50.6101 109.446C50.2961 109.725 50.0868 110.109 49.7379 110.388Z" fill="#DFC091"/>
<path d="M39.2015 57.8105C39.7248 58.0199 40.2132 58.2641 40.7715 58.4037C40.9808 58.4734 41.0157 58.6479 41.0157 58.7874C41.0855 59.7992 41.6437 60.6016 42.0972 61.4739C42.3414 61.9274 42.6903 62.3461 42.8997 62.8345C43.1439 63.323 43.4928 63.4276 43.9812 63.4276C43.3881 63.8463 42.795 64.2998 42.167 64.6836C41.1901 65.3116 39.969 65.2767 39.1666 64.4743C37.5617 62.9043 36.2708 61.125 35.7126 58.8921C35.6428 58.6828 35.6079 58.4734 35.8173 58.3339C36.0266 58.1943 36.201 58.3339 36.3755 58.4385C36.7941 58.7525 37.2128 59.0317 37.7012 59.241C38.085 59.4154 38.4688 59.555 38.8177 59.241C39.2015 58.927 39.3759 58.2292 39.2015 57.8105Z" fill="#DFC091"/>
<path d="M47.2258 120.157C47.2956 120.087 47.4003 120.052 47.4352 119.982C49.0749 117.47 50.7496 114.923 52.1451 112.272C52.5289 111.574 52.8778 110.841 53.4709 110.283C53.5058 110.248 53.5058 110.178 53.5756 110.109C53.1569 110.039 52.7731 110.178 52.4242 110.248C53.3662 109.446 54.3431 108.678 55.4945 108.225C55.7038 108.155 55.948 107.98 56.1573 108.19C56.3667 108.399 56.2969 108.678 56.2271 108.888C56.0527 109.516 55.8084 110.109 55.5293 110.702C54.2036 113.528 52.6685 116.249 50.8891 118.831C50.6798 119.18 50.4007 119.459 50.0867 119.703C49.7727 119.947 49.4238 120.087 49.0052 120.087C48.4469 120.122 47.8538 120.226 47.2258 120.157Z" fill="#DFC091"/>
<path d="M72.6946 115.761C72.1713 116.458 70.5664 116.738 69.764 116.214C68.1591 115.202 66.624 114.121 65.368 112.656C64.6004 111.783 63.7631 110.946 62.9607 110.109C62.8909 110.039 62.8211 110.004 62.7164 109.934C62.4722 109.446 62.228 108.957 61.9838 108.434C61.914 108.295 61.8791 108.12 61.9838 107.981C62.1233 107.806 62.3327 107.806 62.5071 107.876C62.7164 107.981 62.9258 108.085 63.1351 108.225C65.3331 109.551 67.3566 111.19 69.2755 112.9C70.2175 113.737 71.1246 114.54 71.962 115.482C72.1713 115.691 72.4155 115.761 72.6946 115.761Z" fill="#DFC091"/>
<path d="M57.3785 48.1116C57.2738 48.9489 57.1691 49.7513 57.0994 50.5887C56.9947 51.5307 56.8551 52.4727 56.8203 53.4147C56.7505 54.8102 56.6458 56.2057 56.1225 57.5315C55.4596 59.1364 55.4945 60.7762 56.0876 62.4159C56.262 62.8695 56.3318 63.323 56.4714 63.7766C55.1107 62.9742 54.1687 61.8577 53.7501 60.3226C53.6105 59.7993 53.7849 59.2411 53.9594 58.6828C54.2385 57.6362 54.6223 56.6244 54.8665 55.5778C55.006 54.9498 55.0758 54.3218 55.0758 53.6938C55.1107 52.682 55.0758 51.6702 55.2503 50.6584C55.3898 49.9607 55.7038 49.3327 56.1225 48.7396C56.3667 48.286 56.8551 48.1813 57.3785 48.1116Z" fill="#DFC091"/>
<path d="M44.051 58.0548C43.9114 57.8105 44.1207 57.7756 44.2952 57.7059C45.7256 57.2872 46.7374 56.3452 47.2956 54.9846C47.4352 54.6357 47.4352 54.2519 47.3654 53.8681C47.2258 53.0657 47.4003 52.7517 48.1678 52.5423C48.6912 52.4028 49.1796 52.2981 49.6332 51.9841C49.7029 51.9492 49.8076 51.8097 49.9123 51.9492C49.9472 52.7168 50.5054 53.1703 50.9938 53.6588C51.238 53.7983 51.0985 54.0077 51.0636 54.1821C50.7147 55.4381 50.0169 56.4499 48.8656 57.1128C47.5049 57.8803 46.0396 58.1943 44.4696 58.1594C44.3301 58.1594 44.1905 58.1943 44.051 58.0548Z" fill="#FEFEFE"/>
<path d="M59.5416 74.0687C61.3558 74.1036 63.1351 74.2083 64.9145 74.3827C65.1238 74.4176 65.4029 74.3827 65.4029 74.6618C65.4378 74.9061 65.1238 74.9409 64.9494 74.9758C63.3096 75.4992 61.6349 75.7434 59.8905 75.8132C58.9136 75.848 57.9367 75.9178 56.9598 75.9527C55.983 75.9876 55.1456 75.6387 54.3781 75.0107C54.2385 74.9061 54.1339 74.7665 54.1687 74.5921C54.2036 74.3827 54.413 74.3827 54.5874 74.3478C56.2272 74.2083 57.8669 74.0338 59.5416 74.0687Z" fill="#FEFEFE"/>
<path d="M44.051 58.0549C45.6908 58.0898 47.2957 57.8456 48.761 57.0431C50.017 56.3453 50.7497 55.2638 51.0288 53.8682C51.0288 53.7985 51.0288 53.7287 51.0288 53.6589C51.5521 53.6589 51.901 53.31 52.2848 52.996C52.3894 52.9263 52.4941 52.7518 52.6337 52.8216C52.7732 52.8914 52.7383 53.0658 52.7383 53.2403C52.4243 55.2289 51.3079 56.764 49.7379 57.9502C49.4239 58.1596 49.1099 58.3689 48.7959 58.5782C47.7144 58.962 46.563 59.1364 45.4117 59.3109C44.679 59.4156 44.1906 59.2411 43.9115 58.6829C43.7719 58.4038 43.7719 58.1944 44.051 58.0549Z" fill="#DFC091"/>
<path d="M45.0628 45.6345C45.935 45.7392 46.7724 45.9485 47.3306 46.7161C47.4004 46.8207 47.4701 46.8905 47.505 46.9952C47.5748 47.1696 47.6446 47.379 47.505 47.5534C47.3655 47.693 47.191 47.6581 46.9817 47.6232C46.563 47.5185 46.1095 47.4836 45.6559 47.4836C44.3999 47.4836 43.2486 47.9023 42.0973 48.3907C41.3995 48.7047 40.7017 49.0885 39.9342 49.2281C39.5853 49.2978 39.2015 49.3676 38.8526 49.1932C38.4688 49.0187 38.434 48.7745 38.748 48.4954C38.8526 48.4256 38.9573 48.3558 39.062 48.321C39.9691 47.9721 40.7715 47.4487 41.5739 46.9603C42.5159 46.4021 43.5277 45.9485 44.5744 45.7043C44.7837 45.6694 44.9233 45.6694 45.0628 45.6345Z" fill="#DFC091"/>
<path d="M70.5315 47.9021C69.8337 47.9021 69.1709 48.0766 68.508 48.2161C68.4033 48.251 68.2986 48.251 68.194 48.251C68.0195 48.251 67.88 48.2161 67.8102 48.0766C67.7055 47.9021 67.7753 47.7626 67.88 47.6579C69.1011 46.5066 70.6711 45.739 72.3457 46.681C72.7295 46.8904 73.0784 47.1695 73.4273 47.4486C74.2995 48.2161 75.067 49.1233 76.1486 49.6466C76.4626 49.7861 76.4277 49.9955 76.1486 50.1699C75.8346 50.3792 75.5206 50.2397 75.2066 50.135C74.2646 49.8559 73.4971 49.2977 72.7644 48.6697C72.1015 48.1464 71.3688 47.9021 70.5315 47.9021Z" fill="#DFC091"/>
<path d="M73.1831 57.8106C72.9738 57.5315 73.218 57.392 73.3575 57.2524C73.8111 56.8337 74.2298 56.3453 74.5438 55.822C74.9624 55.0544 75.1369 54.2869 74.7182 53.4495C74.3693 52.7518 74.5438 52.4727 75.3462 52.4727C75.8695 52.6471 76.4278 52.6471 76.9511 52.7169C77.7535 52.8215 77.928 53.1007 77.7186 53.8682C77.4046 55.1591 76.6371 56.1011 75.5904 56.8686C75.416 57.0082 75.2764 57.1129 75.102 57.2524C74.5438 57.6362 73.8809 57.7409 73.1831 57.8106Z" fill="#FEFEFE"/>
<path d="M29.2931 48.6349C29.2583 50.0653 29.642 51.426 29.9211 52.7866C29.9909 53.1006 29.956 53.3797 29.642 53.5193C29.328 53.6588 29.0838 53.4844 28.9094 53.2053C28.0372 51.7749 27.444 50.2397 27.1301 48.6C26.9905 47.9371 27.1649 47.7278 27.7929 47.5184C28.072 47.4138 28.3512 47.3091 28.6303 47.2393C29.0489 47.1695 29.2583 47.344 29.2931 47.7626C29.328 48.0766 29.2931 48.3558 29.2931 48.6349Z" fill="#FEFEFE"/>
<path d="M35.5731 48.3557C34.8753 48.3557 34.5264 47.8673 34.7357 47.2393C35.1544 46.1229 35.9569 45.4251 37.178 45.3204C37.8408 45.2507 38.4688 45.1809 39.1317 45.1111C39.3062 45.0762 39.4806 45.1111 39.6202 45.1809C39.9691 45.2855 40.0388 45.5995 39.7946 45.8786C39.6899 45.9833 39.5853 46.0531 39.4806 46.1229C38.3642 46.716 37.3175 47.4138 36.3057 48.1115C36.0615 48.2511 35.8522 48.3906 35.5731 48.3557Z" fill="#DFC091"/>
<path d="M50.1565 61.439C50.1914 60.7412 50.3309 60.183 50.6798 59.6946C51.0636 59.2061 51.7265 59.0666 52.2498 59.3806C52.4592 59.5201 52.5289 59.6597 52.4243 59.9388C52.0405 60.811 52.0056 61.6832 52.3894 62.5554C52.4591 62.695 52.494 62.8345 52.494 63.009C52.5638 63.637 52.18 63.951 51.5869 63.7068C50.8194 63.4276 50.4705 62.7996 50.2612 62.067C50.1914 61.8228 50.1216 61.5785 50.1565 61.439Z" fill="#DFC091"/>
<path d="M74.7182 45.2507C75.5207 45.3205 76.2533 45.3205 76.9511 45.5996C77.7535 45.9136 78.3466 46.5765 78.3118 47.2743C78.2769 48.0418 77.928 48.5652 77.0209 48.0767C76.4278 47.7627 75.9044 47.3441 75.3811 46.8905C74.9624 46.5416 74.5787 46.1578 74.0902 45.8787C73.9507 45.809 73.8111 45.7043 73.846 45.5298C73.8809 45.3554 74.0204 45.2856 74.1949 45.2507C74.4042 45.2507 74.6135 45.2507 74.7182 45.2507Z" fill="#DFC091"/>
<path d="M57.0994 120.087C56.7854 120.087 56.4714 120.122 56.1923 120.087C55.8434 120.052 55.7387 119.843 55.983 119.599C56.8203 118.622 57.4483 117.54 57.9367 116.354C57.9716 116.249 58.0065 116.18 58.0763 116.11C58.1112 116.04 58.1809 115.97 58.2856 115.97C58.3903 115.97 58.4252 116.075 58.4252 116.145C58.46 116.494 58.5298 116.842 58.5647 117.191C58.6345 117.854 58.6694 118.517 58.7043 119.18C58.7392 119.843 58.5298 120.052 57.8669 120.087C57.5529 120.087 57.3436 120.087 57.0994 120.087Z" fill="#FEFEFE"/>
<path d="M32.0493 46.3323C31.7353 46.3323 31.4213 46.3323 31.1422 46.3323C30.8631 46.3323 30.7236 46.2625 30.7236 45.9485C30.7236 45.8089 30.7236 45.7043 30.7236 45.5647C30.584 44.6576 30.7933 44.7623 31.4911 44.7274C31.9795 44.7274 32.4331 44.6925 32.9215 44.6576C33.2006 44.6227 33.3751 44.7623 33.41 45.0414C33.41 45.0763 33.41 45.1112 33.41 45.1112C33.4798 46.402 33.5495 46.2276 32.4331 46.2276C32.2935 46.2276 32.1889 46.2276 32.0493 46.2276C32.0493 46.2974 32.0493 46.2974 32.0493 46.3323Z" fill="#FEFEFE"/>
<path d="M80.9982 45.1462C81.3122 45.1462 81.6262 45.1462 81.9402 45.1462C82.0448 45.1462 82.1844 45.1113 82.2542 45.2159C82.4984 45.5648 82.2891 45.9137 82.2542 46.2626C82.2193 46.5068 82.01 46.5766 81.8006 46.5766C81.2075 46.5766 80.6144 46.5766 80.0562 46.5417C79.7422 46.5068 79.5677 46.3324 79.5677 45.9835C79.5677 45.0415 79.5677 45.0415 80.5097 45.0415C80.6842 45.0415 80.8586 45.0415 80.9982 45.0415C80.9982 45.1113 80.9982 45.1462 80.9982 45.1462Z" fill="#FEFEFE"/>
<path d="M73.183 57.8106C73.811 57.5315 74.5088 57.4966 75.1368 57.2175C75.0321 57.6362 75.1717 57.9851 75.3113 58.334C75.4159 58.6131 75.6601 58.648 75.9392 58.6131C75.3461 58.8224 74.753 58.962 74.125 58.9271C73.7762 58.9271 73.183 58.4037 73.1133 58.0549C73.0784 57.9851 73.1482 57.9153 73.183 57.8106Z" fill="#DFC092"/>
<path d="M47.4701 86.873C47.6445 86.9428 47.8539 86.873 47.9934 87.0126C46.5281 87.0126 45.0976 87.0126 43.6323 87.0126C40.0039 87.0126 36.3406 87.0126 32.7122 87.0126C32.747 86.9428 32.747 86.9079 32.7819 86.8381C32.8866 86.9777 33.0262 86.9428 33.1657 86.9428C37.8059 86.9428 42.4461 86.9428 47.0863 86.9428C47.2259 86.9428 47.3654 86.9777 47.4701 86.873Z" fill="#422425"/>
<path d="M48.7959 87.0124C48.9006 86.9775 49.0401 86.9077 49.1448 86.8728C49.2843 87.0124 49.4239 86.9426 49.5983 86.9426C51.0288 86.9426 52.4243 86.9426 53.8548 86.9426C53.8548 86.9775 53.8548 87.0124 53.8199 87.0124C52.1452 87.0124 50.4706 87.0124 48.7959 87.0124Z" fill="#422425"/>
<path d="M80.5445 86.9426C80.5445 87.0124 80.5096 87.0821 80.4748 87.117C80.3701 87.0124 80.2305 87.0472 80.1259 87.0472C78.8001 87.0472 77.4743 87.0472 76.1486 87.0472C76.1834 86.9775 76.2532 86.9426 76.2881 86.8728C76.4277 87.0124 76.5672 86.9426 76.7068 86.9426C77.9977 86.9426 79.2885 86.9426 80.5445 86.9426Z" fill="#432627"/>
<path d="M82.0448 87.0124C82.0099 86.9775 82.0099 86.9426 81.975 86.9426C83.2659 86.9426 84.5219 86.9426 85.8127 86.9426C85.9523 86.9426 86.0918 86.9775 86.1965 86.8728C86.2663 86.9077 86.3361 86.9426 86.371 87.0472C84.9754 87.0124 83.5101 87.0124 82.0448 87.0124Z" fill="#432526"/>
<path d="M3.47545 106.794C3.40567 106.829 3.33589 106.864 3.26611 106.899C3.26611 105.817 3.26611 104.736 3.26611 103.689C3.301 103.689 3.301 103.689 3.33589 103.689C3.33589 104.596 3.33589 105.503 3.33589 106.376C3.37078 106.55 3.301 106.69 3.47545 106.794Z" fill="#3C2424"/>
<path d="M15.5121 129.018C15.6168 128.949 15.7214 128.949 15.8261 128.984C15.7214 129.123 15.6168 129.018 15.5121 129.018Z" fill="#482426"/>
<path d="M96.3143 139.136C96.3143 139.694 95.8956 140.113 95.3723 140.148C94.8141 140.148 94.3954 139.729 94.3954 139.206C94.3954 138.648 94.8141 138.159 95.3723 138.194C95.8607 138.124 96.2794 138.578 96.3143 139.136Z" fill="#FBFBFB"/>
<path d="M72.1713 110.213C72.3108 109.865 72.3806 109.655 72.4504 109.411C72.5202 109.202 72.5899 109.097 72.8342 109.132C73.1133 109.167 72.9737 109.341 73.0086 109.481C73.0086 109.83 73.0086 110.144 73.0086 110.493C73.0086 110.597 73.0086 110.702 72.8691 110.702C72.7295 110.702 72.7295 110.597 72.7295 110.493C72.7295 110.213 72.7295 109.969 72.7295 109.62C72.5202 109.934 72.4853 110.248 72.3806 110.493C72.3457 110.597 72.3108 110.667 72.2062 110.667C72.0666 110.667 72.0317 110.597 72.0317 110.493C71.9271 110.213 71.8224 109.934 71.648 109.655C71.648 109.934 71.648 110.179 71.648 110.458C71.648 110.562 71.648 110.667 71.5084 110.667C71.3688 110.667 71.3688 110.562 71.3688 110.458C71.3688 110.109 71.3688 109.725 71.3688 109.376C71.3688 109.271 71.2991 109.097 71.5433 109.132C71.6828 109.132 71.8573 109.097 71.8922 109.306C71.9271 109.585 72.0317 109.865 72.1713 110.213Z" fill="#262422"/>
<path d="M70.4618 109.132C70.6014 109.132 70.7758 109.132 70.9154 109.132C70.9851 109.132 71.0898 109.132 71.0898 109.237C71.0898 109.341 71.02 109.411 70.9503 109.376C70.5316 109.306 70.6014 109.585 70.6014 109.83C70.6014 109.969 70.6363 110.109 70.6014 110.248C70.5665 110.388 70.7409 110.667 70.4269 110.667C70.1478 110.667 70.3223 110.423 70.2874 110.283C70.2525 110.144 70.2874 110.004 70.2874 109.865C70.2874 109.62 70.3571 109.306 69.9036 109.376C69.8338 109.376 69.764 109.341 69.764 109.271C69.764 109.167 69.8338 109.132 69.9036 109.132C70.078 109.132 70.2874 109.132 70.4618 109.132Z" fill="#282625"/>
<path d="M95.7561 139.764C95.5817 139.694 95.6165 139.555 95.6165 139.45C95.5468 139.276 95.4072 139.241 95.2676 139.241C95.0583 139.241 95.0932 139.38 95.0932 139.485C95.0932 139.59 95.1281 139.694 94.9885 139.694C94.849 139.694 94.8839 139.555 94.8839 139.485C94.8839 139.311 94.8839 139.136 94.8839 138.997C94.8839 138.508 95.1979 138.299 95.6514 138.508C95.7561 138.543 95.791 138.613 95.8259 138.717C95.9305 138.927 95.5817 139.031 95.7212 139.206C95.8259 139.415 95.8608 139.59 95.7561 139.764Z" fill="#2B2927"/>
<path d="M95.3374 138.683C95.477 138.683 95.6166 138.752 95.5817 138.927C95.5468 139.101 95.3723 139.136 95.2328 139.136C95.0234 139.136 95.0583 138.997 95.0583 138.892C95.0583 138.648 95.1979 138.648 95.3374 138.683Z" fill="#EDECEC"/>
</g>
<defs>
<clipPath id="clip0_340_3555">
<rect width="131.879" height="163" fill="white" transform="translate(0.963501)"/>
</clipPath>
</defs>
</svg>
