<svg width="166" height="165" viewBox="0 0 166 165" fill="none" xmlns="http://www.w3.org/2000/svg">
<g clip-path="url(#clip0_340_3753)">
<path d="M83.19 -6.36907e-05C82.4326 -0.00306532 81.6821 0.144265 80.982 0.433393C80.282 0.72252 79.6462 1.1477 79.1116 1.68429L2.36966 78.4215C1.29026 79.5044 0.684143 80.971 0.684143 82.4999C0.684143 84.0289 1.29026 85.4955 2.36966 86.5783L79.1069 163.32C80.1904 164.404 81.6429 165 83.1853 165C84.7277 165 86.1802 164.404 87.2637 163.32L164.001 86.5783C164.536 86.0439 164.96 85.4088 165.248 84.7096C165.537 84.0104 165.684 83.261 165.681 82.5047C165.684 81.7476 165.538 80.9973 165.249 80.2972C164.961 79.5972 164.537 78.9612 164.001 78.4263L87.2637 1.68429C86.7303 1.14741 86.0955 0.722008 85.3961 0.432839C84.6967 0.14367 83.9468 -0.00348692 83.19 -6.36907e-05Z" fill="#2360A5"/>
<path d="M163.377 79.0509C164.29 79.9663 164.803 81.2068 164.803 82.5C164.803 83.7933 164.29 85.0338 163.377 85.9492L86.6394 162.691C85.7215 163.604 84.4961 164.115 83.1903 164.115C81.8844 164.115 80.659 163.609 79.7411 162.691L2.99914 85.9492C2.08126 85.036 1.57501 83.8106 1.57501 82.5C1.57501 81.1895 2.07653 79.9641 2.99914 79.0509L79.7364 2.30892C80.6543 1.39578 81.8797 0.889526 83.1855 0.889526C84.4914 0.889526 85.7168 1.39578 86.6347 2.30892L163.377 79.0509Z" fill="white"/>
<path d="M43.4614 42.1418L6.44828 79.1549C5.61936 79.9875 5.15399 81.1145 5.15399 82.2894C5.15399 83.4643 5.61936 84.5913 6.44828 85.4239L39.2742 118.25C40.1076 119.079 41.2354 119.544 42.411 119.544C43.5867 119.544 44.7145 119.079 45.5479 118.25L82.5563 81.2414L43.4614 42.1418ZM80.0487 5.54978L45.7608 39.8424L84.8604 78.942L119.153 44.6494C119.98 43.8148 120.444 42.6874 120.444 41.5125C120.444 40.3376 119.98 39.2103 119.153 38.3757L86.3271 5.54978C85.4917 4.72258 84.3636 4.25854 83.1879 4.25854C82.0122 4.25854 80.8841 4.72258 80.0487 5.54978Z" fill="#CF4037"/>
<path d="M28.4016 92.3269C33.7139 92.3269 38.0204 88.0204 38.0204 82.7081C38.0204 77.3958 33.7139 73.0894 28.4016 73.0894C23.0893 73.0894 18.7828 77.3958 18.7828 82.7081C18.7828 88.0204 23.0893 92.3269 28.4016 92.3269Z" fill="white"/>
<path d="M56.4252 92.7434C61.7375 92.7434 66.0439 88.4369 66.0439 83.1246C66.0439 77.8123 61.7375 73.5059 56.4252 73.5059C51.1129 73.5059 46.8064 77.8123 46.8064 83.1246C46.8064 88.4369 51.1129 92.7434 56.4252 92.7434Z" fill="white"/>
<path d="M84.023 50.9232C89.3353 50.9232 93.6418 46.6167 93.6418 41.3044C93.6418 35.9921 89.3353 31.6857 84.023 31.6857C78.7107 31.6857 74.4042 35.9921 74.4042 41.3044C74.4042 46.6167 78.7107 50.9232 84.023 50.9232Z" fill="white"/>
<path d="M121.036 46.5326L47.431 120.138C46.6018 120.971 46.1363 122.099 46.1363 123.275C46.1363 124.45 46.6018 125.578 47.431 126.411L80.2569 159.237C81.0903 160.066 82.2181 160.532 83.3937 160.532C84.5694 160.532 85.6972 160.066 86.5306 159.237L160.136 85.6322C160.963 84.799 161.428 83.6722 161.428 82.4977C161.428 81.3232 160.963 80.1964 160.136 79.3632L127.31 46.5373C126.478 45.7063 125.35 45.2392 124.174 45.2383C122.998 45.2374 121.87 45.7028 121.036 46.5326Z" fill="#2360A5"/>
<path d="M65.8879 137.085L52.0393 123.237L55.9095 119.366C60.0021 115.274 66.607 116.977 70.5908 124.192C72.4408 127.537 72.2373 130.74 69.8906 133.087L65.8879 137.085Z" fill="white"/>
<path d="M64.8138 125.276C61.3079 121.353 59.0984 123.251 59.0984 123.251L65.9446 130.092C65.9446 130.097 67.6432 128.45 64.8138 125.276Z" fill="#2360A5"/>
<path d="M71.0308 122.39C68.3103 119.669 67.9129 116.149 69.8716 113.504C72.5259 109.975 76.9497 109.927 80.2237 113.201C83.266 116.211 83.46 120.166 80.7347 122.886C77.9953 125.621 74.0541 125.413 71.0308 122.39Z" fill="white"/>
<path d="M77.0821 120.336C77.9006 120.407 78.2744 120.034 78.2082 119.215C78.1751 118.463 77.4464 117.252 76.1642 116.178C75.3694 115.506 74.6928 115.189 74.1487 115.156C73.3586 115.113 72.9801 115.487 73.0274 116.282C73.0652 116.92 73.562 117.838 74.5272 118.803C75.5255 119.802 76.4434 120.299 77.0821 120.336Z" fill="#2360A5"/>
<path d="M110.443 82.9779C107.722 80.2574 107.325 76.7326 109.283 74.0878C111.938 70.5582 116.362 70.5109 119.636 73.785C122.678 76.7941 122.872 80.7542 120.147 83.4747C117.407 86.2094 113.471 85.9965 110.443 82.9779Z" fill="white"/>
<path d="M116.499 80.9245C117.317 80.9955 117.691 80.6217 117.625 79.7985C117.592 79.0462 116.863 77.8397 115.581 76.7657C114.791 76.0891 114.109 75.7769 113.57 75.7437C112.775 75.7012 112.401 76.0749 112.444 76.8698C112.487 77.5133 112.979 78.4264 113.949 79.3916C114.937 80.3899 115.855 80.882 116.499 80.9245Z" fill="#2360A5"/>
<path d="M85.7925 117.185L76.098 107.486L79.6087 103.976L80.8388 105.206C80.7943 105.071 80.7672 104.931 80.7584 104.789C80.5854 103.845 80.7548 102.871 81.2362 102.04C82.2819 100.224 84.3305 99.6038 85.8587 100.19C85.8493 100.049 85.3714 98.1655 86.1852 96.9732C87.5052 95.0428 89.4356 94.5697 91.1058 95.4403C91.366 95.5633 91.6262 95.7289 91.8533 95.9228L91.9101 95.9843L93.3153 97.3848L99.4518 103.521L95.8229 107.15L90.2068 101.567C89.8425 101.241 89.516 101.146 89.1943 101.194C88.7306 101.274 88.2528 101.87 88.3474 102.499C88.4248 102.816 88.5944 103.102 88.8347 103.323L94.2237 108.745L90.7982 112.17L85.6648 107.037C84.586 105.953 83.5735 106.124 83.2896 106.914C83.1524 107.278 83.2518 107.718 83.6587 108.158L89.2227 113.755L85.7925 117.185ZM94.6732 88.911L104.363 98.6055L100.625 102.343L90.9307 92.6535L94.6732 88.911ZM105.782 97.1908L96.0878 87.4916L99.7215 83.8627L101.065 85.2064V85.1733L100.961 84.6954C100.682 83.4747 100.791 82.713 101.543 81.6153C103.152 79.1598 105.442 79.368 108.233 82.1547L114.521 88.4474L110.892 92.0763L105.773 86.9617C104.618 85.8073 103.805 85.7316 103.464 86.5359C103.232 87.0374 103.45 87.5957 104.562 88.7076L109.407 93.5525L105.782 97.1908ZM127.518 73.8039L126.198 70.1324C126.553 70.0473 126.638 70.0331 127.234 69.858C128.814 69.3565 129.273 68.7036 129.183 68.1784C129.122 67.781 128.762 67.5207 128.303 67.6721C128.156 67.7129 128.015 67.7768 127.887 67.8614L127.627 68.0033L127.263 68.2115L126.955 68.4055L126.61 68.5995C124.76 69.6025 122.228 68.5143 121.221 66.0635C120.255 63.7215 121.017 61.1902 124.216 59.1842C124.679 58.8766 125.148 58.6353 125.692 58.4035L125.9 58.3089L126.127 58.2332L127.669 61.9283C127.135 61.9993 127.192 62.0182 126.704 62.2311C126.374 62.3755 126.067 62.5667 125.791 62.7989C125.645 62.9584 125.518 63.1347 125.413 63.3241C125.223 63.7073 125.427 64.0811 125.772 64.1568C125.964 64.1923 126.163 64.1675 126.34 64.0858C126.411 64.0571 126.48 64.0256 126.548 63.9912L126.752 63.8634L127.896 63.2625C129.571 62.2784 131.63 62.761 133.063 64.8996C134.539 67.0807 134.18 69.981 131.284 72.2237C130.297 72.9815 129.147 73.4997 127.925 73.7377C127.783 73.7661 127.641 73.7945 127.518 73.8039Z" fill="white"/>
<path d="M89.8283 90.6047C91.4458 90.6047 92.757 89.2935 92.757 87.676C92.757 86.0585 91.4458 84.7473 89.8283 84.7473C88.2109 84.7473 86.8997 86.0585 86.8997 87.676C86.8997 89.2935 88.2109 90.6047 89.8283 90.6047Z" fill="white"/>
<path d="M87.3491 131.36L97.0388 141.06L93.3011 144.793L83.6113 135.093L87.3491 131.36Z" fill="white"/>
<path d="M82.509 133.045C84.1265 133.045 85.4377 131.733 85.4377 130.116C85.4377 128.498 84.1265 127.187 82.509 127.187C80.8915 127.187 79.5803 128.498 79.5803 130.116C79.5803 131.733 80.8915 133.045 82.509 133.045Z" fill="white"/>
<path d="M117.549 70.7852L120.336 68.0032L116.433 59.2881L112.95 62.7751L117.549 70.7852ZM83.2328 154.591L69.3843 140.742L73.439 136.688C76.5002 133.627 80.0061 133.347 83.2139 136.603C87.5383 140.989 83.8858 144.939 83.6823 145.143L82.2677 146.557L86.7671 151.057L83.2328 154.591Z" fill="white"/>
<path d="M79.5708 142.749C80.096 142.223 80.1008 141.641 79.6891 140.974C78.9274 139.697 77.4181 139.006 76.6469 139.773L76.0649 140.355L79.0126 143.302L79.5708 142.749Z" fill="#2360A5"/>
<path d="M112.534 108.428L111.479 107.373L114.971 103.881L124.457 113.362L120.965 116.854L119.782 115.671C120.497 117.062 120.142 118.775 118.377 119.863C116.868 120.843 114.497 120.545 111.933 118.591C108.422 115.889 107.344 112.156 108.451 110.06C109.454 108.196 111.214 107.756 112.534 108.428Z" fill="white"/>
<path d="M117.066 115.174C118.074 115.08 117.932 113.992 116.716 112.601C115.354 111.035 114.171 110.434 113.527 110.665C113.291 110.765 113.168 110.978 113.158 111.266C113.13 111.844 113.58 112.676 114.597 113.717C115.647 114.768 116.48 115.217 117.066 115.174Z" fill="#2360A5"/>
<path d="M88.8868 129.842L96.6414 122.087L100.128 132.122L102.74 129.511L105.702 132.477L98.0324 140.142L94.413 129.823L91.6404 132.595L88.8868 129.842ZM97.7722 120.956L105.527 113.202L109.014 123.237L111.625 120.625L114.587 123.587L106.923 131.256L103.298 120.937L100.526 123.71L97.7722 120.956Z" fill="white"/>
<path d="M93.9019 161.4C93.9129 160.985 94.0061 160.577 94.1761 160.198C94.3462 159.82 94.5897 159.479 94.8925 159.196C95.1954 158.912 95.5515 158.692 95.9402 158.547C96.329 158.402 96.7426 158.336 97.1571 158.353C97.9871 158.373 98.775 158.723 99.3473 159.324C99.9196 159.926 100.229 160.73 100.209 161.56C100.188 162.39 99.8385 163.178 99.2369 163.751C98.6353 164.323 97.831 164.633 97.0009 164.612C96.5854 164.608 96.1747 164.522 95.7929 164.358C95.4111 164.194 95.0659 163.955 94.7773 163.656C94.4888 163.357 94.2628 163.003 94.1125 162.616C93.9622 162.228 93.8906 161.815 93.9019 161.4Z" fill="#2360A5"/>
<path d="M97.02 164.092C97.3597 164.101 97.6977 164.041 98.0138 163.916C98.3299 163.791 98.6176 163.604 98.8597 163.366C99.1018 163.127 99.2932 162.842 99.4226 162.528C99.552 162.214 99.6167 161.877 99.6127 161.537C99.6312 161.199 99.5815 160.861 99.4667 160.543C99.3518 160.224 99.174 159.933 98.944 159.685C98.7141 159.436 98.4365 159.237 98.1279 159.099C97.8193 158.96 97.4859 158.885 97.1477 158.878C96.808 158.867 96.4695 158.925 96.1525 159.047C95.8355 159.17 95.5463 159.355 95.3023 159.591C95.0582 159.828 94.8642 160.111 94.7317 160.424C94.5993 160.737 94.5311 161.074 94.5313 161.414C94.5121 161.755 94.562 162.096 94.6779 162.417C94.7937 162.738 94.9732 163.032 95.2056 163.282C95.438 163.532 95.7185 163.733 96.0302 163.872C96.342 164.011 96.6786 164.086 97.02 164.092Z" fill="white"/>
<path d="M96.3765 163.268L95.8324 163.259L95.9223 159.649L97.2944 159.687C98.1507 159.706 98.5624 160.027 98.5482 160.742C98.534 161.385 98.1176 161.66 97.5877 161.717L98.5766 163.33L97.9662 163.316L97.0531 161.726L96.4238 161.712L96.3765 163.268Z" fill="#2360A5"/>
<path d="M97.0814 161.257C97.5451 161.267 97.9614 161.243 97.9709 160.69C97.9804 160.245 97.5782 160.15 97.195 160.141L96.4521 160.127L96.4238 161.243L97.0814 161.257Z" fill="white"/>
</g>
<defs>
<clipPath id="clip0_340_3753">
<rect width="165" height="165" fill="white" transform="translate(0.685547)"/>
</clipPath>
</defs>
</svg>
