<svg width="173" height="173" viewBox="0 0 173 173" fill="none" xmlns="http://www.w3.org/2000/svg">
<path fill-rule="evenodd" clip-rule="evenodd" d="M86.4811 0C74.7678 0 63.5298 2.26267 52.8013 6.78801C42.474 11.1662 33.3151 17.3329 25.3234 25.3246C17.3682 33.3151 11.165 42.4752 6.82327 52.8013C2.26145 63.5298 0 74.7325 0 86.4824C0 98.1957 2.26145 109.435 6.82327 120.126C11.165 130.488 17.3682 139.648 25.3234 147.639C33.3151 155.632 42.474 161.798 52.8013 166.176C63.5286 170.702 74.7666 173 86.4811 173C98.2298 173 109.434 170.701 120.162 166.176C130.49 161.798 139.648 155.632 147.64 147.639C155.593 139.648 161.799 130.49 166.141 120.126C170.701 109.435 172.964 98.1957 172.964 86.4824C172.964 74.7325 170.701 63.5298 166.141 52.8013C161.799 42.4752 155.593 33.3151 147.64 25.3246C139.65 17.3329 130.491 11.1662 120.162 6.78801C109.434 2.26389 98.2298 0 86.4811 0Z" fill="white"/>
<path fill-rule="evenodd" clip-rule="evenodd" d="M125.234 28.3181C126.111 28.2074 126.619 27.8427 126.839 27.332C127.093 26.7107 126.949 26.0907 126.438 25.4706C122.352 18.5367 113.119 14.2679 98.6685 12.7347C92.6464 12.0781 86.1891 12.3699 79.2564 13.6101C71.9213 14.8879 65.5722 16.9318 60.208 19.8145C46.8532 27.0025 39.1898 36.5274 37.1825 48.4231C36.8907 49.5174 36.9624 50.2858 37.3272 50.7587C37.7296 51.2329 38.3861 51.3059 39.298 51.0128C57.1416 45.0285 70.9717 40.7232 80.7519 38.0958C96.1869 34.0459 111.003 30.7619 125.234 28.3181Z" fill="#EEBD31"/>
<path fill-rule="evenodd" clip-rule="evenodd" d="M111.696 8.02929C103.767 5.44325 95.4784 4.12567 87.1377 4.12524C75.1326 4.12524 63.8205 6.42439 53.2755 11.0579C43.3142 15.3997 34.593 21.5311 27.039 29.4134C19.7768 37.0403 14.1208 45.7603 10.1438 55.577C6.13029 65.3924 4.1582 75.4632 4.1582 85.8282C4.1582 96.9944 6.2385 107.65 10.4356 117.865C14.522 127.827 20.251 136.623 27.732 144.286C35.1105 151.94 43.9437 158.044 53.7132 162.239C63.9664 166.691 74.7678 168.881 86.1541 168.881C105.967 168.881 123.264 162.896 138.042 150.855C143.846 146.146 148.954 140.672 153.407 134.508C157.166 129.288 160.119 123.997 162.274 118.707L148.444 111.188C142.604 124.325 134.504 134.725 124.142 142.351C113.157 150.416 100.715 154.54 86.8836 154.759C76.6293 154.906 66.9597 153.301 57.9103 149.905C49.0797 146.621 41.3081 141.84 34.593 135.529L26.6013 138.958V126.588C22.1489 120.603 18.7932 114.036 16.4576 106.773C14.049 99.2935 12.8453 91.3736 12.8453 83.0548C12.8453 72.364 14.8162 62.2568 18.7567 52.6954C22.589 43.3906 28.0615 35.2178 35.1766 28.1745C42.3658 21.0217 50.7223 15.5492 60.2824 11.6804C70.2085 7.70345 80.8628 5.6961 92.2114 5.6961C98.304 5.69367 104.837 6.49612 111.696 8.02929Z" fill="#3261A5"/>
<path fill-rule="evenodd" clip-rule="evenodd" d="M152.857 64.5888C152.312 63.4228 151.435 62.6192 150.196 62.1085C148.26 61.3778 146.142 60.9036 143.737 60.7577C141.365 60.6118 138.993 60.7577 136.585 61.2696C131.988 62.1814 128.046 64.1511 124.797 67.1797C120.091 71.5592 117.719 77.5071 117.719 85.0963C117.719 91.4466 119.799 96.1519 123.959 99.2182C127.498 101.809 131.84 102.83 136.949 102.246C142.715 101.59 147.204 99.6547 150.451 96.4449C152.313 94.6211 153.225 92.1032 153.261 88.8921C153.335 86.7024 153.335 82.0677 153.261 75.062L136.002 78.8214V82.8361C136.038 85.7553 137.39 86.959 140.125 86.4106L142.315 85.8635L142.353 89.1487C142.388 89.4393 142.277 89.7688 141.951 90.1347C141.331 90.9372 140.09 91.4843 138.264 91.849C135.493 92.2503 133.413 91.7031 131.99 90.0982C130.639 88.6016 129.945 86.2295 129.91 83.0549C129.984 79.8816 130.822 77.2529 132.463 75.2091C133.961 73.3489 135.894 72.1075 138.338 71.5604C140.491 71.0498 142.534 70.9039 144.469 71.1592L148.045 71.8522C149.432 72.0723 150.562 71.7428 151.548 70.9756C152.388 70.2473 152.971 69.2613 153.227 68.0576C153.474 66.8914 153.345 65.6768 152.857 64.5888ZM106.185 70.9014C105.166 72.251 104.653 74.076 104.653 76.4845L104.618 88.6721C100.021 82.9066 96.1873 78.4907 93.1952 75.462C91.5526 73.8571 89.4358 73.5288 86.7719 74.4784L80.8617 76.2657V116.951L86.5908 114.983C88.7075 114.251 90.2042 113.194 91.1149 111.879C91.9915 110.566 92.3927 108.815 92.3927 106.587L92.3186 92.5396L104.617 106.735C106.44 108.594 108.703 109.142 111.439 108.339C112.665 107.99 113.742 107.246 114.504 106.224C115.381 105.13 115.817 103.852 115.852 102.392V67.1433C113.737 67.581 111.804 68.0551 110.015 68.5658C108.34 69.04 107.062 69.8072 106.185 70.9014ZM70.3898 79.3673C68.3095 80.1333 66.7775 81.1923 65.8292 82.4689C64.7337 84.002 64.223 86.1553 64.223 89.0016L64.1878 122.792L70.8287 120.42C73.1266 119.543 74.7327 118.487 75.6811 117.136C76.6294 115.823 77.1048 113.961 77.1048 111.589L77.1413 77.18C74.8667 77.8325 72.6149 78.5621 70.3898 79.3673ZM40.6504 90.7876L28.3522 95.8978L28.2793 136.439L36.964 132.789C38.1312 132.499 39.0443 131.767 39.6996 130.708C40.3574 129.687 40.6492 128.374 40.6127 126.733V113.85L50.3187 124.177C51.5224 125.381 52.9449 126.11 54.5875 126.292C56.4855 126.549 58.2363 126.001 59.8424 124.723C61.3014 123.519 62.0674 121.987 62.1415 120.126C62.178 118.411 61.7391 117.024 60.7555 115.93L51.8884 107.063L60.9743 92.722C61.8133 91.336 62.0333 89.9122 61.6309 88.4897C61.1932 86.993 60.2083 85.8987 58.7117 85.2422C57.142 84.5127 55.5736 84.4397 54.1146 84.9869C52.8367 85.4611 51.8531 86.2282 51.1589 87.3225L40.6857 105.131L40.6504 90.7876Z" fill="#CC2131"/>
<path fill-rule="evenodd" clip-rule="evenodd" d="M140.998 105.494C140.561 105.019 139.794 104.911 138.735 105.203C126.549 108.05 112.573 111.954 96.7718 116.917C79.8036 122.246 66.0464 127.171 55.5367 131.694L54.4777 132.205C54.2236 132.387 54.0036 132.606 53.8941 132.937C53.5646 133.628 53.7482 134.324 54.4425 135.053C55.6461 136.513 57.6535 137.935 60.4998 139.323C63.5637 140.78 67.0677 141.986 71.0812 142.898C80.8614 145.05 90.6768 144.941 100.527 142.569C114.505 139.213 125.34 132.864 133.041 123.522C135.597 120.385 137.676 117.063 139.282 113.595C140.268 111.48 140.961 109.582 141.363 107.903C141.581 106.771 141.473 105.969 140.998 105.494Z" fill="#EEBD31"/>
<path fill-rule="evenodd" clip-rule="evenodd" d="M38.4969 60.9766C36.5625 59.954 34.0822 59.954 31.0524 61.0848C29.5204 61.6331 26.4918 62.8368 21.9312 64.697L21.9664 94.2552L32.8408 89.6204C35.833 88.3791 38.0592 86.993 39.5182 85.4963C41.3432 83.5984 42.2174 81.3734 42.1809 78.746C42.1456 77.2858 41.6715 76.0456 40.6854 75.0243C39.7968 74.0447 38.5981 73.4008 37.2908 73.2006C39.8817 71.1191 41.1584 68.6752 41.1584 65.8302C41.1596 63.5675 40.2477 61.9614 38.4969 60.9766ZM30.8335 72.6522L29.4462 73.2358V66.9974C30.6511 66.3396 31.6724 66.1937 32.4761 66.449C33.2421 66.7408 33.6433 67.3974 33.6068 68.4929C33.6068 70.3543 32.6585 71.7403 30.8335 72.6522ZM32.988 77.3599C33.8269 77.7976 34.2646 78.5636 34.2646 79.7308C34.3388 81.7759 33.2785 83.2713 31.1995 84.2197L29.5216 84.9857V77.7964C30.9429 77.0681 32.1113 76.9222 32.988 77.3599ZM62.872 53.7873C62.872 52.5836 62.5084 51.7812 61.7413 51.3435C61.0847 50.9423 60.1716 50.9058 59.1138 51.2341C57.9819 51.5623 56.7782 51.9636 55.4651 52.4742V70.8285C55.3909 73.5653 54.5532 75.0985 52.8742 75.5362C52.0352 75.7186 51.3787 75.5727 50.9398 75.0985C50.5385 74.6608 50.3197 73.9325 50.3197 72.9829L50.2832 57.9479C50.2832 56.743 49.9173 55.9041 49.189 55.4664C48.4959 55.0287 47.6205 55.0287 46.5251 55.357L42.8022 56.7065V74.9161C42.7681 77.9812 43.7153 80.2062 45.6485 81.5205C47.6205 82.9078 50.2091 83.1267 53.3848 82.1783C56.4864 81.2652 58.7491 79.8792 60.2081 78.1271C61.9601 76.0104 62.8355 73.0547 62.8708 69.2224L62.872 53.7873ZM117.279 46.0157V41.8916L123.591 40.5785C125.089 40.2855 125.853 39.2289 125.853 37.4769V34.3388C120.636 35.2154 115.307 36.3085 109.908 37.5498L109.798 64.5159C114.346 63.4135 118.908 62.3674 123.481 61.3778C125.233 60.9766 126.145 59.8081 126.145 57.875V54.7357L117.278 56.6701L117.313 51.4517L122.86 50.2857C124.392 49.9198 125.159 48.9702 125.159 47.3653L125.124 44.3731L117.279 46.0157ZM64.917 77.1788L69.3305 75.6833C71.3378 74.8809 72.3227 73.5665 72.3591 71.6698L72.3956 64.4441L78.7447 71.0485C79.6943 71.9616 80.7521 72.3629 81.991 72.2911C82.977 72.1805 83.7807 71.8522 84.436 71.2309C85.2397 70.5014 85.6409 69.5531 85.6409 68.4211C85.6045 67.3269 85.2397 66.415 84.509 65.6843L79.6931 61.086C82.7947 58.5327 84.3278 55.5758 84.3631 52.2931C84.3631 49.9939 83.4877 48.2796 81.7004 47.1841C79.8754 46.0534 77.5398 45.7981 74.7312 46.4534C72.3227 47.0005 69.0387 48.023 64.917 49.4456V77.1788ZM72.3591 60.2823V52.5836C75.2054 51.5247 76.6656 52.1459 76.7021 54.4451C76.7386 56.8524 75.2784 58.7868 72.3591 60.2823ZM144.282 33.8282C142.53 32.4774 140.268 31.9667 137.569 32.3327L127.79 33.9741V60.5389L131.839 59.7729C133.919 59.2975 134.976 58.0586 135.014 55.9783V49.4821L141.254 56.816C141.875 57.509 142.642 57.9102 143.479 58.0573C144.465 58.2385 145.413 58.0573 146.324 57.4725C147.311 56.8512 147.859 55.977 147.968 54.8816C148.078 53.7861 147.786 52.8378 147.056 52.0706L142.24 46.671C145.233 44.6637 146.765 42.1457 146.765 39.1171C146.799 36.8556 145.961 35.1413 144.282 33.8282ZM135.014 45.3579L134.976 38.1687C137.787 37.5851 139.246 38.2793 139.284 40.2855C139.284 42.5846 137.861 44.2637 135.014 45.3579ZM107.938 43.3141C107.973 42.0375 107.427 41.0527 106.297 40.3584C105.055 39.6654 103.302 39.3724 100.968 39.4101C96.0047 39.5912 92.1007 41.308 89.2544 44.5907C86.627 47.6194 85.3139 51.4517 85.3139 56.1229C85.3139 60.5376 86.627 63.8228 89.2167 65.9761C91.6253 67.9834 94.7633 68.64 98.5203 67.9469C101.734 67.3257 104.251 66.1961 106.074 64.5535C107.425 63.3851 108.083 61.8167 108.083 59.8823V49.4091L97.0236 51.8906V54.9557C97.0236 55.6865 97.2801 56.2336 97.7555 56.6348C98.2285 57.0373 98.8145 57.1819 99.5075 57.0373L101.112 56.6725L101.148 59.6999C101.148 60.3212 100.782 60.7954 100.017 61.1602C99.285 61.5249 98.4121 61.7073 97.4613 61.6708C94.7256 61.6343 93.3749 59.6282 93.3007 55.65C93.336 53.1685 93.9208 51.1611 94.9798 49.5562C96.0387 48.0607 97.3871 47.11 99.1027 46.6358C100.197 46.3817 101.622 46.3452 103.41 46.5628C104.798 46.8194 105.892 46.5993 106.694 46.0157C107.497 45.4321 107.902 44.519 107.938 43.3141Z" fill="#CC2131"/>
<path fill-rule="evenodd" clip-rule="evenodd" d="M46.1957 44.5556C46.5605 44.3003 46.7441 43.8626 46.8158 43.3142C48.0572 38.6077 50.4281 33.973 53.9321 29.4841C57.2161 25.287 60.7931 22.0031 64.6971 19.631C59.114 22.076 54.1874 25.9801 49.8821 31.3443C48.1301 33.5705 46.7076 35.759 45.6121 37.9487C44.5908 40.029 44.0072 41.7434 43.8613 43.1671C43.8613 43.6778 43.9708 44.079 44.2261 44.4085C44.4802 44.7003 44.8097 44.845 45.2109 44.8827C45.5757 44.9203 45.9051 44.8109 46.1957 44.5556ZM115.164 24.0116C115.199 22.808 114.397 21.5678 112.827 20.29C111.332 19.0863 109.251 17.9896 106.66 16.9695C103.96 15.9835 101.115 15.2917 98.0499 14.8163C94.7659 14.3433 91.5537 14.1974 88.4521 14.4527C94.5823 14.8892 99.6913 16.0941 103.778 18.1756C105.569 19.051 106.952 19.9994 107.938 21.0207C108.885 22.0055 109.398 22.9551 109.398 23.8305C109.434 24.9259 108.997 25.9472 108.121 26.8226C107.318 27.7345 106.223 28.3923 104.946 28.7935L109.251 27.7722C110.712 27.4427 111.771 27.1521 112.465 26.8603C114.252 26.2378 115.126 25.2883 115.164 24.0116ZM133.518 114.8C133.884 114.033 133.919 113.34 133.665 112.755C133.483 112.21 133.082 111.844 132.497 111.661C131.912 111.479 131.364 111.552 130.818 111.844C130.16 112.21 129.724 112.83 129.431 113.705C127.716 118.157 125.305 122.244 122.207 126.001C118.557 130.488 114.14 134.175 108.997 137.093C114.214 135.05 118.886 132.242 122.972 128.665C127.534 124.689 131.037 120.091 133.518 114.8Z" fill="white" fill-opacity="0.11"/>
<path fill-rule="evenodd" clip-rule="evenodd" d="M160.228 111.478H157.492V111.918H158.55V114.033H159.243V111.918H160.228V111.478ZM161.287 111.953L161.907 114.033H162.601L163.22 111.953V114.033H163.914V111.478H162.893L162.273 113.45L161.615 111.478H160.594V114.033H161.287V111.953Z" fill="#CC2131"/>
</svg>
