<svg width="133" height="163" viewBox="0 0 133 163" fill="none" xmlns="http://www.w3.org/2000/svg">
<g clip-path="url(#clip0_340_3653)">
<path d="M76.8653 122.634C76.0977 122.634 75.3302 122.634 74.5626 122.634C73.6904 122.564 72.8182 122.878 71.9111 122.843C70.4109 122.773 68.9455 122.913 67.4453 122.948C65.5264 122.983 63.5727 123.087 61.6538 123.192C59.2814 123.332 56.9089 123.471 54.5365 123.68C50.0707 124.029 45.605 124.413 41.1741 125.111C35.6966 125.948 30.2889 127.134 24.8811 128.356C24.3927 128.46 23.9042 128.635 23.4158 128.6C22.7529 128.565 22.3342 128.216 22.1598 127.588C21.9505 126.786 22.1249 125.983 22.1947 125.216C22.5087 121.517 23.1018 117.854 23.8693 114.226C24.8811 109.516 25.9975 104.875 27.3931 100.27C27.3931 100.2 27.428 100.165 27.428 100.096C27.4978 99.7468 27.428 99.677 27.114 99.7468C26.5558 99.8864 26.0673 100.2 25.7882 100.759C25.4742 101.352 25.1951 101.98 24.916 102.608C23.8344 105.224 22.8924 107.876 21.9505 110.527C20.9736 113.214 20.0316 115.9 19.1245 118.622C18.3918 120.82 17.8336 123.087 17.2405 125.32C16.9614 126.367 16.6474 127.448 16.4032 128.53C16.2985 129.018 16.2985 129.018 16.7869 129.088C19.4734 129.437 22.1249 129.786 24.8113 130.135C28.1606 130.554 31.5448 131.007 34.8942 131.426C39.1855 131.984 43.4419 132.542 47.7332 133.066C50.3847 133.414 53.0014 133.763 55.6529 134.077C55.8623 134.112 56.1065 134.077 56.3158 134.287C56.246 134.426 56.1414 134.391 56.0367 134.391C52.8618 134.391 49.687 134.391 46.4772 134.391C46.4423 134.391 46.4074 134.391 46.3376 134.391C45.3608 134.391 44.349 134.356 43.3721 134.391C41.6277 134.461 39.9181 134.112 38.1737 133.903C36.5688 133.728 34.9639 133.484 33.3939 133.275C31.7891 133.066 30.1842 132.856 28.6142 132.647C27.0442 132.438 25.4393 132.228 23.8693 132.019C22.2993 131.81 20.7293 131.6 19.1594 131.391C17.5545 131.182 15.9496 130.972 14.3098 130.763C12.7398 130.554 11.135 130.344 9.56497 130.135C7.99497 129.926 6.42498 129.716 4.85499 129.507C3.94789 129.402 3.00589 129.298 2.09878 129.158C1.57545 129.088 1.4359 128.844 1.4359 128.251C1.4359 122.948 1.4359 117.68 1.40101 112.377C1.29634 82.5467 1.22657 52.7169 1.1219 22.887C1.1219 18.3515 1.08701 13.7811 1.08701 9.24555C1.08701 9.106 1.08701 8.93155 1.08701 8.792C1.01724 7.53601 1.08701 6.24512 1.05212 4.98913C1.05212 4.74491 1.05212 4.50069 1.05212 4.29136C1.05212 3.10514 1.05212 1.88404 1.05212 0.697821C1.05212 0.418711 1.08701 0.17449 1.4359 0.0698242C1.7499 0.0698242 2.0639 0.0698242 2.34301 0.0698242C3.70367 0.17449 5.06432 0.348934 6.45987 0.523377C10.8558 1.11649 15.2518 1.6747 19.6478 2.26781C25.3347 3.00047 30.9866 3.73314 36.6735 4.50069C37.755 4.64024 38.697 4.4658 39.7088 4.04714C44.035 2.23292 48.5356 0.97693 53.2107 0.4536C57.0136 4.6812e-05 60.8165 0.244268 64.5496 1.15137C69.2595 2.26781 73.6555 4.11691 77.7026 6.76845C79.3075 7.81511 80.8426 8.96644 82.2381 10.2573C82.4823 10.5015 82.7963 10.5713 83.1103 10.6062C87.9948 11.2342 92.9141 11.8971 97.7985 12.5251C103.136 13.2229 108.474 13.9206 113.812 14.6184C118.732 15.2464 123.616 15.9093 128.535 16.5373C129.687 16.6768 130.873 16.8513 132.024 16.9908C132.373 17.0257 132.652 17.1304 132.722 17.5142C132.722 17.7235 132.722 17.8979 132.722 18.1073C132.373 19.0842 132.164 20.0959 131.885 21.0728C129.477 30.1788 127.105 39.2847 124.698 48.3907C122.325 57.4966 119.918 66.5677 117.545 75.6736C115.173 84.6749 112.836 93.6413 110.463 102.643C108.091 111.644 105.753 120.61 103.381 129.612C102.369 133.554 101.322 137.462 100.276 141.369C100.136 141.857 99.8918 142.032 99.4034 141.997C98.566 141.892 97.6938 141.753 96.8216 141.648C96.996 140.985 97.1705 140.322 97.3449 139.659C97.4496 139.555 97.5891 139.555 97.7287 139.555C98.3218 139.59 98.4614 139.485 98.6009 138.927C98.88 137.81 99.194 136.729 99.4731 135.612C100.206 132.786 100.973 129.96 101.706 127.169C101.776 126.89 101.776 126.611 101.706 126.332C100.415 121.482 99.194 116.633 98.0078 111.783C97.0658 107.876 96.0889 103.933 95.1469 100.026C94.7632 98.4211 94.3445 96.8511 93.9258 95.2462C93.7514 94.4786 93.3327 93.9553 92.6698 93.5715C92.2512 93.3273 91.7976 93.118 91.3092 93.0133C90.6812 92.8738 90.4719 93.0831 90.5416 93.7111C90.7161 94.7926 90.8905 95.8742 91.065 96.9208C91.5883 99.9562 92.0767 102.957 92.4256 106.027C92.6698 108.12 92.8792 110.213 93.0536 112.307C93.2281 114.086 93.3327 115.865 93.4374 117.645C93.5072 118.482 93.4723 119.354 93.5421 120.192C93.6118 120.959 93.7863 121.238 94.5538 121.378C95.3563 121.517 96.1238 121.622 96.8914 121.866C97.1007 121.936 97.31 121.971 97.4845 122.076C97.6938 122.18 97.8683 122.285 97.8334 122.529C97.7985 122.773 97.624 122.878 97.4147 122.913C96.996 123.018 96.5425 123.018 96.1238 122.948C95.5307 122.878 94.9376 122.878 94.3445 122.878C94.1701 122.878 93.9956 122.878 93.8212 122.773C92.5652 122.773 91.2743 122.773 90.0183 122.773C89.9834 122.808 89.9136 122.843 89.8787 122.878C88.3785 122.913 86.9132 123.018 85.413 122.773C85.3432 122.773 85.3083 122.738 85.2385 122.738C84.1221 122.738 83.0057 122.669 81.8892 122.773C80.389 122.913 78.9237 122.808 77.4235 122.843C77.2141 122.738 77.0397 122.738 76.8653 122.634Z" fill="#242220"/>
<path d="M0.947463 4.2216C0.947463 5.72182 0.947463 7.22203 0.947463 8.75713H0.912574H0.877686C0.877686 7.25692 0.877686 5.7567 0.877686 4.2216C0.912574 4.18671 0.947463 4.18671 0.947463 4.2216Z" fill="#EDEDEC"/>
<path d="M0.947463 4.22156H0.912574H0.877686C0.877686 3.00046 0.877686 1.77935 0.877686 0.523359C0.912574 0.48847 0.912574 0.48847 0.947463 0.523359C0.947463 1.74446 0.947463 3.00046 0.947463 4.22156Z" fill="#D5D5D4"/>
<path d="M0.947413 0.523379H0.877636C0.842747 0.209381 0.807858 -0.104617 1.2963 0.0349374C1.15675 0.174492 0.982302 0.314047 0.947413 0.523379Z" fill="#F6F6F5"/>
<path d="M46.3028 134.356C47.0006 134.356 47.6983 134.322 48.3961 134.322C50.8383 134.322 53.2805 134.322 55.7227 134.322C55.8623 134.322 56.0018 134.322 56.1414 134.322C56.1414 134.287 56.1414 134.287 56.1414 134.252C54.5365 134.042 52.8967 133.833 51.2919 133.624C49.8963 133.449 48.5008 133.24 47.1401 133.066C45.7446 132.891 44.3141 132.717 42.9186 132.542C41.3137 132.333 39.7088 132.124 38.1039 131.914C36.6735 131.74 35.2779 131.565 33.8475 131.391C32.6613 131.251 31.51 131.077 30.3238 130.937C29.1375 130.798 27.9164 130.623 26.7302 130.484C25.3696 130.309 23.974 130.135 22.6134 129.96C21.4271 129.821 20.2409 129.646 19.0547 129.507C18.1476 129.402 17.2056 129.263 16.2985 129.158C16.0194 129.123 16.1241 128.984 16.1589 128.844C16.5776 127.239 16.9963 125.634 17.4149 124.029C18.0778 121.517 18.8105 119.005 19.6478 116.563C21.2876 111.888 22.9273 107.178 24.7764 102.573C25.0904 101.77 25.4044 100.968 25.9627 100.27C26.3116 99.8166 26.8698 99.6771 27.3931 99.5724C27.7071 99.5026 27.6373 99.8166 27.5675 100.026C27.3931 100.654 27.1838 101.247 27.0093 101.875C25.858 105.713 24.9509 109.62 24.0787 113.528C23.5205 116.04 23.1018 118.587 22.718 121.134C22.4738 122.948 22.2994 124.762 22.1598 126.576C22.1249 126.96 22.1598 127.344 22.2645 127.693C22.404 128.356 23.032 128.67 23.8693 128.495C25.9976 128.042 28.0909 127.553 30.2191 127.1C33.4288 126.402 36.6386 125.739 39.8833 125.216C42.0464 124.832 44.2443 124.588 46.4423 124.343C48.5008 124.134 50.5243 123.925 52.5827 123.75C54.4667 123.611 56.3158 123.471 58.1998 123.332C59.6651 123.227 61.1305 123.157 62.6307 123.087C64.8985 122.983 67.1313 122.878 69.3991 122.808C70.4458 122.773 71.4575 122.773 72.5042 122.739C73.202 122.739 73.8997 122.564 74.5975 122.669C74.2486 122.669 73.9346 122.704 73.5857 122.704C73.3764 122.704 73.3066 122.773 73.3066 122.983C73.3066 123.227 73.3066 123.471 73.3066 123.681C73.2717 127.937 73.2368 132.193 73.202 136.485C73.0275 136.659 72.7833 136.589 72.574 136.554C71.7366 135.089 70.4806 134.426 68.806 134.426C61.6538 134.461 54.4667 134.461 47.3145 134.461C46.9308 134.391 46.6168 134.461 46.3028 134.356Z" fill="#9B2D35"/>
<path d="M23.5902 149.533C24.2182 149.045 24.8113 148.591 25.3696 148.137C28.1258 146.009 30.9169 143.881 33.6731 141.788C34.022 141.509 34.4057 141.264 34.3011 140.741C34.1964 140.218 33.7428 140.008 33.2893 139.904C32.8706 139.834 32.8357 139.659 32.9753 139.311C33.1148 138.962 33.08 138.473 33.3242 138.264C33.5684 138.055 34.0568 138.194 34.4057 138.194C38.1737 138.194 41.9417 138.194 45.7097 138.159C46.0586 138.159 46.1283 138.229 46.0586 138.578C45.919 139.311 45.7446 139.834 44.8026 139.939C43.9303 140.008 43.2326 140.671 42.5348 141.229C39.2553 143.846 36.0106 146.463 32.7311 149.079C32.452 149.289 32.4171 149.428 32.6264 149.777C34.4406 152.568 36.2548 155.359 38.1388 158.116C38.8017 159.127 39.6041 159.965 40.7206 160.488C41.0695 160.662 41.4184 160.732 41.8021 160.767C42.0115 160.767 42.0464 160.872 41.9766 161.046V161.081C41.8719 161.535 41.8719 162.128 41.5579 162.407C41.2439 162.686 40.6508 162.512 40.1973 162.512C38.1388 162.477 36.0804 162.581 34.022 162.407C31.824 162.198 30.0098 161.36 28.684 159.546C26.8349 157.034 24.8811 154.557 23.2762 151.87C23.2413 151.801 23.1716 151.696 23.0669 151.556C22.8576 152.359 22.6831 153.057 22.4738 153.789C22.0202 155.429 21.5667 157.069 21.1131 158.744C20.9038 159.546 21.2178 160.139 22.1249 160.558C22.7529 160.837 22.7529 160.837 22.5785 161.5C22.3342 162.477 22.3342 162.477 21.3225 162.477C17.5196 162.477 13.7167 162.477 9.94875 162.477C9.53009 162.477 9.46031 162.372 9.59986 162.023C9.63475 161.953 9.63475 161.884 9.63475 161.814C9.73942 161.151 9.91386 160.732 10.7512 160.593C11.8327 160.453 12.391 159.511 12.8096 158.569C13.5423 156.964 13.8912 155.22 14.3447 153.545C15.3565 149.917 16.3334 146.288 17.3452 142.625C17.4149 142.416 17.4498 142.206 17.4847 142.032C17.6592 140.915 17.2056 140.218 16.0543 139.869C15.7752 139.799 15.6705 139.729 15.7752 139.415C15.9147 139.031 15.8798 138.508 16.124 138.229C16.4032 137.985 16.9265 138.159 17.3452 138.159C20.8689 138.159 24.3927 138.159 27.9164 138.124C28.3351 138.124 28.4049 138.229 28.2653 138.578C28.2653 138.613 28.2653 138.648 28.2653 138.648C28.1606 139.276 27.9862 139.799 27.1838 139.973C26.4162 140.148 25.9976 140.846 25.7882 141.613C25.0904 144.16 24.3927 146.672 23.6949 149.184C23.6251 149.359 23.5902 149.393 23.5902 149.533Z" fill="#242220"/>
<path d="M55.6877 147.823C58.5137 147.823 61.3048 147.823 64.1657 147.823C63.6773 149.812 63.1888 151.731 62.7004 153.72C61.6188 152.568 60.2582 152.429 58.8277 152.429C57.4322 152.429 56.0366 152.429 54.6411 152.429C54.4317 152.429 54.2922 152.464 54.2224 152.708C53.734 154.592 53.2106 156.441 52.7222 158.325C52.4431 159.441 52.8269 160.209 53.9084 160.662C54.1875 160.767 54.2224 160.907 54.1526 161.151C54.048 161.5 53.9782 161.849 53.9084 162.198C53.8735 162.442 53.7689 162.512 53.5246 162.512C50.0707 162.512 46.6516 162.477 43.1976 162.512C42.9185 162.512 42.8487 162.477 42.9185 162.163C43.7209 159.267 44.5234 156.336 45.3258 153.44C46.3376 149.777 47.3493 146.114 48.3611 142.451C48.7449 141.055 48.2913 140.287 46.9307 139.904C46.7213 139.834 46.7213 139.764 46.7562 139.59C47.0005 138.264 47.0005 138.264 48.3611 138.264C53.8038 138.264 59.2115 138.264 64.6541 138.264C66.0497 138.264 67.4103 138.264 68.8059 138.264C69.085 138.264 69.1897 138.299 69.1199 138.648C68.6314 140.601 68.143 142.52 67.6546 144.474C67.6197 144.649 67.5848 144.858 67.3057 144.788C67.0963 144.718 66.8172 144.963 66.6777 144.544C66.4335 143.776 65.7706 143.462 65.0379 143.288C64.7588 143.218 64.4448 143.218 64.1657 143.218C61.8979 143.218 59.6302 143.218 57.3973 143.218C57.188 143.218 57.0484 143.218 56.9786 143.497C56.6297 144.893 56.246 146.288 55.8622 147.684C55.7226 147.649 55.7226 147.719 55.6877 147.823Z" fill="#242220"/>
<path d="M90.4369 157.034C90.088 158.465 89.7042 159.79 89.4949 161.151C89.3554 161.954 89.0065 162.163 88.2738 162.302C85.1687 162.826 82.0636 163.14 78.8887 162.965C76.0279 162.791 73.2717 162.198 70.7946 160.628C66.5033 157.906 64.9333 152.917 66.9568 148.207C68.2128 145.277 70.341 143.079 72.9926 141.404C75.8534 139.59 79.0283 138.613 82.3776 138.194C85.9014 137.741 89.3554 137.915 92.7744 138.822C93.4722 139.032 93.4722 138.997 93.2978 139.729C92.8442 141.369 92.3907 143.009 91.9371 144.649C91.8325 145.033 91.1347 145.242 90.8905 144.928C89.5996 143.323 87.89 142.73 85.9363 142.66C83.2847 142.555 80.7727 142.939 78.4701 144.37C75.7139 146.079 74.3881 149.08 75.0161 152.185C75.4697 154.452 76.8652 156.022 78.8539 157.069C81.1216 158.22 83.5289 158.395 85.9711 158.046C87.4714 157.872 88.9018 157.488 90.4369 157.034Z" fill="#242220"/>
<path d="M93.7862 122.704C94.8329 122.634 95.8447 122.738 96.8913 122.773C97.1007 122.773 97.2751 122.773 97.4845 122.704C97.624 122.634 97.7984 122.599 97.7984 122.424C97.7984 122.25 97.6589 122.145 97.5193 122.11C96.9611 121.866 96.368 121.727 95.74 121.622C95.2865 121.517 94.798 121.482 94.3445 121.378C93.7165 121.273 93.4722 120.994 93.4374 120.366C93.3676 119.075 93.3327 117.819 93.2629 116.528C93.1583 114.854 93.0536 113.214 92.8791 111.539C92.7396 110.283 92.6698 109.027 92.5303 107.771C92.3907 106.445 92.2163 105.155 92.0767 103.829C91.8325 101.77 91.4487 99.7119 91.1347 97.6535C90.9254 96.3626 90.716 95.0717 90.5067 93.7809C90.402 93.118 90.4718 92.8738 90.8905 92.7691C91.0649 92.7342 91.2045 92.7691 91.344 92.804C92.3558 93.0831 93.3327 93.4669 93.856 94.4438C94.17 95.0369 94.2398 95.6997 94.4143 96.3277C95.3214 99.9911 96.2285 103.654 97.1356 107.318C98.3218 112.132 99.4731 116.947 100.729 121.727C101.148 123.297 101.532 124.832 101.95 126.402C101.985 126.576 101.985 126.751 101.95 126.925C100.904 130.902 99.8569 134.915 98.8102 138.892C98.6358 139.59 98.4613 139.694 97.7287 139.59C97.624 139.59 97.5193 139.59 97.3798 139.59C97.4845 138.508 97.2751 137.496 96.5773 136.659C96.2982 136.345 96.0191 136.031 95.6354 135.822C95.3562 135.682 95.2516 135.473 95.2167 135.159C94.9725 132.752 94.6934 130.379 94.4143 127.972C94.1351 126.227 93.9607 124.483 93.7862 122.704Z" fill="#9B2D35"/>
<path d="M76.8652 122.634C79.6912 122.634 82.5172 122.599 85.3432 122.634C86.8783 122.669 88.3785 122.669 89.9136 122.704C90.0182 122.843 89.9136 122.983 89.9834 123.122C89.9834 123.297 89.9834 123.436 90.0183 123.611C90.088 123.785 90.0182 123.96 90.088 124.134C90.088 124.309 90.088 124.448 90.1229 124.623C90.1578 124.762 90.1578 124.902 90.088 125.041C90.0182 125.216 90.0531 125.355 90.1927 125.46C90.1927 125.495 90.1927 125.565 90.1927 125.599C90.2625 125.809 90.1927 126.018 90.2625 126.193C90.2625 126.332 90.2625 126.507 90.2974 126.646C90.3671 126.821 90.2974 126.995 90.3671 127.169C90.3671 127.309 90.3671 127.483 90.402 127.623C90.4718 127.797 90.402 127.972 90.4718 128.146C90.4718 128.321 90.4718 128.46 90.5067 128.635C90.5416 128.774 90.5416 128.914 90.4718 129.053C90.402 129.228 90.4369 129.367 90.5765 129.507C90.5765 129.542 90.5765 129.612 90.5765 129.647C90.6114 129.786 90.6114 129.926 90.5765 130.065C90.5067 130.205 90.5416 130.344 90.6462 130.449C90.6462 130.519 90.6462 130.589 90.6462 130.658C90.6811 130.798 90.6811 130.937 90.6462 131.077C90.5765 131.217 90.6114 131.356 90.716 131.461C90.716 131.531 90.716 131.6 90.716 131.67C90.7509 131.81 90.7509 131.949 90.6811 132.089C90.6114 132.263 90.6462 132.403 90.7858 132.507C90.7858 132.542 90.7858 132.612 90.7858 132.647C90.8207 132.787 90.8207 132.926 90.7509 133.066C90.6811 133.24 90.716 133.38 90.8556 133.484C90.8556 133.519 90.8556 133.589 90.8556 133.624C90.9254 133.973 90.8556 134.217 90.5067 134.322C90.1927 134.357 89.9136 134.287 89.5996 134.217C89.46 134.147 89.2856 134.217 89.146 134.147C89.0065 134.147 88.8669 134.147 88.7623 134.112C88.5529 134.043 88.3436 134.147 88.1343 134.043C87.9947 134.043 87.89 134.043 87.7505 134.043C87.6109 133.903 87.4365 133.938 87.262 133.973C86.9829 134.008 86.634 134.217 86.4247 133.798C86.4247 133.659 86.4247 133.484 86.3898 133.345C86.32 133.17 86.3898 132.996 86.32 132.821C86.32 132.682 86.32 132.507 86.2852 132.368C86.2154 132.193 86.2852 132.019 86.2154 131.845C86.2154 131.705 86.2154 131.565 86.1805 131.461C86.1107 131.321 86.1456 131.182 86.1805 131.042C86.2503 130.903 86.2154 130.763 86.1107 130.658C86.1107 130.589 86.1107 130.519 86.1107 130.449C86.0758 130.309 86.0758 130.17 86.1456 130.03C86.2154 129.856 86.1805 129.716 86.0409 129.612C86.0409 129.577 86.0409 129.507 86.0409 129.472C85.9712 129.298 86.0409 129.123 85.9712 128.949C85.9712 128.809 85.9712 128.67 85.9363 128.565C85.8665 128.391 85.9363 128.216 85.8665 128.042C85.8665 127.902 85.8665 127.728 85.8316 127.588C85.7967 127.483 85.7967 127.344 85.8665 127.239C85.9712 127.065 85.9014 126.925 85.7618 126.786C85.7618 126.751 85.7618 126.681 85.7618 126.646C85.6223 126.437 85.9712 126.158 85.692 125.948C85.692 125.879 85.692 125.809 85.692 125.739C85.6223 125.565 85.692 125.39 85.6223 125.216C85.6223 125.076 85.6223 124.971 85.5874 124.832C85.5176 124.657 85.5874 124.483 85.5176 124.309C85.5176 124.169 85.5176 124.029 85.4827 123.925C85.4129 123.75 85.4827 123.576 85.4129 123.401C85.4129 123.367 85.4129 123.332 85.4129 123.332C85.3432 122.739 85.3432 122.739 84.7501 122.739C83.8081 122.739 82.8661 122.739 81.959 122.739C81.6799 122.739 81.6101 122.808 81.6101 123.087C81.8194 126.367 82.0636 129.612 82.273 132.891C82.3078 133.31 82.3078 133.694 82.3776 134.112C82.4125 134.322 82.3776 134.391 82.1334 134.426C80.5983 134.601 79.0283 134.88 77.5281 135.333C77.249 135.403 77.2839 135.264 77.249 135.089C77.1792 132.926 77.0745 130.728 77.0048 128.565C76.935 126.716 76.8652 124.867 76.8303 123.053C76.9001 122.843 76.8652 122.739 76.8652 122.634Z" fill="#9B2D35"/>
<path d="M94.0653 139.171C94.0653 138.508 94.5189 138.02 95.1817 138.02C95.8446 138.02 96.368 138.508 96.368 139.171C96.368 139.799 95.8446 140.322 95.2166 140.322C94.5537 140.288 94.0653 139.799 94.0653 139.171Z" fill="#333130"/>
<path d="M72.5391 136.52C72.7135 136.38 72.9577 136.485 73.1671 136.45C73.3066 136.555 73.6206 136.45 73.6206 136.589C73.6555 136.799 73.3415 136.799 73.2019 136.903C73.0624 136.973 72.9228 137.043 72.7833 137.113C72.6786 136.903 72.6088 136.694 72.5391 136.52Z" fill="#292624"/>
<path d="M86.3899 133.903C86.6341 134.182 86.9481 134.147 87.1923 133.973C87.4714 133.798 87.611 133.833 87.7156 134.147C87.3667 134.147 86.983 134.147 86.6341 134.147C86.4596 134.147 86.355 134.112 86.3899 133.903Z" fill="#9B2D35"/>
<path d="M90.4718 134.426C90.6114 134.182 90.8556 134.043 90.8207 133.729C90.8556 133.833 90.8905 133.973 90.8905 134.077C90.9254 134.566 90.9254 134.566 90.4718 134.426Z" fill="#9B2D35"/>
<path d="M90.716 132.577C90.4369 132.507 90.3322 132.333 90.5415 132.089C90.6462 131.949 90.6462 131.844 90.6462 131.705C90.7509 131.984 90.716 132.298 90.716 132.577Z" fill="#9B2D35"/>
<path d="M90.1578 125.46C89.8786 125.39 89.774 125.216 89.9833 124.971C90.088 124.867 90.0531 124.727 90.088 124.588C90.1578 124.867 90.1578 125.181 90.1578 125.46Z" fill="#9B2D35"/>
<path d="M86.041 129.646C86.3201 129.716 86.4248 129.891 86.2154 130.135C86.1108 130.24 86.1456 130.379 86.1108 130.519C86.0061 130.24 86.041 129.926 86.041 129.646Z" fill="#9B2D35"/>
<path d="M90.4718 129.577C90.1927 129.507 90.0881 129.333 90.2974 129.088C90.4021 128.984 90.3672 128.844 90.4021 128.705C90.5067 128.984 90.4718 129.263 90.4718 129.577Z" fill="#9B2D35"/>
<path d="M90.8207 133.589C90.5416 133.519 90.4369 133.345 90.6463 133.101C90.7509 132.961 90.751 132.856 90.751 132.717C90.8207 132.996 90.8207 133.31 90.8207 133.589Z" fill="#9B2D35"/>
<path d="M85.7967 126.786C86.0758 126.855 86.2154 127.03 85.9712 127.274C85.9014 127.379 85.8665 127.449 85.8665 127.588C85.7618 127.344 85.7967 127.065 85.7967 126.786Z" fill="#9B2D35"/>
<path d="M90.6462 131.496C90.4369 131.461 90.3322 131.356 90.4717 131.147C90.5764 131.007 90.5764 130.868 90.5764 130.728C90.6811 130.972 90.6462 131.216 90.6462 131.496Z" fill="#9B2D35"/>
<path d="M90.5765 130.484C90.3672 130.449 90.2625 130.344 90.402 130.135C90.5067 129.995 90.5067 129.856 90.5067 129.716C90.5765 129.961 90.5765 130.24 90.5765 130.484Z" fill="#9B2D35"/>
<path d="M86.1456 130.728C86.3549 130.763 86.4596 130.868 86.32 131.077C86.2154 131.216 86.2154 131.356 86.2154 131.496C86.1107 131.251 86.1456 131.007 86.1456 130.728Z" fill="#9B2D35"/>
<path d="M85.7269 125.948C85.9711 125.983 86.0409 126.123 85.9013 126.297C85.8316 126.402 85.7967 126.506 85.7967 126.646C85.692 126.437 85.7269 126.192 85.7269 125.948Z" fill="#9B2D35"/>
<path d="M90.2275 126.227C90.088 126.053 90.1926 125.809 90.1578 125.634C90.2275 125.809 90.2275 126.018 90.2275 126.227Z" fill="#9B2D35"/>
<path d="M88.0994 134.182C88.3087 134.182 88.518 134.112 88.7274 134.252C88.518 134.252 88.3087 134.252 88.0994 134.182Z" fill="#9B2D35"/>
<path d="M85.6223 125.216C85.7619 125.39 85.6572 125.564 85.6921 125.739C85.6223 125.564 85.6223 125.39 85.6223 125.216Z" fill="#9B2D35"/>
<path d="M90.2974 127.204C90.1578 127.03 90.2625 126.855 90.2276 126.681C90.3323 126.855 90.2974 127.03 90.2974 127.204Z" fill="#9B2D35"/>
<path d="M90.3672 128.216C90.2276 128.042 90.3323 127.867 90.2974 127.693C90.4021 127.867 90.4021 128.042 90.3672 128.216Z" fill="#9B2D35"/>
<path d="M85.9014 128.042C86.0409 128.216 85.9362 128.39 85.9711 128.565C85.8665 128.425 85.8665 128.251 85.9014 128.042Z" fill="#9B2D35"/>
<path d="M85.9712 128.984C86.1107 129.158 86.0061 129.333 86.041 129.507C85.9712 129.333 85.9712 129.158 85.9712 128.984Z" fill="#9B2D35"/>
<path d="M90.0531 124.134C89.9135 123.96 90.0182 123.785 89.9833 123.611C90.0531 123.75 90.0531 123.925 90.0531 124.134Z" fill="#9B2D35"/>
<path d="M86.2153 131.914C86.3549 132.089 86.2502 132.263 86.2851 132.438C86.2153 132.263 86.2153 132.089 86.2153 131.914Z" fill="#9B2D35"/>
<path d="M85.5525 124.274C85.692 124.448 85.5874 124.623 85.6223 124.797C85.5525 124.657 85.5525 124.483 85.5525 124.274Z" fill="#9B2D35"/>
<path d="M86.3201 132.926C86.4596 133.1 86.3549 133.275 86.3898 133.449C86.2852 133.275 86.2852 133.1 86.3201 132.926Z" fill="#9B2D35"/>
<path d="M85.4828 123.366C85.6223 123.541 85.5177 123.715 85.5526 123.89C85.4479 123.715 85.4479 123.541 85.4828 123.366Z" fill="#9B2D35"/>
<path d="M89.1111 134.252C89.2506 134.252 89.4251 134.182 89.5646 134.322C89.3902 134.322 89.2506 134.322 89.1111 134.252Z" fill="#9B2D35"/>
<path d="M89.9484 123.122C89.8438 122.983 89.9136 122.843 89.8787 122.704C89.9136 122.704 89.9135 122.704 89.9484 122.704C89.9484 122.843 89.9484 122.983 89.9484 123.122Z" fill="#9B2D35"/>
<path d="M86.1108 86.873C85.6921 86.5241 85.3781 86.0705 85.099 85.617C84.4012 84.4307 83.529 83.3841 82.587 82.3723C82.273 82.0234 82.273 81.6397 82.4126 81.2559C82.8661 79.7208 83.2848 78.1857 83.5639 76.6157C83.7383 75.6737 83.8779 74.7666 84.0174 73.8246C84.157 73.0222 84.5757 72.4988 85.3781 72.2197C86.4945 71.8359 86.983 71.1033 86.983 69.9519C86.9481 67.3702 87.8203 65.0675 89.0414 62.8347C90.7858 59.6598 92.1465 56.3105 92.8094 52.7518C93.1234 51.112 93.1583 49.4723 92.6698 47.8325C92.4605 47.065 92.1116 46.3672 91.5883 45.7741C90.8556 44.9367 90.7858 44.0645 91.2394 43.0528C92.2163 41.0292 92.8443 38.8661 93.1583 36.6332C93.2978 35.6563 93.2629 34.6446 93.0885 33.6677C93.0536 33.4584 92.9489 33.2141 92.7745 33.1095C92.0418 32.621 91.7627 31.8535 91.6929 31.051C91.3789 27.3179 90.5765 23.7244 89.0763 20.2704C87.9599 17.6189 86.4945 15.1767 84.6454 12.9787C84.5757 12.9089 84.5059 12.8391 84.5408 12.6996C85.9014 12.874 87.2272 13.0485 88.5879 13.2229C90.0183 13.3974 91.4138 13.6067 92.8443 13.7811C94.2398 13.9556 95.6354 14.13 97.0309 14.3045C98.4614 14.4789 99.8569 14.6882 101.287 14.8627C103.136 15.1069 105.02 15.3511 106.87 15.5953C108.474 15.8047 110.079 16.014 111.684 16.1885C113.533 16.4327 115.417 16.6769 117.266 16.9211C118.906 17.1304 120.511 17.3398 122.151 17.5491C123.756 17.7584 125.361 17.9678 127 18.1771C127.907 18.2818 128.815 18.4213 129.722 18.526C130.21 18.5958 130.454 18.9098 130.315 19.3982C129.652 21.9451 128.989 24.4571 128.326 26.9691C127.454 30.2486 126.582 33.5281 125.709 36.8077C124.209 42.4945 122.709 48.1814 121.209 53.8682C119.569 60.1133 117.929 66.3584 116.289 72.6035C114.859 77.9763 113.463 83.3492 112.033 88.757C111.44 90.9898 110.847 93.2227 110.254 95.4556C110.149 95.8394 109.975 95.8394 109.661 95.7696C108.126 95.4207 106.59 95.0718 105.055 94.688C102.404 94.06 99.7871 93.4669 97.1356 92.8389C96.8216 92.7692 96.5076 92.6645 96.3332 92.4203C95.7052 91.5829 94.8329 91.1294 93.9258 90.6409C91.6232 89.4198 89.2159 88.4429 86.9132 87.2916C86.7388 87.187 86.5643 87.0823 86.3899 86.9776C86.2154 86.9776 86.1456 86.9427 86.1108 86.873Z" fill="#9B2D35"/>
<path d="M32.6263 87.0124C31.8239 88.6522 31.1959 90.3618 30.533 92.0713C30.219 92.9086 29.6957 93.5017 28.8234 93.7808C27.9163 94.0948 27.0441 94.4786 26.1021 94.7577C25.0555 95.1066 24.1135 95.6648 23.3459 96.4673C22.6481 97.1999 21.8108 97.6186 20.8339 97.8279C17.38 98.6653 13.9609 99.6422 10.5767 100.793C8.06467 101.666 5.58758 102.573 3.18026 103.654C3.14537 103.689 3.11048 103.689 3.11048 103.654C3.11048 92.0015 3.14537 80.3138 3.07559 68.661C2.97092 51.0422 3.07559 33.4234 2.97092 15.8046C2.93604 11.5831 2.97092 7.39643 2.93604 3.1749C2.93604 2.44224 3.14537 2.2329 3.84314 2.30268C5.02936 2.44224 6.25046 2.61668 7.43668 2.75623C8.86711 2.93068 10.2627 3.10512 11.6931 3.31445C13.0886 3.4889 14.4842 3.66334 15.8797 3.83778C17.3102 4.01223 18.7057 4.22156 20.1362 4.396C21.741 4.60533 23.3459 4.81467 24.9857 5.024C26.4161 5.19844 27.8117 5.37289 29.2421 5.58222C30.6028 5.75666 31.9983 5.93111 33.4636 6.14044C33.0101 6.34977 32.6263 6.41955 32.2425 6.48932C31.2308 6.73355 30.1841 6.94288 29.1374 7.1871C28.0908 7.43132 27.707 8.16398 27.9861 9.3502C28.2303 10.3271 28.335 11.2691 27.9512 12.2111C27.707 12.8391 27.2883 13.3973 26.8697 13.9206C25.1601 15.9442 23.3459 17.8282 21.113 19.2935C20.5897 19.6424 20.0315 19.8866 19.4384 20.1657C17.9382 20.8984 17.4148 22.1195 17.9382 23.7243C18.2871 24.8059 18.8104 25.7828 19.3686 26.7597C20.2757 28.3645 20.5548 30.0741 20.4153 31.9232C20.2059 34.2258 19.4384 36.354 18.6708 38.4823C18.5662 38.7265 18.4266 39.0056 18.2871 39.2149C17.5893 40.2616 17.6591 41.3082 18.2871 42.3549C18.9151 43.4365 19.7524 44.3436 20.5897 45.2507C21.113 45.8089 21.1479 46.0531 20.7642 46.6811C20.2757 47.5184 20.1362 48.4255 20.0664 49.3675C19.9617 50.6235 20.2059 51.8097 20.5199 53.0308C21.3573 56.3104 22.7877 59.3108 24.6019 62.1368C24.8461 62.4857 25.1252 62.8346 25.3695 63.1835C25.9277 64.0906 25.9277 65.0674 25.7881 66.0443C25.6137 67.3352 25.5439 68.5912 26.1719 69.8123C26.6952 70.8241 27.4628 71.6265 28.4397 72.1498C29.5212 72.743 29.9748 73.6501 30.219 74.8014C30.7772 77.418 31.7192 79.93 33.0799 82.2676C33.3241 82.6514 33.4985 83.07 33.7428 83.4887C33.9521 83.8376 33.9172 84.1167 33.7428 84.4656C33.3241 85.268 32.9403 86.0704 32.6263 86.9078C32.6612 86.9078 32.6961 86.9775 32.6263 87.0124Z" fill="#9B2D35"/>
<path d="M47.1051 19.8867C50.3847 19.468 53.5595 19.782 56.56 21.2822C56.6995 21.352 56.8042 21.3869 56.9438 21.4567C57.4322 21.7009 57.8509 21.666 58.2695 21.2822C58.758 20.8287 59.3162 20.41 59.8744 19.9913C60.1884 19.7471 60.2582 19.468 60.1186 19.1191C60.3977 18.8051 60.7815 18.6307 61.1304 18.3864C61.8979 17.8631 62.7004 17.4096 63.5377 17.0258C64.7588 16.4676 65.9799 16.3629 67.2708 16.6769C69.7828 17.3049 72.225 18.0724 74.5625 19.1889C76.0976 19.9216 77.5281 20.8635 78.7492 22.0846C80.1796 23.55 81.4356 25.1897 82.1683 27.1435C82.2729 27.3877 82.4474 27.632 82.2729 27.8762C81.9938 27.9808 81.9938 28.2251 81.9938 28.4693C82.0636 29.8648 82.1334 31.2604 82.2032 32.6559C82.2381 32.9699 82.2032 33.249 82.1683 33.5281C82.0287 34.8888 82.5172 36.075 83.1452 37.1915C83.6336 38.0637 84.2267 38.8661 84.5407 39.843C84.9245 41.0641 84.9943 42.2852 85.0292 43.5412C85.0292 43.8552 84.8198 43.9948 84.4012 43.925C83.4592 43.7505 82.5172 43.611 81.5752 43.4016C80.2843 43.1225 78.9585 43.0528 77.6328 43.0179C74.6672 42.9132 71.7366 42.8434 68.771 42.9481C66.8173 43.0179 64.8984 43.2272 63.1191 44.1343C62.4911 44.4483 61.9328 44.867 61.3746 45.2856C60.8862 45.6694 60.3628 45.7741 59.7348 45.6345C58.5137 45.3554 57.2926 45.3554 56.0715 45.7741C55.4087 45.9834 54.8155 45.8439 54.2573 45.4252C53.4549 44.8321 52.6873 44.1692 51.8151 43.6808C50.28 42.8085 48.6054 42.355 46.8609 42.1805C44.4187 41.9363 41.9765 41.7619 39.5343 41.7619C39.3947 41.6223 39.4645 41.4479 39.4994 41.2734C39.7436 39.9477 39.9181 38.6219 40.0227 37.2612C40.0925 36.2843 40.4065 35.3424 40.6507 34.4004C41.0345 32.8653 41.4881 31.2953 41.9765 29.7951C42.8487 27.1435 43.8954 24.5617 45.5351 22.2591C45.7096 22.0149 45.884 21.7707 46.0934 21.5264C46.5818 21.0729 47.0005 20.5844 47.1051 19.8867Z" fill="#FDF1D6"/>
<path d="M75.993 87.0473C74.109 88.9662 72.0855 90.6757 69.748 92.0364C69.1897 92.3853 68.5966 92.6644 68.0035 92.9784C67.2011 93.3622 66.3638 93.2226 65.7706 92.5946C65.5613 92.3853 65.3869 92.2108 65.1775 92.0015C65.0031 91.7573 65.0729 91.4782 65.038 91.234C64.8286 89.5942 64.2704 88.0591 63.6075 86.5938C63.2587 85.7913 63.154 84.9889 63.1889 84.1515C63.2238 83.3142 63.2587 82.4769 63.468 81.6745C63.5029 81.5698 63.5727 81.3953 63.468 81.3256C63.3284 81.2209 63.2238 81.3605 63.0842 81.4302C62.84 81.6047 62.7004 81.814 62.6307 82.0931C62.526 82.6164 62.3515 83.07 62.0027 83.4887C61.7933 83.7329 61.5142 83.8724 61.2002 83.7678C60.8862 83.6631 60.7118 83.4189 60.6769 83.07C60.642 82.7909 60.6769 82.5467 60.642 82.2676C60.6071 81.6396 60.328 81.3605 59.7 81.5C58.7231 81.7093 57.7462 81.5349 56.7345 81.5349C56.6298 81.5349 56.56 81.5 56.4554 81.4302C56.3158 80.6278 55.8622 80.1742 55.0598 79.9998C54.676 79.93 54.2923 79.7556 53.9783 79.5113C53.5945 79.1973 53.5945 78.9531 53.9783 78.674C55.1994 77.8367 56.5251 77.5576 57.9905 77.732C60.4327 78.0111 62.8749 78.1507 65.2822 77.4878C66.2591 77.2087 67.236 76.9296 68.2477 76.6156C68.5617 76.5109 68.806 76.5807 69.0851 76.7203C69.1897 76.79 69.2944 76.8249 69.434 76.8947C70.3759 77.3134 70.8295 78.0111 70.7597 79.0927C70.6899 80.0347 70.7597 80.9767 71.0039 81.9187C71.1784 82.5816 71.5273 82.6513 72.0157 82.1978C72.6088 81.6396 72.7833 80.872 72.9577 80.1045C73.1322 79.2671 73.2368 78.4298 73.5508 77.6274C73.6904 77.2087 73.9346 76.8249 74.2486 76.5109C75.365 75.4992 75.8535 74.1734 76.0628 72.7081C76.0977 72.3243 76.1326 71.9056 76.1675 71.4869C76.2024 71.3823 76.2024 71.2776 76.2024 71.173C76.1675 70.859 76.307 70.6496 76.5512 70.4054C77.6328 69.4285 77.877 67.9981 77.2141 66.7072C76.9699 66.2536 76.6908 65.835 76.307 65.4512C74.6673 63.8812 73.2019 62.2066 71.7017 60.497C70.5853 59.241 69.1897 58.4037 67.4104 58.299C66.6777 58.2641 66.0149 58.4386 65.4566 58.8921C65.2822 59.0317 65.1775 59.2061 65.1775 59.4155C65.1775 59.6946 65.1775 59.9737 65.2124 60.2528C65.2822 60.811 65.5613 61.2994 65.4915 61.8926C65.4566 62.2066 65.3869 62.5206 65.1078 62.695C63.782 63.6719 62.3515 64.4394 60.6769 64.7185C59.1069 64.9977 57.6765 64.5092 56.3158 63.7417C56.2111 63.6719 56.1414 63.5672 56.1065 63.4277C55.7925 62.2414 55.304 61.0901 55.3738 59.8341C55.4087 59.2061 55.5134 58.5781 55.6878 57.985C55.7576 57.7757 55.7925 57.5664 55.8971 57.3919C56.4554 56.101 56.5251 54.7404 56.5949 53.3448C56.6647 51.9493 56.874 50.5886 57.0485 49.1931C57.0834 48.8093 57.0485 48.3906 57.2927 48.0766C57.9207 47.9371 58.5487 47.8673 59.1767 48.1464C59.7349 48.3906 60.0838 48.8093 60.2233 49.4024C60.4327 50.3444 60.7118 51.2515 61.3049 52.0191C62.1073 53.0308 62.2469 53.0308 63.2935 52.2633C63.9215 51.8097 63.9564 51.5306 63.5727 50.8328C63.5378 50.7631 63.468 50.6584 63.4331 50.5886C63.3284 50.3444 63.154 50.0653 63.3982 49.856C63.6075 49.6815 63.8866 49.7862 64.1309 49.9257C64.6891 50.2397 65.2822 50.5537 65.8753 50.798C67.5849 51.426 69.3642 51.5306 71.1784 51.1817C71.8762 51.0422 72.539 50.9375 73.2368 50.798C73.9695 50.6933 74.4579 50.9375 74.8068 51.6004C74.9464 51.8795 75.0859 52.1237 75.2953 52.3679C74.5626 52.7517 74.5626 52.7517 74.8766 53.5891C75.1557 54.3566 74.9813 55.0893 74.5975 55.787C74.2835 56.2755 73.9346 56.7639 73.5159 57.1477C73.3415 57.3221 73.167 57.4966 73.2019 57.7408C73.2368 58.3339 73.6555 58.7526 74.2486 58.7875C74.8068 58.7875 75.3301 58.613 75.8884 58.5781C77.9817 57.6361 79.2028 55.9964 79.9006 53.903C80.4239 52.2982 80.7728 50.6235 81.1566 48.9489C81.2612 48.4255 81.5752 48.0417 82.0288 47.7975C82.7265 47.4137 83.4592 47.0649 84.2268 46.7858C84.7501 46.5764 84.9943 46.716 85.2036 47.2742C85.3781 47.7277 85.3781 48.2162 85.413 48.7046C85.4827 50.0653 85.5525 51.4608 85.5874 52.8564C85.5874 52.9959 85.5874 53.1704 85.6572 53.3099C85.727 53.5193 85.9014 53.5542 86.0759 53.5193C87.0876 53.275 87.8552 51.7748 87.4016 50.8328C87.297 50.6235 87.1574 50.4142 87.0179 50.17C86.5643 49.3675 86.8085 48.5651 87.6807 48.1115C88.4832 47.6929 89.2507 47.9371 89.6694 48.7395C90.0532 49.5071 90.0881 50.3444 90.0532 51.1817C89.9834 53.7635 89.2158 56.1359 88.239 58.4735C87.6459 59.9039 86.8434 61.2297 86.2154 62.6252C85.6921 63.7417 85.2734 64.893 84.9245 66.0792C84.8548 66.2885 84.785 66.463 84.6803 66.6374C84.5756 66.8468 84.3663 66.9514 84.157 66.9165C83.9477 66.8816 83.7732 66.7421 83.7034 66.5328C83.6685 66.4281 83.6336 66.2885 83.5988 66.1839C83.5639 66.0443 83.5639 65.835 83.3894 65.835C83.2499 65.835 83.1452 66.0094 83.0754 66.149C82.7265 67.0212 82.2032 67.7887 81.6101 68.5214C81.3659 68.8354 81.331 69.2541 81.331 69.6379C81.331 71.3125 81.2612 72.9523 81.0519 74.592C80.5983 78.5345 79.5168 82.3024 77.1792 85.582C76.8652 86.0006 76.5164 86.4193 76.2024 86.838C76.1326 86.9426 76.0628 86.9775 75.993 87.0473Z" fill="#FDF1D6"/>
<path d="M82.273 27.911C82.0637 26.8643 81.5403 25.9572 80.9821 25.085C80.3541 24.0733 79.5866 23.1313 78.7492 22.2939C77.7724 21.317 76.6908 20.4797 75.4697 19.8168C72.8879 18.4213 70.0968 17.5491 67.2709 16.8164C65.4218 16.328 63.8518 16.9211 62.3167 17.7933C61.5491 18.212 60.9211 18.7702 60.1187 19.1539C59.2813 18.2468 58.3045 17.5142 57.2578 16.8513C54.8156 15.2115 52.164 14.0602 49.2334 13.6066C46.6516 13.188 44.0699 13.2229 41.4881 13.5369C39.953 13.7113 38.4528 14.0253 36.9177 14.3742C36.7432 14.4091 36.5688 14.444 36.3944 14.444C36.185 14.444 35.9757 14.3393 35.871 14.1649C35.7315 13.9555 35.9059 13.816 36.0106 13.6764C36.4292 13.188 36.9177 12.8042 37.441 12.4553C39.7786 10.8155 42.2208 9.42 45.0119 8.65245C45.0816 8.61756 45.1863 8.61756 45.2561 8.58267C45.5352 8.44312 45.6399 8.23378 45.6399 7.95467C45.605 7.64067 45.3608 7.53601 45.1165 7.50112C44.5583 7.39645 44.0001 7.39645 43.4419 7.39645C43.1628 7.39645 42.8139 7.50112 42.7092 7.18712C42.6045 6.83823 42.9534 6.66379 43.1628 6.52424C44.1396 5.82646 45.2561 5.44269 46.4074 5.12869C50.1405 4.08203 53.9085 3.34937 57.7811 3.41914C62.3515 3.48892 66.7475 4.53558 70.9342 6.38468C73.795 7.64067 76.5164 9.17578 78.8539 11.2342C83.4941 15.3511 86.6341 20.4099 87.925 26.5155C88.6925 30.1439 88.867 33.8072 88.5878 37.5054C88.553 38.0636 88.4483 38.5869 88.3087 39.1103C88.2738 39.2149 88.239 39.3545 88.1692 39.4592C88.0645 39.6685 87.925 39.9476 87.6459 39.9127C87.3667 39.9127 87.297 39.6336 87.2272 39.3894C86.669 37.7147 86.041 36.0401 85.3781 34.4352C84.5756 32.4465 83.7034 30.4579 82.7265 28.539C82.6219 28.225 82.5172 28.0157 82.273 27.911Z" fill="#FEFEFE"/>
<path d="M80.4238 86.9426C80.5285 86.7333 80.6681 86.524 80.7727 86.3146C80.9472 86.0006 81.1216 86.0006 81.3658 86.2448C81.5752 86.4542 81.7147 86.6984 81.8892 86.9426C81.924 86.9775 81.924 87.0124 81.9589 87.0124C82.5172 88.1637 82.6567 89.3848 82.7265 90.6757C82.9707 95.0717 82.0636 99.2583 80.8425 103.41C79.9354 106.515 78.8538 109.585 77.4234 112.481C77.2838 112.76 77.0745 113.109 77.3885 113.284C77.7025 113.458 77.9118 113.109 78.0863 112.9C78.8887 111.923 79.4818 110.841 80.0401 109.76C82.6916 104.596 84.6803 99.2234 85.9014 93.5366C86.1805 93.397 86.1456 93.6412 86.1805 93.7808C86.2502 94.1995 86.2851 94.653 86.3549 95.0717C86.8782 99.049 86.8434 103.061 86.7736 107.039C86.7387 109.062 86.6689 111.086 86.5991 113.109C86.5642 114.574 86.4247 116.04 86.32 117.47C86.2502 118.342 86.1805 119.215 86.1107 120.087C86.0758 120.68 86.006 120.75 85.4129 120.68C80.5285 120.506 75.6441 120.366 70.7248 120.261C68.9106 120.226 67.1312 120.226 65.317 120.192C64.5844 120.192 64.5146 120.087 64.4797 119.354C64.375 116.179 63.7819 113.109 62.6655 110.144C62.6306 110.074 62.6306 110.004 62.5957 109.934C62.7701 109.864 62.8748 110.039 62.9795 110.109C63.7819 110.876 64.5495 111.679 65.2821 112.516C66.3986 113.772 67.7243 114.819 69.1199 115.761C70.2014 116.493 71.2481 116.563 72.3296 115.83C72.3994 115.796 72.4692 115.761 72.539 115.726C72.7134 115.586 72.7134 115.447 72.6437 115.237C72.4692 114.714 72.1901 114.26 71.8761 113.807C70.6899 112.097 69.3641 110.527 68.0732 108.923C67.9686 108.818 67.8639 108.678 67.7941 108.574C67.7243 108.434 67.515 108.294 67.6546 108.12C67.7592 107.981 67.9686 107.981 68.1081 108.015C69.0152 108.12 69.9223 108.26 70.7945 108.329C71.1085 108.364 71.4225 108.399 71.7017 108.364C72.7134 108.329 73.3763 107.736 73.4461 106.69C73.5159 105.189 73.5159 103.689 73.5159 102.189C73.5159 101.945 73.5508 101.701 73.5159 101.421C73.5159 100.584 73.1321 100.096 72.2948 99.8863C71.2481 99.6421 70.2014 99.6072 69.1199 99.677C68.3523 99.7119 67.5499 99.8165 66.7823 99.9561C66.573 99.991 66.259 100.131 66.1892 99.8863C66.0846 99.6072 66.4335 99.5025 66.6079 99.3979C67.3406 98.9792 68.1081 98.5606 68.8408 98.107C72.7483 95.8044 76.1325 92.8737 78.8189 89.2104C79.3423 88.5126 79.8307 87.7799 80.2145 86.9775C80.3889 87.0473 80.3541 86.9775 80.4238 86.9426Z" fill="#FEFEFE"/>
<path d="M47.1052 120.157C43.407 120.296 39.7088 120.436 36.0455 120.61C34.7895 120.68 33.5335 120.75 32.2775 120.82C31.8239 120.855 31.3704 120.855 30.9517 120.855C30.0446 120.82 29.591 120.436 29.4515 119.564C29.1724 117.994 29.1026 116.389 29.1724 114.784C29.2771 111.888 29.4515 109.027 29.8353 106.166C29.9748 104.98 30.1493 103.794 30.4284 102.608C30.4982 102.398 30.6028 102.398 30.6726 102.573C30.8122 102.852 30.9168 103.166 31.0215 103.48C31.3704 104.596 31.7541 105.713 32.1728 106.794C32.9404 108.783 33.987 110.667 35.2081 112.412C35.7315 113.179 36.3246 113.877 36.813 114.679C37.127 115.203 37.5806 115.621 37.9992 116.075C38.697 116.877 39.3599 117.715 40.2321 118.343C41.1741 119.04 42.779 118.866 43.5465 117.959C43.721 117.75 43.7559 117.505 43.8256 117.261C43.8605 116.808 43.6512 116.424 43.407 116.075C41.6625 113.563 40.0925 110.946 38.9412 108.12C37.6852 104.945 36.9177 101.666 36.3943 98.3165C36.1152 96.607 36.2199 94.8625 36.4641 93.153C36.6735 93.1181 36.7781 93.2925 36.8828 93.3972C38.2783 94.8276 39.7437 96.1534 41.1392 97.5838C42.1161 98.5607 43.3023 99.2934 44.3839 100.131C44.5234 100.235 44.7327 100.27 44.663 100.514C44.349 100.619 44.0699 100.794 43.8256 101.038C43.5814 101.177 43.3372 101.212 43.0581 101.247C42.0463 101.491 41.3834 102.154 41.3485 103.201C41.2788 105.05 41.4183 106.864 41.9068 108.678C41.9416 108.783 41.9765 108.853 42.0114 108.958C42.4301 110.144 43.3372 110.597 44.5583 110.632C45.7445 110.632 46.9307 110.528 48.1169 110.423C48.5356 110.388 48.9194 110.388 49.3381 110.318C49.4776 110.283 49.6172 110.318 49.7218 110.423C48.8496 111.609 48.0123 112.83 47.489 114.226C47.4192 114.435 47.3145 114.679 47.2447 114.889C47.175 115.063 47.1401 115.238 47.3145 115.342C47.489 115.447 47.5936 115.307 47.6983 115.203C47.8378 115.063 47.9774 114.889 48.1169 114.714C49.3729 113.074 50.7685 111.539 52.3734 110.248C52.6525 110.039 52.9665 110.004 53.2805 110.004C53.5596 110.004 53.6642 110.179 53.4898 110.388C52.164 111.993 51.4314 113.912 50.3498 115.656C49.6172 116.842 48.8496 118.029 48.0472 119.18C47.8727 119.424 47.7332 119.633 47.5936 119.878C47.4541 120.017 47.3145 120.122 47.1052 120.157Z" fill="#FEFEFE"/>
<path d="M56.4553 81.4302C57.0135 81.4302 57.5368 81.3953 58.0951 81.5C58.6184 81.5697 59.1766 81.4651 59.6999 81.3604C60.3279 81.2557 60.7117 81.5348 60.7466 82.1628C60.7466 82.4419 60.7466 82.7211 60.7466 83.0002C60.7466 83.3142 60.8861 83.5584 61.1653 83.6631C61.4444 83.7677 61.7235 83.6631 61.8979 83.3839C62.2119 82.9653 62.4212 82.5117 62.491 81.9884C62.5259 81.6744 63.0144 81.1511 63.3284 81.0813C63.5726 81.0464 63.7121 81.1162 63.6075 81.3953C63.2935 82.2675 63.3284 83.1746 63.2586 84.0817C63.1539 85.2679 63.6075 86.3495 64.061 87.431C64.689 88.8615 65.1426 90.3617 65.1426 91.9666C64.7937 92.0015 64.6192 92.2108 64.6541 92.6294C64.689 92.9086 64.7588 93.2226 64.7937 93.5017C65.0379 94.7228 64.5146 95.6648 63.8866 96.6068C63.3284 97.4441 62.6306 98.1767 62.1073 99.0141C61.5839 99.8514 61.1653 100.759 61.1304 101.77C61.1304 102.049 60.9559 102.154 60.7117 102.154C60.3279 102.154 60.0139 102.015 59.7697 101.77C57.5368 99.7467 55.2342 97.8628 53.6642 95.2112C52.6524 93.5017 52.3733 91.6875 52.8966 89.8035C53.1409 88.8615 53.42 87.9195 53.6642 86.9775C53.6293 86.9426 53.6293 86.9426 53.6293 86.9077L53.6642 86.8728C54.0828 85.4075 54.048 83.9771 53.734 82.5117C53.6991 82.3024 53.4897 82.0233 53.8037 81.8837C54.048 81.7442 54.2922 81.9535 54.4666 82.1279C54.9202 82.5815 55.1644 83.1397 55.5133 83.6631C55.6528 83.8724 55.7575 84.1864 56.0366 84.1515C56.2808 84.0817 56.2808 83.7677 56.3506 83.5235C56.5948 82.8606 56.4902 82.1279 56.4553 81.4302Z" fill="#FEFEFE"/>
<path d="M4.4014 127.588C4.29674 127.588 4.19207 127.588 4.12229 127.553C3.35474 127.483 3.21519 127.309 3.21519 126.541C3.21519 119.982 3.1803 113.458 3.1803 106.899C3.21519 106.794 3.31985 106.829 3.38963 106.794C4.99451 106.236 6.5645 105.713 8.16938 105.154C9.0416 104.84 9.9487 104.561 10.786 104.212C12.2165 103.654 13.612 103.689 15.0076 104.352C15.1122 104.492 15.0076 104.596 14.9378 104.701C13.8214 106.445 13.1236 108.364 12.3909 110.283C11.7629 111.853 11.2047 113.493 10.6814 115.098C10.5767 115.447 10.4371 115.761 10.2627 116.11C9.14626 118.342 8.02983 120.54 6.94828 122.773C6.2505 124.239 5.51784 125.669 4.82007 127.134C4.64562 127.274 4.61073 127.483 4.4014 127.588Z" fill="#FEFEFE"/>
<path d="M103.834 119.215C102.997 116.354 102.16 113.598 101.322 110.841C100.031 106.55 98.7056 102.259 97.4147 97.9674C97.31 97.6185 97.2403 97.2696 97.1705 96.9208C97.1007 96.4672 97.2752 96.223 97.7287 96.1881C98.3218 96.1532 98.88 96.3277 99.4383 96.4672C102.613 97.1301 105.788 97.793 108.963 98.421C109.312 98.4908 109.312 98.5954 109.242 98.8745C107.532 105.364 105.823 111.853 104.078 118.342C104.009 118.587 103.939 118.866 103.834 119.215Z" fill="#FEFEFE"/>
<path d="M25.7532 39.5638C25.823 36.9123 26.0672 34.2608 26.451 31.6092C26.6603 30.2486 26.5208 28.9228 25.823 27.6668C25.4392 27.0039 25.0903 26.3061 24.7763 25.6432C24.4972 25.0501 24.881 24.457 25.509 24.4919C27.7419 24.5617 29.6956 23.7244 31.5796 22.6428C33.4636 21.5613 35.2081 20.2006 37.1269 19.2586C38.9063 18.3864 40.7554 17.7235 42.744 17.7235C42.9533 17.7235 43.1976 17.7235 43.4069 17.7933C43.686 17.898 43.7209 18.1073 43.4767 18.2817C43.3371 18.3864 43.1976 18.4562 43.058 18.526C39.7087 19.9215 37.3014 22.3288 35.5569 25.4339C34.8592 26.655 34.0916 27.7715 32.9054 28.6088C31.5796 29.5159 31.0912 30.9114 30.6376 32.3419C29.5212 35.761 28.9979 39.2847 28.963 42.8783C28.963 43.1225 28.963 43.3667 28.8932 43.6109C28.8583 43.7156 28.8234 43.8203 28.7536 43.9249C28.5443 44.2389 27.0441 44.7623 26.6952 44.6576C26.4161 44.5529 26.3463 44.3436 26.2766 44.0994C26.0672 43.4016 25.9277 42.6689 25.8579 41.9363C25.7881 41.1687 25.7183 40.3663 25.7532 39.5638Z" fill="#FEFEFE"/>
<path d="M70.8992 71.5917C68.6663 71.4173 66.4335 71.1731 64.2006 70.9986C59.4208 70.6846 54.676 70.6148 49.966 71.5568C49.1984 71.6964 48.4309 71.7662 47.6285 71.6266C47.1749 71.5219 46.7911 71.3126 46.512 70.9637C46.198 70.5799 46.2678 70.3706 46.7214 70.1613C47.0702 69.9868 47.454 69.8473 47.8029 69.7077C48.5356 69.3588 49.1636 68.9053 49.6869 68.3122C49.9311 68.0331 50.1753 67.7889 50.4196 67.5097C51.3964 66.4631 52.9315 66.2189 54.1875 66.9166C55.6877 67.7889 57.3275 68.1377 59.0719 68.2075C60.0488 68.2424 60.8513 67.8935 61.4095 67.0911C61.8282 66.498 62.3864 66.1491 63.0493 66.0095C64.0959 65.7653 64.9333 65.1373 65.7706 64.5093C66.3288 64.0906 66.7126 64.0906 67.2708 64.5093C67.8639 64.9629 68.3523 65.556 68.771 66.184C69.2246 66.8469 69.6432 67.5097 70.0968 68.1726C70.6899 69.01 71.5272 69.5682 72.5041 69.8473C72.6088 69.8822 72.6785 69.8822 72.7832 69.9519C73.2368 70.1962 73.3065 70.6148 72.9228 70.9986C72.3645 71.5568 71.6319 71.6266 70.8992 71.5917Z" fill="#FEFEFE"/>
<path d="M39.0807 57.8107C38.5225 57.392 37.8596 57.078 37.3363 56.6245C36.2547 55.6825 35.5221 54.566 35.0336 53.2403C34.8941 52.8216 34.9987 52.5076 35.3825 52.2983H35.4174C36.2547 51.7051 37.0223 51.6354 37.7549 52.5076C37.9643 52.7518 38.2434 52.9263 38.5574 52.996C39.0458 53.1356 39.4296 53.1007 39.7436 52.682C40.3018 51.9843 40.9298 51.3912 41.7323 50.9725C42.8138 50.4143 43.9651 50.4492 45.1165 50.6236C46.2329 50.798 47.3493 51.112 48.5007 50.9376C48.9193 50.8678 49.3031 50.798 49.7218 50.6585C49.8962 50.5887 50.0358 50.5189 50.2102 50.4492C50.3847 50.4143 50.5591 50.3445 50.6987 50.5538C50.8033 50.7283 50.6987 50.8678 50.594 51.0074C50.3149 51.3214 50.0358 51.6354 49.7915 51.9494C49.2682 52.3331 48.6402 52.5076 48.0122 52.682C47.3842 52.8565 47.1749 53.1007 47.3144 53.7287C47.454 54.4614 47.3145 55.0894 46.9307 55.7173C46.3376 56.6942 45.5002 57.3571 44.4187 57.7409C44.2094 57.8107 44 57.8456 43.9651 58.0898C43.7558 58.5782 44.0349 59.0667 44.628 59.1364C45.0816 59.2062 45.5351 59.1016 45.9887 59.0318C46.7562 58.9271 47.5587 58.7876 48.2913 58.5084C48.396 58.4736 48.5356 58.4038 48.6402 58.5084C47.6633 59.3807 46.9656 60.4273 46.6865 61.7182C46.6167 62.0671 46.4073 62.2764 46.0933 62.3811C45.2909 62.6602 44.5582 63.044 43.8256 63.3929C43.3371 63.5324 43.0231 63.4278 42.744 63.0091C42.116 61.9973 41.488 60.9855 41.0345 59.904C40.8949 59.59 40.7903 59.276 40.7554 58.9271C40.7205 58.6131 40.5809 58.4387 40.2669 58.334C39.8832 58.2642 39.4296 58.1247 39.0807 57.8107Z" fill="#FDF1D6"/>
<path d="M4.40137 127.588C5.93647 124.483 7.43668 121.378 9.00668 118.308C10.0533 116.284 10.8558 114.156 11.6233 112.028C12.356 109.934 13.1235 107.876 14.1353 105.887C14.3795 105.364 14.6935 104.91 14.9726 104.387C15.6704 104.596 16.3682 104.875 17.066 105.189C17.5195 105.399 17.7637 106.097 17.6242 106.759C17.4846 107.492 17.1009 108.155 16.8217 108.853C14.2749 114.784 11.728 120.715 9.53001 126.82C9.39045 127.204 9.21601 127.553 9.04156 127.937C8.97179 128.111 8.90201 128.216 8.69268 128.181C7.26224 127.972 5.8318 127.832 4.40137 127.588Z" fill="#DFC091"/>
<path d="M47.1051 19.8866C47.2446 20.6193 46.6864 21.0728 46.3027 21.5264C45.1862 22.8521 44.314 24.3175 43.6162 25.8875C42.1509 29.2019 41.2438 32.6559 40.3716 36.1447C40.1971 36.8076 40.1622 37.5054 40.1274 38.2032C40.0227 39.4243 39.8482 40.6105 39.604 41.7967C38.1038 41.8665 36.6036 41.9711 35.1034 42.0409C34.6498 42.0758 34.2661 41.8316 34.2661 41.4129C34.2312 40.6803 34.1614 39.9476 34.3707 39.2149C34.4754 38.7963 34.6847 38.4125 35.1034 38.2381C36.3594 37.6798 36.6036 36.5983 36.778 35.3772C37.3711 31.3999 38.5225 27.6319 40.8949 24.2826C41.7671 23.0266 42.7091 21.8404 44 20.9681C44.9071 20.3401 45.9538 19.9564 47.1051 19.8866Z" fill="#DFC091"/>
<path d="M47.3494 86.8728C45.1863 86.2797 43.5116 84.954 42.1161 83.2793C39.8832 80.558 38.5574 77.3831 37.8596 73.9989C37.5456 72.4638 37.9992 70.9636 39.1505 69.8123C39.7087 69.2541 40.4414 69.1145 41.1741 69.1145C41.7323 69.1145 42.0463 69.5681 42.0812 70.2309C42.2556 73.4407 42.7789 76.5807 43.8256 79.6509C44.1047 80.4184 44.4187 81.1511 44.942 81.7791C45.3956 82.3722 45.7794 82.3024 46.0585 81.6395C46.2678 81.186 46.4423 80.7324 46.6516 80.3138C46.7563 80.0347 46.9307 79.8253 47.2796 79.8253C47.6285 79.8253 47.6634 80.1393 47.7331 80.3835C48.1169 81.8838 48.4658 83.384 48.9542 84.8842C49.0589 85.1982 49.1985 85.5471 49.3031 85.8611C49.4427 86.2449 49.3729 86.5937 49.0589 86.8728C48.9891 87.0124 48.8147 86.9426 48.71 87.0124C48.4309 87.0124 48.1867 87.0124 47.9076 87.0124C47.7331 86.9426 47.4889 87.0473 47.3494 86.8728Z" fill="#DFC091"/>
<path d="M85.3781 120.715C85.9363 120.645 85.9363 120.645 85.9712 120.087C86.1107 118.308 86.2503 116.494 86.3549 114.714C86.3898 114.191 86.4247 113.668 86.4596 113.144C86.4945 111.365 86.4945 109.586 86.5643 107.806C86.6689 105.434 86.634 103.061 86.634 100.689C86.5992 99.0143 86.4247 97.3396 86.2503 95.665C86.1805 95.037 86.1107 94.409 86.0758 93.781C86.0758 93.7112 86.1456 93.5368 85.9363 93.5717C86.0409 93.0134 86.1456 92.4552 86.2503 91.897C86.3549 91.3388 86.634 91.2341 87.1225 91.5481C87.9249 92.0366 88.1691 92.839 88.3436 93.6763C88.5529 94.723 88.5878 95.8045 88.6925 96.8512C88.7971 98.1421 88.9018 99.4678 89.0065 100.759C89.0763 101.84 89.146 102.922 89.1809 104.003C89.3902 108.085 89.4949 112.167 89.5647 116.249C89.5996 117.366 89.5996 118.482 89.5996 119.599C89.5647 120.401 89.3903 120.75 88.4483 120.785C87.4016 120.855 86.3898 120.75 85.3781 120.715Z" fill="#DFC091"/>
<path d="M43.721 117.261C43.8605 117.819 43.4768 118.133 43.093 118.412C42.0812 119.11 40.6508 118.97 39.7437 118.168C38.8715 117.366 38.069 116.493 37.3364 115.551C35.4524 113.179 33.7079 110.702 32.4519 107.946C31.7891 106.515 31.3355 104.98 30.8122 103.48C30.7075 103.201 30.6028 102.922 30.4982 102.608C30.4284 102.398 30.3935 102.538 30.3237 102.573C30.4284 101.84 30.6377 101.142 30.8471 100.445C31.0215 99.8515 32.0682 99.2235 32.6613 99.3282C32.9753 99.3631 33.0799 99.6073 33.1846 99.8515C34.1266 102.468 35.1384 105.085 36.2199 107.667C37.2317 110.039 38.6621 112.132 40.1623 114.226C40.895 115.272 41.6974 116.284 42.6743 117.121C42.779 117.226 42.8837 117.296 42.9883 117.401C43.407 117.68 43.5117 117.645 43.721 117.261Z" fill="#DFC091"/>
<path d="M44.5931 100.48C44.1745 99.9911 43.6162 99.6771 43.0929 99.3282C41.8718 98.456 40.7903 97.4442 39.7436 96.3975C38.6621 95.2811 37.5107 94.2344 36.3943 93.1529C36.4641 92.2109 36.6734 91.3038 37.2665 90.5013C37.5456 90.1176 37.8247 90.1176 38.1038 90.4664C40.9298 93.8855 44.4187 96.5022 48.1867 98.7351C48.4658 98.8746 48.71 99.0491 48.9542 99.2235C49.1287 99.3631 49.3031 99.5724 49.2333 99.7817C49.1635 100.026 48.9193 99.9911 48.71 100.026C47.8727 100.096 47.0353 100.026 46.198 100.131C45.6747 100.235 45.1514 100.375 44.5931 100.48Z" fill="#DFC091"/>
<path d="M65.1775 60.3226C65.0728 60.1133 65.0379 59.8691 65.0379 59.6598C65.0031 59.0667 65.6659 58.4387 66.4335 58.334C68.1779 58.0549 69.6432 58.7178 70.969 59.7644C72.0506 60.6366 72.8181 61.8229 73.7601 62.8346C74.6672 63.8115 75.6441 64.6837 76.5163 65.6606C77.3536 66.6026 77.8072 67.6493 77.4932 68.9402C77.3536 69.5682 77.0396 70.0915 76.5512 70.4753C76.2721 70.7195 76.0977 70.9637 76.1674 71.3126C76.1674 71.3824 76.1325 71.4521 76.0977 71.487C76.0279 70.6497 76.1325 69.7775 75.993 68.9402C75.8883 68.1377 75.5394 67.5097 74.8068 67.1957C73.1321 66.4631 71.9808 65.2071 71.0039 63.7417C70.2015 62.5904 69.4339 61.4391 68.2826 60.6366C67.5848 60.1482 66.8521 59.7644 65.9799 59.59C65.3519 59.5202 65.2124 59.6598 65.1775 60.3226Z" fill="#DFC091"/>
<path d="M49.6171 110.388C48.3262 110.492 47.0004 110.597 45.7095 110.702C44.9769 110.772 44.2442 110.772 43.5464 110.632C42.5347 110.423 42.0462 109.655 41.7671 108.783C41.4531 107.806 41.3485 106.794 41.2787 105.782C41.2438 105.05 41.1391 104.317 41.174 103.584C41.2089 101.98 42.1858 101.038 43.7907 101.038C43.6511 101.421 43.6162 101.805 43.6162 102.224C43.6162 103.689 43.6511 105.154 43.5464 106.62C43.4418 108.085 44.4187 108.574 45.5002 108.748C46.9306 108.957 48.3611 108.678 49.7915 108.643C49.8613 108.643 49.9311 108.608 50.0009 108.608C50.28 108.608 50.594 108.574 50.7335 108.818C50.8731 109.062 50.6289 109.236 50.4893 109.446C50.1753 109.725 49.966 110.109 49.6171 110.388Z" fill="#DFC091"/>
<path d="M39.0807 57.8105C39.6041 58.0199 40.0925 58.2641 40.6507 58.4037C40.8601 58.4734 40.8949 58.6479 40.8949 58.7874C40.9647 59.7992 41.5229 60.6016 41.9765 61.4739C42.2207 61.9274 42.5696 62.3461 42.7789 62.8345C43.0232 63.323 43.372 63.4276 43.8605 63.4276C43.2674 63.8463 42.6743 64.2998 42.0463 64.6836C41.0694 65.3116 39.8483 65.2767 39.0458 64.4743C37.441 62.9043 36.1501 61.125 35.5919 58.8921C35.5221 58.6828 35.4872 58.4734 35.6965 58.3339C35.9059 58.1943 36.0803 58.3339 36.2548 58.4385C36.6734 58.7525 37.0921 59.0317 37.5805 59.241C37.9643 59.4154 38.3481 59.555 38.697 59.241C39.0807 58.927 39.2552 58.2292 39.0807 57.8105Z" fill="#DFC091"/>
<path d="M47.1051 120.157C47.1749 120.087 47.2795 120.052 47.3144 119.982C48.9542 117.47 50.6289 114.923 52.0244 112.272C52.4082 111.574 52.7571 110.841 53.3502 110.283C53.3851 110.248 53.3851 110.178 53.4548 110.109C53.0362 110.039 52.6524 110.178 52.3035 110.248C53.2455 109.446 54.2224 108.678 55.3737 108.225C55.5831 108.155 55.8273 107.98 56.0366 108.19C56.2459 108.399 56.1762 108.678 56.1064 108.888C55.9319 109.516 55.6877 110.109 55.4086 110.702C54.0828 113.528 52.5477 116.249 50.7684 118.831C50.5591 119.18 50.28 119.459 49.966 119.703C49.652 119.947 49.3031 120.087 48.8844 120.087C48.3262 120.122 47.7331 120.226 47.1051 120.157Z" fill="#DFC091"/>
<path d="M72.5739 115.761C72.0506 116.458 70.4457 116.738 69.6432 116.214C68.0384 115.202 66.5033 114.121 65.2473 112.656C64.4797 111.783 63.6424 110.946 62.8399 110.109C62.7702 110.039 62.7004 110.004 62.5957 109.934C62.3515 109.446 62.1073 108.957 61.8631 108.434C61.7933 108.295 61.7584 108.12 61.8631 107.981C62.0026 107.806 62.2119 107.806 62.3864 107.876C62.5957 107.981 62.8051 108.085 63.0144 108.225C65.2124 109.551 67.2359 111.19 69.1548 112.9C70.0968 113.737 71.0039 114.54 71.8412 115.482C72.0506 115.691 72.2948 115.761 72.5739 115.761Z" fill="#DFC091"/>
<path d="M57.2577 48.1116C57.1531 48.9489 57.0484 49.7513 56.9786 50.5887C56.874 51.5307 56.7344 52.4727 56.6995 53.4147C56.6298 54.8102 56.5251 56.2057 56.0018 57.5315C55.3389 59.1364 55.3738 60.7762 55.9669 62.4159C56.1413 62.8695 56.2111 63.323 56.3506 63.7766C54.99 62.9742 54.048 61.8577 53.6293 60.3226C53.4898 59.7993 53.6642 59.2411 53.8387 58.6828C54.1178 57.6362 54.5015 56.6244 54.7458 55.5778C54.8853 54.9498 54.9551 54.3218 54.9551 53.6938C54.99 52.682 54.9551 51.6702 55.1295 50.6584C55.2691 49.9607 55.5831 49.3327 56.0018 48.7396C56.246 48.286 56.7344 48.1813 57.2577 48.1116Z" fill="#DFC091"/>
<path d="M43.9302 58.0548C43.7907 57.8105 44 57.7756 44.1745 57.7059C45.6049 57.2872 46.6167 56.3452 47.1749 54.9846C47.3144 54.6357 47.3144 54.2519 47.2447 53.8681C47.1051 53.0657 47.2796 52.7517 48.0471 52.5423C48.5704 52.4028 49.0589 52.2981 49.5124 51.9841C49.5822 51.9492 49.6869 51.8097 49.7915 51.9492C49.8264 52.7168 50.3846 53.1703 50.8731 53.6588C51.1173 53.7983 50.9778 54.0077 50.9429 54.1821C50.594 55.4381 49.8962 56.4499 48.7449 57.1128C47.3842 57.8803 45.9189 58.1943 44.3489 58.1594C44.2093 58.1594 44.0698 58.1943 43.9302 58.0548Z" fill="#FEFEFE"/>
<path d="M59.4209 74.0687C61.2351 74.1036 63.0144 74.2083 64.7937 74.3827C65.0031 74.4176 65.2822 74.3827 65.2822 74.6618C65.3171 74.9061 65.0031 74.9409 64.8286 74.9758C63.1889 75.4992 61.5142 75.7434 59.7698 75.8132C58.7929 75.848 57.816 75.9178 56.8391 75.9527C55.8622 75.9876 55.0249 75.6387 54.2574 75.0107C54.1178 74.9061 54.0131 74.7665 54.048 74.5921C54.0829 74.3827 54.2922 74.3827 54.4667 74.3478C56.1065 74.2083 57.7462 74.0338 59.4209 74.0687Z" fill="#FEFEFE"/>
<path d="M43.9303 58.0549C45.5701 58.0898 47.175 57.8456 48.6403 57.0431C49.8963 56.3453 50.6289 55.2638 50.9081 53.8682C50.9081 53.7985 50.9081 53.7287 50.9081 53.6589C51.4314 53.6589 51.7803 53.31 52.1641 52.996C52.2687 52.9263 52.3734 52.7518 52.5129 52.8216C52.6525 52.8914 52.6176 53.0658 52.6176 53.2403C52.3036 55.2289 51.1872 56.764 49.6172 57.9502C49.3032 58.1596 48.9892 58.3689 48.6752 58.5782C47.5936 58.962 46.4423 59.1364 45.291 59.3109C44.5583 59.4156 44.0699 59.2411 43.7908 58.6829C43.6512 58.4038 43.6512 58.1944 43.9303 58.0549Z" fill="#DFC091"/>
<path d="M44.9421 45.6345C45.8143 45.7392 46.6516 45.9485 47.2098 46.7161C47.2796 46.8207 47.3494 46.8905 47.3843 46.9952C47.4541 47.1696 47.5238 47.379 47.3843 47.5534C47.2447 47.693 47.0703 47.6581 46.861 47.6232C46.4423 47.5185 45.9887 47.4836 45.5352 47.4836C44.2792 47.4836 43.1279 47.9023 41.9765 48.3907C41.2788 48.7047 40.581 49.0885 39.8134 49.2281C39.4646 49.2978 39.0808 49.3676 38.7319 49.1932C38.3481 49.0187 38.3132 48.7745 38.6272 48.4954C38.7319 48.4256 38.8366 48.3558 38.9412 48.321C39.8483 47.9721 40.6508 47.4487 41.4532 46.9603C42.3952 46.4021 43.407 45.9485 44.4536 45.7043C44.663 45.6694 44.8025 45.6694 44.9421 45.6345Z" fill="#DFC091"/>
<path d="M70.4108 47.9021C69.713 47.9021 69.0501 48.0766 68.3872 48.2161C68.2826 48.251 68.1779 48.251 68.0732 48.251C67.8988 48.251 67.7592 48.2161 67.6895 48.0766C67.5848 47.9021 67.6546 47.7626 67.7592 47.6579C68.9804 46.5066 70.5503 45.739 72.225 46.681C72.6088 46.8904 72.9577 47.1695 73.3065 47.4486C74.1788 48.2161 74.9463 49.1233 76.0279 49.6466C76.3419 49.7861 76.307 49.9955 76.0279 50.1699C75.7139 50.3792 75.3999 50.2397 75.0859 50.135C74.1439 49.8559 73.3763 49.2977 72.6437 48.6697C71.9808 48.1464 71.2481 47.9021 70.4108 47.9021Z" fill="#DFC091"/>
<path d="M73.0624 57.8106C72.853 57.5315 73.0973 57.392 73.2368 57.2524C73.6904 56.8337 74.109 56.3453 74.423 55.822C74.8417 55.0544 75.0161 54.2869 74.5975 53.4495C74.2486 52.7518 74.423 52.4727 75.2255 52.4727C75.7488 52.6471 76.307 52.6471 76.8304 52.7169C77.6328 52.8215 77.8072 53.1007 77.5979 53.8682C77.2839 55.1591 76.5164 56.1011 75.4697 56.8686C75.2953 57.0082 75.1557 57.1129 74.9813 57.2524C74.423 57.6362 73.7602 57.7409 73.0624 57.8106Z" fill="#FEFEFE"/>
<path d="M29.1724 48.6349C29.1375 50.0653 29.5213 51.426 29.8004 52.7866C29.8702 53.1006 29.8353 53.3797 29.5213 53.5193C29.2073 53.6588 28.9631 53.4844 28.7886 53.2053C27.9164 51.7749 27.3233 50.2397 27.0093 48.6C26.8698 47.9371 27.0442 47.7278 27.6722 47.5184C27.9513 47.4138 28.2304 47.3091 28.5095 47.2393C28.9282 47.1695 29.1375 47.344 29.1724 47.7626C29.2073 48.0766 29.1724 48.3558 29.1724 48.6349Z" fill="#FEFEFE"/>
<path d="M35.4523 48.3557C34.7546 48.3557 34.4057 47.8673 34.615 47.2393C35.0337 46.1229 35.8361 45.4251 37.0572 45.3204C37.7201 45.2507 38.3481 45.1809 39.011 45.1111C39.1854 45.0762 39.3599 45.1111 39.4994 45.1809C39.8483 45.2855 39.9181 45.5995 39.6739 45.8786C39.5692 45.9833 39.4645 46.0531 39.3599 46.1229C38.2434 46.716 37.1968 47.4138 36.185 48.1115C35.9408 48.2511 35.7315 48.3906 35.4523 48.3557Z" fill="#DFC091"/>
<path d="M50.0358 61.439C50.0707 60.7412 50.2102 60.183 50.5591 59.6946C50.9429 59.2061 51.6058 59.0666 52.1291 59.3806C52.3384 59.5201 52.4082 59.6597 52.3035 59.9388C51.9198 60.811 51.8849 61.6832 52.2686 62.5554C52.3384 62.695 52.3733 62.8345 52.3733 63.009C52.4431 63.637 52.0593 63.951 51.4662 63.7068C50.6987 63.4276 50.3498 62.7996 50.1404 62.067C50.0707 61.8228 50.0009 61.5785 50.0358 61.439Z" fill="#DFC091"/>
<path d="M74.5975 45.2507C75.3999 45.3205 76.1326 45.3205 76.8304 45.5996C77.6328 45.9136 78.2259 46.5765 78.191 47.2743C78.1561 48.0418 77.8073 48.5652 76.9001 48.0767C76.307 47.7627 75.7837 47.3441 75.2604 46.8905C74.8417 46.5416 74.4579 46.1578 73.9695 45.8787C73.8299 45.809 73.6904 45.7043 73.7253 45.5298C73.7602 45.3554 73.8997 45.2856 74.0742 45.2507C74.2835 45.2507 74.4928 45.2507 74.5975 45.2507Z" fill="#DFC091"/>
<path d="M56.9787 120.087C56.6647 120.087 56.3507 120.122 56.0716 120.087C55.7227 120.052 55.618 119.843 55.8622 119.599C56.6996 118.622 57.3276 117.54 57.816 116.354C57.8509 116.249 57.8858 116.18 57.9555 116.11C57.9904 116.04 58.0602 115.97 58.1649 115.97C58.2695 115.97 58.3044 116.075 58.3044 116.145C58.3393 116.494 58.4091 116.842 58.444 117.191C58.5138 117.854 58.5487 118.517 58.5835 119.18C58.6184 119.843 58.4091 120.052 57.7462 120.087C57.4322 120.087 57.2229 120.087 56.9787 120.087Z" fill="#FEFEFE"/>
<path d="M31.9286 46.3323C31.6146 46.3323 31.3006 46.3323 31.0215 46.3323C30.7424 46.3323 30.6028 46.2625 30.6028 45.9485C30.6028 45.8089 30.6028 45.7043 30.6028 45.5647C30.4633 44.6576 30.6726 44.7623 31.3704 44.7274C31.8588 44.7274 32.3124 44.6925 32.8008 44.6576C33.0799 44.6227 33.2544 44.7623 33.2893 45.0414C33.2893 45.0763 33.2893 45.1112 33.2893 45.1112C33.359 46.402 33.4288 46.2276 32.3124 46.2276C32.1728 46.2276 32.0681 46.2276 31.9286 46.2276C31.9286 46.2974 31.9286 46.2974 31.9286 46.3323Z" fill="#FEFEFE"/>
<path d="M80.8775 45.1462C81.1915 45.1462 81.5055 45.1462 81.8195 45.1462C81.9241 45.1462 82.0637 45.1113 82.1335 45.2159C82.3777 45.5648 82.1683 45.9137 82.1335 46.2626C82.0986 46.5068 81.8892 46.5766 81.6799 46.5766C81.0868 46.5766 80.4937 46.5766 79.9355 46.5417C79.6215 46.5068 79.447 46.3324 79.447 45.9835C79.447 45.0415 79.447 45.0415 80.389 45.0415C80.5635 45.0415 80.7379 45.0415 80.8775 45.0415C80.8775 45.1113 80.8775 45.1462 80.8775 45.1462Z" fill="#FEFEFE"/>
<path d="M73.0623 57.8106C73.6903 57.5315 74.3881 57.4966 75.0161 57.2175C74.9114 57.6362 75.051 57.9851 75.1905 58.334C75.2952 58.6131 75.5394 58.648 75.8185 58.6131C75.2254 58.8224 74.6323 58.962 74.0043 58.9271C73.6554 58.9271 73.0623 58.4037 72.9925 58.0549C72.9577 57.9851 73.0274 57.9153 73.0623 57.8106Z" fill="#DFC092"/>
<path d="M47.3494 86.873C47.5238 86.9428 47.7331 86.873 47.8727 87.0126C46.4074 87.0126 44.9769 87.0126 43.5116 87.0126C39.8832 87.0126 36.2199 87.0126 32.5914 87.0126C32.6263 86.9428 32.6263 86.9079 32.6612 86.8381C32.7659 86.9777 32.9054 86.9428 33.045 86.9428C37.6852 86.9428 42.3254 86.9428 46.9656 86.9428C47.1051 86.9428 47.2447 86.9777 47.3494 86.873Z" fill="#422425"/>
<path d="M48.6752 87.0124C48.7798 86.9775 48.9194 86.9077 49.0241 86.8728C49.1636 87.0124 49.3032 86.9426 49.4776 86.9426C50.908 86.9426 52.3036 86.9426 53.734 86.9426C53.734 86.9775 53.734 87.0124 53.6991 87.0124C52.0245 87.0124 50.3498 87.0124 48.6752 87.0124Z" fill="#422425"/>
<path d="M80.4238 86.9426C80.4238 87.0124 80.3889 87.0821 80.354 87.117C80.2494 87.0124 80.1098 87.0472 80.0051 87.0472C78.6794 87.0472 77.3536 87.0472 76.0278 87.0472C76.0627 86.9775 76.1325 86.9426 76.1674 86.8728C76.3069 87.0124 76.4465 86.9426 76.5861 86.9426C77.8769 86.9426 79.1678 86.9426 80.4238 86.9426Z" fill="#432627"/>
<path d="M81.924 87.0124C81.8891 86.9775 81.8891 86.9426 81.8542 86.9426C83.1451 86.9426 84.4011 86.9426 85.692 86.9426C85.8316 86.9426 85.9711 86.9775 86.0758 86.8728C86.1456 86.9077 86.2153 86.9426 86.2502 87.0472C84.8547 87.0124 83.3893 87.0124 81.924 87.0124Z" fill="#432526"/>
<path d="M3.35472 106.794C3.28494 106.829 3.21516 106.864 3.14539 106.899C3.14539 105.817 3.14539 104.736 3.14539 103.689C3.18027 103.689 3.18027 103.689 3.21516 103.689C3.21516 104.596 3.21516 105.503 3.21516 106.376C3.25005 106.55 3.18027 106.69 3.35472 106.794Z" fill="#3C2424"/>
<path d="M15.3914 129.018C15.496 128.949 15.6007 128.949 15.7054 128.984C15.6007 129.123 15.496 129.018 15.3914 129.018Z" fill="#482426"/>
<path d="M96.1935 139.136C96.1935 139.694 95.7749 140.113 95.2515 140.148C94.6933 140.148 94.2747 139.729 94.2747 139.206C94.2747 138.648 94.6933 138.159 95.2515 138.194C95.74 138.124 96.1586 138.578 96.1935 139.136Z" fill="#FBFBFB"/>
<path d="M72.0506 110.213C72.1901 109.865 72.2599 109.655 72.3297 109.411C72.3994 109.202 72.4692 109.097 72.7134 109.132C72.9926 109.167 72.853 109.341 72.8879 109.481C72.8879 109.83 72.8879 110.144 72.8879 110.493C72.8879 110.597 72.8879 110.702 72.7483 110.702C72.6088 110.702 72.6088 110.597 72.6088 110.493C72.6088 110.213 72.6088 109.969 72.6088 109.62C72.3994 109.934 72.3646 110.248 72.2599 110.493C72.225 110.597 72.1901 110.667 72.0854 110.667C71.9459 110.667 71.911 110.597 71.911 110.493C71.8063 110.213 71.7017 109.934 71.5272 109.655C71.5272 109.934 71.5272 110.179 71.5272 110.458C71.5272 110.562 71.5272 110.667 71.3877 110.667C71.2481 110.667 71.2481 110.562 71.2481 110.458C71.2481 110.109 71.2481 109.725 71.2481 109.376C71.2481 109.271 71.1783 109.097 71.4226 109.132C71.5621 109.132 71.7366 109.097 71.7714 109.306C71.8063 109.585 71.911 109.865 72.0506 110.213Z" fill="#262422"/>
<path d="M70.3411 109.132C70.4806 109.132 70.6551 109.132 70.7946 109.132C70.8644 109.132 70.9691 109.132 70.9691 109.237C70.9691 109.341 70.8993 109.411 70.8295 109.376C70.4109 109.306 70.4806 109.585 70.4806 109.83C70.4806 109.969 70.5155 110.109 70.4806 110.248C70.4458 110.388 70.6202 110.667 70.3062 110.667C70.0271 110.667 70.2015 110.423 70.1666 110.283C70.1318 110.144 70.1666 110.004 70.1666 109.865C70.1666 109.62 70.2364 109.306 69.7829 109.376C69.7131 109.376 69.6433 109.341 69.6433 109.271C69.6433 109.167 69.7131 109.132 69.7829 109.132C69.9573 109.132 70.1666 109.132 70.3411 109.132Z" fill="#282625"/>
<path d="M95.6354 139.764C95.4609 139.694 95.4958 139.555 95.4958 139.45C95.426 139.276 95.2865 139.241 95.1469 139.241C94.9376 139.241 94.9725 139.38 94.9725 139.485C94.9725 139.59 95.0074 139.694 94.8678 139.694C94.7283 139.694 94.7632 139.555 94.7632 139.485C94.7632 139.311 94.7632 139.136 94.7632 138.997C94.7632 138.508 95.0771 138.299 95.5307 138.508C95.6354 138.543 95.6703 138.613 95.7051 138.717C95.8098 138.927 95.4609 139.031 95.6005 139.206C95.7051 139.415 95.74 139.59 95.6354 139.764Z" fill="#2B2927"/>
<path d="M95.2167 138.683C95.3563 138.683 95.4958 138.752 95.4609 138.927C95.426 139.101 95.2516 139.136 95.112 139.136C94.9027 139.136 94.9376 138.997 94.9376 138.892C94.9376 138.648 95.0772 138.648 95.2167 138.683Z" fill="#EDECEC"/>
</g>
<defs>
<clipPath id="clip0_340_3653">
<rect width="131.879" height="163" fill="white" transform="translate(0.842773)"/>
</clipPath>
</defs>
</svg>
