<svg width="38" height="38" viewBox="0 0 38 38" fill="none" xmlns="http://www.w3.org/2000/svg">
<path d="M22.7527 6.54342C19.3011 6.54342 16.3619 7.75639 13.9349 10.1823C11.5079 12.6083 10.2949 15.5475 10.296 19.0001C10.297 22.4527 11.51 25.3919 13.9349 27.8179C16.3598 30.2438 19.299 31.4568 22.7527 31.4568H23.5701C23.8296 31.4568 24.0762 31.4308 24.3097 31.3789C22.8305 29.6661 21.6819 27.7519 20.8639 25.6364C20.0459 23.5208 19.6374 21.3087 19.6385 19.0001C19.6395 16.6915 20.0485 14.4788 20.8655 12.3622C21.6824 10.2456 22.8305 8.33199 24.3097 6.62127C24.0762 6.56937 23.8296 6.54342 23.5701 6.54342H22.7527ZM22.7527 3.42926C23.6609 3.42926 24.5692 3.52008 25.4775 3.70174C26.3858 3.8834 27.2552 4.1559 28.0857 4.51921C28.3711 4.64897 28.6047 4.84361 28.7863 5.10312C28.968 5.36263 29.0588 5.6481 29.0588 5.95952C29.0588 6.19308 29.0069 6.41366 28.9031 6.62127C28.7993 6.82889 28.6436 7.01055 28.436 7.16625C26.6194 8.59358 25.218 10.3453 24.2319 12.4214C23.2457 14.4975 22.7527 16.6904 22.7527 19.0001C22.7527 21.3098 23.252 23.4964 24.2506 25.5601C25.2492 27.6237 26.6573 29.3817 28.4749 30.8339C28.6566 30.9896 28.7993 31.1713 28.9031 31.3789C29.0069 31.5865 29.0588 31.8071 29.0588 32.0407C29.0588 32.3521 28.9742 32.6375 28.805 32.8971C28.6358 33.1566 28.409 33.3512 28.1246 33.481C27.2682 33.8443 26.3858 34.1168 25.4775 34.2984C24.5692 34.4801 23.6609 34.5709 22.7527 34.5709C20.5987 34.5709 18.5745 34.1619 16.68 33.3439C14.7856 32.526 13.1377 31.4168 11.7363 30.0165C10.3349 28.6161 9.22523 26.9682 8.40724 25.0727C7.58926 23.1772 7.18078 21.153 7.18182 19.0001C7.18286 16.8472 7.59185 14.823 8.4088 12.9275C9.22575 11.032 10.3349 9.38406 11.7363 7.98372C13.1377 6.58339 14.7856 5.47371 16.68 4.65468C18.5745 3.83566 20.5987 3.42718 22.7527 3.42926Z" fill="#53A29D"/>
</svg>
