<svg width="298" height="101" viewBox="0 0 298 101" fill="none" xmlns="http://www.w3.org/2000/svg">
<rect x="1.72475" y="1.57204" width="294.868" height="97.8978" rx="15.3508" stroke="white" stroke-width="1.73783"/>
<path d="M60.023 59.3568C66.694 55.6283 71.7954 52.7875 72.2314 52.5656C73.6266 51.811 75.0655 49.8136 72.2314 48.26C71.3158 47.7718 66.3888 45.0197 60.023 41.4688L51.2591 50.435L60.023 59.3568Z" fill="#FFDD33"/>
<path d="M51.2592 50.4355L23.267 79.1541C23.9211 79.2429 24.6623 79.0654 25.5343 78.5771C27.3656 77.5562 46.8118 66.7257 60.0231 59.3574L51.2592 50.4355Z" fill="#FF6666"/>
<path d="M51.2591 50.435L60.023 41.4688C60.023 41.4688 27.4963 23.4032 25.5343 22.3379C24.793 21.894 23.9646 21.7608 23.2234 21.894L51.2591 50.435Z" fill="#7BFF7B"/>
<path d="M51.2591 50.4346L23.2234 21.8936C22.0897 22.1599 21.1305 23.1808 21.1305 25.267C21.1305 28.596 21.1305 72.9834 21.1305 75.7798C21.1305 77.6884 21.8717 79.0644 23.267 79.1976L51.2591 50.4346Z" fill="#6ED8FF"/>
<path d="M95.6968 35.3947C94.4081 35.3947 93.3085 35.1706 92.398 34.7223C91.5016 34.2741 90.8012 33.6298 90.2969 32.7893C89.8067 31.9349 89.5405 30.9193 89.4985 29.7427C89.4845 29.1404 89.4775 28.4961 89.4775 27.8097C89.4775 27.1093 89.4845 26.451 89.4985 25.8347C89.5405 24.672 89.8067 23.6775 90.2969 22.8511C90.8012 22.0247 91.5086 21.3873 92.419 20.9391C93.3435 20.4908 94.4361 20.2667 95.6968 20.2667C96.7193 20.2667 97.6158 20.4068 98.3862 20.6869C99.1566 20.9531 99.7939 21.3033 100.298 21.7375C100.816 22.1577 101.202 22.613 101.454 23.1032C101.72 23.5935 101.86 24.0487 101.874 24.4689C101.888 24.595 101.853 24.7001 101.769 24.7841C101.685 24.8681 101.573 24.9102 101.433 24.9102H99.2686C99.1286 24.9102 99.0235 24.8822 98.9535 24.8261C98.8834 24.7701 98.8204 24.6861 98.7644 24.574C98.6523 24.2798 98.4772 23.9927 98.2391 23.7125C98.001 23.4184 97.6788 23.1733 97.2726 22.9772C96.8664 22.7811 96.3411 22.683 95.6968 22.683C94.7443 22.683 93.9809 22.9351 93.4066 23.4394C92.8463 23.9437 92.5451 24.7771 92.5031 25.9397C92.4611 27.1584 92.4611 28.391 92.5031 29.6377C92.5451 30.8283 92.8533 31.6827 93.4276 32.201C94.0159 32.7193 94.7863 32.9784 95.7388 32.9784C96.3691 32.9784 96.9294 32.8664 97.4197 32.6422C97.9239 32.4181 98.3161 32.0679 98.5963 31.5917C98.8904 31.1154 99.0375 30.5061 99.0375 29.7637V29.1124H96.4742C96.3341 29.1124 96.215 29.0634 96.117 28.9653C96.0189 28.8672 95.9699 28.7412 95.9699 28.5871V27.4735C95.9699 27.3194 96.0189 27.1934 96.117 27.0953C96.215 26.9973 96.3341 26.9482 96.4742 26.9482H101.496C101.65 26.9482 101.769 26.9973 101.853 27.0953C101.951 27.1934 102 27.3194 102 27.4735V29.6797C102 30.8563 101.741 31.8718 101.223 32.7263C100.718 33.5807 99.99 34.2391 99.0375 34.7013C98.099 35.1636 96.9854 35.3947 95.6968 35.3947ZM109.148 35.3947C107.593 35.3947 106.36 34.9464 105.45 34.05C104.54 33.1535 104.049 31.8788 103.979 30.226C103.965 30.0859 103.958 29.9108 103.958 29.7007C103.958 29.4766 103.965 29.3015 103.979 29.1754C104.035 28.1249 104.273 27.2144 104.694 26.444C105.128 25.6736 105.723 25.0853 106.48 24.679C107.236 24.2588 108.125 24.0487 109.148 24.0487C110.283 24.0487 111.235 24.2868 112.005 24.7631C112.776 25.2253 113.357 25.8767 113.749 26.7171C114.142 27.5436 114.338 28.5031 114.338 29.5956V30.0369C114.338 30.1769 114.289 30.296 114.191 30.3941C114.093 30.4921 113.966 30.5411 113.812 30.5411H106.837C106.837 30.5411 106.837 30.5621 106.837 30.6042C106.837 30.6462 106.837 30.6812 106.837 30.7092C106.851 31.1995 106.942 31.6547 107.11 32.0749C107.292 32.4811 107.551 32.8103 107.887 33.0625C108.237 33.3146 108.651 33.4407 109.127 33.4407C109.519 33.4407 109.848 33.3846 110.114 33.2726C110.381 33.1465 110.598 33.0064 110.766 32.8523C110.934 32.6983 111.053 32.5722 111.123 32.4741C111.249 32.3061 111.347 32.208 111.417 32.18C111.501 32.138 111.62 32.117 111.774 32.117H113.581C113.721 32.117 113.833 32.159 113.917 32.243C114.015 32.3271 114.058 32.4321 114.044 32.5582C114.029 32.7823 113.91 33.0555 113.686 33.3776C113.476 33.6998 113.168 34.015 112.762 34.3231C112.356 34.6313 111.844 34.8904 111.228 35.1005C110.626 35.2966 109.932 35.3947 109.148 35.3947ZM106.837 28.7762H111.48V28.7132C111.48 28.1669 111.389 27.6906 111.207 27.2844C111.025 26.8782 110.759 26.556 110.409 26.3179C110.058 26.0798 109.638 25.9607 109.148 25.9607C108.658 25.9607 108.237 26.0798 107.887 26.3179C107.537 26.556 107.271 26.8782 107.089 27.2844C106.921 27.6906 106.837 28.1669 106.837 28.7132V28.7762ZM121.465 35.1846C120.624 35.1846 119.917 35.0375 119.342 34.7433C118.768 34.4492 118.341 34.015 118.061 33.4407C117.781 32.8523 117.64 32.124 117.64 31.2555V26.486H115.981C115.841 26.486 115.721 26.437 115.623 26.3389C115.525 26.2409 115.476 26.1218 115.476 25.9817V24.7631C115.476 24.623 115.525 24.504 115.623 24.4059C115.721 24.3079 115.841 24.2588 115.981 24.2588H117.64V20.771C117.64 20.6309 117.683 20.5119 117.767 20.4138C117.865 20.3158 117.991 20.2667 118.145 20.2667H119.847C119.987 20.2667 120.106 20.3158 120.204 20.4138C120.302 20.5119 120.351 20.6309 120.351 20.771V24.2588H122.977C123.117 24.2588 123.236 24.3079 123.334 24.4059C123.433 24.504 123.482 24.623 123.482 24.7631V25.9817C123.482 26.1218 123.433 26.2409 123.334 26.3389C123.236 26.437 123.117 26.486 122.977 26.486H120.351V31.0454C120.351 31.6197 120.449 32.0679 120.645 32.3901C120.855 32.7123 121.212 32.8734 121.717 32.8734H123.166C123.306 32.8734 123.426 32.9224 123.524 33.0204C123.622 33.1185 123.671 33.2375 123.671 33.3776V34.6803C123.671 34.8204 123.622 34.9394 123.524 35.0375C123.426 35.1355 123.306 35.1846 123.166 35.1846H121.465ZM130.84 35.1846C130.7 35.1846 130.581 35.1355 130.483 35.0375C130.385 34.9394 130.336 34.8204 130.336 34.6803V24.7631C130.336 24.623 130.385 24.504 130.483 24.4059C130.581 24.3079 130.7 24.2588 130.84 24.2588H132.584C132.738 24.2588 132.857 24.3079 132.941 24.4059C133.039 24.504 133.088 24.623 133.088 24.7631V34.6803C133.088 34.8204 133.039 34.9394 132.941 35.0375C132.857 35.1355 132.738 35.1846 132.584 35.1846H130.84ZM130.756 22.4519C130.602 22.4519 130.476 22.4099 130.378 22.3258C130.294 22.2278 130.252 22.1017 130.252 21.9476V20.4348C130.252 20.2947 130.294 20.1757 130.378 20.0776C130.476 19.9796 130.602 19.9306 130.756 19.9306H132.668C132.822 19.9306 132.948 19.9796 133.046 20.0776C133.144 20.1757 133.193 20.2947 133.193 20.4348V21.9476C133.193 22.1017 133.144 22.2278 133.046 22.3258C132.948 22.4099 132.822 22.4519 132.668 22.4519H130.756ZM140.814 35.1846C139.973 35.1846 139.266 35.0375 138.691 34.7433C138.117 34.4492 137.69 34.015 137.41 33.4407C137.13 32.8523 136.99 32.124 136.99 31.2555V26.486H135.33C135.19 26.486 135.071 26.437 134.972 26.3389C134.874 26.2409 134.825 26.1218 134.825 25.9817V24.7631C134.825 24.623 134.874 24.504 134.972 24.4059C135.071 24.3079 135.19 24.2588 135.33 24.2588H136.99V20.771C136.99 20.6309 137.032 20.5119 137.116 20.4138C137.214 20.3158 137.34 20.2667 137.494 20.2667H139.196C139.336 20.2667 139.455 20.3158 139.553 20.4138C139.651 20.5119 139.7 20.6309 139.7 20.771V24.2588H142.326C142.466 24.2588 142.585 24.3079 142.684 24.4059C142.782 24.504 142.831 24.623 142.831 24.7631V25.9817C142.831 26.1218 142.782 26.2409 142.684 26.3389C142.585 26.437 142.466 26.486 142.326 26.486H139.7V31.0454C139.7 31.6197 139.798 32.0679 139.994 32.3901C140.204 32.7123 140.561 32.8734 141.066 32.8734H142.515C142.656 32.8734 142.775 32.9224 142.873 33.0204C142.971 33.1185 143.02 33.2375 143.02 33.3776V34.6803C143.02 34.8204 142.971 34.9394 142.873 35.0375C142.775 35.1355 142.656 35.1846 142.515 35.1846H140.814ZM154.518 35.3947C153.397 35.3947 152.451 35.1986 151.681 34.8064C150.925 34.4142 150.343 33.8609 149.937 33.1465C149.545 32.4321 149.321 31.5987 149.265 30.6462C149.251 30.3941 149.244 30.0859 149.244 29.7217C149.244 29.3575 149.251 29.0493 149.265 28.7972C149.321 27.8307 149.552 26.9973 149.958 26.2969C150.378 25.5825 150.967 25.0292 151.723 24.637C152.493 24.2448 153.425 24.0487 154.518 24.0487C155.61 24.0487 156.535 24.2448 157.291 24.637C158.061 25.0292 158.65 25.5825 159.056 26.2969C159.476 26.9973 159.714 27.8307 159.77 28.7972C159.784 29.0493 159.791 29.3575 159.791 29.7217C159.791 30.0859 159.784 30.3941 159.77 30.6462C159.714 31.5987 159.483 32.4321 159.077 33.1465C158.685 33.8609 158.103 34.4142 157.333 34.8064C156.577 35.1986 155.638 35.3947 154.518 35.3947ZM154.518 33.3146C155.26 33.3146 155.834 33.0835 156.24 32.6212C156.647 32.145 156.871 31.4516 156.913 30.5411C156.927 30.331 156.934 30.0579 156.934 29.7217C156.934 29.3855 156.927 29.1124 156.913 28.9023C156.871 28.0058 156.647 27.3194 156.24 26.8432C155.834 26.3669 155.26 26.1288 154.518 26.1288C153.775 26.1288 153.201 26.3669 152.795 26.8432C152.388 27.3194 152.164 28.0058 152.122 28.9023C152.108 29.1124 152.101 29.3855 152.101 29.7217C152.101 30.0579 152.108 30.331 152.122 30.5411C152.164 31.4516 152.388 32.145 152.795 32.6212C153.201 33.0835 153.775 33.3146 154.518 33.3146ZM162.623 35.1846C162.483 35.1846 162.364 35.1355 162.266 35.0375C162.168 34.9394 162.119 34.8204 162.119 34.6803V24.7631C162.119 24.623 162.168 24.504 162.266 24.4059C162.364 24.3079 162.483 24.2588 162.623 24.2588H164.346C164.486 24.2588 164.606 24.3079 164.704 24.4059C164.802 24.504 164.851 24.623 164.851 24.7631V25.6245C165.215 25.1763 165.677 24.8051 166.237 24.511C166.812 24.2028 167.519 24.0487 168.36 24.0487C169.214 24.0487 169.956 24.2448 170.587 24.637C171.217 25.0152 171.7 25.5545 172.036 26.2549C172.387 26.9552 172.562 27.7957 172.562 28.7762V34.6803C172.562 34.8204 172.513 34.9394 172.415 35.0375C172.317 35.1355 172.198 35.1846 172.057 35.1846H170.208C170.068 35.1846 169.949 35.1355 169.851 35.0375C169.753 34.9394 169.704 34.8204 169.704 34.6803V28.9023C169.704 28.0898 169.501 27.4525 169.095 26.9903C168.703 26.528 168.128 26.2969 167.372 26.2969C166.644 26.2969 166.062 26.528 165.628 26.9903C165.194 27.4525 164.977 28.0898 164.977 28.9023V34.6803C164.977 34.8204 164.928 34.9394 164.83 35.0375C164.732 35.1355 164.613 35.1846 164.472 35.1846H162.623Z" fill="white"/>
<path d="M92.8851 75.1426C92.5882 75.1426 92.3359 75.0387 92.1281 74.8309C91.9203 74.623 91.8163 74.3707 91.8163 74.0738V45.0839C91.8163 44.7573 91.9203 44.4901 92.1281 44.2823C92.3359 44.0745 92.5882 43.9706 92.8851 43.9706H104.82C107.135 43.9706 109.154 44.3417 110.876 45.0839C112.598 45.7964 113.934 46.8948 114.884 48.3792C115.834 49.8339 116.309 51.6597 116.309 53.8566C116.309 56.0831 115.834 57.9238 114.884 59.3785C113.934 60.8035 112.598 61.8722 110.876 62.5847C109.154 63.2972 107.135 63.6535 104.82 63.6535H98.1843V74.0738C98.1843 74.3707 98.0804 74.623 97.8726 74.8309C97.6945 75.0387 97.4421 75.1426 97.1156 75.1426H92.8851ZM98.0953 58.7105H104.597C106.319 58.7105 107.64 58.3097 108.56 57.5081C109.48 56.6769 109.941 55.4597 109.941 53.8566C109.941 52.3722 109.51 51.1847 108.649 50.294C107.788 49.3737 106.437 48.9136 104.597 48.9136H98.0953V58.7105ZM118.632 75.1426C118.335 75.1426 118.083 75.0387 117.875 74.8309C117.667 74.623 117.564 74.3707 117.564 74.0738V44.594C117.564 44.2971 117.667 44.0448 117.875 43.837C118.083 43.6292 118.335 43.5253 118.632 43.5253H122.328C122.625 43.5253 122.878 43.6292 123.085 43.837C123.293 44.0448 123.397 44.2971 123.397 44.594V74.0738C123.397 74.3707 123.293 74.623 123.085 74.8309C122.878 75.0387 122.625 75.1426 122.328 75.1426H118.632ZM132.911 75.5879C131.367 75.5879 129.972 75.291 128.725 74.6973C127.478 74.0738 126.484 73.2574 125.742 72.248C125.029 71.209 124.673 70.0512 124.673 68.7746C124.673 66.6965 125.504 65.0488 127.167 63.8316C128.859 62.5847 131.085 61.7535 133.846 61.3378L139.947 60.4472V59.512C139.947 58.2652 139.635 57.3003 139.012 56.6175C138.389 55.9347 137.32 55.5933 135.806 55.5933C134.737 55.5933 133.861 55.8159 133.178 56.2613C132.525 56.6769 132.035 57.2409 131.709 57.9534C131.471 58.3394 131.13 58.5324 130.685 58.5324H127.167C126.84 58.5324 126.588 58.4433 126.41 58.2652C126.261 58.087 126.187 57.8495 126.187 57.5527C126.217 57.0777 126.41 56.4988 126.766 55.8159C127.122 55.1331 127.686 54.48 128.458 53.8566C129.23 53.2034 130.224 52.6542 131.442 52.2089C132.659 51.7636 134.128 51.5409 135.85 51.5409C137.721 51.5409 139.294 51.7784 140.571 52.2534C141.877 52.6987 142.916 53.3073 143.688 54.0792C144.46 54.8511 145.024 55.7566 145.38 56.7956C145.736 57.8347 145.914 58.9331 145.914 60.091V74.0738C145.914 74.3707 145.81 74.623 145.603 74.8309C145.395 75.0387 145.142 75.1426 144.846 75.1426H141.239C140.912 75.1426 140.645 75.0387 140.437 74.8309C140.259 74.623 140.17 74.3707 140.17 74.0738V72.3371C139.784 72.9012 139.264 73.4355 138.611 73.9402C137.958 74.4152 137.157 74.816 136.207 75.1426C135.286 75.4395 134.188 75.5879 132.911 75.5879ZM134.425 71.3574C135.464 71.3574 136.399 71.1348 137.231 70.6894C138.092 70.2441 138.76 69.5613 139.235 68.641C139.739 67.691 139.992 66.5035 139.992 65.0785V64.1433L135.539 64.8558C133.787 65.123 132.481 65.5535 131.62 66.1472C130.759 66.741 130.328 67.4683 130.328 68.3293C130.328 68.9824 130.521 69.5465 130.907 70.0215C131.323 70.4668 131.842 70.8082 132.466 71.0457C133.089 71.2535 133.742 71.3574 134.425 71.3574ZM152.087 83.6035C151.85 83.6035 151.642 83.5145 151.464 83.3364C151.286 83.1582 151.197 82.9504 151.197 82.7129C151.197 82.5942 151.197 82.4754 151.197 82.3567C151.226 82.2676 151.286 82.1489 151.375 82.0004L154.848 73.7621L146.298 53.5894C146.179 53.2925 146.12 53.0847 146.12 52.9659C146.15 52.6987 146.254 52.4761 146.432 52.298C146.61 52.0901 146.832 51.9862 147.1 51.9862H150.707C151.063 51.9862 151.33 52.0753 151.508 52.2534C151.686 52.4316 151.82 52.6245 151.909 52.8323L157.832 67.3941L163.933 52.8323C164.022 52.5948 164.155 52.4019 164.333 52.2534C164.511 52.0753 164.779 51.9862 165.135 51.9862H168.697C168.935 51.9862 169.143 52.0753 169.321 52.2534C169.529 52.4316 169.633 52.6394 169.633 52.8769C169.633 53.055 169.573 53.2925 169.454 53.5894L156.852 82.7575C156.733 82.995 156.585 83.1879 156.407 83.3364C156.229 83.5145 155.961 83.6035 155.605 83.6035H152.087ZM187.595 75.5879C184.834 75.5879 182.519 75.1871 180.648 74.3855C178.808 73.5543 177.397 72.4855 176.418 71.1793C175.468 69.8433 174.963 68.448 174.904 66.9933C174.904 66.7261 174.993 66.5035 175.171 66.3254C175.349 66.1472 175.572 66.0582 175.839 66.0582H179.802C180.188 66.0582 180.47 66.1472 180.648 66.3254C180.856 66.4738 181.034 66.6668 181.183 66.9043C181.361 67.4683 181.702 68.0324 182.207 68.5965C182.711 69.1308 183.394 69.5762 184.255 69.9324C185.146 70.2887 186.259 70.4668 187.595 70.4668C189.733 70.4668 191.321 70.1105 192.36 69.398C193.429 68.6855 193.963 67.7207 193.963 66.5035C193.963 65.6425 193.681 64.9597 193.117 64.455C192.553 63.9207 191.677 63.4457 190.49 63.03C189.332 62.5847 187.788 62.1246 185.858 61.6496C183.632 61.1152 181.761 60.4769 180.247 59.7347C178.763 58.9628 177.635 57.998 176.863 56.8402C176.121 55.6823 175.75 54.2128 175.75 52.4316C175.75 50.7097 176.21 49.1808 177.13 47.8448C178.08 46.5089 179.416 45.455 181.138 44.6831C182.89 43.9112 184.968 43.5253 187.372 43.5253C189.302 43.5253 191.009 43.7925 192.494 44.3268C193.978 44.8315 195.21 45.5143 196.19 46.3753C197.169 47.2065 197.912 48.112 198.416 49.0917C198.951 50.0417 199.233 50.9769 199.262 51.8972C199.262 52.1347 199.173 52.3573 198.995 52.5651C198.847 52.7433 198.624 52.8323 198.327 52.8323H194.186C193.948 52.8323 193.711 52.773 193.473 52.6542C193.236 52.5355 193.043 52.3128 192.894 51.9862C192.716 51.0659 192.137 50.2792 191.158 49.6261C190.178 48.9729 188.916 48.6464 187.372 48.6464C185.769 48.6464 184.478 48.9433 183.498 49.537C182.519 50.1308 182.029 51.0511 182.029 52.298C182.029 53.1292 182.266 53.8269 182.741 54.3909C183.246 54.9253 184.033 55.4003 185.101 55.8159C186.2 56.2316 187.64 56.6769 189.421 57.1519C191.944 57.7159 194.008 58.3691 195.611 59.1113C197.214 59.8535 198.387 60.8035 199.129 61.9613C199.871 63.0894 200.242 64.5293 200.242 66.2808C200.242 68.2402 199.708 69.9176 198.639 71.3129C197.6 72.6785 196.13 73.7324 194.23 74.4746C192.33 75.2168 190.119 75.5879 187.595 75.5879ZM212.159 75.1426C210.377 75.1426 208.878 74.8309 207.661 74.2074C206.444 73.584 205.538 72.6637 204.945 71.4465C204.351 70.1996 204.054 68.6558 204.054 66.8152V56.7066H200.536C200.239 56.7066 199.987 56.6027 199.779 56.3948C199.571 56.187 199.467 55.9347 199.467 55.6378V53.055C199.467 52.7581 199.571 52.5058 199.779 52.298C199.987 52.0901 200.239 51.9862 200.536 51.9862H204.054V44.594C204.054 44.2971 204.143 44.0448 204.321 43.837C204.529 43.6292 204.796 43.5253 205.123 43.5253H208.73C209.027 43.5253 209.279 43.6292 209.487 43.837C209.695 44.0448 209.799 44.2971 209.799 44.594V51.9862H215.365C215.662 51.9862 215.914 52.0901 216.122 52.298C216.33 52.5058 216.434 52.7581 216.434 53.055V55.6378C216.434 55.9347 216.33 56.187 216.122 56.3948C215.914 56.6027 215.662 56.7066 215.365 56.7066H209.799V66.3699C209.799 67.5871 210.006 68.5371 210.422 69.2199C210.867 69.9027 211.624 70.2441 212.693 70.2441H215.766C216.063 70.2441 216.315 70.348 216.523 70.5558C216.731 70.7637 216.834 71.016 216.834 71.3129V74.0738C216.834 74.3707 216.731 74.623 216.523 74.8309C216.315 75.0387 216.063 75.1426 215.766 75.1426H212.159ZM227.91 75.5879C225.535 75.5879 223.531 75.1723 221.898 74.341C220.295 73.5098 219.063 72.3371 218.202 70.823C217.371 69.309 216.896 67.5425 216.777 65.5238C216.747 64.9894 216.733 64.3363 216.733 63.5644C216.733 62.7925 216.747 62.1394 216.777 61.605C216.896 59.5566 217.386 57.7902 218.247 56.3058C219.137 54.7917 220.384 53.6191 221.987 52.7878C223.62 51.9565 225.594 51.5409 227.91 51.5409C230.226 51.5409 232.185 51.9565 233.788 52.7878C235.421 53.6191 236.668 54.7917 237.529 56.3058C238.419 57.7902 238.924 59.5566 239.043 61.605C239.072 62.1394 239.087 62.7925 239.087 63.5644C239.087 64.3363 239.072 64.9894 239.043 65.5238C238.924 67.5425 238.434 69.309 237.573 70.823C236.742 72.3371 235.51 73.5098 233.877 74.341C232.274 75.1723 230.285 75.5879 227.91 75.5879ZM227.91 71.1793C229.483 71.1793 230.701 70.6894 231.562 69.7097C232.422 68.7004 232.897 67.2308 232.987 65.3011C233.016 64.8558 233.031 64.2769 233.031 63.5644C233.031 62.8519 233.016 62.273 232.987 61.8277C232.897 59.9277 232.422 58.473 231.562 57.4636C230.701 56.4542 229.483 55.9495 227.91 55.9495C226.336 55.9495 225.119 56.4542 224.258 57.4636C223.397 58.473 222.922 59.9277 222.833 61.8277C222.804 62.273 222.789 62.8519 222.789 63.5644C222.789 64.2769 222.804 64.8558 222.833 65.3011C222.922 67.2308 223.397 68.7004 224.258 69.7097C225.119 70.6894 226.336 71.1793 227.91 71.1793ZM241.973 75.1426C241.676 75.1426 241.424 75.0387 241.216 74.8309C241.008 74.623 240.904 74.3707 240.904 74.0738V53.0995C240.904 52.773 241.008 52.5058 241.216 52.298C241.424 52.0901 241.676 51.9862 241.973 51.9862H245.58C245.877 51.9862 246.129 52.0901 246.337 52.298C246.574 52.5058 246.693 52.773 246.693 53.0995V54.9253C247.376 53.9753 248.252 53.248 249.321 52.7433C250.419 52.2386 251.681 51.9862 253.106 51.9862H254.931C255.258 51.9862 255.51 52.0901 255.689 52.298C255.896 52.5058 256 52.7581 256 53.055V56.2613C256 56.5581 255.896 56.8105 255.689 57.0183C255.51 57.2261 255.258 57.33 254.931 57.33H251.458C250.033 57.33 248.92 57.7308 248.118 58.5324C247.346 59.3339 246.96 60.4324 246.96 61.8277V74.0738C246.96 74.3707 246.856 74.623 246.649 74.8309C246.441 75.0387 246.174 75.1426 245.847 75.1426H241.973ZM266.027 75.5879C262.731 75.5879 260.119 74.6379 258.189 72.7379C256.26 70.8379 255.22 68.1363 255.072 64.6332C255.042 64.3363 255.027 63.9652 255.027 63.5199C255.027 63.0449 255.042 62.6738 255.072 62.4066C255.191 60.18 255.695 58.2503 256.586 56.6175C257.506 54.9847 258.768 53.7378 260.371 52.8769C261.974 51.9862 263.86 51.5409 266.027 51.5409C268.431 51.5409 270.45 52.0456 272.083 53.055C273.716 54.0347 274.948 55.4152 275.779 57.1964C276.61 58.948 277.026 60.9816 277.026 63.2972V64.2324C277.026 64.5293 276.922 64.7816 276.714 64.9894C276.506 65.1972 276.239 65.3011 275.913 65.3011H261.128C261.128 65.3011 261.128 65.3457 261.128 65.4347C261.128 65.5238 261.128 65.598 261.128 65.6574C261.158 66.6965 261.351 67.6613 261.707 68.5519C262.093 69.4129 262.642 70.1105 263.355 70.6449C264.097 71.1793 264.973 71.4465 265.982 71.4465C266.813 71.4465 267.511 71.3277 268.075 71.0902C268.639 70.823 269.099 70.5262 269.456 70.1996C269.812 69.873 270.064 69.6058 270.213 69.398C270.48 69.0418 270.688 68.834 270.836 68.7746C271.014 68.6855 271.267 68.641 271.593 68.641H275.423C275.72 68.641 275.957 68.7301 276.135 68.9082C276.343 69.0863 276.432 69.309 276.403 69.5762C276.373 70.0512 276.121 70.6301 275.646 71.3129C275.2 71.9957 274.547 72.6637 273.686 73.3168C272.825 73.9699 271.742 74.5191 270.435 74.9645C269.159 75.3801 267.689 75.5879 266.027 75.5879ZM261.128 61.5605H270.97V61.4269C270.97 60.2691 270.777 59.2597 270.391 58.3988C270.005 57.5378 269.441 56.855 268.699 56.3503C267.956 55.8456 267.066 55.5933 266.027 55.5933C264.988 55.5933 264.097 55.8456 263.355 56.3503C262.613 56.855 262.049 57.5378 261.663 58.3988C261.306 59.2597 261.128 60.2691 261.128 61.4269V61.5605Z" fill="white"/>
</svg>
