<svg width="716" height="798" viewBox="0 0 716 798" fill="none" xmlns="http://www.w3.org/2000/svg">
<path d="M484.54 710.344H26.0692C11.6692 710.344 0 698.671 0 684.275V26.0693C0 11.6693 11.6732 0 26.0692 0H484.54C498.94 0 510.609 11.6733 510.609 26.0693V684.275C510.613 698.671 498.94 710.344 484.54 710.344Z" fill="url(#paint0_linear_0_1)"/>
<path d="M3.94092 684.148V26.2003C3.94092 13.9079 13.9074 3.94531 26.1998 3.94531H484.412C496.705 3.94531 506.671 13.9118 506.671 26.2042V684.152C506.671 696.444 496.705 706.41 484.412 706.41H26.1959C13.9075 706.403 3.94092 696.44 3.94092 684.148Z" fill="#17242A"/>
<path d="M481.618 28.9199H28.9941V681.43H481.618V28.9199Z" fill="url(#paint1_linear_0_1)"/>
<rect width="452.62" height="652.51" transform="translate(29 29)" fill="white"/>
<path d="M131.17 333.66C130.84 331.4 131.5 328.77 132.45 327.41C133.93 325.28 136.24 323.57 138.64 323.57H158.38C158.38 323.57 158.45 323.57 158.48 323.57H173.16V323.54C174.78 323.54 176.41 323.57 178.03 323.6C189.73 323.84 199.1 330.52 205.67 341.56C206.81 343.47 207.68 345.61 208.44 347.76C209.17 349.82 209.58 352.03 210.13 354.17C210.46 354.12 210.37 354.13 210.7 354.08C210.76 346.42 211 338.75 210.81 331.09C210.69 325.96 209.45 321 206.96 316.62C200.59 305.38 191.27 299.87 179.56 299.65C168.05 299.43 156.54 299.47 145.03 299.69C141.49 299.76 137.85 300.37 134.44 301.47C122.19 305.41 112.99 318.52 112.52 332.22C111.91 349.96 124.51 366.13 140.59 367.42C149.79 368.16 159.07 367.75 168.31 367.84C168.55 367.84 168.78 367.64 169.19 367.46V358.44C178.68 364.59 187.87 370.55 197.31 376.67C187.86 382.8 178.67 388.76 169.12 394.96C169.12 392.16 169.02 389.92 169.15 387.69C169.26 385.87 168.65 385.42 167.11 385.43C159.59 385.5 152.07 385.65 144.56 385.39C135.52 385.07 127.8 381.1 121.57 373.64C117.44 368.7 114.99 362.78 113.59 356.12C113.2 363.91 112.98 371.67 113.17 379.42C113.3 384.71 114.63 389.8 117.27 394.26C123.63 405.04 132.74 410.51 144.12 410.78C156.02 411.06 167.94 410.85 179.84 410.84C184.09 410.84 188.2 409.91 192.05 407.96C203.45 402.2 210.59 392.64 211.38 378.31C212.36 360.35 199.48 344.24 182.93 342.87C179.96 342.62 176.97 342.51 173.99 342.47C171.37 342.43 168.74 342.45 166.12 342.47H140.31L143.65 342.49H140.92C136.99 342.49 133.37 339.92 131.78 335.87C131.49 335.13 131.3 334.42 131.19 333.76" fill="#018ED5"/>
<path d="M217.95 299.67H235.76C236.18 299.73 236.4 299.96 236.4 300.37V410.15C236.4 410.62 236.19 410.85 235.76 410.85H217.95C217.53 410.85 217.31 410.62 217.31 410.15V300.36C217.42 299.9 217.63 299.66 217.95 299.66V299.67Z" fill="#018ED5"/>
<path d="M280.28 299.67C294.81 299.67 305.62 306.9 312.72 321.35C314.52 325.99 315.42 330.93 315.42 336.14V373.64C315.42 389.47 307.42 400.82 291.43 407.7C286.64 408.85 282.81 409.42 279.94 409.42H253.58C247.05 408.62 243.78 405.29 243.78 399.44V309.64C243.78 304.54 246.48 301.21 251.89 299.66H280.28V299.67ZM264.06 319.97V389.12H276.9C286.19 389.12 292.05 385.57 294.47 378.45C295.15 376.27 295.48 372.72 295.48 367.78V340.6C295.48 329.71 292.1 323.28 285.34 321.33C283.54 320.41 280.16 319.95 275.2 319.95H264.05L264.06 319.97Z" fill="#018ED5"/>
<path d="M397.4 410.91C381.08 348.01 371.99 314.18 371.14 311.64C367.43 303.55 362.13 299.5 355.24 299.5H353.33C349.75 299.5 346.47 300.85 343.47 303.56C340.47 306.27 338.34 309.88 337.24 313.85C334.27 324.58 325.85 356.44 312 409.44C312 409.9 312.21 410.13 312.64 410.13L331.08 410.43H334.04C334.37 409.04 334.72 407.48 335.09 405.81L347.39 351.98L349.7 342.84L354.29 324.7C354.48 324.7 354.64 324.83 354.69 325.01L366.69 369.19L368.21 375.11C368.32 375.59 368.41 376.08 368.51 376.57C371.83 389.68 358.7 384.41 357.21 383.63L396.22 410.94L397.4 410.88V410.91Z" fill="#018ED5"/>
<path d="M357.22 383.66L357.09 383.57C357.09 383.57 357.11 383.6 357.22 383.66Z" fill="#018ED5"/>
<path d="M680.968 797.07H485.393C466.044 797.07 450.362 781.384 450.362 762.038V302.289C450.362 282.944 466.044 267.258 485.393 267.258H680.968C700.318 267.258 716 282.944 716 302.289V762.034C716 781.384 700.318 797.07 680.968 797.07Z" fill="url(#paint2_linear_0_1)"/>
<path d="M455.482 761.872V302.457C455.482 285.842 468.95 272.375 485.564 272.375H680.802C697.417 272.375 710.884 285.842 710.884 302.457V761.868C710.884 778.483 697.417 791.95 680.802 791.95H485.564C468.95 791.954 455.482 778.487 455.482 761.872Z" fill="url(#paint3_linear_0_1)"/>
<path d="M467.259 761.482V302.845C467.259 292.521 475.626 284.154 485.949 284.154H680.417C690.741 284.154 699.108 292.521 699.108 302.845V761.482C699.108 771.806 690.741 780.173 680.417 780.173H485.949C475.626 780.173 467.259 771.802 467.259 761.482Z" fill="white"/>
<rect x="467" y="284" width="231.85" height="496.02" rx="40" fill="white"/>
<path d="M510.804 519.868C510.611 518.546 510.997 517.007 511.553 516.211C512.419 514.964 513.771 513.964 515.175 513.964H526.727C526.727 513.964 526.768 513.964 526.786 513.964H535.376V513.946C536.324 513.946 537.278 513.964 538.226 513.981C545.073 514.122 550.557 518.031 554.401 524.491C555.069 525.609 555.578 526.862 556.022 528.12C556.45 529.325 556.69 530.619 557.011 531.871C557.205 531.842 557.152 531.847 557.345 531.818C557.38 527.336 557.521 522.847 557.409 518.364C557.339 515.362 556.613 512.46 555.156 509.896C551.429 503.319 545.974 500.094 539.122 499.966C532.386 499.837 525.65 499.86 518.915 499.989C516.843 500.03 514.713 500.387 512.717 501.031C505.549 503.336 500.165 511.008 499.89 519.026C499.533 529.407 506.906 538.87 516.316 539.625C521.7 540.058 527.131 539.818 532.538 539.871C532.679 539.871 532.813 539.754 533.053 539.648V534.37C538.607 537.969 543.985 541.456 549.509 545.038C543.979 548.625 538.601 552.113 533.012 555.741C533.012 554.103 532.954 552.792 533.03 551.487C533.094 550.422 532.737 550.158 531.836 550.164C527.435 550.205 523.034 550.293 518.64 550.141C513.349 549.954 508.832 547.63 505.186 543.265C502.769 540.374 501.335 536.909 500.516 533.012C500.288 537.571 500.159 542.112 500.27 546.647C500.346 549.743 501.124 552.722 502.669 555.332C506.391 561.64 511.722 564.841 518.382 564.999C525.346 565.163 532.322 565.04 539.286 565.034C541.773 565.034 544.178 564.49 546.431 563.349C553.102 559.978 557.281 554.384 557.743 545.998C558.316 535.487 550.779 526.06 541.094 525.258C539.356 525.112 537.606 525.047 535.862 525.024C534.329 525.001 532.79 525.012 531.257 525.024H516.152L518.107 525.036H516.509C514.21 525.036 512.091 523.532 511.161 521.162C510.991 520.729 510.88 520.313 510.815 519.927" fill="#018ED5"/>
<path d="M561.588 499.978H572.01C572.256 500.013 572.385 500.147 572.385 500.387V564.631C572.385 564.906 572.262 565.041 572.01 565.041H561.588C561.342 565.041 561.213 564.906 561.213 564.631V500.381C561.278 500.112 561.4 499.972 561.588 499.972V499.978Z" fill="#018ED5"/>
<path d="M598.064 499.978C606.567 499.978 612.893 504.209 617.048 512.665C618.101 515.38 618.628 518.271 618.628 521.32V543.265C618.628 552.529 613.946 559.171 604.589 563.197C601.785 563.87 599.544 564.204 597.865 564.204H582.439C578.617 563.736 576.704 561.787 576.704 558.363V505.812C576.704 502.827 578.284 500.879 581.45 499.972H598.064V499.978ZM588.572 511.857V552.324H596.086C601.522 552.324 604.951 550.247 606.368 546.08C606.766 544.804 606.959 542.727 606.959 539.836V523.93C606.959 517.557 604.981 513.794 601.025 512.653C599.971 512.115 597.993 511.845 595.091 511.845H588.566L588.572 511.857Z" fill="#018ED5"/>
<path d="M666.603 565.076C657.052 528.266 651.733 508.469 651.235 506.982C649.064 502.248 645.962 499.878 641.93 499.878H640.813C638.718 499.878 636.798 500.668 635.043 502.254C633.287 503.84 632.04 505.952 631.397 508.276C629.659 514.555 624.731 533.199 616.626 564.215C616.626 564.484 616.749 564.619 617.001 564.619L627.792 564.795H629.524C629.717 563.981 629.922 563.068 630.139 562.091L637.337 530.589L638.688 525.241L641.374 514.625C641.486 514.625 641.579 514.701 641.609 514.806L648.631 540.661L649.521 544.125C649.585 544.406 649.638 544.693 649.696 544.98C651.639 552.652 643.955 549.568 643.083 549.111L665.912 565.093L666.603 565.058V565.076Z" fill="#018ED5"/>
<path d="M643.089 549.129L643.013 549.076C643.013 549.076 643.025 549.094 643.089 549.129Z" fill="#018ED5"/>
<defs>
<linearGradient id="paint0_linear_0_1" x1="-58.2601" y1="41.606" x2="541.435" y2="641.301" gradientUnits="userSpaceOnUse">
<stop stop-color="white"/>
<stop offset="0.19" stop-color="#DDDDDD"/>
<stop offset="0.3034" stop-color="#CFCFCF"/>
<stop offset="0.4688" stop-color="#E6E6E6"/>
<stop offset="0.6734" stop-color="white"/>
<stop offset="1" stop-color="white"/>
</linearGradient>
<linearGradient id="paint1_linear_0_1" x1="-35.7968" y1="64.0706" x2="520.937" y2="620.804" gradientUnits="userSpaceOnUse">
<stop stop-color="white"/>
<stop offset="0.19" stop-color="#DDDDDD"/>
<stop offset="0.3034" stop-color="#CFCFCF"/>
<stop offset="0.4688" stop-color="#E6E6E6"/>
<stop offset="0.6734" stop-color="white"/>
<stop offset="1" stop-color="white"/>
</linearGradient>
<linearGradient id="paint2_linear_0_1" x1="354.041" y1="303.022" x2="883.592" y2="832.572" gradientUnits="userSpaceOnUse">
<stop stop-color="white"/>
<stop offset="0.19" stop-color="#DDDDDD"/>
<stop offset="0.3034" stop-color="#CFCFCF"/>
<stop offset="0.4688" stop-color="#E6E6E6"/>
<stop offset="0.6734" stop-color="white"/>
<stop offset="1" stop-color="white"/>
</linearGradient>
<linearGradient id="paint3_linear_0_1" x1="358.497" y1="307.478" x2="877.75" y2="826.732" gradientUnits="userSpaceOnUse">
<stop offset="0.0274" stop-color="#020202"/>
<stop offset="1"/>
</linearGradient>
</defs>
</svg>
