<svg width="132" height="133" viewBox="0 0 132 133" fill="none" xmlns="http://www.w3.org/2000/svg">
    <path d="M126.904 10.5192C124.105 10.5192 121.824 8.23846 121.824 5.43931C121.824 2.64017 124.105 0.359375 126.904 0.359375C129.704 0.359375 131.984 2.64017 131.984 5.43931C131.984 8.25574 129.704 10.5192 126.904 10.5192ZM131.984 35.8325C131.984 33.0334 129.704 30.7526 126.904 30.7526C124.105 30.7526 121.824 33.0334 121.824 35.8325C121.824 38.6317 124.105 40.9125 126.904 40.9125C129.704 40.9125 131.984 38.6489 131.984 35.8325ZM131.984 66.2257C131.984 63.4266 129.704 61.1458 126.904 61.1458C124.105 61.1458 121.824 63.4266 121.824 66.2257C121.824 69.0249 124.105 71.3057 126.904 71.3057C129.704 71.3229 131.984 69.0422 131.984 66.2257ZM131.984 96.6362C131.984 93.8371 129.704 91.5563 126.904 91.5563C124.105 91.5563 121.824 93.8371 121.824 96.6362C121.824 99.4354 124.105 101.716 126.904 101.716C129.704 101.716 131.984 99.4354 131.984 96.6362ZM131.984 127.029C131.984 124.23 129.704 121.949 126.904 121.949C124.105 121.949 121.824 124.23 121.824 127.029C121.824 129.829 124.105 132.109 126.904 132.109C129.704 132.109 131.984 129.829 131.984 127.029ZM101.591 5.43931C101.591 2.64017 99.3103 0.359375 96.5112 0.359375C93.712 0.359375 91.4312 2.64017 91.4312 5.43931C91.4312 8.23846 93.712 10.5192 96.5112 10.5192C99.3103 10.5192 101.591 8.25574 101.591 5.43931ZM101.591 35.8325C101.591 33.0334 99.3103 30.7526 96.5112 30.7526C93.712 30.7526 91.4312 33.0334 91.4312 35.8325C91.4312 38.6317 93.712 40.9125 96.5112 40.9125C99.3103 40.9125 101.591 38.6489 101.591 35.8325ZM101.591 66.2257C101.591 63.4266 99.3103 61.1458 96.5112 61.1458C93.712 61.1458 91.4312 63.4266 91.4312 66.2257C91.4312 69.0249 93.712 71.3057 96.5112 71.3057C99.3103 71.3229 101.591 69.0422 101.591 66.2257ZM101.591 96.6362C101.591 93.8371 99.3103 91.5563 96.5112 91.5563C93.712 91.5563 91.4312 93.8371 91.4312 96.6362C91.4312 99.4354 93.712 101.716 96.5112 101.716C99.3103 101.716 101.591 99.4354 101.591 96.6362ZM101.591 127.029C101.591 124.23 99.3103 121.949 96.5112 121.949C93.712 121.949 91.4312 124.23 91.4312 127.029C91.4312 129.829 93.712 132.109 96.5112 132.109C99.3103 132.109 101.591 129.829 101.591 127.029ZM71.1807 5.43931C71.1807 2.64017 68.8999 0.359375 66.1007 0.359375C63.3016 0.359375 61.0208 2.64017 61.0208 5.43931C61.0208 8.23846 63.3016 10.5192 66.1007 10.5192C68.9172 10.5192 71.1807 8.25574 71.1807 5.43931ZM71.1807 35.8325C71.1807 33.0334 68.8999 30.7526 66.1007 30.7526C63.3016 30.7526 61.0208 33.0334 61.0208 35.8325C61.0208 38.6317 63.3016 40.9125 66.1007 40.9125C68.9172 40.9125 71.1807 38.6489 71.1807 35.8325ZM71.1807 66.2257C71.1807 63.4266 68.8999 61.1458 66.1007 61.1458C63.3016 61.1458 61.0208 63.4266 61.0208 66.2257C61.0208 69.0249 63.3016 71.3057 66.1007 71.3057C68.9172 71.3229 71.1807 69.0422 71.1807 66.2257ZM71.1807 96.6362C71.1807 93.8371 68.8999 91.5563 66.1007 91.5563C63.3016 91.5563 61.0208 93.8371 61.0208 96.6362C61.0208 99.4354 63.3016 101.716 66.1007 101.716C68.9172 101.716 71.1807 99.4354 71.1807 96.6362ZM71.1807 127.029C71.1807 124.23 68.8999 121.949 66.1007 121.949C63.3016 121.949 61.0208 124.23 61.0208 127.029C61.0208 129.829 63.3016 132.109 66.1007 132.109C68.9172 132.109 71.1807 129.829 71.1807 127.029ZM40.7874 5.43931C40.7874 2.64017 38.5066 0.359375 35.7075 0.359375C32.9083 0.359375 30.6276 2.64017 30.6276 5.43931C30.6276 8.23846 32.9083 10.5192 35.7075 10.5192C38.5239 10.5192 40.7874 8.25574 40.7874 5.43931ZM40.7874 35.8325C40.7874 33.0334 38.5066 30.7526 35.7075 30.7526C32.9083 30.7526 30.6276 33.0334 30.6276 35.8325C30.6276 38.6317 32.9083 40.9125 35.7075 40.9125C38.5239 40.9125 40.7874 38.6489 40.7874 35.8325ZM40.7874 66.2257C40.7874 63.4266 38.5066 61.1458 35.7075 61.1458C32.9083 61.1458 30.6276 63.4266 30.6276 66.2257C30.6276 69.0249 32.9083 71.3057 35.7075 71.3057C38.5239 71.3229 40.7874 69.0422 40.7874 66.2257ZM40.7874 96.6362C40.7874 93.8371 38.5066 91.5563 35.7075 91.5563C32.9083 91.5563 30.6276 93.8371 30.6276 96.6362C30.6276 99.4354 32.9083 101.716 35.7075 101.716C38.5239 101.716 40.7874 99.4354 40.7874 96.6362ZM40.7874 127.029C40.7874 124.23 38.5066 121.949 35.7075 121.949C32.9083 121.949 30.6276 124.23 30.6276 127.029C30.6276 129.829 32.9083 132.109 35.7075 132.109C38.5239 132.109 40.7874 129.829 40.7874 127.029ZM10.3943 5.43931C10.3943 2.64017 8.11346 0.359375 5.31431 0.359375C2.51517 0.359375 0.234375 2.64017 0.234375 5.43931C0.234375 8.23846 2.51517 10.5192 5.31431 10.5192C8.11346 10.5192 10.3943 8.25574 10.3943 5.43931ZM10.3943 35.8325C10.3943 33.0334 8.11346 30.7526 5.31431 30.7526C2.51517 30.7526 0.234375 33.0334 0.234375 35.8325C0.234375 38.6317 2.51517 40.9125 5.31431 40.9125C8.11346 40.9125 10.3943 38.6489 10.3943 35.8325ZM10.3943 66.2257C10.3943 63.4266 8.11346 61.1458 5.31431 61.1458C2.51517 61.1458 0.234375 63.4266 0.234375 66.2257C0.234375 69.0249 2.51517 71.3057 5.31431 71.3057C8.11346 71.3057 10.3943 69.0422 10.3943 66.2257ZM10.3943 96.6362C10.3943 93.8371 8.11346 91.5563 5.31431 91.5563C2.51517 91.5563 0.234375 93.8371 0.234375 96.6362C0.234375 99.4354 2.51517 101.716 5.31431 101.716C8.11346 101.716 10.3943 99.4354 10.3943 96.6362ZM10.3943 127.029C10.3943 124.23 8.11346 121.949 5.31431 121.949C2.51517 121.949 0.234375 124.23 0.234375 127.029C0.234375 129.829 2.51517 132.109 5.31431 132.109C8.11346 132.109 10.3943 129.829 10.3943 127.029Z" fill="currentColor"/>
</svg>
