<svg width="300" height="41" viewBox="0 0 300 41" fill="none" xmlns="http://www.w3.org/2000/svg">
<path fill-rule="evenodd" clip-rule="evenodd" d="M99.4563 3.59932C66.3739 2.75499 33.1564 5.84061 1.13529 18.7972C0.563975 19.0274 0.326804 19.4803 0.28006 19.5839C0.00652328 20.198 -0.0229587 20.8504 0.0116663 21.3877C0.0324413 21.7139 0.172733 23.0917 0.939676 23.2337C1.46944 23.3296 5.22965 22.658 6.68043 22.4853C13.5102 21.6755 20.3262 20.5204 27.1387 19.1848C42.5848 16.1682 58.0102 13.5585 73.4806 11.1829C82.1663 9.84733 90.8554 8.74199 99.5394 7.83626C120.43 8.3774 141.269 10.4882 161.719 12.6681C153.591 13.7773 146.122 14.9018 139.929 15.6309C129.487 16.8591 119.063 18.3097 108.641 20.221C103.286 21.1996 97.938 22.2628 92.5936 23.5177C92.0015 23.6597 90.6529 23.8055 90.0002 23.9782C89.7232 24.0473 89.5224 24.1586 89.4324 24.2354C88.868 24.719 88.797 25.7091 88.7901 26.208C88.7866 26.5112 88.8334 28.1653 89.7856 28.4877C134.059 43.6165 180.248 26.0161 224.681 40.7228C225.202 40.8955 225.69 40.0972 225.768 38.9381C225.846 37.783 225.486 36.7007 224.963 36.528C183.115 22.6772 139.708 37.4874 97.8064 26.6148C101.468 25.8281 105.131 25.1181 108.798 24.4465C119.201 22.539 129.606 21.0922 140.032 19.8641C150.523 18.6321 164.705 16.2258 179.551 14.7099C192.291 16.2834 205.024 18.0488 217.766 19.5455C223.142 20.1749 228.519 20.6969 233.893 21.3378C236.102 21.5988 241.786 22.6926 242.61 22.2857C243.25 21.9672 243.404 20.9502 243.442 20.4398C243.482 19.8871 243.458 19.2001 243.167 18.5439C243.077 18.3366 242.807 17.9068 242.253 17.5537C227.269 8.03969 202.734 8.18936 179.755 10.4882C174.812 9.87417 169.87 9.29082 164.925 8.76504C153.606 7.55612 142.163 6.34334 130.653 5.38772C163.088 3.6108 195.539 4.12125 227.998 5.40693C241.626 5.94806 278.362 9.21024 292.83 12.0925C292.653 12.4954 292.549 13.0558 292.561 13.666C292.586 14.8327 293.034 15.7384 293.562 15.6847C296.547 15.3776 298.273 14.9862 298.957 14.5832C299.382 14.3338 299.614 13.9346 299.722 13.6737C299.985 13.0442 300.033 12.3688 299.981 11.7278C299.949 11.3287 299.867 10.8912 299.68 10.4882C299.556 10.2119 299.251 9.78976 298.732 9.50192C293.044 6.3664 244.26 1.81085 228.033 1.16609C185.151 -0.530234 142.287 -0.875606 99.4563 3.59932ZM230.654 16.717C222.274 14.1956 212.451 13.309 202.204 13.3666C207.424 14.0382 212.645 14.6945 217.868 15.3086C222.129 15.8113 226.391 16.2411 230.654 16.717ZM59.9354 9.07592C48.942 10.872 37.9606 12.814 26.9707 14.9632C25.7017 15.2088 24.4344 15.4506 23.1654 15.6885C35.3188 12.388 47.5985 10.2887 59.9354 9.07592Z" fill="currentColor"/>
</svg>
