<svg width="46" height="46" viewBox="0 0 46 46" fill="none" xmlns="http://www.w3.org/2000/svg">
<path d="M23 40.25C20.6259 40.25 18.3898 39.7964 16.2917 38.8892C14.1936 37.9807 12.3663 36.7476 10.81 35.19C9.25368 33.6324 8.02062 31.8052 7.11084 29.7083C6.20107 27.6115 5.74746 25.3754 5.75001 23C5.75001 20.6182 6.20362 18.3802 7.11084 16.2859C8.01934 14.1904 9.2524 12.3651 10.81 10.81C12.3676 9.25494 14.1948 8.02189 16.2917 7.11083C18.3898 6.20361 20.6259 5.75 23 5.75C25.3818 5.75 27.6198 6.20361 29.7141 7.11083C31.8097 8.01933 33.6356 9.25239 35.1919 10.81C36.7483 12.3676 37.9807 14.1929 38.8892 16.2859C39.7964 18.3815 40.25 20.6195 40.25 23C40.25 25.3741 39.7964 27.6102 38.8892 29.7083C37.9807 31.8064 36.7476 33.6337 35.19 35.19C33.6324 36.7463 31.8071 37.9794 29.7141 38.8892C27.6211 39.7989 25.3831 40.2526 23 40.25ZM23 38.3487C24.1245 36.9035 25.0521 35.4845 25.783 34.0918C26.5126 32.699 27.1061 31.1401 27.5636 29.4151H18.4364C18.9437 31.2372 19.5494 32.8446 20.2534 34.2374C20.9588 35.6302 21.8743 37.0006 23 38.3487ZM20.5601 38.0612C19.6657 37.007 18.8492 35.7037 18.1106 34.1512C17.372 32.5999 16.8226 31.0206 16.4623 29.4132H9.11184C10.2107 31.7962 11.7677 33.7512 13.7828 35.2782C15.7991 36.8038 18.0582 37.7315 20.5601 38.0612ZM25.4399 38.0612C27.9418 37.7315 30.2009 36.8038 32.2173 35.2782C34.2323 33.7512 35.7893 31.7962 36.8882 29.4132H29.5397C29.0541 31.0449 28.4427 32.6364 27.7054 34.1876C26.9669 35.7401 26.2117 37.0326 25.4399 38.0612ZM8.32984 27.4984H16.0636C15.9179 26.7113 15.8157 25.9446 15.7569 25.1984C15.6956 24.4535 15.6649 23.7207 15.6649 23C15.6649 22.2793 15.695 21.5465 15.755 20.8016C15.8151 20.0566 15.9173 19.29 16.0617 18.5016H8.33176C8.12348 19.166 7.96057 19.8899 7.84301 20.6732C7.72546 21.4552 7.66668 22.2308 7.66668 23C7.66668 23.7692 7.72482 24.5455 7.84109 25.3288C7.95737 26.112 8.12029 26.8346 8.32984 27.4965M17.9803 27.4965H28.0198C28.1654 26.7107 28.2677 25.9568 28.3264 25.2348C28.3878 24.5142 28.4184 23.7692 28.4184 23C28.4184 22.2308 28.3884 21.4858 28.3283 20.7652C28.2683 20.0445 28.1661 19.2906 28.0217 18.5035H17.9783C17.834 19.2893 17.7317 20.0432 17.6717 20.7652C17.6116 21.4858 17.5816 22.2308 17.5816 23C17.5816 23.7692 17.6116 24.5142 17.6717 25.2348C17.7317 25.9555 17.8359 26.7094 17.9803 27.4965ZM29.9383 27.4965H37.6702C37.8785 26.8333 38.0414 26.1108 38.1589 25.3288C38.2752 24.5455 38.3333 23.7692 38.3333 23C38.3333 22.2308 38.2752 21.4545 38.1589 20.6713C38.0427 19.888 37.8797 19.1654 37.6702 18.5035H29.9364C30.0821 19.2893 30.1843 20.0554 30.2431 20.8016C30.3044 21.5478 30.3351 22.2806 30.3351 23C30.3351 23.7194 30.3051 24.4522 30.245 25.1984C30.185 25.9446 30.0827 26.7113 29.9383 27.4984M29.5397 16.5868H36.8882C35.765 14.1539 34.2266 12.1989 32.2728 10.7218C30.3191 9.24472 28.0415 8.30492 25.4399 7.90242C26.3344 9.07925 27.1387 10.4254 27.853 11.9408C28.5673 13.455 29.1295 15.0037 29.5397 16.5868ZM18.4364 16.5868H27.5636C27.0576 14.7877 26.4334 13.1611 25.691 11.707C24.9486 10.2529 24.0516 8.901 23 7.65133C21.9484 8.89972 21.0514 10.2516 20.309 11.707C19.5666 13.1624 18.9412 14.789 18.4364 16.5868ZM9.11376 16.5868H16.4623C16.8724 15.0049 17.4347 13.4563 18.1489 11.9408C18.8632 10.4254 19.6676 9.07925 20.562 7.90242C17.9375 8.30619 15.6541 9.25175 13.7118 10.7391C11.7696 12.229 10.2363 14.1776 9.11184 16.5849" fill="currentColor"/>
</svg>
