<svg width="365" height="779" viewBox="0 0 365 779" fill="none" xmlns="http://www.w3.org/2000/svg">
    <path d="M382.648 593.562C355.85 592.65 329.494 586.468 305.086 575.37C280.677 564.272 258.693 548.475 240.389 528.881C222.086 509.287 207.821 486.279 198.408 461.172C188.996 436.065 184.622 409.35 185.534 382.552C186.447 355.754 192.628 329.399 203.726 304.99C214.825 280.581 230.622 258.597 250.216 240.294C269.81 221.99 292.817 207.725 317.924 198.313C343.032 188.901 369.747 184.526 396.544 185.438L393.525 274.115C378.372 273.599 363.267 276.073 349.07 281.395C334.873 286.717 321.864 294.783 310.785 305.133C299.705 315.482 290.773 327.913 284.498 341.715C278.222 355.516 274.727 370.419 274.211 385.571C273.695 400.724 276.169 415.83 281.491 430.026C286.813 444.223 294.879 457.232 305.228 468.312C315.578 479.391 328.009 488.323 341.81 494.599C355.612 500.874 370.515 504.37 385.667 504.885L382.648 593.562Z"  class="svg-gradient"/>
    <defs>
        <linearGradient id="gradient" x1="396.544" y1="185.438" x2="382.648" y2="593.562" gradientUnits="userSpaceOnUse">
            <stop offset="0.0961538" stop-color="#014a6f"/>
            <stop offset=".5" stop-color="#018ed5"/>
            <stop stop-color="#014a6f" offset="1"/>
        </linearGradient>
        <linearGradient id="gradient-dark" x1="396.544" y1="185.438" x2="382.648" y2="593.562" gradientUnits="userSpaceOnUse">
            <stop offset="0.0961538" stop-color="#53A29D"/>
            <stop offset=".5" stop-color="#66fcf1"/>
            <stop offset="1" stop-color="#53A29D"/>
        </linearGradient>
    </defs>
</svg>
