<svg width="204" height="414" viewBox="0 0 204 414" fill="none" xmlns="http://www.w3.org/2000/svg">
<path d="M2.42048 0.132333C29.0017 0.0141409 55.3 5.24711 79.8137 15.5324C104.328 25.8177 126.577 40.954 145.291 60.077C164.005 79.2 178.818 101.935 188.884 126.985C198.95 152.034 204.072 178.907 203.956 206.069C203.841 233.231 198.492 260.151 188.213 285.291C177.934 310.431 162.928 333.298 144.051 352.589C125.174 371.879 102.795 387.213 78.1934 397.717C53.5915 408.221 27.2479 413.688 0.666668 413.806L1.04773 323.923C16.0779 323.857 30.9736 320.765 44.8846 314.826C58.7956 308.887 71.4492 300.216 82.1232 289.308C92.7971 278.401 101.282 265.471 107.094 251.255C112.906 237.04 115.931 221.819 115.996 206.46C116.061 191.102 113.165 175.907 107.474 161.743C101.782 147.579 93.4063 134.723 82.8244 123.91C72.2426 113.097 59.6619 104.539 45.8008 98.7229C31.9397 92.9071 17.0695 89.9482 2.03941 90.015L2.42048 0.132333Z" class="svg-gradient"/>
<defs>
        <linearGradient id="gradient" x1="396.544" y1="185.438" x2="382.648" y2="593.562" gradientUnits="userSpaceOnUse">
            <stop offset="0.0961538" stop-color="#014a6f"/>
            <stop offset=".5" stop-color="#018ed5"/>
            <stop stop-color="#014a6f" offset="1"/>
        </linearGradient>
        <linearGradient id="gradient-dark" x1="396.544" y1="185.438" x2="382.648" y2="593.562" gradientUnits="userSpaceOnUse">
            <stop offset="0.0961538" stop-color="#53A29D"/>
            <stop offset=".5" stop-color="#66fcf1"/>
            <stop offset="1" stop-color="#53A29D"/>
        </linearGradient>
</defs>
</svg>
