<svg width="302" height="36" viewBox="0 0 302 36" fill="none" xmlns="http://www.w3.org/2000/svg">
<path fill-rule="evenodd" clip-rule="evenodd" d="M112.499 8.8448C110.636 9.10439 108.782 9.38873 106.936 9.6996C106.265 9.81255 105.815 10.4438 105.93 11.1085L105.937 11.1348C96.0972 10.6077 86.2533 10.1736 76.4073 9.83525C62.1841 9.34696 47.8477 9.18574 33.6171 9.50469C19.5539 9.81977 15.6703 9.88194 3.49727 11.2122C3.14915 11.2502 2.48623 11.1994 2.12255 11.273C1.77672 11.3428 1.52245 11.4892 1.35533 11.6383C1.14141 11.8271 1.01023 12.0527 0.943739 12.3051C0.872828 12.5802 0.86445 12.922 1.07946 13.3195C1.68641 14.4358 2.76742 14.807 4.12646 14.6768C5.29582 14.5646 6.74104 13.9763 7.84141 13.9753C26.1594 13.9597 44.4749 13.801 62.7929 13.8117C90.8357 13.8283 118.722 14.8734 146.587 16.29C175.823 18.6132 204.99 21.7295 234.056 25.5752C252.985 28.079 271.836 31.142 290.717 33.9905C290.697 34.0723 290.689 34.1585 290.687 34.2469C290.681 34.9211 291.231 35.4741 291.912 35.4812C292.602 35.4883 298.742 35.7488 299.891 35.5528C300.55 35.4405 300.83 35.0627 300.926 34.8992C301.186 34.4507 301.234 33.9467 300.76 33.4292C300.666 33.3296 300.49 33.1637 300.152 33.0419C299.864 32.9356 299.143 32.776 297.826 32.5828C276.674 29.4631 255.575 25.9587 234.377 23.1528C224.913 21.902 215.439 20.7263 205.951 19.6325C218.88 20.3794 231.815 21.1042 244.778 21.7428C245.336 21.772 245.612 21.7014 245.664 21.6838C246.395 21.43 246.484 20.8775 246.492 20.5614C246.496 20.4487 246.465 19.5137 245.432 19.3096C244.827 19.1898 240.429 18.7294 238.739 18.5204C230.619 17.5093 230.804 17.5912 222.493 16.6263C204.216 14.5069 185.946 12.6653 167.62 10.9254C160.313 10.232 153.005 9.57303 145.691 8.95187C166.913 8.6639 188.441 10.2581 208.978 11.4891C219.572 12.1244 230.164 12.8251 240.741 13.7084C245.478 14.1041 250.208 14.5785 254.943 14.9977C256.414 15.1278 257.879 15.2917 259.348 15.4304C259.522 15.4466 261.803 15.6265 262.178 15.6449C263.16 15.6931 263.447 14.8442 263.458 14.8102C263.511 14.6504 263.754 13.4983 262.549 13.2327C245.127 9.39459 226.632 8.69855 208.882 7.0198C177.816 4.0815 146.605 2.0361 115.421 0.794658C101.629 0.24543 87.8484 0.159069 74.0433 0.0665041C67.1486 0.0203373 60.2338 -0.00087192 53.3604 0.590017C52.6708 0.649459 51.1173 0.650853 50.3586 0.7255C49.9725 0.763703 49.6937 0.84729 49.5643 0.908653C48.9979 1.17463 48.8581 1.61485 48.8274 1.92826C48.8055 2.16322 48.7982 2.99544 49.9036 3.32797C65.6994 8.08407 83.6717 7.01011 99.9783 8.02455C104.153 8.28419 108.325 8.55775 112.499 8.8448ZM126.087 9.82648C121.202 10.2164 116.355 10.7468 111.564 11.4469C123.308 12.1186 135.043 12.9224 146.774 13.8549C166.165 14.8406 185.543 16.0054 204.948 17.1278C192.444 15.7857 179.929 14.5475 167.39 13.3572C153.636 12.0513 139.867 10.8684 126.087 9.82648ZM193.635 8.10132C167.579 5.87923 141.444 4.2749 115.33 3.23534C101.562 2.68723 87.8106 2.60155 74.0323 2.50922C68.6107 2.47288 63.1734 2.45001 57.7569 2.73662C71.5132 5.40871 86.4172 4.73366 100.128 5.58677C108.787 6.12549 117.446 6.72391 126.098 7.37779C148.337 5.62676 171.362 6.75178 193.635 8.10132Z" fill="currentColor"/>
</svg>
