<?xml version="1.0" encoding="UTF-8"?>
<svg id="Layer_1" data-name="Layer 1" xmlns="http://www.w3.org/2000/svg" viewBox="0 0 100.93 113.43">
  <path d="M19.67,35.16c-.33-2.26,.33-4.89,1.28-6.25,1.48-2.13,3.79-3.84,6.19-3.84h19.74s.07,0,.1,0c0,0,0,0,0,0h14.68v-.03c1.62,0,3.25,.03,4.87,.06,11.7,.24,21.07,6.92,27.64,17.96,1.14,1.91,2.01,4.05,2.77,6.2,.73,2.06,1.14,4.27,1.69,6.41,.33-.05,.24-.04,.57-.09,.06-7.66,.3-15.33,.11-22.99-.12-5.13-1.36-10.09-3.85-14.47C89.09,6.88,79.77,1.37,68.06,1.15c-11.51-.22-23.02-.18-34.53,.04-3.54,.07-7.18,.68-10.59,1.78C10.69,6.91,1.49,20.02,1.02,33.72c-.61,17.74,11.99,33.91,28.07,35.2,9.2,.74,18.48,.33,27.72,.42,.24,0,.47-.2,.88-.38v-9.02c9.49,6.15,18.68,12.11,28.12,18.23-9.45,6.13-18.64,12.09-28.19,18.29,0-2.8-.1-5.04,.03-7.27,.11-1.82-.5-2.27-2.04-2.26-7.52,.07-15.04,.22-22.55-.04-9.04-.32-16.76-4.29-22.99-11.75-4.13-4.94-6.58-10.86-7.98-17.52-.39,7.79-.61,15.55-.42,23.3,.13,5.29,1.46,10.38,4.1,14.84,6.36,10.78,15.47,16.25,26.85,16.52,11.9,.28,23.82,.07,35.72,.06,4.25,0,8.36-.93,12.21-2.88,11.4-5.76,18.54-15.32,19.33-29.65,.98-17.96-11.9-34.07-28.45-35.44-2.97-.25-5.96-.36-8.94-.4h0c-2.62-.04-5.25-.02-7.87,0H28.81l3.34,.02h-2.73c-3.93,0-7.55-2.57-9.14-6.62-.29-.74-.48-1.45-.59-2.11" style="fill: #018ED5; stroke: none; stroke-miterlimit: 10; stroke-width: 2px;"/>
</svg>