<svg width="137" height="54" viewBox="0 0 137 54" fill="none" xmlns="http://www.w3.org/2000/svg">
<path d="M8.97841 16.4265C8.81973 15.3398 9.1371 14.0751 9.59392 13.4211C10.3056 12.3969 11.4164 11.5746 12.5705 11.5746H22.0628C22.0628 11.5746 22.0965 11.5746 22.1109 11.5746H29.1701V11.5601C29.9491 11.5601 30.7329 11.5746 31.5119 11.589C37.1381 11.7044 41.6438 14.9166 44.8031 20.2254C45.3513 21.1438 45.7696 22.1729 46.1351 23.2068C46.4861 24.1974 46.6833 25.2601 46.9478 26.2891C47.1065 26.2651 47.0632 26.2699 47.2219 26.2459C47.2507 22.5624 47.3661 18.8741 47.2748 15.1907C47.2171 12.7238 46.6208 10.3387 45.4234 8.23253C42.3603 2.82757 37.8786 0.177987 32.2476 0.0721958C26.7128 -0.0335953 21.178 -0.0143605 15.6432 0.0914305C13.941 0.125091 12.1906 0.418421 10.5509 0.947376C4.66021 2.842 0.236225 9.14618 0.0102172 15.7341C-0.283113 24.2647 5.77583 32.0403 13.5082 32.6606C17.9322 33.0165 22.3946 32.8193 26.8379 32.8626C26.9533 32.8626 27.0639 32.7664 27.261 32.6799V28.3424C31.8245 31.2998 36.2436 34.1658 40.783 37.1087C36.2388 40.0564 31.8197 42.9224 27.2274 45.9038C27.2274 44.5573 27.1793 43.4802 27.2418 42.4078C27.2947 41.5327 27.0014 41.3163 26.2608 41.3211C22.6447 41.3547 19.0286 41.4269 15.4172 41.3018C11.0702 41.148 7.35789 39.2389 4.36208 35.6516C2.37609 33.2762 1.19796 30.4294 0.524746 27.2268C0.337208 30.9728 0.231417 34.7043 0.322782 38.4311C0.385295 40.9749 1.02485 43.4225 2.29434 45.5672C5.35266 50.7509 9.73337 53.3813 15.2057 53.5111C20.928 53.6457 26.6599 53.5448 32.3823 53.5399C34.426 53.5399 36.4023 53.0927 38.2537 52.155C43.7356 49.3852 47.169 44.7881 47.5489 37.8973C48.0201 29.2609 41.8265 21.5141 33.8682 20.8553C32.44 20.7351 31.0022 20.6822 29.5692 20.663C28.3093 20.6437 27.0446 20.6534 25.7848 20.663H13.3735L14.9797 20.6726H13.6669C11.7771 20.6726 10.0363 19.4368 9.27174 17.4892C9.13229 17.1334 9.04093 16.792 8.98803 16.4746" fill="currentColor"/>
<path d="M50.7081 0.0817492H59.2724C59.4744 0.110601 59.5802 0.221201 59.5802 0.418357V53.2081C59.5802 53.4341 59.4792 53.5447 59.2724 53.5447H50.7081C50.5062 53.5447 50.4004 53.4341 50.4004 53.2081V0.413548C50.4533 0.192349 50.5543 0.0769405 50.7081 0.0769405V0.0817492Z" fill="currentColor"/>
<path d="M80.6806 0.0817492C87.6676 0.0817492 92.8658 3.55843 96.28 10.507C97.1455 12.7382 97.5783 15.1137 97.5783 17.619V35.6516C97.5783 43.2637 93.7314 48.7216 86.0423 52.03C83.7389 52.583 81.8972 52.857 80.5171 52.857H67.8414C64.7013 52.4724 63.1289 50.8711 63.1289 48.058V4.87601C63.1289 2.42358 64.4273 0.822286 67.0287 0.0769405H80.6806V0.0817492ZM72.8809 9.84338V43.0954H79.0553C83.5225 43.0954 86.3404 41.3883 87.5041 37.9646C87.8311 36.9163 87.9898 35.2092 87.9898 32.8337V19.7637C87.9898 14.527 86.3645 11.4351 83.1138 10.4974C82.2482 10.055 80.6229 9.83376 78.2378 9.83376H72.8761L72.8809 9.84338Z" fill="currentColor"/>
<path d="M137 53.5736C129.152 23.3269 124.781 7.05915 124.372 5.83774C122.588 1.94752 120.04 0 116.727 0H115.808C114.087 0 112.509 0.649172 111.067 1.95233C109.624 3.25548 108.6 4.99141 108.071 6.90046C106.643 12.0602 102.594 27.3806 95.9338 52.8667C95.9338 53.0879 96.0348 53.1985 96.2416 53.1985L105.109 53.3427H106.532C106.691 52.6743 106.859 51.9242 107.037 51.1211L112.952 25.236L114.063 20.8408L116.27 12.1179C116.361 12.1179 116.438 12.1804 116.462 12.267L122.233 33.5117L122.963 36.3585C123.016 36.5893 123.06 36.8249 123.108 37.0605C124.704 43.3647 118.39 40.8305 117.674 40.4555L136.433 53.588L137 53.5591V53.5736Z" fill="currentColor"/>
<path d="M117.679 40.4702L117.616 40.4266C117.616 40.4266 117.626 40.4411 117.679 40.4702Z" fill="currentColor"/>
</svg>
