<svg width="133" height="133" viewBox="0 0 133 133" fill="none" xmlns="http://www.w3.org/2000/svg">
<path d="M127.486 10.6433C124.687 10.6433 122.407 8.36248 122.407 5.56334C122.407 2.76419 124.687 0.483398 127.486 0.483398C130.286 0.483398 132.566 2.76419 132.566 5.56334C132.566 8.37976 130.286 10.6433 127.486 10.6433ZM132.566 35.9565C132.566 33.1574 130.286 30.8766 127.486 30.8766C124.687 30.8766 122.407 33.1574 122.407 35.9565C122.407 38.7557 124.687 41.0365 127.486 41.0365C130.286 41.0365 132.566 38.773 132.566 35.9565ZM132.566 66.3498C132.566 63.5506 130.286 61.2698 127.486 61.2698C124.687 61.2698 122.407 63.5506 122.407 66.3498C122.407 69.1489 124.687 71.4297 127.486 71.4297C130.286 71.447 132.566 69.1662 132.566 66.3498ZM132.566 96.7602C132.566 93.9611 130.286 91.6803 127.486 91.6803C124.687 91.6803 122.407 93.9611 122.407 96.7602C122.407 99.5594 124.687 101.84 127.486 101.84C130.286 101.84 132.566 99.5594 132.566 96.7602ZM132.566 127.153C132.566 124.354 130.286 122.074 127.486 122.074C124.687 122.074 122.407 124.354 122.407 127.153C122.407 129.953 124.687 132.233 127.486 132.233C130.286 132.233 132.566 129.953 132.566 127.153ZM102.173 5.56334C102.173 2.76419 99.8923 0.483398 97.0932 0.483398C94.2941 0.483398 92.0133 2.76419 92.0133 5.56334C92.0133 8.36248 94.2941 10.6433 97.0932 10.6433C99.8923 10.6433 102.173 8.37976 102.173 5.56334ZM102.173 35.9565C102.173 33.1574 99.8923 30.8766 97.0932 30.8766C94.2941 30.8766 92.0133 33.1574 92.0133 35.9565C92.0133 38.7557 94.2941 41.0365 97.0932 41.0365C99.8923 41.0365 102.173 38.773 102.173 35.9565ZM102.173 66.3498C102.173 63.5506 99.8923 61.2698 97.0932 61.2698C94.2941 61.2698 92.0133 63.5506 92.0133 66.3498C92.0133 69.1489 94.2941 71.4297 97.0932 71.4297C99.8923 71.447 102.173 69.1662 102.173 66.3498ZM102.173 96.7602C102.173 93.9611 99.8923 91.6803 97.0932 91.6803C94.2941 91.6803 92.0133 93.9611 92.0133 96.7602C92.0133 99.5594 94.2941 101.84 97.0932 101.84C99.8923 101.84 102.173 99.5594 102.173 96.7602ZM102.173 127.153C102.173 124.354 99.8923 122.074 97.0932 122.074C94.2941 122.074 92.0133 124.354 92.0133 127.153C92.0133 129.953 94.2941 132.233 97.0932 132.233C99.8923 132.233 102.173 129.953 102.173 127.153ZM71.7627 5.56334C71.7627 2.76419 69.4819 0.483398 66.6828 0.483398C63.8836 0.483398 61.6028 2.76419 61.6028 5.56334C61.6028 8.36248 63.8836 10.6433 66.6828 10.6433C69.4992 10.6433 71.7627 8.37976 71.7627 5.56334ZM71.7627 35.9565C71.7627 33.1574 69.4819 30.8766 66.6828 30.8766C63.8836 30.8766 61.6028 33.1574 61.6028 35.9565C61.6028 38.7557 63.8836 41.0365 66.6828 41.0365C69.4992 41.0365 71.7627 38.773 71.7627 35.9565ZM71.7627 66.3498C71.7627 63.5506 69.4819 61.2698 66.6828 61.2698C63.8836 61.2698 61.6028 63.5506 61.6028 66.3498C61.6028 69.1489 63.8836 71.4297 66.6828 71.4297C69.4992 71.447 71.7627 69.1662 71.7627 66.3498ZM71.7627 96.7602C71.7627 93.9611 69.4819 91.6803 66.6828 91.6803C63.8836 91.6803 61.6028 93.9611 61.6028 96.7602C61.6028 99.5594 63.8836 101.84 66.6828 101.84C69.4992 101.84 71.7627 99.5594 71.7627 96.7602ZM71.7627 127.153C71.7627 124.354 69.4819 122.074 66.6828 122.074C63.8836 122.074 61.6028 124.354 61.6028 127.153C61.6028 129.953 63.8836 132.233 66.6828 132.233C69.4992 132.233 71.7627 129.953 71.7627 127.153ZM41.3694 5.56334C41.3694 2.76419 39.0886 0.483398 36.2895 0.483398C33.4903 0.483398 31.2097 2.76419 31.2097 5.56334C31.2097 8.36248 33.4903 10.6433 36.2895 10.6433C39.1059 10.6433 41.3694 8.37976 41.3694 5.56334ZM41.3694 35.9565C41.3694 33.1574 39.0886 30.8766 36.2895 30.8766C33.4903 30.8766 31.2097 33.1574 31.2097 35.9565C31.2097 38.7557 33.4903 41.0365 36.2895 41.0365C39.1059 41.0365 41.3694 38.773 41.3694 35.9565ZM41.3694 66.3498C41.3694 63.5506 39.0886 61.2698 36.2895 61.2698C33.4903 61.2698 31.2097 63.5506 31.2097 66.3498C31.2097 69.1489 33.4903 71.4297 36.2895 71.4297C39.1059 71.447 41.3694 69.1662 41.3694 66.3498ZM41.3694 96.7602C41.3694 93.9611 39.0886 91.6803 36.2895 91.6803C33.4903 91.6803 31.2097 93.9611 31.2097 96.7602C31.2097 99.5594 33.4903 101.84 36.2895 101.84C39.1059 101.84 41.3694 99.5594 41.3694 96.7602ZM41.3694 127.153C41.3694 124.354 39.0886 122.074 36.2895 122.074C33.4903 122.074 31.2097 124.354 31.2097 127.153C31.2097 129.953 33.4903 132.233 36.2895 132.233C39.1059 132.233 41.3694 129.953 41.3694 127.153ZM10.9763 5.56334C10.9763 2.76419 8.69549 0.483398 5.89634 0.483398C3.0972 0.483398 0.816406 2.76419 0.816406 5.56334C0.816406 8.36248 3.0972 10.6433 5.89634 10.6433C8.69549 10.6433 10.9763 8.37976 10.9763 5.56334ZM10.9763 35.9565C10.9763 33.1574 8.69549 30.8766 5.89634 30.8766C3.0972 30.8766 0.816406 33.1574 0.816406 35.9565C0.816406 38.7557 3.0972 41.0365 5.89634 41.0365C8.69549 41.0365 10.9763 38.773 10.9763 35.9565ZM10.9763 66.3498C10.9763 63.5506 8.69549 61.2698 5.89634 61.2698C3.0972 61.2698 0.816406 63.5506 0.816406 66.3498C0.816406 69.1489 3.0972 71.4297 5.89634 71.4297C8.69549 71.4297 10.9763 69.1662 10.9763 66.3498ZM10.9763 96.7602C10.9763 93.9611 8.69549 91.6803 5.89634 91.6803C3.0972 91.6803 0.816406 93.9611 0.816406 96.7602C0.816406 99.5594 3.0972 101.84 5.89634 101.84C8.69549 101.84 10.9763 99.5594 10.9763 96.7602ZM10.9763 127.153C10.9763 124.354 8.69549 122.074 5.89634 122.074C3.0972 122.074 0.816406 124.354 0.816406 127.153C0.816406 129.953 3.0972 132.233 5.89634 132.233C8.69549 132.233 10.9763 129.953 10.9763 127.153Z" fill="currentColor"/>
</svg>
