<svg width="289" height="100" viewBox="0 0 289 100" fill="none" xmlns="http://www.w3.org/2000/svg">
<rect x="1.72475" y="0.868915" width="285.589" height="97.8978" rx="15.3508" stroke="white" stroke-width="1.73783"/>
<path d="M63.1939 41.4341C62.8843 41.6713 57.4189 44.713 57.4189 51.4762C57.4189 59.299 64.3734 62.0665 64.5816 62.135C64.5496 62.3037 63.4768 65.9251 60.9148 69.6151C58.6305 72.8623 56.2447 76.1042 52.6153 76.1042C48.9859 76.1042 48.0519 74.022 43.8621 74.022C39.7791 74.022 38.3273 76.1728 35.0075 76.1728C31.6877 76.1728 29.3713 73.1681 26.708 69.4781C23.623 65.145 21.1305 58.4134 21.1305 52.0244C21.1305 41.7768 27.8769 36.3419 34.5165 36.3419C38.0444 36.3419 40.9853 38.6297 43.2003 38.6297C45.3085 38.6297 48.5963 36.2049 52.61 36.2049C54.1311 36.2049 59.5965 36.3419 63.1939 41.4341ZM50.7046 31.8665C52.3645 29.9214 53.5387 27.2224 53.5387 24.5234C53.5387 24.1492 53.5066 23.7696 53.4373 23.4639C50.7366 23.564 47.5235 25.2403 45.5861 27.4596C44.0649 29.1675 42.6452 31.8665 42.6452 34.6024C42.6452 35.0135 42.7146 35.4247 42.7466 35.5565C42.9174 35.5881 43.195 35.625 43.4725 35.625C45.8956 35.625 48.9432 34.0225 50.7046 31.8665Z" fill="white"/>
<path d="M81.2067 34.4814C81.0666 34.4814 80.9475 34.4324 80.8495 34.3344C80.7514 34.2363 80.7024 34.1173 80.7024 33.9772V20.299C80.7024 20.1449 80.7514 20.0188 80.8495 19.9208C80.9475 19.8227 81.0666 19.7737 81.2067 19.7737H86.3334C87.7481 19.7737 88.9107 19.9908 89.8212 20.4251C90.7457 20.8593 91.439 21.5036 91.9013 22.3581C92.3775 23.2125 92.6227 24.2561 92.6367 25.4887C92.6647 26.105 92.6787 26.6513 92.6787 27.1276C92.6787 27.6038 92.6647 28.1431 92.6367 28.7454C92.6087 30.0481 92.3705 31.1267 91.9223 31.9811C91.4741 32.8216 90.7947 33.4519 89.8842 33.8721C88.9878 34.2783 87.8392 34.4814 86.4384 34.4814H81.2067ZM83.6229 32.0652H86.3334C87.1178 32.0652 87.7551 31.9531 88.2454 31.729C88.7356 31.5049 89.0928 31.1477 89.3169 30.6574C89.5551 30.1532 89.6811 29.4948 89.6951 28.6824C89.7091 28.2622 89.7161 27.898 89.7161 27.5898C89.7301 27.2677 89.7301 26.9525 89.7161 26.6443C89.7161 26.3222 89.7091 25.958 89.6951 25.5518C89.6671 24.4031 89.38 23.5557 88.8337 23.0094C88.2874 22.4631 87.4189 22.19 86.2283 22.19H83.6229V32.0652ZM100.056 34.6916C98.9356 34.6916 97.9901 34.4955 97.2197 34.1032C96.4633 33.711 95.882 33.1577 95.4758 32.4434C95.0836 31.729 94.8595 30.8956 94.8034 29.9431C94.7894 29.6909 94.7824 29.3828 94.7824 29.0186C94.7824 28.6544 94.7894 28.3462 94.8034 28.0941C94.8595 27.1276 95.0906 26.2941 95.4968 25.5938C95.917 24.8794 96.5053 24.3261 97.2617 23.9339C98.0321 23.5417 98.9636 23.3456 100.056 23.3456C101.149 23.3456 102.073 23.5417 102.83 23.9339C103.6 24.3261 104.188 24.8794 104.595 25.5938C105.015 26.2941 105.253 27.1276 105.309 28.0941C105.323 28.3462 105.33 28.6544 105.33 29.0186C105.33 29.3828 105.323 29.6909 105.309 29.9431C105.253 30.8956 105.022 31.729 104.616 32.4434C104.223 33.1577 103.642 33.711 102.872 34.1032C102.115 34.4955 101.177 34.6916 100.056 34.6916ZM100.056 32.6115C100.799 32.6115 101.373 32.3803 101.779 31.9181C102.185 31.4418 102.409 30.7485 102.451 29.838C102.465 29.6279 102.472 29.3548 102.472 29.0186C102.472 28.6824 102.465 28.4093 102.451 28.1991C102.409 27.3027 102.185 26.6163 101.779 26.1401C101.373 25.6638 100.799 25.4257 100.056 25.4257C99.3138 25.4257 98.7395 25.6638 98.3333 26.1401C97.9271 26.6163 97.703 27.3027 97.6609 28.1991C97.6469 28.4093 97.6399 28.6824 97.6399 29.0186C97.6399 29.3548 97.6469 29.6279 97.6609 29.838C97.703 30.7485 97.9271 31.4418 98.3333 31.9181C98.7395 32.3803 99.3138 32.6115 100.056 32.6115ZM110.334 34.4814C110.138 34.4814 109.991 34.4324 109.892 34.3344C109.794 34.2363 109.71 34.1103 109.64 33.9562L106.636 24.207C106.622 24.137 106.615 24.074 106.615 24.0179C106.615 23.8919 106.657 23.7868 106.741 23.7028C106.839 23.6047 106.944 23.5557 107.056 23.5557H108.611C108.779 23.5557 108.912 23.6047 109.01 23.7028C109.108 23.7868 109.164 23.8709 109.178 23.9549L111.237 30.9096L113.422 24.0179C113.45 23.9199 113.513 23.8218 113.611 23.7238C113.709 23.6117 113.857 23.5557 114.053 23.5557H115.103C115.299 23.5557 115.446 23.6117 115.544 23.7238C115.643 23.8218 115.706 23.9199 115.734 24.0179L117.919 30.9096L119.978 23.9549C119.992 23.8709 120.041 23.7868 120.125 23.7028C120.223 23.6047 120.356 23.5557 120.524 23.5557H122.079C122.205 23.5557 122.31 23.6047 122.394 23.7028C122.492 23.7868 122.541 23.8919 122.541 24.0179C122.541 24.074 122.527 24.137 122.499 24.207L119.495 33.9562C119.453 34.1103 119.375 34.2363 119.263 34.3344C119.165 34.4324 119.018 34.4814 118.822 34.4814H117.456C117.26 34.4814 117.106 34.4324 116.994 34.3344C116.882 34.2363 116.805 34.1103 116.763 33.9562L114.578 27.3167L112.393 33.9562C112.337 34.1103 112.253 34.2363 112.141 34.3344C112.043 34.4324 111.889 34.4814 111.678 34.4814H110.334ZM125.09 34.4814C124.95 34.4814 124.831 34.4324 124.733 34.3344C124.635 34.2363 124.586 34.1173 124.586 33.9772V24.06C124.586 23.9199 124.635 23.8008 124.733 23.7028C124.831 23.6047 124.95 23.5557 125.09 23.5557H126.813C126.953 23.5557 127.072 23.6047 127.17 23.7028C127.268 23.8008 127.317 23.9199 127.317 24.06V24.9214C127.681 24.4732 128.144 24.102 128.704 23.8078C129.278 23.4997 129.986 23.3456 130.826 23.3456C131.68 23.3456 132.423 23.5417 133.053 23.9339C133.684 24.3121 134.167 24.8514 134.503 25.5518C134.853 26.2521 135.028 27.0926 135.028 28.0731V33.9772C135.028 34.1173 134.979 34.2363 134.881 34.3344C134.783 34.4324 134.664 34.4814 134.524 34.4814H132.675C132.535 34.4814 132.416 34.4324 132.318 34.3344C132.22 34.2363 132.171 34.1173 132.171 33.9772V28.1991C132.171 27.3867 131.968 26.7494 131.561 26.2871C131.169 25.8249 130.595 25.5938 129.839 25.5938C129.11 25.5938 128.529 25.8249 128.095 26.2871C127.66 26.7494 127.443 27.3867 127.443 28.1991V33.9772C127.443 34.1173 127.394 34.2363 127.296 34.3344C127.198 34.4324 127.079 34.4814 126.939 34.4814H125.09ZM138.222 34.4814C138.082 34.4814 137.963 34.4324 137.865 34.3344C137.767 34.2363 137.718 34.1173 137.718 33.9772V20.0679C137.718 19.9278 137.767 19.8087 137.865 19.7107C137.963 19.6126 138.082 19.5636 138.222 19.5636H139.966C140.106 19.5636 140.225 19.6126 140.324 19.7107C140.422 19.8087 140.471 19.9278 140.471 20.0679V33.9772C140.471 34.1173 140.422 34.2363 140.324 34.3344C140.225 34.4324 140.106 34.4814 139.966 34.4814H138.222ZM148.09 34.6916C146.97 34.6916 146.024 34.4955 145.254 34.1032C144.497 33.711 143.916 33.1577 143.51 32.4434C143.118 31.729 142.894 30.8956 142.837 29.9431C142.823 29.6909 142.816 29.3828 142.816 29.0186C142.816 28.6544 142.823 28.3462 142.837 28.0941C142.894 27.1276 143.125 26.2941 143.531 25.5938C143.951 24.8794 144.539 24.3261 145.296 23.9339C146.066 23.5417 146.998 23.3456 148.09 23.3456C149.183 23.3456 150.107 23.5417 150.864 23.9339C151.634 24.3261 152.222 24.8794 152.629 25.5938C153.049 26.2941 153.287 27.1276 153.343 28.0941C153.357 28.3462 153.364 28.6544 153.364 29.0186C153.364 29.3828 153.357 29.6909 153.343 29.9431C153.287 30.8956 153.056 31.729 152.65 32.4434C152.257 33.1577 151.676 33.711 150.906 34.1032C150.149 34.4955 149.211 34.6916 148.09 34.6916ZM148.09 32.6115C148.833 32.6115 149.407 32.3803 149.813 31.9181C150.219 31.4418 150.443 30.7485 150.485 29.838C150.499 29.6279 150.507 29.3548 150.507 29.0186C150.507 28.6824 150.499 28.4093 150.485 28.1991C150.443 27.3027 150.219 26.6163 149.813 26.1401C149.407 25.6638 148.833 25.4257 148.09 25.4257C147.348 25.4257 146.774 25.6638 146.367 26.1401C145.961 26.6163 145.737 27.3027 145.695 28.1991C145.681 28.4093 145.674 28.6824 145.674 29.0186C145.674 29.3548 145.681 29.6279 145.695 29.838C145.737 30.7485 145.961 31.4418 146.367 31.9181C146.774 32.3803 147.348 32.6115 148.09 32.6115ZM158.865 34.6916C158.136 34.6916 157.478 34.5515 156.89 34.2713C156.301 33.9772 155.832 33.592 155.482 33.1157C155.146 32.6255 154.978 32.0792 154.978 31.4769C154.978 30.4964 155.37 29.7189 156.154 29.1446C156.953 28.5563 158.003 28.1641 159.306 27.968L162.184 27.5478V27.1066C162.184 26.5183 162.037 26.063 161.743 25.7409C161.449 25.4187 160.945 25.2576 160.23 25.2576C159.726 25.2576 159.313 25.3627 158.991 25.5728C158.683 25.7689 158.451 26.035 158.297 26.3712C158.185 26.5533 158.024 26.6443 157.814 26.6443H156.154C156 26.6443 155.881 26.6023 155.797 26.5183C155.727 26.4342 155.692 26.3222 155.692 26.1821C155.706 25.958 155.797 25.6848 155.965 25.3627C156.133 25.0405 156.399 24.7323 156.764 24.4382C157.128 24.13 157.597 23.8709 158.171 23.6608C158.746 23.4506 159.439 23.3456 160.251 23.3456C161.134 23.3456 161.876 23.4577 162.479 23.6818C163.095 23.8919 163.585 24.179 163.949 24.5432C164.313 24.9074 164.58 25.3346 164.748 25.8249C164.916 26.3152 165 26.8334 165 27.3797V33.9772C165 34.1173 164.951 34.2363 164.853 34.3344C164.755 34.4324 164.636 34.4814 164.496 34.4814H162.794C162.64 34.4814 162.514 34.4324 162.415 34.3344C162.331 34.2363 162.289 34.1173 162.289 33.9772V33.1577C162.107 33.4239 161.862 33.676 161.554 33.9141C161.246 34.1383 160.868 34.3274 160.419 34.4814C159.985 34.6215 159.467 34.6916 158.865 34.6916ZM159.579 32.6955C160.069 32.6955 160.51 32.5905 160.903 32.3803C161.309 32.1702 161.624 31.8481 161.848 31.4138C162.086 30.9656 162.205 30.4053 162.205 29.7329V29.2917L160.104 29.6279C159.278 29.754 158.662 29.9571 158.255 30.2372C157.849 30.5174 157.646 30.8605 157.646 31.2668C157.646 31.5749 157.737 31.8411 157.919 32.0652C158.115 32.2753 158.36 32.4364 158.655 32.5484C158.949 32.6465 159.257 32.6955 159.579 32.6955ZM171.75 34.6916C171.022 34.6916 170.378 34.5725 169.817 34.3344C169.271 34.0822 168.816 33.7321 168.452 33.2838C168.088 32.8356 167.807 32.3103 167.611 31.708C167.415 31.0917 167.303 30.4193 167.275 29.6909C167.261 29.4388 167.254 29.2147 167.254 29.0186C167.254 28.8085 167.261 28.5773 167.275 28.3252C167.303 27.6248 167.408 26.9735 167.59 26.3712C167.786 25.7689 168.067 25.2436 168.431 24.7954C168.809 24.3331 169.271 23.9759 169.817 23.7238C170.378 23.4717 171.022 23.3456 171.75 23.3456C172.507 23.3456 173.144 23.4787 173.662 23.7448C174.195 23.9969 174.636 24.3261 174.986 24.7323V20.0679C174.986 19.9278 175.028 19.8087 175.112 19.7107C175.21 19.6126 175.336 19.5636 175.49 19.5636H177.276C177.416 19.5636 177.536 19.6126 177.634 19.7107C177.732 19.8087 177.781 19.9278 177.781 20.0679V33.9772C177.781 34.1173 177.732 34.2363 177.634 34.3344C177.536 34.4324 177.416 34.4814 177.276 34.4814H175.617C175.462 34.4814 175.336 34.4324 175.238 34.3344C175.154 34.2363 175.112 34.1173 175.112 33.9772V33.1998C174.762 33.634 174.314 33.9912 173.768 34.2713C173.235 34.5515 172.563 34.6916 171.75 34.6916ZM172.528 32.4434C173.116 32.4434 173.585 32.3103 173.936 32.0442C174.286 31.778 174.545 31.4418 174.713 31.0356C174.881 30.6154 174.972 30.1882 174.986 29.754C175 29.5018 175.007 29.2357 175.007 28.9555C175.007 28.6614 175 28.3882 174.986 28.1361C174.972 27.7159 174.874 27.3167 174.692 26.9385C174.51 26.5463 174.244 26.2241 173.894 25.972C173.543 25.7198 173.088 25.5938 172.528 25.5938C171.94 25.5938 171.47 25.7268 171.12 25.993C170.784 26.2451 170.539 26.5813 170.385 27.0015C170.231 27.4217 170.14 27.884 170.112 28.3882C170.098 28.8085 170.098 29.2287 170.112 29.6489C170.14 30.1532 170.231 30.6154 170.385 31.0356C170.539 31.4559 170.784 31.799 171.12 32.0652C171.47 32.3173 171.94 32.4434 172.528 32.4434ZM190.215 34.6916C189.094 34.6916 188.149 34.4955 187.378 34.1032C186.622 33.711 186.041 33.1577 185.635 32.4434C185.242 31.729 185.018 30.8956 184.962 29.9431C184.948 29.6909 184.941 29.3828 184.941 29.0186C184.941 28.6544 184.948 28.3462 184.962 28.0941C185.018 27.1276 185.249 26.2941 185.656 25.5938C186.076 24.8794 186.664 24.3261 187.42 23.9339C188.191 23.5417 189.122 23.3456 190.215 23.3456C191.307 23.3456 192.232 23.5417 192.988 23.9339C193.759 24.3261 194.347 24.8794 194.753 25.5938C195.174 26.2941 195.412 27.1276 195.468 28.0941C195.482 28.3462 195.489 28.6544 195.489 29.0186C195.489 29.3828 195.482 29.6909 195.468 29.9431C195.412 30.8956 195.181 31.729 194.774 32.4434C194.382 33.1577 193.801 33.711 193.03 34.1032C192.274 34.4955 191.336 34.6916 190.215 34.6916ZM190.215 32.6115C190.957 32.6115 191.532 32.3803 191.938 31.9181C192.344 31.4418 192.568 30.7485 192.61 29.838C192.624 29.6279 192.631 29.3548 192.631 29.0186C192.631 28.6824 192.624 28.4093 192.61 28.1991C192.568 27.3027 192.344 26.6163 191.938 26.1401C191.532 25.6638 190.957 25.4257 190.215 25.4257C189.473 25.4257 188.898 25.6638 188.492 26.1401C188.086 26.6163 187.862 27.3027 187.82 28.1991C187.806 28.4093 187.799 28.6824 187.799 29.0186C187.799 29.3548 187.806 29.6279 187.82 29.838C187.862 30.7485 188.086 31.4418 188.492 31.9181C188.898 32.3803 189.473 32.6115 190.215 32.6115ZM198.321 34.4814C198.181 34.4814 198.062 34.4324 197.964 34.3344C197.866 34.2363 197.817 34.1173 197.817 33.9772V24.06C197.817 23.9199 197.866 23.8008 197.964 23.7028C198.062 23.6047 198.181 23.5557 198.321 23.5557H200.044C200.184 23.5557 200.303 23.6047 200.401 23.7028C200.499 23.8008 200.548 23.9199 200.548 24.06V24.9214C200.912 24.4732 201.375 24.102 201.935 23.8078C202.509 23.4997 203.216 23.3456 204.057 23.3456C204.911 23.3456 205.654 23.5417 206.284 23.9339C206.914 24.3121 207.398 24.8514 207.734 25.5518C208.084 26.2521 208.259 27.0926 208.259 28.0731V33.9772C208.259 34.1173 208.21 34.2363 208.112 34.3344C208.014 34.4324 207.895 34.4814 207.755 34.4814H205.906C205.766 34.4814 205.647 34.4324 205.549 34.3344C205.451 34.2363 205.402 34.1173 205.402 33.9772V28.1991C205.402 27.3867 205.199 26.7494 204.792 26.2871C204.4 25.8249 203.826 25.5938 203.069 25.5938C202.341 25.5938 201.76 25.8249 201.325 26.2871C200.891 26.7494 200.674 27.3867 200.674 28.1991V33.9772C200.674 34.1173 200.625 34.2363 200.527 34.3344C200.429 34.4324 200.31 34.4814 200.17 34.4814H198.321ZM220.236 34.4814C219.396 34.4814 218.688 34.3344 218.114 34.0402C217.54 33.7461 217.112 33.3118 216.832 32.7375C216.552 32.1492 216.412 31.4208 216.412 30.5524V25.7829H214.752C214.612 25.7829 214.493 25.7338 214.395 25.6358C214.297 25.5377 214.248 25.4187 214.248 25.2786V24.06C214.248 23.9199 214.297 23.8008 214.395 23.7028C214.493 23.6047 214.612 23.5557 214.752 23.5557H216.412V20.0679C216.412 19.9278 216.454 19.8087 216.538 19.7107C216.636 19.6126 216.762 19.5636 216.916 19.5636H218.618C218.758 19.5636 218.877 19.6126 218.975 19.7107C219.073 19.8087 219.122 19.9278 219.122 20.0679V23.5557H221.749C221.889 23.5557 222.008 23.6047 222.106 23.7028C222.204 23.8008 222.253 23.9199 222.253 24.06V25.2786C222.253 25.4187 222.204 25.5377 222.106 25.6358C222.008 25.7338 221.889 25.7829 221.749 25.7829H219.122V30.3423C219.122 30.9166 219.221 31.3648 219.417 31.687C219.627 32.0091 219.984 32.1702 220.488 32.1702H221.938C222.078 32.1702 222.197 32.2193 222.295 32.3173C222.393 32.4154 222.442 32.5344 222.442 32.6745V33.9772C222.442 34.1173 222.393 34.2363 222.295 34.3344C222.197 34.4324 222.078 34.4814 221.938 34.4814H220.236ZM224.831 34.4814C224.691 34.4814 224.572 34.4324 224.474 34.3344C224.376 34.2363 224.327 34.1173 224.327 33.9772V20.0679C224.327 19.9278 224.376 19.8087 224.474 19.7107C224.572 19.6126 224.691 19.5636 224.831 19.5636H226.701C226.855 19.5636 226.975 19.6126 227.059 19.7107C227.157 19.8087 227.206 19.9278 227.206 20.0679V24.8584C227.584 24.4102 228.046 24.046 228.592 23.7658C229.139 23.4857 229.811 23.3456 230.609 23.3456C231.464 23.3456 232.206 23.5417 232.837 23.9339C233.481 24.3121 233.978 24.8514 234.328 25.5518C234.679 26.2521 234.854 27.0926 234.854 28.0731V33.9772C234.854 34.1173 234.805 34.2363 234.707 34.3344C234.609 34.4324 234.49 34.4814 234.349 34.4814H232.458C232.318 34.4814 232.199 34.4324 232.101 34.3344C232.003 34.2363 231.954 34.1173 231.954 33.9772V28.1991C231.954 27.3867 231.751 26.7494 231.345 26.2871C230.953 25.8249 230.378 25.5938 229.622 25.5938C228.894 25.5938 228.305 25.8249 227.857 26.2871C227.423 26.7494 227.206 27.3867 227.206 28.1991V33.9772C227.206 34.1173 227.157 34.2363 227.059 34.3344C226.975 34.4324 226.855 34.4814 226.701 34.4814H224.831ZM242.227 34.6916C240.672 34.6916 239.439 34.2433 238.529 33.3468C237.618 32.4504 237.128 31.1757 237.058 29.5228C237.044 29.3828 237.037 29.2077 237.037 28.9976C237.037 28.7734 237.044 28.5984 237.058 28.4723C237.114 27.4217 237.352 26.5113 237.772 25.7409C238.206 24.9704 238.802 24.3821 239.558 23.9759C240.315 23.5557 241.204 23.3456 242.227 23.3456C243.361 23.3456 244.314 23.5837 245.084 24.06C245.855 24.5222 246.436 25.1736 246.828 26.014C247.22 26.8404 247.416 27.7999 247.416 28.8925V29.3337C247.416 29.4738 247.367 29.5929 247.269 29.6909C247.171 29.789 247.045 29.838 246.891 29.838H239.915C239.915 29.838 239.915 29.859 239.915 29.901C239.915 29.9431 239.915 29.9781 239.915 30.0061C239.929 30.4964 240.02 30.9516 240.189 31.3718C240.371 31.778 240.63 32.1072 240.966 32.3593C241.316 32.6115 241.729 32.7375 242.206 32.7375C242.598 32.7375 242.927 32.6815 243.193 32.5694C243.459 32.4434 243.676 32.3033 243.844 32.1492C244.013 31.9951 244.132 31.8691 244.202 31.771C244.328 31.6029 244.426 31.5049 244.496 31.4769C244.58 31.4348 244.699 31.4138 244.853 31.4138H246.66C246.8 31.4138 246.912 31.4559 246.996 31.5399C247.094 31.6239 247.136 31.729 247.122 31.8551C247.108 32.0792 246.989 32.3523 246.765 32.6745C246.555 32.9967 246.247 33.3118 245.84 33.62C245.434 33.9282 244.923 34.1873 244.307 34.3974C243.704 34.5935 243.011 34.6916 242.227 34.6916ZM239.915 28.0731H244.559V28.01C244.559 27.4638 244.468 26.9875 244.286 26.5813C244.104 26.1751 243.837 25.8529 243.487 25.6148C243.137 25.3767 242.717 25.2576 242.227 25.2576C241.736 25.2576 241.316 25.3767 240.966 25.6148C240.616 25.8529 240.35 26.1751 240.168 26.5813C239.999 26.9875 239.915 27.4638 239.915 28.01V28.0731Z" fill="white"/>
<path d="M80.6221 74.4395C80.3846 74.4395 80.162 74.3504 79.9542 74.1723C79.776 73.9941 79.687 73.7715 79.687 73.5043C79.687 73.3855 79.7167 73.2519 79.776 73.1035L90.5081 44.3807C90.5972 44.0839 90.7605 43.8315 90.998 43.6237C91.2651 43.3862 91.6214 43.2675 92.0667 43.2675H96.9206C97.366 43.2675 97.7074 43.3862 97.9449 43.6237C98.1824 43.8315 98.3605 44.0839 98.4792 44.3807L109.211 73.1035C109.241 73.2519 109.256 73.3855 109.256 73.5043C109.256 73.7715 109.167 73.9941 108.989 74.1723C108.811 74.3504 108.603 74.4395 108.365 74.4395H104.491C104.075 74.4395 103.764 74.3504 103.556 74.1723C103.378 73.9645 103.259 73.7715 103.2 73.5934L101.107 68.1605H87.8808L85.7878 73.5934C85.7284 73.7715 85.5948 73.9645 85.387 74.1723C85.2089 74.3504 84.912 74.4395 84.4964 74.4395H80.6221ZM89.4394 63.0394H99.548L94.4714 49.2792L89.4394 63.0394ZM110.875 82.9004C110.578 82.9004 110.326 82.7965 110.118 82.5887C109.91 82.3809 109.806 82.1285 109.806 81.8317V52.3519C109.806 52.055 109.91 51.8026 110.118 51.5948C110.326 51.387 110.578 51.2831 110.875 51.2831H114.393C114.72 51.2831 114.972 51.387 115.15 51.5948C115.358 51.8026 115.462 52.055 115.462 52.3519V54.1331C116.174 53.1831 117.109 52.3964 118.267 51.773C119.425 51.1495 120.865 50.8378 122.587 50.8378C124.16 50.8378 125.526 51.0901 126.684 51.5948C127.841 52.0995 128.806 52.8269 129.578 53.7769C130.35 54.6972 130.944 55.7956 131.359 57.0722C131.775 58.3488 132.013 59.7589 132.072 61.3027C132.102 61.8074 132.116 62.3269 132.116 62.8613C132.116 63.3957 132.102 63.93 132.072 64.4644C132.042 65.9488 131.82 67.3293 131.404 68.6058C130.988 69.8527 130.38 70.9512 129.578 71.9012C128.806 72.8215 127.841 73.5488 126.684 74.0832C125.526 74.6176 124.16 74.8848 122.587 74.8848C120.984 74.8848 119.618 74.6027 118.49 74.0387C117.362 73.4449 116.441 72.673 115.729 71.723V81.8317C115.729 82.1285 115.625 82.3809 115.417 82.5887C115.239 82.7965 114.987 82.9004 114.66 82.9004H110.875ZM120.939 70.1199C122.216 70.1199 123.21 69.8527 123.923 69.3183C124.635 68.7543 125.14 68.0269 125.437 67.1363C125.763 66.2457 125.956 65.266 126.016 64.1972C126.075 63.3066 126.075 62.416 126.016 61.5253C125.956 60.4566 125.763 59.4769 125.437 58.5863C125.14 57.6956 124.635 56.9831 123.923 56.4488C123.21 55.8847 122.216 55.6027 120.939 55.6027C119.722 55.6027 118.727 55.8847 117.955 56.4488C117.213 57.0128 116.664 57.7402 116.308 58.6308C115.981 59.4917 115.788 60.3824 115.729 61.3027C115.699 61.8371 115.684 62.4011 115.684 62.9949C115.684 63.5886 115.699 64.1675 115.729 64.7316C115.759 65.6222 115.966 66.4832 116.352 67.3144C116.738 68.116 117.302 68.784 118.045 69.3183C118.787 69.8527 119.752 70.1199 120.939 70.1199ZM135.112 82.9004C134.815 82.9004 134.562 82.7965 134.355 82.5887C134.147 82.3809 134.043 82.1285 134.043 81.8317V52.3519C134.043 52.055 134.147 51.8026 134.355 51.5948C134.562 51.387 134.815 51.2831 135.112 51.2831H138.63C138.956 51.2831 139.208 51.387 139.387 51.5948C139.594 51.8026 139.698 52.055 139.698 52.3519V54.1331C140.411 53.1831 141.346 52.3964 142.504 51.773C143.662 51.1495 145.101 50.8378 146.823 50.8378C148.397 50.8378 149.762 51.0901 150.92 51.5948C152.078 52.0995 153.043 52.8269 153.815 53.7769C154.587 54.6972 155.18 55.7956 155.596 57.0722C156.012 58.3488 156.249 59.7589 156.309 61.3027C156.338 61.8074 156.353 62.3269 156.353 62.8613C156.353 63.3957 156.338 63.93 156.309 64.4644C156.279 65.9488 156.056 67.3293 155.641 68.6058C155.225 69.8527 154.616 70.9512 153.815 71.9012C153.043 72.8215 152.078 73.5488 150.92 74.0832C149.762 74.6176 148.397 74.8848 146.823 74.8848C145.22 74.8848 143.855 74.6027 142.726 74.0387C141.598 73.4449 140.678 72.673 139.965 71.723V81.8317C139.965 82.1285 139.862 82.3809 139.654 82.5887C139.476 82.7965 139.223 82.9004 138.897 82.9004H135.112ZM145.176 70.1199C146.452 70.1199 147.447 69.8527 148.159 69.3183C148.872 68.7543 149.376 68.0269 149.673 67.1363C150 66.2457 150.193 65.266 150.252 64.1972C150.312 63.3066 150.312 62.416 150.252 61.5253C150.193 60.4566 150 59.4769 149.673 58.5863C149.376 57.6956 148.872 56.9831 148.159 56.4488C147.447 55.8847 146.452 55.6027 145.176 55.6027C143.958 55.6027 142.964 55.8847 142.192 56.4488C141.45 57.0128 140.901 57.7402 140.544 58.6308C140.218 59.4917 140.025 60.3824 139.965 61.3027C139.936 61.8371 139.921 62.4011 139.921 62.9949C139.921 63.5886 139.936 64.1675 139.965 64.7316C139.995 65.6222 140.203 66.4832 140.589 67.3144C140.975 68.116 141.539 68.784 142.281 69.3183C143.023 69.8527 143.988 70.1199 145.176 70.1199ZM176.649 74.8848C173.888 74.8848 171.573 74.484 169.702 73.6824C167.862 72.8512 166.452 71.7824 165.472 70.4762C164.522 69.1402 164.017 67.7449 163.958 66.2902C163.958 66.023 164.047 65.8004 164.225 65.6222C164.403 65.4441 164.626 65.355 164.893 65.355H168.856C169.242 65.355 169.524 65.4441 169.702 65.6222C169.91 65.7707 170.088 65.9636 170.237 66.2011C170.415 66.7652 170.756 67.3293 171.261 67.8933C171.766 68.4277 172.448 68.873 173.309 69.2293C174.2 69.5855 175.313 69.7637 176.649 69.7637C178.787 69.7637 180.375 69.4074 181.414 68.6949C182.483 67.9824 183.017 67.0175 183.017 65.8004C183.017 64.9394 182.735 64.2566 182.171 63.7519C181.607 63.2175 180.731 62.7425 179.544 62.3269C178.386 61.8816 176.842 61.4214 174.913 60.9464C172.686 60.4121 170.816 59.7738 169.302 59.0316C167.817 58.2597 166.689 57.2949 165.917 56.137C165.175 54.9792 164.804 53.5097 164.804 51.7284C164.804 50.0065 165.264 48.4776 166.184 47.1417C167.134 45.8057 168.47 44.7518 170.192 43.98C171.944 43.2081 174.022 42.8221 176.427 42.8221C178.356 42.8221 180.063 43.0893 181.548 43.6237C183.032 44.1284 184.264 44.8112 185.244 45.6722C186.224 46.5034 186.966 47.4089 187.47 48.3886C188.005 49.3386 188.287 50.2737 188.317 51.1941C188.317 51.4316 188.227 51.6542 188.049 51.862C187.901 52.0401 187.678 52.1292 187.381 52.1292H183.24C183.002 52.1292 182.765 52.0698 182.527 51.9511C182.29 51.8323 182.097 51.6097 181.949 51.2831C181.77 50.3628 181.191 49.5761 180.212 48.9229C179.232 48.2698 177.97 47.9433 176.427 47.9433C174.823 47.9433 173.532 48.2401 172.552 48.8339C171.573 49.4276 171.083 50.348 171.083 51.5948C171.083 52.4261 171.32 53.1237 171.795 53.6878C172.3 54.2222 173.087 54.6972 174.156 55.1128C175.254 55.5284 176.694 55.9738 178.475 56.4488C180.999 57.0128 183.062 57.666 184.665 58.4081C186.268 59.1503 187.441 60.1003 188.183 61.2582C188.925 62.3863 189.296 63.8261 189.296 65.5777C189.296 67.5371 188.762 69.2144 187.693 70.6098C186.654 71.9754 185.184 73.0293 183.284 73.7715C181.384 74.5137 179.173 74.8848 176.649 74.8848ZM201.213 74.4395C199.432 74.4395 197.932 74.1277 196.715 73.5043C195.498 72.8809 194.593 71.9605 193.999 70.7433C193.405 69.4965 193.108 67.9527 193.108 66.1121V56.0034H189.59C189.293 56.0034 189.041 55.8995 188.833 55.6917C188.625 55.4839 188.521 55.2316 188.521 54.9347V52.3519C188.521 52.055 188.625 51.8026 188.833 51.5948C189.041 51.387 189.293 51.2831 189.59 51.2831H193.108V43.8909C193.108 43.594 193.197 43.3417 193.375 43.1339C193.583 42.926 193.85 42.8221 194.177 42.8221H197.784C198.081 42.8221 198.333 42.926 198.541 43.1339C198.749 43.3417 198.853 43.594 198.853 43.8909V51.2831H204.419C204.716 51.2831 204.968 51.387 205.176 51.5948C205.384 51.8026 205.488 52.055 205.488 52.3519V54.9347C205.488 55.2316 205.384 55.4839 205.176 55.6917C204.968 55.8995 204.716 56.0034 204.419 56.0034H198.853V65.6668C198.853 66.884 199.061 67.834 199.476 68.5168C199.921 69.1996 200.679 69.541 201.747 69.541H204.82C205.117 69.541 205.369 69.6449 205.577 69.8527C205.785 70.0605 205.889 70.3129 205.889 70.6098V73.3707C205.889 73.6676 205.785 73.9199 205.577 74.1277C205.369 74.3355 205.117 74.4395 204.82 74.4395H201.213ZM216.964 74.8848C214.589 74.8848 212.585 74.4691 210.952 73.6379C209.349 72.8066 208.117 71.634 207.256 70.1199C206.425 68.6058 205.95 66.8394 205.831 64.8207C205.802 64.2863 205.787 63.6332 205.787 62.8613C205.787 62.0894 205.802 61.4363 205.831 60.9019C205.95 58.8535 206.44 57.087 207.301 55.6027C208.191 54.0886 209.438 52.9159 211.041 52.0847C212.674 51.2534 214.648 50.8378 216.964 50.8378C219.28 50.8378 221.239 51.2534 222.842 52.0847C224.475 52.9159 225.722 54.0886 226.583 55.6027C227.474 57.087 227.978 58.8535 228.097 60.9019C228.127 61.4363 228.142 62.0894 228.142 62.8613C228.142 63.6332 228.127 64.2863 228.097 64.8207C227.978 66.8394 227.488 68.6058 226.627 70.1199C225.796 71.634 224.564 72.8066 222.931 73.6379C221.328 74.4691 219.339 74.8848 216.964 74.8848ZM216.964 70.4762C218.538 70.4762 219.755 69.9863 220.616 69.0066C221.477 67.9972 221.952 66.5277 222.041 64.598C222.07 64.1527 222.085 63.5738 222.085 62.8613C222.085 62.1488 222.07 61.5699 222.041 61.1246C221.952 59.2246 221.477 57.7699 220.616 56.7605C219.755 55.7511 218.538 55.2464 216.964 55.2464C215.391 55.2464 214.173 55.7511 213.313 56.7605C212.452 57.7699 211.977 59.2246 211.888 61.1246C211.858 61.5699 211.843 62.1488 211.843 62.8613C211.843 63.5738 211.858 64.1527 211.888 64.598C211.977 66.5277 212.452 67.9972 213.313 69.0066C214.173 69.9863 215.391 70.4762 216.964 70.4762ZM231.027 74.4395C230.73 74.4395 230.478 74.3355 230.27 74.1277C230.062 73.9199 229.958 73.6676 229.958 73.3707V52.3964C229.958 52.0698 230.062 51.8026 230.27 51.5948C230.478 51.387 230.73 51.2831 231.027 51.2831H234.634C234.931 51.2831 235.183 51.387 235.391 51.5948C235.629 51.8026 235.747 52.0698 235.747 52.3964V54.2222C236.43 53.2722 237.306 52.5448 238.375 52.0401C239.473 51.5355 240.735 51.2831 242.16 51.2831H243.986C244.312 51.2831 244.565 51.387 244.743 51.5948C244.951 51.8026 245.054 52.055 245.054 52.3519V55.5581C245.054 55.855 244.951 56.1074 244.743 56.3152C244.565 56.523 244.312 56.6269 243.986 56.6269H240.512C239.087 56.6269 237.974 57.0277 237.172 57.8292C236.4 58.6308 236.015 59.7292 236.015 61.1246V73.3707C236.015 73.6676 235.911 73.9199 235.703 74.1277C235.495 74.3355 235.228 74.4395 234.901 74.4395H231.027ZM255.081 74.8848C251.786 74.8848 249.173 73.9348 247.243 72.0348C245.314 70.1347 244.275 67.4332 244.126 63.93C244.097 63.6332 244.082 63.2621 244.082 62.8168C244.082 62.3417 244.097 61.9707 244.126 61.7035C244.245 59.4769 244.75 57.5472 245.64 55.9144C246.561 54.2816 247.822 53.0347 249.425 52.1737C251.029 51.2831 252.914 50.8378 255.081 50.8378C257.486 50.8378 259.504 51.3425 261.137 52.3519C262.77 53.3316 264.002 54.712 264.833 56.4933C265.665 58.2449 266.08 60.2785 266.08 62.5941V63.5293C266.08 63.8261 265.976 64.0785 265.768 64.2863C265.561 64.4941 265.293 64.598 264.967 64.598H250.182C250.182 64.598 250.182 64.6425 250.182 64.7316C250.182 64.8207 250.182 64.8949 250.182 64.9543C250.212 65.9933 250.405 66.9582 250.761 67.8488C251.147 68.7097 251.697 69.4074 252.409 69.9418C253.151 70.4762 254.027 70.7433 255.036 70.7433C255.868 70.7433 256.565 70.6246 257.129 70.3871C257.693 70.1199 258.154 69.823 258.51 69.4965C258.866 69.1699 259.118 68.9027 259.267 68.6949C259.534 68.3386 259.742 68.1308 259.89 68.0715C260.068 67.9824 260.321 67.9379 260.647 67.9379H264.477C264.774 67.9379 265.011 68.0269 265.19 68.2051C265.397 68.3832 265.486 68.6058 265.457 68.873C265.427 69.348 265.175 69.9269 264.7 70.6098C264.254 71.2926 263.601 71.9605 262.74 72.6137C261.879 73.2668 260.796 73.816 259.49 74.2613C258.213 74.677 256.743 74.8848 255.081 74.8848ZM250.182 60.8574H260.024V60.7238C260.024 59.566 259.831 58.5566 259.445 57.6956C259.059 56.8347 258.495 56.1519 257.753 55.6472C257.011 55.1425 256.12 54.8902 255.081 54.8902C254.042 54.8902 253.151 55.1425 252.409 55.6472C251.667 56.1519 251.103 56.8347 250.717 57.6956C250.361 58.5566 250.182 59.566 250.182 60.7238V60.8574Z" fill="white"/>
</svg>
