<svg width="35" height="38" viewBox="0 0 35 38" fill="none" xmlns="http://www.w3.org/2000/svg">
<path fill-rule="evenodd" clip-rule="evenodd" d="M23.093 35.4056C26.3996 34.4777 29.8616 34.0096 33.2199 33.5807C33.9433 33.4908 34.6148 33.9925 34.6665 34.6993C34.7698 35.4066 34.2529 36.0535 33.5812 36.1434C30.3262 36.5562 26.9682 36.998 23.8165 37.8913C23.1448 38.085 22.4212 37.6862 22.2145 37C22.0079 36.3144 22.4213 35.5999 23.093 35.4056Z" fill="#018ED5"/>
<path fill-rule="evenodd" clip-rule="evenodd" d="M13.0703 22.2499C18.392 16.8192 24.3853 12.0876 29.6036 6.5112C30.0686 5.9904 30.8953 5.9625 31.412 6.44868C31.9286 6.93538 31.9801 7.75378 31.4634 8.27458C26.2451 13.867 20.2518 18.6141 14.9301 24.0608C14.4134 24.5692 13.587 24.5764 13.0703 24.0763C12.6053 23.5767 12.5536 22.7583 13.0703 22.2499Z" fill="#018ED5"/>
<path fill-rule="evenodd" clip-rule="evenodd" d="M3.09829 1.36181C2.94329 4.47008 2.7886 7.57834 2.6336 10.6871C2.6336 11.3991 2.01329 11.9488 1.28996 11.9142C0.566628 11.8791 0.0502639 11.273 0.0502639 10.5605C0.205264 7.44711 0.359961 4.33419 0.514961 1.22127C0.566628 0.509308 1.18673 -0.036809 1.91006 0.00194103C2.58173 0.040691 3.14996 0.65036 3.09829 1.36181Z" fill="#018ED5"/>
</svg>
