<svg width="107" height="107" viewBox="0 0 107 107" fill="none" xmlns="http://www.w3.org/2000/svg">
<path d="M102.316 8.40113C100.066 8.40113 98.2323 6.56757 98.2323 4.31727C98.2323 2.06698 100.066 0.233398 102.316 0.233398C104.566 0.233398 106.4 2.06698 106.4 4.31727C106.4 6.58146 104.566 8.40113 102.316 8.40113ZM106.4 28.751C106.4 26.5007 104.566 24.6672 102.316 24.6672C100.066 24.6672 98.2323 26.5007 98.2323 28.751C98.2323 31.0013 100.066 32.8349 102.316 32.8349C104.566 32.8349 106.4 31.0152 106.4 28.751ZM106.4 53.1848C106.4 50.9345 104.566 49.1009 102.316 49.1009C100.066 49.1009 98.2323 50.9345 98.2323 53.1848C98.2323 55.4351 100.066 57.2687 102.316 57.2687C104.566 57.2825 106.4 55.449 106.4 53.1848ZM106.4 77.6324C106.4 75.3821 104.566 73.5486 102.316 73.5486C100.066 73.5486 98.2323 75.3821 98.2323 77.6324C98.2323 79.8827 100.066 81.7163 102.316 81.7163C104.566 81.7163 106.4 79.8827 106.4 77.6324ZM106.4 102.066C106.4 99.8159 104.566 97.9823 102.316 97.9823C100.066 97.9823 98.2323 99.8159 98.2323 102.066C98.2323 104.316 100.066 106.15 102.316 106.15C104.566 106.15 106.4 104.316 106.4 102.066ZM81.9663 4.31727C81.9663 2.06698 80.1327 0.233398 77.8824 0.233398C75.6321 0.233398 73.7985 2.06698 73.7985 4.31727C73.7985 6.56757 75.6321 8.40113 77.8824 8.40113C80.1327 8.40113 81.9663 6.58146 81.9663 4.31727ZM81.9663 28.751C81.9663 26.5007 80.1327 24.6672 77.8824 24.6672C75.6321 24.6672 73.7985 26.5007 73.7985 28.751C73.7985 31.0013 75.6321 32.8349 77.8824 32.8349C80.1327 32.8349 81.9663 31.0152 81.9663 28.751ZM81.9663 53.1848C81.9663 50.9345 80.1327 49.1009 77.8824 49.1009C75.6321 49.1009 73.7985 50.9345 73.7985 53.1848C73.7985 55.4351 75.6321 57.2687 77.8824 57.2687C80.1327 57.2825 81.9663 55.449 81.9663 53.1848ZM81.9663 77.6324C81.9663 75.3821 80.1327 73.5486 77.8824 73.5486C75.6321 73.5486 73.7985 75.3821 73.7985 77.6324C73.7985 79.8827 75.6321 81.7163 77.8824 81.7163C80.1327 81.7163 81.9663 79.8827 81.9663 77.6324ZM81.9663 102.066C81.9663 99.8159 80.1327 97.9823 77.8824 97.9823C75.6321 97.9823 73.7985 99.8159 73.7985 102.066C73.7985 104.316 75.6321 106.15 77.8824 106.15C80.1327 106.15 81.9663 104.316 81.9663 102.066ZM57.5187 4.31727C57.5187 2.06698 55.6851 0.233398 53.4348 0.233398C51.1845 0.233398 49.3509 2.06698 49.3509 4.31727C49.3509 6.56757 51.1845 8.40113 53.4348 8.40113C55.699 8.40113 57.5187 6.58146 57.5187 4.31727ZM57.5187 28.751C57.5187 26.5007 55.6851 24.6672 53.4348 24.6672C51.1845 24.6672 49.3509 26.5007 49.3509 28.751C49.3509 31.0013 51.1845 32.8349 53.4348 32.8349C55.699 32.8349 57.5187 31.0152 57.5187 28.751ZM57.5187 53.1848C57.5187 50.9345 55.6851 49.1009 53.4348 49.1009C51.1845 49.1009 49.3509 50.9345 49.3509 53.1848C49.3509 55.4351 51.1845 57.2687 53.4348 57.2687C55.699 57.2825 57.5187 55.449 57.5187 53.1848ZM57.5187 77.6324C57.5187 75.3821 55.6851 73.5486 53.4348 73.5486C51.1845 73.5486 49.3509 75.3821 49.3509 77.6324C49.3509 79.8827 51.1845 81.7163 53.4348 81.7163C55.699 81.7163 57.5187 79.8827 57.5187 77.6324ZM57.5187 102.066C57.5187 99.8159 55.6851 97.9823 53.4348 97.9823C51.1845 97.9823 49.3509 99.8159 49.3509 102.066C49.3509 104.316 51.1845 106.15 53.4348 106.15C55.699 106.15 57.5187 104.316 57.5187 102.066ZM33.0849 4.31727C33.0849 2.06698 31.2513 0.233398 29.001 0.233398C26.7507 0.233398 24.9172 2.06698 24.9172 4.31727C24.9172 6.56757 26.7507 8.40113 29.001 8.40113C31.2652 8.40113 33.0849 6.58146 33.0849 4.31727ZM33.0849 28.751C33.0849 26.5007 31.2513 24.6672 29.001 24.6672C26.7507 24.6672 24.9172 26.5007 24.9172 28.751C24.9172 31.0013 26.7507 32.8349 29.001 32.8349C31.2652 32.8349 33.0849 31.0152 33.0849 28.751ZM33.0849 53.1848C33.0849 50.9345 31.2513 49.1009 29.001 49.1009C26.7507 49.1009 24.9172 50.9345 24.9172 53.1848C24.9172 55.4351 26.7507 57.2687 29.001 57.2687C31.2652 57.2825 33.0849 55.449 33.0849 53.1848ZM33.0849 77.6324C33.0849 75.3821 31.2513 73.5486 29.001 73.5486C26.7507 73.5486 24.9172 75.3821 24.9172 77.6324C24.9172 79.8827 26.7507 81.7163 29.001 81.7163C31.2652 81.7163 33.0849 79.8827 33.0849 77.6324ZM33.0849 102.066C33.0849 99.8159 31.2513 97.9823 29.001 97.9823C26.7507 97.9823 24.9172 99.8159 24.9172 102.066C24.9172 104.316 26.7507 106.15 29.001 106.15C31.2652 106.15 33.0849 104.316 33.0849 102.066ZM8.65114 4.31727C8.65114 2.06698 6.81757 0.233398 4.56727 0.233398C2.31698 0.233398 0.483398 2.06698 0.483398 4.31727C0.483398 6.56757 2.31698 8.40113 4.56727 8.40113C6.81757 8.40113 8.65114 6.58146 8.65114 4.31727ZM8.65114 28.751C8.65114 26.5007 6.81757 24.6672 4.56727 24.6672C2.31698 24.6672 0.483398 26.5007 0.483398 28.751C0.483398 31.0013 2.31698 32.8349 4.56727 32.8349C6.81757 32.8349 8.65114 31.0152 8.65114 28.751ZM8.65114 53.1848C8.65114 50.9345 6.81757 49.1009 4.56727 49.1009C2.31698 49.1009 0.483398 50.9345 0.483398 53.1848C0.483398 55.4351 2.31698 57.2687 4.56727 57.2687C6.81757 57.2687 8.65114 55.449 8.65114 53.1848ZM8.65114 77.6324C8.65114 75.3821 6.81757 73.5486 4.56727 73.5486C2.31698 73.5486 0.483398 75.3821 0.483398 77.6324C0.483398 79.8827 2.31698 81.7163 4.56727 81.7163C6.81757 81.7163 8.65114 79.8827 8.65114 77.6324ZM8.65114 102.066C8.65114 99.8159 6.81757 97.9823 4.56727 97.9823C2.31698 97.9823 0.483398 99.8159 0.483398 102.066C0.483398 104.316 2.31698 106.15 4.56727 106.15C6.81757 106.15 8.65114 104.316 8.65114 102.066Z" fill="#018ED5"/>
</svg>
