<svg width="156" height="19" viewBox="0 0 156 19" fill="none" xmlns="http://www.w3.org/2000/svg">
<path fill-rule="evenodd" clip-rule="evenodd" d="M58.2231 4.85399C57.2603 4.98811 56.3023 5.13502 55.3488 5.29564C55.0017 5.354 54.7693 5.68013 54.8286 6.02358L54.8321 6.03717C49.7482 5.76482 44.662 5.54055 39.5748 5.36573C32.2259 5.11345 24.8185 5.03014 17.4656 5.19493C10.1993 5.35773 8.1927 5.38985 1.90282 6.07715C1.72295 6.09679 1.38043 6.07052 1.19251 6.10854C1.01382 6.14462 0.882414 6.22025 0.796041 6.29728C0.685482 6.39486 0.617667 6.51141 0.583274 6.64181C0.546592 6.78397 0.542209 6.96053 0.653242 7.16595C0.966672 7.74266 1.52516 7.93444 2.22738 7.86719C2.83159 7.80923 3.57841 7.50526 4.14696 7.50473C13.6116 7.49667 23.0751 7.41471 32.5397 7.42024C47.0291 7.42879 61.4375 7.9688 75.8346 8.70066C90.9405 9.901 106.01 11.5111 121.027 13.498C130.808 14.7916 140.547 16.3742 150.302 17.846C150.292 17.8882 150.288 17.9328 150.286 17.9784C150.284 18.3268 150.568 18.6125 150.919 18.6161C151.276 18.6198 154.449 18.7544 155.042 18.6531C155.382 18.5951 155.527 18.3999 155.577 18.3154C155.711 18.0837 155.736 17.8233 155.492 17.5559C155.443 17.5045 155.352 17.4188 155.178 17.3558C155.029 17.3009 154.656 17.2185 153.976 17.1186C143.047 15.5068 132.146 13.6962 121.194 12.2464C116.304 11.6002 111.409 10.9928 106.507 10.4276C113.187 10.8135 119.87 11.188 126.568 11.518C126.856 11.533 126.999 11.4966 127.026 11.4875C127.404 11.3564 127.449 11.0709 127.454 10.9076C127.456 10.8493 127.44 10.3662 126.906 10.2608C126.594 10.1989 124.321 9.96101 123.448 9.85308C119.253 9.33064 119.349 9.37296 115.054 8.87443C105.611 7.7794 96.1715 6.82793 86.7031 5.92898C82.9279 5.5707 79.1517 5.23024 75.3731 4.90932C86.338 4.76053 97.4611 5.5842 108.072 6.22022C113.546 6.54845 119.018 6.91048 124.483 7.36684C126.931 7.57131 129.375 7.81642 131.821 8.03299C132.581 8.1002 133.338 8.18488 134.097 8.25653C134.187 8.26493 135.366 8.35788 135.559 8.36737C136.067 8.39227 136.215 7.95371 136.221 7.93612C136.248 7.85357 136.374 7.2583 135.751 7.12107C126.751 5.13805 117.194 4.77843 108.023 3.91108C91.9725 2.39295 75.8461 1.33617 59.7343 0.694753C52.6079 0.410985 45.4877 0.366366 38.3549 0.31854C34.7924 0.294687 31.2197 0.283729 27.6682 0.589022C27.3119 0.619733 26.5092 0.620454 26.1171 0.659021C25.9177 0.67876 25.7736 0.721946 25.7067 0.75365C25.414 0.891072 25.3417 1.11852 25.3258 1.28045C25.3145 1.40184 25.3105 1.83183 25.8817 2.00363C34.0424 4.46095 43.3286 3.90607 51.7539 4.4302C53.9107 4.56435 56.0663 4.70568 58.2231 4.85399ZM65.2437 5.36119C62.7196 5.56268 60.2151 5.83669 57.7397 6.19844C63.8074 6.54545 69.8707 6.96076 75.9318 7.44253C85.9508 7.95184 95.9631 8.55366 105.989 9.13356C99.5288 8.44013 93.0626 7.80037 86.5839 7.18538C79.4777 6.5107 72.3635 5.89952 65.2437 5.36119ZM100.145 4.46986C86.6828 3.32178 73.1793 2.49288 59.6867 1.95577C52.573 1.67258 45.4678 1.62831 38.3488 1.58061C35.5475 1.56183 32.7381 1.55002 29.9394 1.6981C37.0467 3.07868 44.7476 2.72991 51.8315 3.17068C56.3054 3.44902 60.7793 3.7582 65.2498 4.09604C76.7405 3.19134 88.6371 3.7726 100.145 4.46986Z" fill="currentColor"/>
</svg>
